M48
; DRILL file {KiCad 7.0.9} date Sun 10 Dec 2023 05:50:22 PM MST
; FORMAT={-:-/ absolute / metric / decimal}
; #@! TF.CreationDate,2023-12-10T17:50:22-07:00
; #@! TF.GenerationSoftware,Kicad,Pcbnew,7.0.9
; #@! TF.FileFunction,Plated,1,2,PTH
FMAT,2
METRIC
; #@! TA.AperFunction,Plated,PTH,ViaDrill
T1C0.300
; #@! TA.AperFunction,Plated,PTH,ComponentDrill
T2C0.300
; #@! TA.AperFunction,Plated,PTH,ViaDrill
T3C0.500
%
G90
G05
T1
X67.126Y-139.111
X67.776Y-117.461
X68.226Y-123.611
X69.476Y-121.661
X69.726Y-134.161
X70.626Y-113.261
X70.626Y-114.161
X70.726Y-111.761
X70.976Y-115.211
X71.476Y-117.461
X72.626Y-123.111
X72.953Y-112.54
X73.076Y-115.411
X73.426Y-117.511
X73.724Y-113.02
X73.776Y-120.311
X74.476Y-147.661
X74.726Y-111.361
X74.726Y-113.061
X74.926Y-126.361
X75.026Y-116.261
X75.126Y-115.261
X75.276Y-136.311
X75.726Y-113.061
X75.726Y-126.461
X75.926Y-139.561
X76.376Y-144.411
X76.424Y-109.58
X76.426Y-115.311
X76.454Y-110.561
X76.52Y-111.815
X76.52Y-112.808
X76.826Y-126.011
X77.376Y-121.861
X77.376Y-124.061
X79.126Y-112.511
X79.526Y-133.111
X79.776Y-132.261
X80.226Y-118.761
X80.226Y-128.711
X80.326Y-113.761
X80.526Y-115.011
X80.926Y-134.161
X81.076Y-116.311
X81.576Y-127.711
X81.776Y-109.961
X81.776Y-141.161
X82.076Y-130.261
X82.126Y-117.061
X82.226Y-132.711
X82.726Y-122.361
X83.176Y-119.511
X83.476Y-138.411
X83.526Y-118.061
X83.526Y-124.211
X83.626Y-115.811
X84.226Y-133.711
T2
X73.715Y-129.433
X73.715Y-130.433
X73.715Y-131.433
X74.715Y-129.433
X74.715Y-130.433
X74.715Y-131.433
X75.715Y-129.433
X75.715Y-130.433
X75.715Y-131.433
T3
X70.066Y-137.138
X71.844Y-133.175
X76.34Y-135.411
X78.423Y-136.935
X78.448Y-137.976
X84.29Y-113.008
T0
M30
