M48
; DRILL file {KiCad 8.0.4} date 2024-11-17T15:32:20-0700
; FORMAT={-:-/ absolute / inch / decimal}
; #@! TF.CreationDate,2024-11-17T15:32:20-07:00
; #@! TF.GenerationSoftware,Kicad,Pcbnew,8.0.4
; #@! TF.FileFunction,Plated,1,2,PTH
FMAT,2
INCH
; #@! TA.AperFunction,Plated,PTH,ViaDrill
T1C0.0118
; #@! TA.AperFunction,Plated,PTH,ComponentDrill
T2C0.0118
; #@! TA.AperFunction,Plated,PTH,ViaDrill
T3C0.0197
%
G90
G05
T1
X2.6427Y-5.4768
X2.6683Y-4.6245
X2.686Y-4.8666
X2.7353Y-4.7898
X2.7451Y-5.2819
X2.7805Y-4.4591
X2.7805Y-4.4945
X2.7845Y-4.4001
X2.7943Y-4.5359
X2.814Y-4.6245
X2.8593Y-4.8469
X2.8722Y-4.4307
X2.877Y-4.5438
X2.8908Y-4.6264
X2.9025Y-4.4496
X2.9046Y-4.7367
X2.9321Y-5.8134
X2.942Y-4.3843
X2.942Y-4.4512
X2.9498Y-4.9749
X2.9538Y-4.5772
X2.9577Y-4.5379
X2.9636Y-5.3666
X2.9813Y-4.4512
X2.9813Y-4.9788
X2.9892Y-5.4945
X3.0069Y-5.6855
X3.0088Y-4.3142
X3.0089Y-4.5398
X3.01Y-4.3528
X3.0126Y-4.4022
X3.0126Y-4.4413
X3.0246Y-4.9611
X3.0463Y-4.7977
X3.0463Y-4.8843
X3.1152Y-4.4296
X3.1309Y-5.2406
X3.1408Y-5.2071
X3.1585Y-4.6756
X3.1585Y-5.0674
X3.1624Y-4.4788
X3.1703Y-4.528
X3.186Y-5.2819
X3.192Y-4.5792
X3.2116Y-5.028
X3.2195Y-4.3292
X3.2195Y-5.5575
X3.2313Y-5.1284
X3.2333Y-4.6087
X3.2372Y-5.2249
X3.2569Y-4.8174
X3.2746Y-4.7052
X3.2864Y-5.4493
X3.2884Y-4.6481
X3.2884Y-4.8902
X3.2923Y-4.5595
X3.316Y-5.2642
T2
X2.9022Y-5.0958
X2.9022Y-5.1352
X2.9022Y-5.1745
X2.9415Y-5.0958
X2.9415Y-5.1352
X2.9415Y-5.1745
X2.9809Y-5.0958
X2.9809Y-5.1352
X2.9809Y-5.1745
T3
X2.7585Y-5.3991
X2.8285Y-5.2431
X3.0055Y-5.3311
X3.0875Y-5.3911
X3.0885Y-5.4321
X3.3185Y-4.4491
M30
