%TF.GenerationSoftware,KiCad,Pcbnew,8.0.4*%
%TF.CreationDate,2024-11-17T15:32:07-07:00*%
%TF.ProjectId,chrimbus2023,63687269-6d62-4757-9332-3032332e6b69,rev?*%
%TF.SameCoordinates,Original*%
%TF.FileFunction,Legend,Top*%
%TF.FilePolarity,Positive*%
%FSLAX46Y46*%
G04 Gerber Fmt 4.6, Leading zero omitted, Abs format (unit mm)*
G04 Created by KiCad (PCBNEW 8.0.4) date 2024-11-17 15:32:07*
%MOMM*%
%LPD*%
G01*
G04 APERTURE LIST*
G04 Aperture macros list*
%AMRoundRect*
0 Rectangle with rounded corners*
0 $1 Rounding radius*
0 $2 $3 $4 $5 $6 $7 $8 $9 X,Y pos of 4 corners*
0 Add a 4 corners polygon primitive as box body*
4,1,4,$2,$3,$4,$5,$6,$7,$8,$9,$2,$3,0*
0 Add four circle primitives for the rounded corners*
1,1,$1+$1,$2,$3*
1,1,$1+$1,$4,$5*
1,1,$1+$1,$6,$7*
1,1,$1+$1,$8,$9*
0 Add four rect primitives between the rounded corners*
20,1,$1+$1,$2,$3,$4,$5,0*
20,1,$1+$1,$4,$5,$6,$7,0*
20,1,$1+$1,$6,$7,$8,$9,0*
20,1,$1+$1,$8,$9,$2,$3,0*%
G04 Aperture macros list end*
%ADD10C,0.300000*%
%ADD11C,0.150000*%
%ADD12C,0.254000*%
%ADD13C,0.000000*%
%ADD14C,0.120000*%
%ADD15C,0.200000*%
%ADD16RoundRect,0.062500X0.062500X-0.475000X0.062500X0.475000X-0.062500X0.475000X-0.062500X-0.475000X0*%
%ADD17RoundRect,0.062500X0.475000X-0.062500X0.475000X0.062500X-0.475000X0.062500X-0.475000X-0.062500X0*%
%ADD18R,4.100000X4.100000*%
%ADD19RoundRect,0.140000X-0.140000X-0.170000X0.140000X-0.170000X0.140000X0.170000X-0.140000X0.170000X0*%
%ADD20R,0.375000X0.500000*%
%ADD21R,0.300000X0.650000*%
%ADD22RoundRect,0.140000X0.140000X0.170000X-0.140000X0.170000X-0.140000X-0.170000X0.140000X-0.170000X0*%
%ADD23RoundRect,0.140000X-0.170000X0.140000X-0.170000X-0.140000X0.170000X-0.140000X0.170000X0.140000X0*%
%ADD24RoundRect,0.200000X0.200000X0.250000X-0.200000X0.250000X-0.200000X-0.250000X0.200000X-0.250000X0*%
%ADD25R,1.900000X8.000000*%
%ADD26R,2.000000X7.500000*%
%ADD27RoundRect,0.135000X-0.185000X0.135000X-0.185000X-0.135000X0.185000X-0.135000X0.185000X0.135000X0*%
%ADD28C,0.290000*%
%ADD29R,0.280000X0.850000*%
%ADD30R,0.280000X0.750000*%
%ADD31C,3.200000*%
%ADD32RoundRect,0.135000X0.135000X0.185000X-0.135000X0.185000X-0.135000X-0.185000X0.135000X-0.185000X0*%
%ADD33RoundRect,0.250001X0.462499X0.624999X-0.462499X0.624999X-0.462499X-0.624999X0.462499X-0.624999X0*%
%ADD34RoundRect,0.135000X0.185000X-0.135000X0.185000X0.135000X-0.185000X0.135000X-0.185000X-0.135000X0*%
G04 APERTURE END LIST*
D10*
X96804206Y-110561256D02*
X96661349Y-110489827D01*
X96661349Y-110489827D02*
X96447063Y-110489827D01*
X96447063Y-110489827D02*
X96232777Y-110561256D01*
X96232777Y-110561256D02*
X96089920Y-110704113D01*
X96089920Y-110704113D02*
X96018491Y-110846970D01*
X96018491Y-110846970D02*
X95947063Y-111132684D01*
X95947063Y-111132684D02*
X95947063Y-111346970D01*
X95947063Y-111346970D02*
X96018491Y-111632684D01*
X96018491Y-111632684D02*
X96089920Y-111775541D01*
X96089920Y-111775541D02*
X96232777Y-111918399D01*
X96232777Y-111918399D02*
X96447063Y-111989827D01*
X96447063Y-111989827D02*
X96589920Y-111989827D01*
X96589920Y-111989827D02*
X96804206Y-111918399D01*
X96804206Y-111918399D02*
X96875634Y-111846970D01*
X96875634Y-111846970D02*
X96875634Y-111346970D01*
X96875634Y-111346970D02*
X96589920Y-111346970D01*
X97732777Y-110489827D02*
X97732777Y-110846970D01*
X97375634Y-110704113D02*
X97732777Y-110846970D01*
X97732777Y-110846970D02*
X98089920Y-110704113D01*
X97518491Y-111132684D02*
X97732777Y-110846970D01*
X97732777Y-110846970D02*
X97947063Y-111132684D01*
X98875634Y-110489827D02*
X98875634Y-110846970D01*
X98518491Y-110704113D02*
X98875634Y-110846970D01*
X98875634Y-110846970D02*
X99232777Y-110704113D01*
X98661348Y-111132684D02*
X98875634Y-110846970D01*
X98875634Y-110846970D02*
X99089920Y-111132684D01*
X100018491Y-110489827D02*
X100018491Y-110846970D01*
X99661348Y-110704113D02*
X100018491Y-110846970D01*
X100018491Y-110846970D02*
X100375634Y-110704113D01*
X99804205Y-111132684D02*
X100018491Y-110846970D01*
X100018491Y-110846970D02*
X100232777Y-111132684D01*
D11*
X72463729Y-125366318D02*
X72463729Y-126175841D01*
X72463729Y-126175841D02*
X72511348Y-126271079D01*
X72511348Y-126271079D02*
X72558967Y-126318699D01*
X72558967Y-126318699D02*
X72654205Y-126366318D01*
X72654205Y-126366318D02*
X72844681Y-126366318D01*
X72844681Y-126366318D02*
X72939919Y-126318699D01*
X72939919Y-126318699D02*
X72987538Y-126271079D01*
X72987538Y-126271079D02*
X73035157Y-126175841D01*
X73035157Y-126175841D02*
X73035157Y-125366318D01*
X73416110Y-125366318D02*
X74035157Y-125366318D01*
X74035157Y-125366318D02*
X73701824Y-125747270D01*
X73701824Y-125747270D02*
X73844681Y-125747270D01*
X73844681Y-125747270D02*
X73939919Y-125794889D01*
X73939919Y-125794889D02*
X73987538Y-125842508D01*
X73987538Y-125842508D02*
X74035157Y-125937746D01*
X74035157Y-125937746D02*
X74035157Y-126175841D01*
X74035157Y-126175841D02*
X73987538Y-126271079D01*
X73987538Y-126271079D02*
X73939919Y-126318699D01*
X73939919Y-126318699D02*
X73844681Y-126366318D01*
X73844681Y-126366318D02*
X73558967Y-126366318D01*
X73558967Y-126366318D02*
X73463729Y-126318699D01*
X73463729Y-126318699D02*
X73416110Y-126271079D01*
X69158967Y-140321079D02*
X69111348Y-140368699D01*
X69111348Y-140368699D02*
X68968491Y-140416318D01*
X68968491Y-140416318D02*
X68873253Y-140416318D01*
X68873253Y-140416318D02*
X68730396Y-140368699D01*
X68730396Y-140368699D02*
X68635158Y-140273460D01*
X68635158Y-140273460D02*
X68587539Y-140178222D01*
X68587539Y-140178222D02*
X68539920Y-139987746D01*
X68539920Y-139987746D02*
X68539920Y-139844889D01*
X68539920Y-139844889D02*
X68587539Y-139654413D01*
X68587539Y-139654413D02*
X68635158Y-139559175D01*
X68635158Y-139559175D02*
X68730396Y-139463937D01*
X68730396Y-139463937D02*
X68873253Y-139416318D01*
X68873253Y-139416318D02*
X68968491Y-139416318D01*
X68968491Y-139416318D02*
X69111348Y-139463937D01*
X69111348Y-139463937D02*
X69158967Y-139511556D01*
X70016110Y-139749651D02*
X70016110Y-140416318D01*
X69778015Y-139368699D02*
X69539920Y-140082984D01*
X69539920Y-140082984D02*
X70158967Y-140082984D01*
X72963729Y-138166318D02*
X72963729Y-138975841D01*
X72963729Y-138975841D02*
X73011348Y-139071079D01*
X73011348Y-139071079D02*
X73058967Y-139118699D01*
X73058967Y-139118699D02*
X73154205Y-139166318D01*
X73154205Y-139166318D02*
X73344681Y-139166318D01*
X73344681Y-139166318D02*
X73439919Y-139118699D01*
X73439919Y-139118699D02*
X73487538Y-139071079D01*
X73487538Y-139071079D02*
X73535157Y-138975841D01*
X73535157Y-138975841D02*
X73535157Y-138166318D01*
X73963729Y-138261556D02*
X74011348Y-138213937D01*
X74011348Y-138213937D02*
X74106586Y-138166318D01*
X74106586Y-138166318D02*
X74344681Y-138166318D01*
X74344681Y-138166318D02*
X74439919Y-138213937D01*
X74439919Y-138213937D02*
X74487538Y-138261556D01*
X74487538Y-138261556D02*
X74535157Y-138356794D01*
X74535157Y-138356794D02*
X74535157Y-138452032D01*
X74535157Y-138452032D02*
X74487538Y-138594889D01*
X74487538Y-138594889D02*
X73916110Y-139166318D01*
X73916110Y-139166318D02*
X74535157Y-139166318D01*
X82732776Y-110621079D02*
X82685157Y-110668699D01*
X82685157Y-110668699D02*
X82542300Y-110716318D01*
X82542300Y-110716318D02*
X82447062Y-110716318D01*
X82447062Y-110716318D02*
X82304205Y-110668699D01*
X82304205Y-110668699D02*
X82208967Y-110573460D01*
X82208967Y-110573460D02*
X82161348Y-110478222D01*
X82161348Y-110478222D02*
X82113729Y-110287746D01*
X82113729Y-110287746D02*
X82113729Y-110144889D01*
X82113729Y-110144889D02*
X82161348Y-109954413D01*
X82161348Y-109954413D02*
X82208967Y-109859175D01*
X82208967Y-109859175D02*
X82304205Y-109763937D01*
X82304205Y-109763937D02*
X82447062Y-109716318D01*
X82447062Y-109716318D02*
X82542300Y-109716318D01*
X82542300Y-109716318D02*
X82685157Y-109763937D01*
X82685157Y-109763937D02*
X82732776Y-109811556D01*
X83685157Y-110716318D02*
X83113729Y-110716318D01*
X83399443Y-110716318D02*
X83399443Y-109716318D01*
X83399443Y-109716318D02*
X83304205Y-109859175D01*
X83304205Y-109859175D02*
X83208967Y-109954413D01*
X83208967Y-109954413D02*
X83113729Y-110002032D01*
X84066110Y-109811556D02*
X84113729Y-109763937D01*
X84113729Y-109763937D02*
X84208967Y-109716318D01*
X84208967Y-109716318D02*
X84447062Y-109716318D01*
X84447062Y-109716318D02*
X84542300Y-109763937D01*
X84542300Y-109763937D02*
X84589919Y-109811556D01*
X84589919Y-109811556D02*
X84637538Y-109906794D01*
X84637538Y-109906794D02*
X84637538Y-110002032D01*
X84637538Y-110002032D02*
X84589919Y-110144889D01*
X84589919Y-110144889D02*
X84018491Y-110716318D01*
X84018491Y-110716318D02*
X84637538Y-110716318D01*
X80558967Y-130171079D02*
X80511348Y-130218699D01*
X80511348Y-130218699D02*
X80368491Y-130266318D01*
X80368491Y-130266318D02*
X80273253Y-130266318D01*
X80273253Y-130266318D02*
X80130396Y-130218699D01*
X80130396Y-130218699D02*
X80035158Y-130123460D01*
X80035158Y-130123460D02*
X79987539Y-130028222D01*
X79987539Y-130028222D02*
X79939920Y-129837746D01*
X79939920Y-129837746D02*
X79939920Y-129694889D01*
X79939920Y-129694889D02*
X79987539Y-129504413D01*
X79987539Y-129504413D02*
X80035158Y-129409175D01*
X80035158Y-129409175D02*
X80130396Y-129313937D01*
X80130396Y-129313937D02*
X80273253Y-129266318D01*
X80273253Y-129266318D02*
X80368491Y-129266318D01*
X80368491Y-129266318D02*
X80511348Y-129313937D01*
X80511348Y-129313937D02*
X80558967Y-129361556D01*
X81130396Y-129694889D02*
X81035158Y-129647270D01*
X81035158Y-129647270D02*
X80987539Y-129599651D01*
X80987539Y-129599651D02*
X80939920Y-129504413D01*
X80939920Y-129504413D02*
X80939920Y-129456794D01*
X80939920Y-129456794D02*
X80987539Y-129361556D01*
X80987539Y-129361556D02*
X81035158Y-129313937D01*
X81035158Y-129313937D02*
X81130396Y-129266318D01*
X81130396Y-129266318D02*
X81320872Y-129266318D01*
X81320872Y-129266318D02*
X81416110Y-129313937D01*
X81416110Y-129313937D02*
X81463729Y-129361556D01*
X81463729Y-129361556D02*
X81511348Y-129456794D01*
X81511348Y-129456794D02*
X81511348Y-129504413D01*
X81511348Y-129504413D02*
X81463729Y-129599651D01*
X81463729Y-129599651D02*
X81416110Y-129647270D01*
X81416110Y-129647270D02*
X81320872Y-129694889D01*
X81320872Y-129694889D02*
X81130396Y-129694889D01*
X81130396Y-129694889D02*
X81035158Y-129742508D01*
X81035158Y-129742508D02*
X80987539Y-129790127D01*
X80987539Y-129790127D02*
X80939920Y-129885365D01*
X80939920Y-129885365D02*
X80939920Y-130075841D01*
X80939920Y-130075841D02*
X80987539Y-130171079D01*
X80987539Y-130171079D02*
X81035158Y-130218699D01*
X81035158Y-130218699D02*
X81130396Y-130266318D01*
X81130396Y-130266318D02*
X81320872Y-130266318D01*
X81320872Y-130266318D02*
X81416110Y-130218699D01*
X81416110Y-130218699D02*
X81463729Y-130171079D01*
X81463729Y-130171079D02*
X81511348Y-130075841D01*
X81511348Y-130075841D02*
X81511348Y-129885365D01*
X81511348Y-129885365D02*
X81463729Y-129790127D01*
X81463729Y-129790127D02*
X81416110Y-129742508D01*
X81416110Y-129742508D02*
X81320872Y-129694889D01*
X65411348Y-135713937D02*
X65316110Y-135666318D01*
X65316110Y-135666318D02*
X65173253Y-135666318D01*
X65173253Y-135666318D02*
X65030396Y-135713937D01*
X65030396Y-135713937D02*
X64935158Y-135809175D01*
X64935158Y-135809175D02*
X64887539Y-135904413D01*
X64887539Y-135904413D02*
X64839920Y-136094889D01*
X64839920Y-136094889D02*
X64839920Y-136237746D01*
X64839920Y-136237746D02*
X64887539Y-136428222D01*
X64887539Y-136428222D02*
X64935158Y-136523460D01*
X64935158Y-136523460D02*
X65030396Y-136618699D01*
X65030396Y-136618699D02*
X65173253Y-136666318D01*
X65173253Y-136666318D02*
X65268491Y-136666318D01*
X65268491Y-136666318D02*
X65411348Y-136618699D01*
X65411348Y-136618699D02*
X65458967Y-136571079D01*
X65458967Y-136571079D02*
X65458967Y-136237746D01*
X65458967Y-136237746D02*
X65268491Y-136237746D01*
X66411348Y-136666318D02*
X65839920Y-136666318D01*
X66125634Y-136666318D02*
X66125634Y-135666318D01*
X66125634Y-135666318D02*
X66030396Y-135809175D01*
X66030396Y-135809175D02*
X65935158Y-135904413D01*
X65935158Y-135904413D02*
X65839920Y-135952032D01*
X78558967Y-125271079D02*
X78511348Y-125318699D01*
X78511348Y-125318699D02*
X78368491Y-125366318D01*
X78368491Y-125366318D02*
X78273253Y-125366318D01*
X78273253Y-125366318D02*
X78130396Y-125318699D01*
X78130396Y-125318699D02*
X78035158Y-125223460D01*
X78035158Y-125223460D02*
X77987539Y-125128222D01*
X77987539Y-125128222D02*
X77939920Y-124937746D01*
X77939920Y-124937746D02*
X77939920Y-124794889D01*
X77939920Y-124794889D02*
X77987539Y-124604413D01*
X77987539Y-124604413D02*
X78035158Y-124509175D01*
X78035158Y-124509175D02*
X78130396Y-124413937D01*
X78130396Y-124413937D02*
X78273253Y-124366318D01*
X78273253Y-124366318D02*
X78368491Y-124366318D01*
X78368491Y-124366318D02*
X78511348Y-124413937D01*
X78511348Y-124413937D02*
X78558967Y-124461556D01*
X79463729Y-124366318D02*
X78987539Y-124366318D01*
X78987539Y-124366318D02*
X78939920Y-124842508D01*
X78939920Y-124842508D02*
X78987539Y-124794889D01*
X78987539Y-124794889D02*
X79082777Y-124747270D01*
X79082777Y-124747270D02*
X79320872Y-124747270D01*
X79320872Y-124747270D02*
X79416110Y-124794889D01*
X79416110Y-124794889D02*
X79463729Y-124842508D01*
X79463729Y-124842508D02*
X79511348Y-124937746D01*
X79511348Y-124937746D02*
X79511348Y-125175841D01*
X79511348Y-125175841D02*
X79463729Y-125271079D01*
X79463729Y-125271079D02*
X79416110Y-125318699D01*
X79416110Y-125318699D02*
X79320872Y-125366318D01*
X79320872Y-125366318D02*
X79082777Y-125366318D01*
X79082777Y-125366318D02*
X78987539Y-125318699D01*
X78987539Y-125318699D02*
X78939920Y-125271079D01*
X66508967Y-133221079D02*
X66461348Y-133268699D01*
X66461348Y-133268699D02*
X66318491Y-133316318D01*
X66318491Y-133316318D02*
X66223253Y-133316318D01*
X66223253Y-133316318D02*
X66080396Y-133268699D01*
X66080396Y-133268699D02*
X65985158Y-133173460D01*
X65985158Y-133173460D02*
X65937539Y-133078222D01*
X65937539Y-133078222D02*
X65889920Y-132887746D01*
X65889920Y-132887746D02*
X65889920Y-132744889D01*
X65889920Y-132744889D02*
X65937539Y-132554413D01*
X65937539Y-132554413D02*
X65985158Y-132459175D01*
X65985158Y-132459175D02*
X66080396Y-132363937D01*
X66080396Y-132363937D02*
X66223253Y-132316318D01*
X66223253Y-132316318D02*
X66318491Y-132316318D01*
X66318491Y-132316318D02*
X66461348Y-132363937D01*
X66461348Y-132363937D02*
X66508967Y-132411556D01*
X66842301Y-132316318D02*
X67508967Y-132316318D01*
X67508967Y-132316318D02*
X67080396Y-133316318D01*
X71858967Y-137416318D02*
X71525634Y-136940127D01*
X71287539Y-137416318D02*
X71287539Y-136416318D01*
X71287539Y-136416318D02*
X71668491Y-136416318D01*
X71668491Y-136416318D02*
X71763729Y-136463937D01*
X71763729Y-136463937D02*
X71811348Y-136511556D01*
X71811348Y-136511556D02*
X71858967Y-136606794D01*
X71858967Y-136606794D02*
X71858967Y-136749651D01*
X71858967Y-136749651D02*
X71811348Y-136844889D01*
X71811348Y-136844889D02*
X71763729Y-136892508D01*
X71763729Y-136892508D02*
X71668491Y-136940127D01*
X71668491Y-136940127D02*
X71287539Y-136940127D01*
X72716110Y-136749651D02*
X72716110Y-137416318D01*
X72478015Y-136368699D02*
X72239920Y-137082984D01*
X72239920Y-137082984D02*
X72858967Y-137082984D01*
D12*
X70108014Y-104065817D02*
X70108014Y-105093912D01*
X70108014Y-105093912D02*
X70168491Y-105214864D01*
X70168491Y-105214864D02*
X70228967Y-105275341D01*
X70228967Y-105275341D02*
X70349919Y-105335817D01*
X70349919Y-105335817D02*
X70591824Y-105335817D01*
X70591824Y-105335817D02*
X70712776Y-105275341D01*
X70712776Y-105275341D02*
X70773253Y-105214864D01*
X70773253Y-105214864D02*
X70833729Y-105093912D01*
X70833729Y-105093912D02*
X70833729Y-104065817D01*
X71982776Y-104489150D02*
X71982776Y-105335817D01*
X71680395Y-104005341D02*
X71378014Y-104912483D01*
X71378014Y-104912483D02*
X72164205Y-104912483D01*
D11*
X81458967Y-142621079D02*
X81411348Y-142668699D01*
X81411348Y-142668699D02*
X81268491Y-142716318D01*
X81268491Y-142716318D02*
X81173253Y-142716318D01*
X81173253Y-142716318D02*
X81030396Y-142668699D01*
X81030396Y-142668699D02*
X80935158Y-142573460D01*
X80935158Y-142573460D02*
X80887539Y-142478222D01*
X80887539Y-142478222D02*
X80839920Y-142287746D01*
X80839920Y-142287746D02*
X80839920Y-142144889D01*
X80839920Y-142144889D02*
X80887539Y-141954413D01*
X80887539Y-141954413D02*
X80935158Y-141859175D01*
X80935158Y-141859175D02*
X81030396Y-141763937D01*
X81030396Y-141763937D02*
X81173253Y-141716318D01*
X81173253Y-141716318D02*
X81268491Y-141716318D01*
X81268491Y-141716318D02*
X81411348Y-141763937D01*
X81411348Y-141763937D02*
X81458967Y-141811556D01*
X82411348Y-142716318D02*
X81839920Y-142716318D01*
X82125634Y-142716318D02*
X82125634Y-141716318D01*
X82125634Y-141716318D02*
X82030396Y-141859175D01*
X82030396Y-141859175D02*
X81935158Y-141954413D01*
X81935158Y-141954413D02*
X81839920Y-142002032D01*
X80813729Y-139516318D02*
X80813729Y-140325841D01*
X80813729Y-140325841D02*
X80861348Y-140421079D01*
X80861348Y-140421079D02*
X80908967Y-140468699D01*
X80908967Y-140468699D02*
X81004205Y-140516318D01*
X81004205Y-140516318D02*
X81194681Y-140516318D01*
X81194681Y-140516318D02*
X81289919Y-140468699D01*
X81289919Y-140468699D02*
X81337538Y-140421079D01*
X81337538Y-140421079D02*
X81385157Y-140325841D01*
X81385157Y-140325841D02*
X81385157Y-139516318D01*
X82385157Y-140516318D02*
X81813729Y-140516318D01*
X82099443Y-140516318D02*
X82099443Y-139516318D01*
X82099443Y-139516318D02*
X82004205Y-139659175D01*
X82004205Y-139659175D02*
X81908967Y-139754413D01*
X81908967Y-139754413D02*
X81813729Y-139802032D01*
X79782567Y-137175679D02*
X79734948Y-137223299D01*
X79734948Y-137223299D02*
X79592091Y-137270918D01*
X79592091Y-137270918D02*
X79496853Y-137270918D01*
X79496853Y-137270918D02*
X79353996Y-137223299D01*
X79353996Y-137223299D02*
X79258758Y-137128060D01*
X79258758Y-137128060D02*
X79211139Y-137032822D01*
X79211139Y-137032822D02*
X79163520Y-136842346D01*
X79163520Y-136842346D02*
X79163520Y-136699489D01*
X79163520Y-136699489D02*
X79211139Y-136509013D01*
X79211139Y-136509013D02*
X79258758Y-136413775D01*
X79258758Y-136413775D02*
X79353996Y-136318537D01*
X79353996Y-136318537D02*
X79496853Y-136270918D01*
X79496853Y-136270918D02*
X79592091Y-136270918D01*
X79592091Y-136270918D02*
X79734948Y-136318537D01*
X79734948Y-136318537D02*
X79782567Y-136366156D01*
X80115901Y-136270918D02*
X80734948Y-136270918D01*
X80734948Y-136270918D02*
X80401615Y-136651870D01*
X80401615Y-136651870D02*
X80544472Y-136651870D01*
X80544472Y-136651870D02*
X80639710Y-136699489D01*
X80639710Y-136699489D02*
X80687329Y-136747108D01*
X80687329Y-136747108D02*
X80734948Y-136842346D01*
X80734948Y-136842346D02*
X80734948Y-137080441D01*
X80734948Y-137080441D02*
X80687329Y-137175679D01*
X80687329Y-137175679D02*
X80639710Y-137223299D01*
X80639710Y-137223299D02*
X80544472Y-137270918D01*
X80544472Y-137270918D02*
X80258758Y-137270918D01*
X80258758Y-137270918D02*
X80163520Y-137223299D01*
X80163520Y-137223299D02*
X80115901Y-137175679D01*
X76808967Y-142071079D02*
X76761348Y-142118699D01*
X76761348Y-142118699D02*
X76618491Y-142166318D01*
X76618491Y-142166318D02*
X76523253Y-142166318D01*
X76523253Y-142166318D02*
X76380396Y-142118699D01*
X76380396Y-142118699D02*
X76285158Y-142023460D01*
X76285158Y-142023460D02*
X76237539Y-141928222D01*
X76237539Y-141928222D02*
X76189920Y-141737746D01*
X76189920Y-141737746D02*
X76189920Y-141594889D01*
X76189920Y-141594889D02*
X76237539Y-141404413D01*
X76237539Y-141404413D02*
X76285158Y-141309175D01*
X76285158Y-141309175D02*
X76380396Y-141213937D01*
X76380396Y-141213937D02*
X76523253Y-141166318D01*
X76523253Y-141166318D02*
X76618491Y-141166318D01*
X76618491Y-141166318D02*
X76761348Y-141213937D01*
X76761348Y-141213937D02*
X76808967Y-141261556D01*
X77189920Y-141261556D02*
X77237539Y-141213937D01*
X77237539Y-141213937D02*
X77332777Y-141166318D01*
X77332777Y-141166318D02*
X77570872Y-141166318D01*
X77570872Y-141166318D02*
X77666110Y-141213937D01*
X77666110Y-141213937D02*
X77713729Y-141261556D01*
X77713729Y-141261556D02*
X77761348Y-141356794D01*
X77761348Y-141356794D02*
X77761348Y-141452032D01*
X77761348Y-141452032D02*
X77713729Y-141594889D01*
X77713729Y-141594889D02*
X77142301Y-142166318D01*
X77142301Y-142166318D02*
X77761348Y-142166318D01*
X66808967Y-129916318D02*
X66475634Y-129440127D01*
X66237539Y-129916318D02*
X66237539Y-128916318D01*
X66237539Y-128916318D02*
X66618491Y-128916318D01*
X66618491Y-128916318D02*
X66713729Y-128963937D01*
X66713729Y-128963937D02*
X66761348Y-129011556D01*
X66761348Y-129011556D02*
X66808967Y-129106794D01*
X66808967Y-129106794D02*
X66808967Y-129249651D01*
X66808967Y-129249651D02*
X66761348Y-129344889D01*
X66761348Y-129344889D02*
X66713729Y-129392508D01*
X66713729Y-129392508D02*
X66618491Y-129440127D01*
X66618491Y-129440127D02*
X66237539Y-129440127D01*
X67142301Y-128916318D02*
X67761348Y-128916318D01*
X67761348Y-128916318D02*
X67428015Y-129297270D01*
X67428015Y-129297270D02*
X67570872Y-129297270D01*
X67570872Y-129297270D02*
X67666110Y-129344889D01*
X67666110Y-129344889D02*
X67713729Y-129392508D01*
X67713729Y-129392508D02*
X67761348Y-129487746D01*
X67761348Y-129487746D02*
X67761348Y-129725841D01*
X67761348Y-129725841D02*
X67713729Y-129821079D01*
X67713729Y-129821079D02*
X67666110Y-129868699D01*
X67666110Y-129868699D02*
X67570872Y-129916318D01*
X67570872Y-129916318D02*
X67285158Y-129916318D01*
X67285158Y-129916318D02*
X67189920Y-129868699D01*
X67189920Y-129868699D02*
X67142301Y-129821079D01*
X74882776Y-119421079D02*
X74835157Y-119468699D01*
X74835157Y-119468699D02*
X74692300Y-119516318D01*
X74692300Y-119516318D02*
X74597062Y-119516318D01*
X74597062Y-119516318D02*
X74454205Y-119468699D01*
X74454205Y-119468699D02*
X74358967Y-119373460D01*
X74358967Y-119373460D02*
X74311348Y-119278222D01*
X74311348Y-119278222D02*
X74263729Y-119087746D01*
X74263729Y-119087746D02*
X74263729Y-118944889D01*
X74263729Y-118944889D02*
X74311348Y-118754413D01*
X74311348Y-118754413D02*
X74358967Y-118659175D01*
X74358967Y-118659175D02*
X74454205Y-118563937D01*
X74454205Y-118563937D02*
X74597062Y-118516318D01*
X74597062Y-118516318D02*
X74692300Y-118516318D01*
X74692300Y-118516318D02*
X74835157Y-118563937D01*
X74835157Y-118563937D02*
X74882776Y-118611556D01*
X75835157Y-119516318D02*
X75263729Y-119516318D01*
X75549443Y-119516318D02*
X75549443Y-118516318D01*
X75549443Y-118516318D02*
X75454205Y-118659175D01*
X75454205Y-118659175D02*
X75358967Y-118754413D01*
X75358967Y-118754413D02*
X75263729Y-118802032D01*
X76787538Y-119516318D02*
X76216110Y-119516318D01*
X76501824Y-119516318D02*
X76501824Y-118516318D01*
X76501824Y-118516318D02*
X76406586Y-118659175D01*
X76406586Y-118659175D02*
X76311348Y-118754413D01*
X76311348Y-118754413D02*
X76216110Y-118802032D01*
X80782776Y-113121079D02*
X80735157Y-113168699D01*
X80735157Y-113168699D02*
X80592300Y-113216318D01*
X80592300Y-113216318D02*
X80497062Y-113216318D01*
X80497062Y-113216318D02*
X80354205Y-113168699D01*
X80354205Y-113168699D02*
X80258967Y-113073460D01*
X80258967Y-113073460D02*
X80211348Y-112978222D01*
X80211348Y-112978222D02*
X80163729Y-112787746D01*
X80163729Y-112787746D02*
X80163729Y-112644889D01*
X80163729Y-112644889D02*
X80211348Y-112454413D01*
X80211348Y-112454413D02*
X80258967Y-112359175D01*
X80258967Y-112359175D02*
X80354205Y-112263937D01*
X80354205Y-112263937D02*
X80497062Y-112216318D01*
X80497062Y-112216318D02*
X80592300Y-112216318D01*
X80592300Y-112216318D02*
X80735157Y-112263937D01*
X80735157Y-112263937D02*
X80782776Y-112311556D01*
X81735157Y-113216318D02*
X81163729Y-113216318D01*
X81449443Y-113216318D02*
X81449443Y-112216318D01*
X81449443Y-112216318D02*
X81354205Y-112359175D01*
X81354205Y-112359175D02*
X81258967Y-112454413D01*
X81258967Y-112454413D02*
X81163729Y-112502032D01*
X82354205Y-112216318D02*
X82449443Y-112216318D01*
X82449443Y-112216318D02*
X82544681Y-112263937D01*
X82544681Y-112263937D02*
X82592300Y-112311556D01*
X82592300Y-112311556D02*
X82639919Y-112406794D01*
X82639919Y-112406794D02*
X82687538Y-112597270D01*
X82687538Y-112597270D02*
X82687538Y-112835365D01*
X82687538Y-112835365D02*
X82639919Y-113025841D01*
X82639919Y-113025841D02*
X82592300Y-113121079D01*
X82592300Y-113121079D02*
X82544681Y-113168699D01*
X82544681Y-113168699D02*
X82449443Y-113216318D01*
X82449443Y-113216318D02*
X82354205Y-113216318D01*
X82354205Y-113216318D02*
X82258967Y-113168699D01*
X82258967Y-113168699D02*
X82211348Y-113121079D01*
X82211348Y-113121079D02*
X82163729Y-113025841D01*
X82163729Y-113025841D02*
X82116110Y-112835365D01*
X82116110Y-112835365D02*
X82116110Y-112597270D01*
X82116110Y-112597270D02*
X82163729Y-112406794D01*
X82163729Y-112406794D02*
X82211348Y-112311556D01*
X82211348Y-112311556D02*
X82258967Y-112263937D01*
X82258967Y-112263937D02*
X82354205Y-112216318D01*
X76408967Y-138671079D02*
X76361348Y-138718699D01*
X76361348Y-138718699D02*
X76218491Y-138766318D01*
X76218491Y-138766318D02*
X76123253Y-138766318D01*
X76123253Y-138766318D02*
X75980396Y-138718699D01*
X75980396Y-138718699D02*
X75885158Y-138623460D01*
X75885158Y-138623460D02*
X75837539Y-138528222D01*
X75837539Y-138528222D02*
X75789920Y-138337746D01*
X75789920Y-138337746D02*
X75789920Y-138194889D01*
X75789920Y-138194889D02*
X75837539Y-138004413D01*
X75837539Y-138004413D02*
X75885158Y-137909175D01*
X75885158Y-137909175D02*
X75980396Y-137813937D01*
X75980396Y-137813937D02*
X76123253Y-137766318D01*
X76123253Y-137766318D02*
X76218491Y-137766318D01*
X76218491Y-137766318D02*
X76361348Y-137813937D01*
X76361348Y-137813937D02*
X76408967Y-137861556D01*
X76885158Y-138766318D02*
X77075634Y-138766318D01*
X77075634Y-138766318D02*
X77170872Y-138718699D01*
X77170872Y-138718699D02*
X77218491Y-138671079D01*
X77218491Y-138671079D02*
X77313729Y-138528222D01*
X77313729Y-138528222D02*
X77361348Y-138337746D01*
X77361348Y-138337746D02*
X77361348Y-137956794D01*
X77361348Y-137956794D02*
X77313729Y-137861556D01*
X77313729Y-137861556D02*
X77266110Y-137813937D01*
X77266110Y-137813937D02*
X77170872Y-137766318D01*
X77170872Y-137766318D02*
X76980396Y-137766318D01*
X76980396Y-137766318D02*
X76885158Y-137813937D01*
X76885158Y-137813937D02*
X76837539Y-137861556D01*
X76837539Y-137861556D02*
X76789920Y-137956794D01*
X76789920Y-137956794D02*
X76789920Y-138194889D01*
X76789920Y-138194889D02*
X76837539Y-138290127D01*
X76837539Y-138290127D02*
X76885158Y-138337746D01*
X76885158Y-138337746D02*
X76980396Y-138385365D01*
X76980396Y-138385365D02*
X77170872Y-138385365D01*
X77170872Y-138385365D02*
X77266110Y-138337746D01*
X77266110Y-138337746D02*
X77313729Y-138290127D01*
X77313729Y-138290127D02*
X77361348Y-138194889D01*
X69558967Y-131616318D02*
X69225634Y-131140127D01*
X68987539Y-131616318D02*
X68987539Y-130616318D01*
X68987539Y-130616318D02*
X69368491Y-130616318D01*
X69368491Y-130616318D02*
X69463729Y-130663937D01*
X69463729Y-130663937D02*
X69511348Y-130711556D01*
X69511348Y-130711556D02*
X69558967Y-130806794D01*
X69558967Y-130806794D02*
X69558967Y-130949651D01*
X69558967Y-130949651D02*
X69511348Y-131044889D01*
X69511348Y-131044889D02*
X69463729Y-131092508D01*
X69463729Y-131092508D02*
X69368491Y-131140127D01*
X69368491Y-131140127D02*
X68987539Y-131140127D01*
X69939920Y-130711556D02*
X69987539Y-130663937D01*
X69987539Y-130663937D02*
X70082777Y-130616318D01*
X70082777Y-130616318D02*
X70320872Y-130616318D01*
X70320872Y-130616318D02*
X70416110Y-130663937D01*
X70416110Y-130663937D02*
X70463729Y-130711556D01*
X70463729Y-130711556D02*
X70511348Y-130806794D01*
X70511348Y-130806794D02*
X70511348Y-130902032D01*
X70511348Y-130902032D02*
X70463729Y-131044889D01*
X70463729Y-131044889D02*
X69892301Y-131616318D01*
X69892301Y-131616318D02*
X70511348Y-131616318D01*
X75487539Y-104516318D02*
X75487539Y-103516318D01*
X75487539Y-103516318D02*
X75725634Y-103516318D01*
X75725634Y-103516318D02*
X75868491Y-103563937D01*
X75868491Y-103563937D02*
X75963729Y-103659175D01*
X75963729Y-103659175D02*
X76011348Y-103754413D01*
X76011348Y-103754413D02*
X76058967Y-103944889D01*
X76058967Y-103944889D02*
X76058967Y-104087746D01*
X76058967Y-104087746D02*
X76011348Y-104278222D01*
X76011348Y-104278222D02*
X75963729Y-104373460D01*
X75963729Y-104373460D02*
X75868491Y-104468699D01*
X75868491Y-104468699D02*
X75725634Y-104516318D01*
X75725634Y-104516318D02*
X75487539Y-104516318D01*
X77011348Y-104516318D02*
X76439920Y-104516318D01*
X76725634Y-104516318D02*
X76725634Y-103516318D01*
X76725634Y-103516318D02*
X76630396Y-103659175D01*
X76630396Y-103659175D02*
X76535158Y-103754413D01*
X76535158Y-103754413D02*
X76439920Y-103802032D01*
X81558967Y-131721079D02*
X81511348Y-131768699D01*
X81511348Y-131768699D02*
X81368491Y-131816318D01*
X81368491Y-131816318D02*
X81273253Y-131816318D01*
X81273253Y-131816318D02*
X81130396Y-131768699D01*
X81130396Y-131768699D02*
X81035158Y-131673460D01*
X81035158Y-131673460D02*
X80987539Y-131578222D01*
X80987539Y-131578222D02*
X80939920Y-131387746D01*
X80939920Y-131387746D02*
X80939920Y-131244889D01*
X80939920Y-131244889D02*
X80987539Y-131054413D01*
X80987539Y-131054413D02*
X81035158Y-130959175D01*
X81035158Y-130959175D02*
X81130396Y-130863937D01*
X81130396Y-130863937D02*
X81273253Y-130816318D01*
X81273253Y-130816318D02*
X81368491Y-130816318D01*
X81368491Y-130816318D02*
X81511348Y-130863937D01*
X81511348Y-130863937D02*
X81558967Y-130911556D01*
X82416110Y-130816318D02*
X82225634Y-130816318D01*
X82225634Y-130816318D02*
X82130396Y-130863937D01*
X82130396Y-130863937D02*
X82082777Y-130911556D01*
X82082777Y-130911556D02*
X81987539Y-131054413D01*
X81987539Y-131054413D02*
X81939920Y-131244889D01*
X81939920Y-131244889D02*
X81939920Y-131625841D01*
X81939920Y-131625841D02*
X81987539Y-131721079D01*
X81987539Y-131721079D02*
X82035158Y-131768699D01*
X82035158Y-131768699D02*
X82130396Y-131816318D01*
X82130396Y-131816318D02*
X82320872Y-131816318D01*
X82320872Y-131816318D02*
X82416110Y-131768699D01*
X82416110Y-131768699D02*
X82463729Y-131721079D01*
X82463729Y-131721079D02*
X82511348Y-131625841D01*
X82511348Y-131625841D02*
X82511348Y-131387746D01*
X82511348Y-131387746D02*
X82463729Y-131292508D01*
X82463729Y-131292508D02*
X82416110Y-131244889D01*
X82416110Y-131244889D02*
X82320872Y-131197270D01*
X82320872Y-131197270D02*
X82130396Y-131197270D01*
X82130396Y-131197270D02*
X82035158Y-131244889D01*
X82035158Y-131244889D02*
X81987539Y-131292508D01*
X81987539Y-131292508D02*
X81939920Y-131387746D01*
X69708967Y-126516318D02*
X69375634Y-126040127D01*
X69137539Y-126516318D02*
X69137539Y-125516318D01*
X69137539Y-125516318D02*
X69518491Y-125516318D01*
X69518491Y-125516318D02*
X69613729Y-125563937D01*
X69613729Y-125563937D02*
X69661348Y-125611556D01*
X69661348Y-125611556D02*
X69708967Y-125706794D01*
X69708967Y-125706794D02*
X69708967Y-125849651D01*
X69708967Y-125849651D02*
X69661348Y-125944889D01*
X69661348Y-125944889D02*
X69613729Y-125992508D01*
X69613729Y-125992508D02*
X69518491Y-126040127D01*
X69518491Y-126040127D02*
X69137539Y-126040127D01*
X70613729Y-125516318D02*
X70137539Y-125516318D01*
X70137539Y-125516318D02*
X70089920Y-125992508D01*
X70089920Y-125992508D02*
X70137539Y-125944889D01*
X70137539Y-125944889D02*
X70232777Y-125897270D01*
X70232777Y-125897270D02*
X70470872Y-125897270D01*
X70470872Y-125897270D02*
X70566110Y-125944889D01*
X70566110Y-125944889D02*
X70613729Y-125992508D01*
X70613729Y-125992508D02*
X70661348Y-126087746D01*
X70661348Y-126087746D02*
X70661348Y-126325841D01*
X70661348Y-126325841D02*
X70613729Y-126421079D01*
X70613729Y-126421079D02*
X70566110Y-126468699D01*
X70566110Y-126468699D02*
X70470872Y-126516318D01*
X70470872Y-126516318D02*
X70232777Y-126516318D01*
X70232777Y-126516318D02*
X70137539Y-126468699D01*
X70137539Y-126468699D02*
X70089920Y-126421079D01*
X80558967Y-127166318D02*
X80225634Y-126690127D01*
X79987539Y-127166318D02*
X79987539Y-126166318D01*
X79987539Y-126166318D02*
X80368491Y-126166318D01*
X80368491Y-126166318D02*
X80463729Y-126213937D01*
X80463729Y-126213937D02*
X80511348Y-126261556D01*
X80511348Y-126261556D02*
X80558967Y-126356794D01*
X80558967Y-126356794D02*
X80558967Y-126499651D01*
X80558967Y-126499651D02*
X80511348Y-126594889D01*
X80511348Y-126594889D02*
X80463729Y-126642508D01*
X80463729Y-126642508D02*
X80368491Y-126690127D01*
X80368491Y-126690127D02*
X79987539Y-126690127D01*
X81511348Y-127166318D02*
X80939920Y-127166318D01*
X81225634Y-127166318D02*
X81225634Y-126166318D01*
X81225634Y-126166318D02*
X81130396Y-126309175D01*
X81130396Y-126309175D02*
X81035158Y-126404413D01*
X81035158Y-126404413D02*
X80939920Y-126452032D01*
D13*
G36*
X99371976Y-63867444D02*
G01*
X100440145Y-63892984D01*
X101405399Y-63939842D01*
X102300666Y-64011767D01*
X103158873Y-64112504D01*
X104012947Y-64245800D01*
X104895815Y-64415402D01*
X105840403Y-64625057D01*
X106676967Y-64827706D01*
X108986544Y-65489795D01*
X111236228Y-66307097D01*
X113418996Y-67273960D01*
X115527825Y-68384728D01*
X117555690Y-69633748D01*
X119495568Y-71015365D01*
X121340435Y-72523925D01*
X123083268Y-74153773D01*
X124717043Y-75899256D01*
X126234735Y-77754718D01*
X127629322Y-79714506D01*
X128893779Y-81772965D01*
X129774346Y-83421723D01*
X130760428Y-85564486D01*
X131591551Y-87747951D01*
X132272220Y-89986895D01*
X132806942Y-92296098D01*
X133192458Y-94632165D01*
X133256160Y-95141934D01*
X133304513Y-95622464D01*
X133339481Y-96110995D01*
X133363031Y-96644765D01*
X133377127Y-97261015D01*
X133383736Y-97996984D01*
X133384609Y-98272832D01*
X133385180Y-98958116D01*
X133382589Y-99499465D01*
X133375189Y-99922270D01*
X133361330Y-100251923D01*
X133339365Y-100513815D01*
X133307645Y-100733337D01*
X133264520Y-100935881D01*
X133208343Y-101146839D01*
X133194950Y-101193832D01*
X132786600Y-102313653D01*
X132225060Y-103375352D01*
X131519704Y-104368202D01*
X130679907Y-105281474D01*
X129715045Y-106104441D01*
X128634491Y-106826375D01*
X127945159Y-107201252D01*
X126690702Y-107748262D01*
X125398830Y-108156856D01*
X124082675Y-108430568D01*
X122755371Y-108572934D01*
X121430051Y-108587488D01*
X120119847Y-108477766D01*
X118837893Y-108247303D01*
X117597321Y-107899634D01*
X116411266Y-107438292D01*
X115292860Y-106866815D01*
X114255236Y-106188736D01*
X113311527Y-105407590D01*
X112474867Y-104526912D01*
X111758389Y-103550238D01*
X111288319Y-102717832D01*
X111008232Y-102117014D01*
X110794871Y-101563182D01*
X110637418Y-101011837D01*
X110525058Y-100418478D01*
X110446973Y-99738604D01*
X110399591Y-99061601D01*
X110316433Y-97949426D01*
X110195031Y-96969192D01*
X110027141Y-96086186D01*
X109804519Y-95265694D01*
X109518919Y-94473004D01*
X109162098Y-93673400D01*
X109080506Y-93507683D01*
X108375522Y-92280964D01*
X107542877Y-91161497D01*
X106590613Y-90155253D01*
X105526775Y-89268202D01*
X104359406Y-88506315D01*
X103096550Y-87875563D01*
X101746250Y-87381916D01*
X100369301Y-87041415D01*
X99821196Y-86963538D01*
X99157832Y-86912775D01*
X98428613Y-86889148D01*
X97682942Y-86892679D01*
X96970224Y-86923389D01*
X96339862Y-86981300D01*
X95966634Y-87039478D01*
X94865448Y-87306788D01*
X93764593Y-87671878D01*
X92710436Y-88116104D01*
X91749346Y-88620825D01*
X91250308Y-88935647D01*
X90165523Y-89767060D01*
X89190483Y-90707953D01*
X88335055Y-91743348D01*
X87609107Y-92858265D01*
X87022510Y-94037726D01*
X86585129Y-95266752D01*
X86326012Y-96410165D01*
X86291061Y-96620947D01*
X86258587Y-96820944D01*
X86228486Y-97016730D01*
X86200654Y-97214878D01*
X86174985Y-97421963D01*
X86151374Y-97644557D01*
X86129717Y-97889233D01*
X86109909Y-98162565D01*
X86091844Y-98471126D01*
X86075419Y-98821490D01*
X86060529Y-99220230D01*
X86047068Y-99673920D01*
X86034931Y-100189132D01*
X86024015Y-100772440D01*
X86014214Y-101430418D01*
X86005423Y-102169638D01*
X85997538Y-102996675D01*
X85990453Y-103918101D01*
X85984065Y-104940491D01*
X85978267Y-106070416D01*
X85972956Y-107314451D01*
X85968026Y-108679169D01*
X85963373Y-110171144D01*
X85958891Y-111796948D01*
X85954477Y-113563156D01*
X85950024Y-115476339D01*
X85945430Y-117543073D01*
X85940587Y-119769930D01*
X85938552Y-120709499D01*
X85891301Y-142511165D01*
X85694434Y-143061499D01*
X85292014Y-143952846D01*
X84761542Y-144749448D01*
X84116230Y-145436107D01*
X83369293Y-145997623D01*
X82927967Y-146243642D01*
X82426775Y-146465745D01*
X81928367Y-146640072D01*
X81481459Y-146751591D01*
X81171134Y-146785827D01*
X80938301Y-146786832D01*
X80938301Y-151859434D01*
X80938301Y-156932037D01*
X80661891Y-157465988D01*
X80335427Y-157952869D01*
X79918100Y-158355631D01*
X79449784Y-158639076D01*
X79248216Y-158713855D01*
X79094443Y-158737860D01*
X78802661Y-158758203D01*
X78368168Y-158774974D01*
X77786267Y-158788264D01*
X77052258Y-158798162D01*
X76161441Y-158804761D01*
X75109118Y-158808149D01*
X74324478Y-158808671D01*
X69719967Y-158807844D01*
X69289754Y-158607519D01*
X68763323Y-158273632D01*
X68319955Y-157814230D01*
X68050324Y-157380942D01*
X67857301Y-156989165D01*
X67833630Y-151906832D01*
X67809960Y-146824499D01*
X67240963Y-146717221D01*
X66893112Y-146627384D01*
X66473079Y-146483758D01*
X66057529Y-146313285D01*
X65952301Y-146264354D01*
X65586032Y-146074998D01*
X65276849Y-145877265D01*
X64974954Y-145633971D01*
X64630553Y-145307932D01*
X64511702Y-145188632D01*
X64079462Y-144719872D01*
X63741038Y-144270692D01*
X63462134Y-143786226D01*
X63208457Y-143211606D01*
X63102776Y-142934499D01*
X63086763Y-142886515D01*
X63071867Y-142828442D01*
X63058038Y-142754189D01*
X63045228Y-142657662D01*
X63033390Y-142532770D01*
X63022474Y-142373420D01*
X63012433Y-142173519D01*
X63003218Y-141926975D01*
X62994780Y-141627697D01*
X62987072Y-141269591D01*
X62980045Y-140846565D01*
X62973651Y-140352527D01*
X62967841Y-139781384D01*
X62962568Y-139127045D01*
X62957782Y-138383416D01*
X62953435Y-137544406D01*
X62949480Y-136603921D01*
X62945867Y-135555871D01*
X62942549Y-134394162D01*
X62941676Y-134030021D01*
X63929109Y-134030021D01*
X63929834Y-134735106D01*
X63932127Y-135520027D01*
X63936013Y-136369867D01*
X63940463Y-137113665D01*
X63947457Y-138179795D01*
X63954194Y-139091530D01*
X63962074Y-139863799D01*
X63972498Y-140511531D01*
X63986867Y-141049657D01*
X64006581Y-141493105D01*
X64033041Y-141856807D01*
X64067647Y-142155691D01*
X64111800Y-142404686D01*
X64166901Y-142618723D01*
X64234349Y-142812732D01*
X64315547Y-143001641D01*
X64411893Y-143200381D01*
X64524790Y-143423881D01*
X64534186Y-143442499D01*
X64926746Y-144045697D01*
X65451037Y-144589842D01*
X66073932Y-145054565D01*
X66762307Y-145419502D01*
X67483037Y-145664284D01*
X68202998Y-145768546D01*
X68321087Y-145770832D01*
X68611284Y-145818603D01*
X68824316Y-145944103D01*
X68916628Y-146120613D01*
X68917505Y-146136713D01*
X68917778Y-146237049D01*
X68917921Y-146491860D01*
X68917940Y-146886289D01*
X68917839Y-147405478D01*
X68917623Y-148034568D01*
X68917298Y-148758702D01*
X68916869Y-149563023D01*
X68916341Y-150432671D01*
X68915718Y-151352790D01*
X68915669Y-151422107D01*
X68915106Y-152490462D01*
X68915317Y-153402754D01*
X68916683Y-154172252D01*
X68919587Y-154812227D01*
X68924412Y-155335948D01*
X68931538Y-155756684D01*
X68941348Y-156087706D01*
X68954224Y-156342283D01*
X68970549Y-156533685D01*
X68990704Y-156675181D01*
X69015071Y-156780041D01*
X69044032Y-156861535D01*
X69074122Y-156925440D01*
X69315613Y-157295073D01*
X69619208Y-157542428D01*
X69904863Y-157670832D01*
X70060791Y-157696176D01*
X70365442Y-157718868D01*
X70798224Y-157738830D01*
X71338545Y-157755981D01*
X71965815Y-157770242D01*
X72659442Y-157781532D01*
X73398834Y-157789773D01*
X74163400Y-157794885D01*
X74932549Y-157796787D01*
X75685690Y-157795400D01*
X76402230Y-157790644D01*
X77061579Y-157782439D01*
X77643145Y-157770707D01*
X78126337Y-157755366D01*
X78490564Y-157736338D01*
X78715233Y-157713543D01*
X78755505Y-157705106D01*
X79162359Y-157515735D01*
X79523345Y-157208452D01*
X79734841Y-156915580D01*
X79764670Y-156849651D01*
X79790309Y-156760385D01*
X79812152Y-156634910D01*
X79830594Y-156460355D01*
X79846027Y-156223851D01*
X79858845Y-155912526D01*
X79869443Y-155513510D01*
X79878215Y-155013932D01*
X79885553Y-154400922D01*
X79891852Y-153661609D01*
X79897506Y-152783121D01*
X79902908Y-151752590D01*
X79904775Y-151361475D01*
X79909732Y-150250748D01*
X79914293Y-149297365D01*
X79919785Y-148489347D01*
X79927534Y-147814713D01*
X79938867Y-147261482D01*
X79955111Y-146817675D01*
X79977592Y-146471312D01*
X80007639Y-146210411D01*
X80046576Y-146022994D01*
X80095731Y-145897080D01*
X80156431Y-145820689D01*
X80230003Y-145781840D01*
X80317773Y-145768553D01*
X80421068Y-145768849D01*
X80523922Y-145770832D01*
X81146726Y-145704006D01*
X81813080Y-145517147D01*
X82471959Y-145230685D01*
X83072341Y-144865051D01*
X83363227Y-144633995D01*
X83915997Y-144039418D01*
X84368655Y-143329741D01*
X84647740Y-142689138D01*
X84725151Y-142457455D01*
X84781427Y-142244555D01*
X84820091Y-142016600D01*
X84844662Y-141739746D01*
X84858663Y-141380154D01*
X84865613Y-140903984D01*
X84867733Y-140574636D01*
X84875301Y-139061439D01*
X83908304Y-138861551D01*
X83082709Y-138674721D01*
X82114618Y-138427228D01*
X81017804Y-138123622D01*
X79806044Y-137768453D01*
X78493113Y-137366271D01*
X77092787Y-136921625D01*
X75618840Y-136439066D01*
X74085048Y-135923142D01*
X72505187Y-135378405D01*
X70893031Y-134809403D01*
X69262357Y-134220687D01*
X67626939Y-133616806D01*
X66000553Y-133002311D01*
X64991437Y-132613588D01*
X64609985Y-132466671D01*
X64288717Y-132345116D01*
X64058815Y-132260563D01*
X63951464Y-132224654D01*
X63948193Y-132224165D01*
X63941427Y-132306343D01*
X63936113Y-132542933D01*
X63932272Y-132919019D01*
X63929930Y-133419687D01*
X63929109Y-134030021D01*
X62941676Y-134030021D01*
X62939477Y-133112701D01*
X62936603Y-131705398D01*
X62933878Y-130166158D01*
X62931254Y-128488891D01*
X62930278Y-127797311D01*
X63920301Y-127797311D01*
X66015801Y-128608811D01*
X68695433Y-129631982D01*
X71271202Y-130586057D01*
X73736938Y-131468957D01*
X76086472Y-132278600D01*
X78313633Y-133012908D01*
X80412252Y-133669799D01*
X82376158Y-134247193D01*
X84199182Y-134743010D01*
X84240301Y-134753669D01*
X84543047Y-134832325D01*
X84773385Y-134892671D01*
X84890109Y-134923898D01*
X84896467Y-134925794D01*
X84901237Y-134845997D01*
X84905631Y-134615352D01*
X84909525Y-134252341D01*
X84912796Y-133775449D01*
X84915320Y-133203160D01*
X84916971Y-132553957D01*
X84917628Y-131846326D01*
X84917634Y-131770061D01*
X84917634Y-128606623D01*
X84388467Y-128370272D01*
X84174096Y-128271910D01*
X83832430Y-128111924D01*
X83388684Y-127902271D01*
X82868076Y-127654905D01*
X82295822Y-127381780D01*
X81697139Y-127094853D01*
X81615634Y-127055696D01*
X80299244Y-126429465D01*
X79087622Y-125867381D01*
X77938016Y-125350464D01*
X76807669Y-124859732D01*
X75653826Y-124376203D01*
X74757634Y-124011028D01*
X74045217Y-123726447D01*
X73404692Y-123477441D01*
X72805956Y-123253854D01*
X72218903Y-123045534D01*
X71613429Y-122842325D01*
X70959430Y-122634076D01*
X70226802Y-122410631D01*
X69385441Y-122161836D01*
X68592028Y-121931428D01*
X67393480Y-121575674D01*
X66314222Y-121235507D01*
X65366617Y-120915078D01*
X64563030Y-120618536D01*
X64026134Y-120398676D01*
X63999877Y-120419490D01*
X63978062Y-120514882D01*
X63960340Y-120697018D01*
X63946361Y-120978065D01*
X63935773Y-121370190D01*
X63928228Y-121885560D01*
X63923373Y-122536342D01*
X63920861Y-123334703D01*
X63920301Y-124075013D01*
X63920301Y-127797311D01*
X62930278Y-127797311D01*
X62928683Y-126667503D01*
X62926117Y-124695902D01*
X62925355Y-124075013D01*
X62923506Y-122567996D01*
X62920804Y-120277693D01*
X62920420Y-119947499D01*
X62917675Y-117363126D01*
X62915646Y-114944853D01*
X62914342Y-112689445D01*
X62913774Y-110593670D01*
X62913945Y-108698457D01*
X63920300Y-108698457D01*
X63920301Y-112239210D01*
X63920301Y-115779962D01*
X64576467Y-116120728D01*
X65224616Y-116434621D01*
X65961833Y-116747643D01*
X66804369Y-117065674D01*
X67768478Y-117394591D01*
X68870412Y-117740274D01*
X69864502Y-118033530D01*
X70537786Y-118228998D01*
X71205684Y-118425550D01*
X71837592Y-118613988D01*
X72402907Y-118785108D01*
X72871024Y-118929710D01*
X73211340Y-119038592D01*
X73248635Y-119050994D01*
X73980336Y-119308199D01*
X74838120Y-119630438D01*
X75796632Y-120006986D01*
X76830512Y-120427118D01*
X77914406Y-120880108D01*
X79022956Y-121355230D01*
X80130805Y-121841759D01*
X81212596Y-122328968D01*
X82242973Y-122806133D01*
X83139634Y-123234778D01*
X83614032Y-123464551D01*
X84036900Y-123667269D01*
X84384584Y-123831764D01*
X84633432Y-123946870D01*
X84759789Y-124001417D01*
X84769467Y-124004283D01*
X84785051Y-123924817D01*
X84799229Y-123696224D01*
X84811516Y-123338705D01*
X84821429Y-122872465D01*
X84828484Y-122317706D01*
X84832197Y-121694631D01*
X84832649Y-121365665D01*
X84832332Y-118719832D01*
X83456816Y-118024450D01*
X82537604Y-117554627D01*
X81605070Y-117068490D01*
X80689684Y-116582439D01*
X79821918Y-116112874D01*
X79032241Y-115676195D01*
X78351125Y-115288801D01*
X78087927Y-115134786D01*
X77634041Y-114878358D01*
X77148249Y-114623988D01*
X76689155Y-114401280D01*
X76319457Y-114241428D01*
X74923163Y-113696435D01*
X73672726Y-113205865D01*
X72555607Y-112764267D01*
X71559267Y-112366193D01*
X70671168Y-112006193D01*
X69878770Y-111678819D01*
X69169534Y-111378622D01*
X68530921Y-111100151D01*
X67950394Y-110837959D01*
X67415412Y-110586596D01*
X66913436Y-110340612D01*
X66431929Y-110094559D01*
X65958351Y-109842988D01*
X65480163Y-109580450D01*
X65091155Y-109361857D01*
X63920300Y-108698457D01*
X62913945Y-108698457D01*
X62913949Y-108654295D01*
X62914878Y-106868086D01*
X62916569Y-105231811D01*
X62919032Y-103742236D01*
X62919443Y-103571649D01*
X63898066Y-103571649D01*
X64734683Y-104209134D01*
X65099559Y-104484431D01*
X65455830Y-104748488D01*
X65760110Y-104969417D01*
X65952301Y-105104108D01*
X66281010Y-105311478D01*
X66729795Y-105573603D01*
X67265625Y-105872911D01*
X67855466Y-106191826D01*
X68466288Y-106512775D01*
X69065059Y-106818183D01*
X69618745Y-107090476D01*
X70094317Y-107312081D01*
X70143301Y-107333872D01*
X70541455Y-107505985D01*
X71066123Y-107726864D01*
X71690248Y-107985602D01*
X72386774Y-108271297D01*
X73128646Y-108573041D01*
X73888808Y-108879931D01*
X74640204Y-109181062D01*
X75355777Y-109465527D01*
X76008472Y-109722423D01*
X76571234Y-109940845D01*
X77017005Y-110109886D01*
X77172817Y-110167153D01*
X77833221Y-110419026D01*
X78449501Y-110684333D01*
X79069043Y-110985886D01*
X79739236Y-111346498D01*
X80351421Y-111697352D01*
X80638941Y-111862244D01*
X81015844Y-112073560D01*
X81459906Y-112319305D01*
X81948899Y-112587482D01*
X82460597Y-112866096D01*
X82972773Y-113143150D01*
X83463201Y-113406650D01*
X83909654Y-113644598D01*
X84289906Y-113845000D01*
X84581730Y-113995859D01*
X84762900Y-114085180D01*
X84811801Y-114104661D01*
X84816062Y-114022930D01*
X84819999Y-113788441D01*
X84823526Y-113417765D01*
X84826558Y-112927477D01*
X84829010Y-112334150D01*
X84830799Y-111654358D01*
X84831837Y-110904674D01*
X84832054Y-110147332D01*
X84831141Y-106189165D01*
X84181312Y-105850499D01*
X83929128Y-105712982D01*
X83560195Y-105503581D01*
X83102370Y-105238521D01*
X82583510Y-104934025D01*
X82031473Y-104606316D01*
X81578725Y-104334754D01*
X80963843Y-103965806D01*
X80307991Y-103575210D01*
X79651990Y-103187074D01*
X79036662Y-102825508D01*
X78502829Y-102514621D01*
X78259677Y-102374504D01*
X77711632Y-102054913D01*
X77081087Y-101678435D01*
X76427217Y-101280927D01*
X75809197Y-100898247D01*
X75465677Y-100681417D01*
X74535442Y-100094262D01*
X73541938Y-99477438D01*
X72518548Y-98851085D01*
X71498657Y-98235341D01*
X70515650Y-97650343D01*
X69602911Y-97116231D01*
X68793824Y-96653143D01*
X68703967Y-96602562D01*
X68114066Y-96267547D01*
X67453900Y-95886619D01*
X66782566Y-95494250D01*
X66159159Y-95124914D01*
X65783152Y-94898675D01*
X65221578Y-94564514D01*
X64797300Y-94327142D01*
X64509104Y-94185934D01*
X64355778Y-94140268D01*
X64330273Y-94151046D01*
X64272141Y-94337976D01*
X64215602Y-94679403D01*
X64161603Y-95160493D01*
X64111089Y-95766411D01*
X64065008Y-96482322D01*
X64024304Y-97293393D01*
X63989925Y-98184788D01*
X63962817Y-99141673D01*
X63943927Y-100149212D01*
X63942903Y-100223740D01*
X63898066Y-103571649D01*
X62919443Y-103571649D01*
X62922277Y-102396129D01*
X62926312Y-101190256D01*
X62931147Y-100121384D01*
X62936790Y-99186281D01*
X62943252Y-98381713D01*
X62950542Y-97704447D01*
X62958668Y-97151250D01*
X62967641Y-96718890D01*
X62977469Y-96404132D01*
X62988161Y-96203744D01*
X62988572Y-96198499D01*
X63261909Y-93825471D01*
X63700013Y-91478060D01*
X64149850Y-89741635D01*
X65274967Y-89741635D01*
X65344713Y-89830696D01*
X65532618Y-89975072D01*
X65806683Y-90151804D01*
X66015801Y-90273119D01*
X66348830Y-90462500D01*
X66781384Y-90714186D01*
X67268710Y-91001837D01*
X67766057Y-91299113D01*
X68030037Y-91458621D01*
X68530520Y-91758541D01*
X69126332Y-92109481D01*
X69764551Y-92480633D01*
X70392256Y-92841189D01*
X70866370Y-93109780D01*
X71856442Y-93675293D01*
X72955003Y-94319291D01*
X74131618Y-95023441D01*
X75355853Y-95769409D01*
X76597273Y-96538862D01*
X77466967Y-97085921D01*
X78036046Y-97442043D01*
X78660455Y-97825865D01*
X79289881Y-98206913D01*
X79874015Y-98554712D01*
X80330821Y-98820644D01*
X80829510Y-99109356D01*
X81421529Y-99456986D01*
X82056145Y-99833451D01*
X82682631Y-100208669D01*
X83208376Y-100527012D01*
X83732578Y-100844550D01*
X84131153Y-101080182D01*
X84421543Y-101242582D01*
X84621192Y-101340425D01*
X84747540Y-101382386D01*
X84818031Y-101377139D01*
X84847071Y-101342009D01*
X84870549Y-101202157D01*
X84890631Y-100932369D01*
X84905126Y-100572036D01*
X84911754Y-100177832D01*
X84944546Y-99109412D01*
X85026623Y-97968150D01*
X85151366Y-96841046D01*
X85183291Y-96607758D01*
X85281455Y-95916350D01*
X84393422Y-94872091D01*
X84089396Y-94511129D01*
X83705733Y-94050269D01*
X83268883Y-93521597D01*
X82805296Y-92957197D01*
X82341425Y-92389152D01*
X82014677Y-91986735D01*
X80523966Y-90145638D01*
X80724358Y-89700735D01*
X80858659Y-89317533D01*
X80978505Y-88814322D01*
X81073837Y-88240365D01*
X81129354Y-87717293D01*
X81149967Y-87448754D01*
X81739266Y-87951656D01*
X82226635Y-88318301D01*
X82663459Y-88534325D01*
X83069486Y-88603160D01*
X83464465Y-88528239D01*
X83857949Y-88319949D01*
X84169962Y-88108211D01*
X84353298Y-88341696D01*
X84656001Y-88723266D01*
X84994503Y-89143385D01*
X85352410Y-89582406D01*
X85713324Y-90020683D01*
X86060851Y-90438569D01*
X86378595Y-90816418D01*
X86650160Y-91134584D01*
X86859150Y-91373420D01*
X86989171Y-91513280D01*
X87023932Y-91541832D01*
X87101605Y-91478285D01*
X87254358Y-91306933D01*
X87457387Y-91056709D01*
X87610542Y-90857552D01*
X88268980Y-90076263D01*
X89050334Y-89303036D01*
X89914129Y-88570789D01*
X90819891Y-87912438D01*
X91727144Y-87360900D01*
X92212726Y-87114720D01*
X92534244Y-86961442D01*
X92729447Y-86852988D01*
X92826127Y-86764008D01*
X92852080Y-86669156D01*
X92835761Y-86546499D01*
X92797623Y-86350388D01*
X92737441Y-86041779D01*
X92665687Y-85674356D01*
X92633430Y-85509332D01*
X92480297Y-84726165D01*
X92667654Y-84726165D01*
X92862211Y-84698298D01*
X93126237Y-84628400D01*
X93223508Y-84596152D01*
X93443454Y-84526224D01*
X93603661Y-84515055D01*
X93774820Y-84571205D01*
X94004723Y-84690767D01*
X94469746Y-84858119D01*
X94929015Y-84866898D01*
X95355644Y-84726539D01*
X95722744Y-84446477D01*
X96003430Y-84036148D01*
X96029285Y-83980286D01*
X96198813Y-83597039D01*
X96305856Y-83908404D01*
X96397290Y-84139060D01*
X96484850Y-84306784D01*
X96497982Y-84324801D01*
X96543582Y-84437580D01*
X96610677Y-84666709D01*
X96687206Y-84962561D01*
X96761111Y-85275510D01*
X96820332Y-85555930D01*
X96852810Y-85754195D01*
X96855634Y-85796597D01*
X96933651Y-85807084D01*
X97142291Y-85804340D01*
X97443434Y-85789276D01*
X97596467Y-85778903D01*
X98187394Y-85763553D01*
X98885474Y-85789950D01*
X99635049Y-85853285D01*
X100380464Y-85948749D01*
X101066062Y-86071533D01*
X101121517Y-86083451D01*
X101462692Y-86156578D01*
X101739389Y-86213388D01*
X101911298Y-86245724D01*
X101945394Y-86250165D01*
X101995485Y-86175529D01*
X102047957Y-85988936D01*
X102062634Y-85911499D01*
X102113001Y-85699970D01*
X102169538Y-85581796D01*
X102186201Y-85572832D01*
X102286091Y-85604972D01*
X102506780Y-85692197D01*
X102814378Y-85820709D01*
X103131259Y-85957530D01*
X103531163Y-86121292D01*
X103919332Y-86260661D01*
X104244029Y-86358057D01*
X104411553Y-86392588D01*
X104902743Y-86380991D01*
X105345548Y-86234374D01*
X105717695Y-85976093D01*
X105996908Y-85629503D01*
X106160912Y-85217961D01*
X106187433Y-84764823D01*
X106152160Y-84567492D01*
X106101029Y-84326036D01*
X106107502Y-84200430D01*
X106174077Y-84146411D01*
X106175944Y-84145788D01*
X106388389Y-84012347D01*
X106614275Y-83774273D01*
X106809691Y-83486262D01*
X106929692Y-83206901D01*
X106983951Y-82907542D01*
X106954954Y-82636602D01*
X106907153Y-82473012D01*
X106838814Y-82245526D01*
X106832816Y-82128396D01*
X106892589Y-82073228D01*
X106936590Y-82057381D01*
X107134003Y-81934347D01*
X107356022Y-81709418D01*
X107560039Y-81436119D01*
X107703443Y-81167975D01*
X107739939Y-81048217D01*
X107771418Y-80667121D01*
X107699673Y-80327183D01*
X107509183Y-79987443D01*
X107199890Y-79623142D01*
X106844371Y-79273321D01*
X106450940Y-78925084D01*
X106062859Y-78614033D01*
X105723388Y-78375768D01*
X105587165Y-78295987D01*
X105373390Y-78215062D01*
X105093778Y-78146854D01*
X105023078Y-78134840D01*
X104659794Y-78079832D01*
X104922035Y-77444832D01*
X105046118Y-77146842D01*
X105144243Y-76915794D01*
X105199710Y-76790867D01*
X105205438Y-76780072D01*
X105281891Y-76806163D01*
X105463218Y-76902792D01*
X105711425Y-77049598D01*
X105731883Y-77062191D01*
X106219136Y-77308963D01*
X106658907Y-77423606D01*
X107031076Y-77401396D01*
X107092148Y-77381443D01*
X107241725Y-77354944D01*
X107411858Y-77404015D01*
X107652080Y-77544705D01*
X107705210Y-77580071D01*
X108034804Y-77761755D01*
X108409011Y-77911677D01*
X108581196Y-77960060D01*
X108834851Y-78032841D01*
X109004257Y-78112124D01*
X109047634Y-78163371D01*
X109015514Y-78278717D01*
X108928888Y-78510898D01*
X108802359Y-78822157D01*
X108700827Y-79060065D01*
X108126769Y-80421380D01*
X107628127Y-81698550D01*
X107186066Y-82946505D01*
X106781751Y-84220173D01*
X106396348Y-85574485D01*
X106163391Y-86460170D01*
X106021215Y-87022491D01*
X105920402Y-87442654D01*
X105857339Y-87741751D01*
X105828417Y-87940875D01*
X105830025Y-88061121D01*
X105858551Y-88123580D01*
X105876358Y-88136924D01*
X106204405Y-88356432D01*
X106608048Y-88682043D01*
X107059211Y-89085974D01*
X107529820Y-89540440D01*
X107991797Y-90017657D01*
X108417069Y-90489841D01*
X108777560Y-90929206D01*
X108981200Y-91209573D01*
X109160005Y-91462726D01*
X109305579Y-91646669D01*
X109391343Y-91728349D01*
X109399223Y-91729430D01*
X109516399Y-91650936D01*
X109739482Y-91463218D01*
X110056174Y-91178297D01*
X110454176Y-90808198D01*
X110921188Y-90364941D01*
X111444911Y-89860551D01*
X112013047Y-89307050D01*
X112613297Y-88716461D01*
X113233360Y-88100806D01*
X113860939Y-87472108D01*
X114483733Y-86842390D01*
X115089445Y-86223675D01*
X115665775Y-85627985D01*
X116022372Y-85255082D01*
X116687044Y-84556332D01*
X116990190Y-84822498D01*
X117219405Y-85066166D01*
X117416397Y-85344733D01*
X117456126Y-85417691D01*
X117724589Y-85783328D01*
X118096567Y-86026254D01*
X118552604Y-86140172D01*
X119073247Y-86118784D01*
X119390701Y-86043869D01*
X119635224Y-85977419D01*
X119776478Y-85970767D01*
X119870502Y-86026310D01*
X119906989Y-86065952D01*
X120068670Y-86284004D01*
X120109686Y-86435627D01*
X120061405Y-86537938D01*
X119972471Y-86689683D01*
X119875663Y-86915545D01*
X119863616Y-86948847D01*
X119755323Y-87139928D01*
X119534242Y-87433290D01*
X119212437Y-87816820D01*
X118801969Y-88278406D01*
X118314903Y-88805932D01*
X117763301Y-89387287D01*
X117159226Y-90010358D01*
X116514741Y-90663030D01*
X115841909Y-91333192D01*
X115152793Y-92008729D01*
X114459456Y-92677529D01*
X113773961Y-93327478D01*
X113108371Y-93946464D01*
X112474749Y-94522372D01*
X111885158Y-95043091D01*
X111351661Y-95496506D01*
X111350030Y-95497859D01*
X111071728Y-95728552D01*
X111204490Y-96344525D01*
X111254391Y-96637520D01*
X111308063Y-97056644D01*
X111360865Y-97558902D01*
X111408158Y-98101299D01*
X111435988Y-98489393D01*
X111534724Y-100018288D01*
X112048012Y-99833669D01*
X112429112Y-99694980D01*
X112676442Y-99615437D01*
X112818604Y-99606137D01*
X112884203Y-99678181D01*
X112901843Y-99842668D01*
X112900127Y-100110699D01*
X112899967Y-100164268D01*
X112907697Y-100505103D01*
X112940937Y-100735964D01*
X113014761Y-100915891D01*
X113137705Y-101095371D01*
X113373778Y-101346486D01*
X113676133Y-101550389D01*
X114077738Y-101724305D01*
X114611560Y-101885459D01*
X114687324Y-101905079D01*
X115370269Y-102055062D01*
X116017273Y-102150888D01*
X116603459Y-102191899D01*
X117103947Y-102177437D01*
X117493858Y-102106842D01*
X117740743Y-101985902D01*
X117901544Y-101939348D01*
X118165535Y-101951857D01*
X118202924Y-101957739D01*
X118370104Y-101991237D01*
X118449941Y-102027025D01*
X118428599Y-102072582D01*
X118292244Y-102135383D01*
X118027041Y-102222906D01*
X117619155Y-102342627D01*
X117348873Y-102419300D01*
X116932039Y-102541092D01*
X116449974Y-102688797D01*
X115928519Y-102853758D01*
X115393514Y-103027319D01*
X114870801Y-103200824D01*
X114386219Y-103365617D01*
X113965609Y-103513042D01*
X113634813Y-103634443D01*
X113419670Y-103721165D01*
X113348657Y-103759276D01*
X113368863Y-103850527D01*
X113501619Y-104023543D01*
X113724467Y-104257882D01*
X114014945Y-104533100D01*
X114350597Y-104828754D01*
X114708962Y-105124404D01*
X115067581Y-105399605D01*
X115403995Y-105633915D01*
X115418724Y-105643476D01*
X116578827Y-106296070D01*
X117835734Y-106820052D01*
X119166898Y-107206933D01*
X120011967Y-107372988D01*
X120582206Y-107436863D01*
X121268176Y-107469162D01*
X122019509Y-107471245D01*
X122785838Y-107444473D01*
X123516795Y-107390207D01*
X124162012Y-107309807D01*
X124473815Y-107252444D01*
X125736401Y-106913193D01*
X126921571Y-106457746D01*
X128018567Y-105895205D01*
X129016630Y-105234672D01*
X129905000Y-104485249D01*
X130672919Y-103656038D01*
X131309626Y-102756140D01*
X131804363Y-101794659D01*
X132146371Y-100780694D01*
X132152395Y-100756666D01*
X132242796Y-100349877D01*
X132321371Y-99920220D01*
X132371164Y-99560454D01*
X132371283Y-99559273D01*
X132425112Y-99025381D01*
X132102873Y-99080766D01*
X131721710Y-99157413D01*
X131180158Y-99283828D01*
X130479577Y-99459679D01*
X129621327Y-99684630D01*
X129382607Y-99748415D01*
X128970629Y-99858199D01*
X128620694Y-99950192D01*
X128363533Y-100016409D01*
X128229874Y-100048870D01*
X128218440Y-100050832D01*
X128202844Y-99972217D01*
X128190063Y-99760573D01*
X128181801Y-99452201D01*
X128179686Y-99225332D01*
X128146046Y-98314471D01*
X128047411Y-97519643D01*
X127877870Y-96798191D01*
X127815986Y-96600799D01*
X127612880Y-95987099D01*
X127961090Y-95894579D01*
X128178808Y-95836137D01*
X128514118Y-95745427D01*
X128921276Y-95634850D01*
X129354093Y-95516930D01*
X129861340Y-95386574D01*
X130415619Y-95257138D01*
X130941079Y-95145736D01*
X131274608Y-95083639D01*
X131664191Y-95016111D01*
X131915188Y-94963784D01*
X132056087Y-94914319D01*
X132115380Y-94855371D01*
X132121558Y-94774600D01*
X132113314Y-94720321D01*
X132085744Y-94555638D01*
X132037711Y-94264359D01*
X131975876Y-93887035D01*
X131906904Y-93464216D01*
X131904074Y-93446832D01*
X131605009Y-91898362D01*
X131205581Y-90282432D01*
X130721969Y-88654429D01*
X130170354Y-87069742D01*
X129690626Y-85869586D01*
X129446446Y-85316888D01*
X129159074Y-84699869D01*
X128846786Y-84054975D01*
X128527859Y-83418653D01*
X128220570Y-82827349D01*
X127943196Y-82317510D01*
X127714013Y-81925583D01*
X127707826Y-81915630D01*
X127460096Y-81518095D01*
X126151346Y-82219809D01*
X124842596Y-82921522D01*
X124617288Y-82610493D01*
X124313642Y-82300103D01*
X123924906Y-82100010D01*
X123438204Y-82007736D01*
X122840659Y-82020807D01*
X122135738Y-82133306D01*
X121856479Y-82186414D01*
X121656489Y-82214087D01*
X121578329Y-82210463D01*
X121578301Y-82210063D01*
X121621730Y-82119994D01*
X121727030Y-81956282D01*
X121734684Y-81945235D01*
X121977323Y-81468647D01*
X122076662Y-80963167D01*
X122027370Y-80467896D01*
X121962363Y-80275435D01*
X121838425Y-79978811D01*
X122322196Y-79669132D01*
X122572949Y-79516403D01*
X122931759Y-79308109D01*
X123357036Y-79067924D01*
X123807186Y-78819524D01*
X123969609Y-78731412D01*
X125133252Y-78103371D01*
X124701758Y-77583601D01*
X123099814Y-75767036D01*
X121431413Y-74099973D01*
X119682956Y-72571045D01*
X117840844Y-71168880D01*
X115891478Y-69882112D01*
X114550083Y-69096424D01*
X114138521Y-68875345D01*
X113851313Y-68742927D01*
X113672689Y-68692758D01*
X113596209Y-68708473D01*
X113516414Y-68817965D01*
X113385239Y-69043409D01*
X113223579Y-69347619D01*
X113111815Y-69570463D01*
X112731740Y-70345876D01*
X112379200Y-70293009D01*
X111991488Y-70253715D01*
X111565111Y-70240149D01*
X111153935Y-70251139D01*
X110811824Y-70285509D01*
X110617784Y-70331381D01*
X110502203Y-70365589D01*
X110387973Y-70363052D01*
X110244332Y-70310327D01*
X110040520Y-70193968D01*
X109745774Y-70000532D01*
X109538571Y-69859703D01*
X109216036Y-69636920D01*
X108952034Y-69449794D01*
X108773900Y-69318038D01*
X108708967Y-69261435D01*
X108744864Y-69178629D01*
X108843649Y-68972050D01*
X108991959Y-68669123D01*
X109176436Y-68297270D01*
X109265357Y-68119412D01*
X109457022Y-67723497D01*
X109610508Y-67380253D01*
X109714120Y-67118015D01*
X109756161Y-66965123D01*
X109752190Y-66939842D01*
X109627147Y-66872257D01*
X109364307Y-66769556D01*
X108989570Y-66639947D01*
X108528836Y-66491639D01*
X108008007Y-66332838D01*
X107452981Y-66171754D01*
X106889660Y-66016594D01*
X106592301Y-65938461D01*
X105234670Y-65613167D01*
X103932053Y-65355424D01*
X102627282Y-65156338D01*
X101263187Y-65007013D01*
X99988301Y-64910943D01*
X99307399Y-64878936D01*
X98569914Y-64861976D01*
X97815422Y-64859550D01*
X97083504Y-64871151D01*
X96413736Y-64896266D01*
X95845698Y-64934388D01*
X95530945Y-64968383D01*
X95179924Y-65015416D01*
X95039485Y-65959624D01*
X94970204Y-66427111D01*
X94917150Y-66749330D01*
X94868276Y-66947966D01*
X94811535Y-67044707D01*
X94734878Y-67061241D01*
X94626258Y-67019253D01*
X94490010Y-66948738D01*
X94027284Y-66801494D01*
X93547288Y-66816871D01*
X93059203Y-66990236D01*
X92572207Y-67316955D01*
X92095481Y-67792394D01*
X91661048Y-68376702D01*
X91212203Y-69171410D01*
X90928365Y-69929527D01*
X90809611Y-70652826D01*
X90856017Y-71343082D01*
X91067659Y-72002068D01*
X91444616Y-72631558D01*
X91866059Y-73115908D01*
X92419935Y-73617744D01*
X92944565Y-73973053D01*
X93468156Y-74194594D01*
X94018916Y-74295128D01*
X94479382Y-74298101D01*
X95052312Y-74265727D01*
X95196703Y-75453113D01*
X95252488Y-75898503D01*
X95305323Y-76296346D01*
X95350117Y-76609947D01*
X95381781Y-76802612D01*
X95387739Y-76830456D01*
X95408930Y-76949798D01*
X95364562Y-76979340D01*
X95216142Y-76928960D01*
X95134991Y-76895320D01*
X94988840Y-76847018D01*
X94808153Y-76817742D01*
X94562264Y-76806565D01*
X94220505Y-76812560D01*
X93752206Y-76834802D01*
X93538449Y-76847098D01*
X93010183Y-76886269D01*
X92520578Y-76937110D01*
X92110856Y-76994532D01*
X91822238Y-77053446D01*
X91788449Y-77063162D01*
X91537338Y-77134702D01*
X91362329Y-77173927D01*
X91310583Y-77175425D01*
X91286293Y-77076750D01*
X91248216Y-76830293D01*
X91198771Y-76456828D01*
X91140372Y-75977129D01*
X91075437Y-75411972D01*
X91006382Y-74782129D01*
X90935624Y-74108375D01*
X90865579Y-73411485D01*
X90829791Y-73042165D01*
X90739789Y-71950529D01*
X90677893Y-70869280D01*
X90644284Y-69825003D01*
X90639148Y-68844281D01*
X90662668Y-67953700D01*
X90715026Y-67179844D01*
X90785438Y-66614450D01*
X90840710Y-66248155D01*
X90878005Y-65947969D01*
X90893280Y-65750393D01*
X90887695Y-65691338D01*
X90790095Y-65693377D01*
X90557997Y-65736927D01*
X90219069Y-65814750D01*
X89800975Y-65919609D01*
X89331385Y-66044266D01*
X88837964Y-66181485D01*
X88348379Y-66324027D01*
X87890297Y-66464656D01*
X87711634Y-66522167D01*
X85615884Y-67289296D01*
X83540106Y-68208025D01*
X81517427Y-69261409D01*
X79580973Y-70432501D01*
X78170570Y-71403015D01*
X77696193Y-71757337D01*
X77183647Y-72155301D01*
X76661536Y-72573309D01*
X76158460Y-72987763D01*
X75703022Y-73375063D01*
X75323823Y-73711611D01*
X75049466Y-73973808D01*
X75028371Y-73995578D01*
X74748775Y-74287034D01*
X74922495Y-74744099D01*
X75016754Y-75001983D01*
X75079861Y-75193569D01*
X75096258Y-75262651D01*
X75032985Y-75337313D01*
X74863420Y-75485923D01*
X74618004Y-75682536D01*
X74478329Y-75789259D01*
X74004569Y-76187594D01*
X73688562Y-76564715D01*
X73525133Y-76945535D01*
X73509105Y-77354967D01*
X73635302Y-77817926D01*
X73898548Y-78359325D01*
X73932074Y-78418499D01*
X74111549Y-78742188D01*
X74261080Y-79030682D01*
X74357469Y-79238441D01*
X74376721Y-79291341D01*
X74397435Y-79392286D01*
X74360758Y-79409926D01*
X74240550Y-79336443D01*
X74048992Y-79193305D01*
X73572285Y-78893707D01*
X73112829Y-78744837D01*
X72706240Y-78728881D01*
X72351518Y-78757165D01*
X72001673Y-78142377D01*
X71651828Y-77527589D01*
X70844868Y-78608044D01*
X69620321Y-80341048D01*
X68538728Y-82075393D01*
X67577862Y-83849668D01*
X66715491Y-85702462D01*
X66594808Y-85985853D01*
X66427316Y-86397303D01*
X66242489Y-86874137D01*
X66049995Y-87388848D01*
X65859501Y-87913925D01*
X65680675Y-88421860D01*
X65523182Y-88885143D01*
X65396692Y-89276264D01*
X65310870Y-89567714D01*
X65275384Y-89731984D01*
X65274967Y-89741635D01*
X64149850Y-89741635D01*
X64299123Y-89165422D01*
X65055475Y-86896712D01*
X65965306Y-84681082D01*
X67024853Y-82527690D01*
X68230353Y-80445688D01*
X69578044Y-78444232D01*
X71064161Y-76532477D01*
X71079997Y-76513499D01*
X71545937Y-75976496D01*
X72105673Y-75365118D01*
X72724303Y-74715035D01*
X73366925Y-74061922D01*
X73998638Y-73441449D01*
X74584540Y-72889290D01*
X74926967Y-72581559D01*
X76843036Y-71010074D01*
X78830727Y-69591694D01*
X80891036Y-68325969D01*
X83024959Y-67212447D01*
X85233495Y-66250676D01*
X87517638Y-65440205D01*
X89878386Y-64780582D01*
X92316735Y-64271355D01*
X93765301Y-64044961D01*
X94153226Y-63993968D01*
X94514646Y-63953068D01*
X94874929Y-63921194D01*
X95259445Y-63897277D01*
X95693561Y-63880247D01*
X96202645Y-63869037D01*
X96812068Y-63862577D01*
X97547196Y-63859798D01*
X98167967Y-63859477D01*
X99371976Y-63867444D01*
G37*
G36*
X121447419Y-96613292D02*
G01*
X121755401Y-96762392D01*
X122073184Y-97035316D01*
X122371022Y-97391238D01*
X122619167Y-97789332D01*
X122787871Y-98188771D01*
X122847473Y-98534744D01*
X122806014Y-98864360D01*
X122694770Y-99272181D01*
X122535634Y-99694043D01*
X122350501Y-100065785D01*
X122294081Y-100156557D01*
X122175493Y-100345275D01*
X122116150Y-100459054D01*
X122115876Y-100474165D01*
X122329819Y-100448297D01*
X122633049Y-100382778D01*
X122955685Y-100295741D01*
X123227842Y-100205316D01*
X123337273Y-100157277D01*
X123537670Y-100066151D01*
X123682683Y-100063689D01*
X123845273Y-100138920D01*
X124032239Y-100330422D01*
X124110532Y-100598450D01*
X124071703Y-100883038D01*
X123974373Y-101055070D01*
X123797927Y-101174186D01*
X123478786Y-101291746D01*
X123043537Y-101401943D01*
X122518765Y-101498970D01*
X121931057Y-101577018D01*
X121355178Y-101627229D01*
X120967086Y-101651047D01*
X120712270Y-101657873D01*
X120555051Y-101642040D01*
X120459750Y-101597884D01*
X120390690Y-101519738D01*
X120356482Y-101468639D01*
X120266941Y-101255237D01*
X120282127Y-101023198D01*
X120410967Y-100748687D01*
X120662392Y-100407872D01*
X120824728Y-100218817D01*
X121117686Y-99852936D01*
X121378182Y-99462511D01*
X121584119Y-99086838D01*
X121713401Y-98765209D01*
X121746807Y-98579159D01*
X121678449Y-98324518D01*
X121495281Y-98041465D01*
X121233657Y-97777900D01*
X121029776Y-97634416D01*
X120739882Y-97413502D01*
X120612421Y-97178181D01*
X120640496Y-96913083D01*
X120672257Y-96837729D01*
X120846461Y-96656176D01*
X121125214Y-96580189D01*
X121447419Y-96613292D01*
G37*
G36*
X115139799Y-96848872D02*
G01*
X115499371Y-96947633D01*
X115863519Y-97139896D01*
X116145691Y-97366956D01*
X116484606Y-97779490D01*
X116654858Y-98203618D01*
X116656559Y-98637207D01*
X116489822Y-99078119D01*
X116154760Y-99524220D01*
X116025055Y-99655279D01*
X115826140Y-99857957D01*
X115696044Y-100014268D01*
X115662932Y-100090352D01*
X115761785Y-100115199D01*
X115990037Y-100144782D01*
X116308014Y-100174455D01*
X116505272Y-100189029D01*
X116967707Y-100233511D01*
X117284735Y-100301549D01*
X117479856Y-100404728D01*
X117576573Y-100554631D01*
X117598967Y-100728165D01*
X117524722Y-100990131D01*
X117305871Y-101172650D01*
X116948242Y-101274017D01*
X116457663Y-101292525D01*
X115876802Y-101232276D01*
X115292496Y-101124319D01*
X114771163Y-100994346D01*
X114340203Y-100851272D01*
X114027012Y-100704009D01*
X113872173Y-100580078D01*
X113731036Y-100324421D01*
X113733785Y-100085030D01*
X113886893Y-99848834D01*
X114196829Y-99602763D01*
X114424030Y-99465488D01*
X114792649Y-99234138D01*
X115119666Y-98986124D01*
X115375965Y-98747609D01*
X115532431Y-98544757D01*
X115566967Y-98438458D01*
X115493860Y-98262464D01*
X115312384Y-98091749D01*
X115079312Y-97969049D01*
X114897055Y-97934165D01*
X114587048Y-97867294D01*
X114378551Y-97682378D01*
X114297241Y-97402965D01*
X114296967Y-97383832D01*
X114363387Y-97111093D01*
X114544322Y-96930853D01*
X114812287Y-96843362D01*
X115139799Y-96848872D01*
G37*
G36*
X118947967Y-96762156D02*
G01*
X119153841Y-96821844D01*
X119350445Y-96957470D01*
X119450147Y-97044860D01*
X119695025Y-97319379D01*
X119858521Y-97651065D01*
X119916058Y-97833581D01*
X120024357Y-98408714D01*
X120045293Y-99010627D01*
X119985233Y-99601742D01*
X119850541Y-100144479D01*
X119647584Y-100601261D01*
X119392207Y-100926040D01*
X119102008Y-101082998D01*
X118741323Y-101123941D01*
X118365917Y-101045699D01*
X118244553Y-100991237D01*
X117854114Y-100700355D01*
X117591891Y-100300969D01*
X117457718Y-99792382D01*
X117453598Y-99387298D01*
X118544007Y-99387298D01*
X118556665Y-99684101D01*
X118607583Y-99889177D01*
X118697437Y-99966163D01*
X118697984Y-99966165D01*
X118767372Y-99892556D01*
X118844939Y-99708272D01*
X118868780Y-99628194D01*
X118954077Y-99111566D01*
X118954241Y-98571973D01*
X118909712Y-98268396D01*
X118844986Y-97976499D01*
X118728819Y-98310146D01*
X118630761Y-98663957D01*
X118568931Y-99035129D01*
X118544007Y-99387298D01*
X117453598Y-99387298D01*
X117451427Y-99173894D01*
X117572853Y-98444810D01*
X117604810Y-98315165D01*
X117686300Y-97966352D01*
X117745425Y-97652998D01*
X117771645Y-97432640D01*
X117771960Y-97402672D01*
X117838898Y-97143274D01*
X117974597Y-96958172D01*
X118136461Y-96829941D01*
X118330399Y-96766876D01*
X118621430Y-96748921D01*
X118653208Y-96748832D01*
X118947967Y-96762156D01*
G37*
G36*
X126277719Y-95327072D02*
G01*
X126417411Y-95398799D01*
X126508580Y-95553188D01*
X126567705Y-95818748D01*
X126611267Y-96223989D01*
X126612913Y-96243435D01*
X126652385Y-96710832D01*
X126687196Y-97035652D01*
X126730048Y-97243758D01*
X126793637Y-97361015D01*
X126890664Y-97413286D01*
X127033828Y-97426434D01*
X127193631Y-97426165D01*
X127597064Y-97465597D01*
X127859748Y-97588498D01*
X127991973Y-97801781D01*
X128012967Y-97976499D01*
X127955714Y-98245631D01*
X127776294Y-98421250D01*
X127463211Y-98510970D01*
X127182367Y-98526832D01*
X126728111Y-98526832D01*
X126788890Y-99545158D01*
X126812467Y-99983279D01*
X126819807Y-100285544D01*
X126808402Y-100484873D01*
X126775741Y-100614188D01*
X126719314Y-100706407D01*
X126698529Y-100730491D01*
X126472161Y-100867605D01*
X126198407Y-100882635D01*
X125947877Y-100774951D01*
X125905702Y-100737567D01*
X125812468Y-100599755D01*
X125760278Y-100390751D01*
X125738978Y-100065776D01*
X125737712Y-99996734D01*
X125725666Y-99636744D01*
X125702532Y-99289609D01*
X125678638Y-99071166D01*
X125627623Y-98726500D01*
X125154580Y-98790693D01*
X124619554Y-98811777D01*
X124139209Y-98731968D01*
X123741751Y-98561794D01*
X123455382Y-98311781D01*
X123343424Y-98114714D01*
X123256159Y-97830370D01*
X123179334Y-97478110D01*
X123119278Y-97104656D01*
X123082317Y-96756729D01*
X123074780Y-96481053D01*
X123101352Y-96327271D01*
X123301447Y-96099802D01*
X123563933Y-96025238D01*
X123786755Y-96074448D01*
X123931016Y-96161194D01*
X124039324Y-96304180D01*
X124124767Y-96534555D01*
X124200435Y-96883466D01*
X124248056Y-97172165D01*
X124318213Y-97486514D01*
X124430758Y-97677830D01*
X124614827Y-97760541D01*
X124899554Y-97749074D01*
X125257795Y-97672216D01*
X125625606Y-97579600D01*
X125579272Y-96573936D01*
X125562393Y-96086093D01*
X125570543Y-95742119D01*
X125613395Y-95517249D01*
X125700618Y-95386717D01*
X125841884Y-95325757D01*
X126046863Y-95309603D01*
X126073022Y-95309499D01*
X126277719Y-95327072D01*
G37*
G36*
X73368199Y-87317219D02*
G01*
X73497594Y-87363461D01*
X73619208Y-87477341D01*
X73770666Y-87688977D01*
X73880881Y-87858832D01*
X74098716Y-88191398D01*
X74366167Y-88589925D01*
X74634740Y-88982359D01*
X74707142Y-89086499D01*
X74958230Y-89454275D01*
X75213279Y-89841454D01*
X75428176Y-90180688D01*
X75482747Y-90270609D01*
X75638765Y-90528401D01*
X75760937Y-90723739D01*
X75823632Y-90815679D01*
X75824467Y-90816554D01*
X75910807Y-90796340D01*
X76117744Y-90712665D01*
X76414875Y-90578700D01*
X76771795Y-90407614D01*
X76795631Y-90395873D01*
X77187872Y-90204295D01*
X77460343Y-90080084D01*
X77644436Y-90014294D01*
X77771541Y-89997978D01*
X77873051Y-90022189D01*
X77957129Y-90064841D01*
X78114060Y-90187034D01*
X78178108Y-90359328D01*
X78186634Y-90525841D01*
X78168918Y-90742587D01*
X78089671Y-90893648D01*
X77909744Y-91043180D01*
X77843155Y-91088707D01*
X77548253Y-91263474D01*
X77169612Y-91455386D01*
X76754417Y-91643993D01*
X76349852Y-91808840D01*
X76003101Y-91929475D01*
X75779154Y-91983382D01*
X75484111Y-91972035D01*
X75255904Y-91849077D01*
X75108443Y-91694273D01*
X74915453Y-91439869D01*
X74713189Y-91134539D01*
X74666553Y-91057849D01*
X74461522Y-90727708D01*
X74195769Y-90318763D01*
X73907749Y-89889460D01*
X73699956Y-89588853D01*
X73436765Y-89203588D01*
X73183510Y-88814431D01*
X72971852Y-88471050D01*
X72849973Y-88255478D01*
X72715990Y-87988424D01*
X72655537Y-87817566D01*
X72659830Y-87691117D01*
X72720086Y-87557290D01*
X72728880Y-87541457D01*
X72850259Y-87383020D01*
X73019183Y-87317789D01*
X73193400Y-87308499D01*
X73368199Y-87317219D01*
G37*
G36*
X125893628Y-85009357D02*
G01*
X126335100Y-85181219D01*
X126726015Y-85502367D01*
X127050466Y-85966128D01*
X127094341Y-86051478D01*
X127286709Y-86520144D01*
X127355554Y-86889206D01*
X127301713Y-87153586D01*
X127126020Y-87308205D01*
X126880767Y-87349535D01*
X126668811Y-87334030D01*
X126518466Y-87268238D01*
X126393721Y-87119506D01*
X126258567Y-86855180D01*
X126205705Y-86737384D01*
X125997521Y-86361858D01*
X125774169Y-86150446D01*
X125528268Y-86098106D01*
X125345967Y-86150093D01*
X125189692Y-86259411D01*
X125134301Y-86362982D01*
X125168231Y-86485115D01*
X125259759Y-86721859D01*
X125393492Y-87035029D01*
X125501979Y-87274964D01*
X125746613Y-87830615D01*
X125915740Y-88288243D01*
X126022080Y-88694358D01*
X126078354Y-89095469D01*
X126095929Y-89446689D01*
X126073831Y-89920201D01*
X125977702Y-90263618D01*
X125796579Y-90503998D01*
X125619576Y-90622250D01*
X125249360Y-90743279D01*
X124807205Y-90785129D01*
X124373288Y-90743020D01*
X124230414Y-90705052D01*
X123759502Y-90505649D01*
X123335720Y-90218069D01*
X122911003Y-89808747D01*
X122849675Y-89740875D01*
X122572362Y-89385906D01*
X122439432Y-89098228D01*
X122447144Y-88863082D01*
X122579801Y-88676287D01*
X122776077Y-88574196D01*
X122998094Y-88536165D01*
X123173452Y-88563936D01*
X123341510Y-88666862D01*
X123545473Y-88874365D01*
X123616894Y-88957577D01*
X123890164Y-89235568D01*
X124184599Y-89460598D01*
X124473226Y-89621862D01*
X124729073Y-89708556D01*
X124925169Y-89709874D01*
X125034542Y-89615012D01*
X125048311Y-89530999D01*
X125002156Y-89167844D01*
X124873865Y-88690916D01*
X124672521Y-88129100D01*
X124426186Y-87552505D01*
X124265131Y-87178040D01*
X124136085Y-86834231D01*
X124054464Y-86564919D01*
X124033634Y-86436184D01*
X124112676Y-85970675D01*
X124342890Y-85571062D01*
X124713912Y-85252455D01*
X124922634Y-85140189D01*
X125417504Y-84993455D01*
X125893628Y-85009357D01*
G37*
G36*
X78625988Y-84379896D02*
G01*
X78720005Y-84422273D01*
X78996296Y-84611217D01*
X79252319Y-84889052D01*
X79507915Y-85281555D01*
X79768589Y-85784499D01*
X80133967Y-86546499D01*
X80133967Y-87604832D01*
X80120222Y-88242926D01*
X80073951Y-88743842D01*
X79987604Y-89137886D01*
X79853627Y-89455361D01*
X79664470Y-89726571D01*
X79582565Y-89817504D01*
X79263540Y-90067322D01*
X78934923Y-90149094D01*
X78585459Y-90064098D01*
X78389655Y-89953015D01*
X78216063Y-89798634D01*
X78029451Y-89549400D01*
X77813091Y-89180813D01*
X77652573Y-88873515D01*
X77356691Y-88222812D01*
X77152456Y-87600496D01*
X77027537Y-86951994D01*
X76969602Y-86222734D01*
X76961921Y-85817083D01*
X76962192Y-85789707D01*
X78035800Y-85789707D01*
X78043093Y-85997411D01*
X78072490Y-86395669D01*
X78119959Y-86822745D01*
X78153832Y-87054499D01*
X78218603Y-87330522D01*
X78322516Y-87654402D01*
X78450805Y-87992476D01*
X78588705Y-88311084D01*
X78721451Y-88576566D01*
X78834278Y-88755262D01*
X78912420Y-88813509D01*
X78922801Y-88807531D01*
X78965300Y-88694593D01*
X79014621Y-88458006D01*
X79061887Y-88142730D01*
X79074188Y-88040840D01*
X79109874Y-87655888D01*
X79109518Y-87366970D01*
X79068173Y-87103669D01*
X78988398Y-86819412D01*
X78840036Y-86409602D01*
X78668180Y-86035066D01*
X78490420Y-85725534D01*
X78324350Y-85510738D01*
X78187561Y-85420410D01*
X78160730Y-85420615D01*
X78082972Y-85461882D01*
X78043894Y-85572333D01*
X78035800Y-85789707D01*
X76962192Y-85789707D01*
X76965882Y-85417513D01*
X76985542Y-85146552D01*
X77027370Y-84963724D01*
X77097838Y-84828558D01*
X77125998Y-84790656D01*
X77430258Y-84525565D01*
X77817826Y-84360387D01*
X78234478Y-84307653D01*
X78625988Y-84379896D01*
G37*
G36*
X123526793Y-82925762D02*
G01*
X123738800Y-82983815D01*
X123744055Y-82987139D01*
X123918640Y-83196257D01*
X123959215Y-83504426D01*
X123866656Y-83908323D01*
X123641837Y-84404627D01*
X123285635Y-84990016D01*
X123173116Y-85154246D01*
X122964071Y-85453624D01*
X122767220Y-85736303D01*
X122624771Y-85941675D01*
X122623483Y-85943540D01*
X122498273Y-86157828D01*
X122346642Y-86463731D01*
X122203995Y-86788920D01*
X121956447Y-87301764D01*
X121699587Y-87647580D01*
X121431526Y-87828513D01*
X121261120Y-87858832D01*
X121030082Y-87807664D01*
X120871756Y-87703998D01*
X120759090Y-87514798D01*
X120750822Y-87287668D01*
X120850910Y-86991172D01*
X120997049Y-86708643D01*
X121262465Y-86238352D01*
X120959807Y-85926759D01*
X120737633Y-85649450D01*
X120537935Y-85321771D01*
X120481975Y-85204228D01*
X120357678Y-84962916D01*
X120247162Y-84839582D01*
X120201717Y-84832006D01*
X119570470Y-85047179D01*
X119073698Y-85175906D01*
X118700721Y-85218944D01*
X118440860Y-85177052D01*
X118283439Y-85050986D01*
X118244513Y-84970888D01*
X118205178Y-84716826D01*
X118222788Y-84528897D01*
X118241431Y-84481689D01*
X121408967Y-84481689D01*
X121444641Y-84651398D01*
X121531078Y-84853852D01*
X121637396Y-85031833D01*
X121732716Y-85128121D01*
X121759600Y-85131399D01*
X121854104Y-85050360D01*
X122012226Y-84866882D01*
X122202080Y-84618354D01*
X122229132Y-84580839D01*
X122411666Y-84320011D01*
X122501265Y-84169426D01*
X122507189Y-84104308D01*
X122438699Y-84099879D01*
X122406461Y-84106360D01*
X122076009Y-84191632D01*
X121773968Y-84289587D01*
X121541155Y-84384866D01*
X121418388Y-84462112D01*
X121408967Y-84481689D01*
X118241431Y-84481689D01*
X118259112Y-84436918D01*
X118333896Y-84356628D01*
X118472663Y-84275470D01*
X118700937Y-84180887D01*
X119044241Y-84060324D01*
X119441451Y-83929375D01*
X119937208Y-83766438D01*
X120449663Y-83595251D01*
X120921386Y-83435160D01*
X121294951Y-83305509D01*
X121324301Y-83295104D01*
X121798951Y-83148328D01*
X122291978Y-83033494D01*
X122767929Y-82955113D01*
X123191351Y-82917699D01*
X123526793Y-82925762D01*
G37*
G36*
X82874998Y-81440849D02*
G01*
X83071664Y-81475885D01*
X83204181Y-81569141D01*
X83325799Y-81764628D01*
X83367007Y-81847499D01*
X83419821Y-81963893D01*
X83461843Y-82085078D01*
X83494561Y-82231685D01*
X83519466Y-82424343D01*
X83538045Y-82683681D01*
X83551787Y-83030330D01*
X83562181Y-83484920D01*
X83570716Y-84068079D01*
X83578674Y-84780775D01*
X83585730Y-85507527D01*
X83589406Y-86084029D01*
X83588764Y-86529345D01*
X83582862Y-86862541D01*
X83570760Y-87102680D01*
X83551518Y-87268830D01*
X83524195Y-87380053D01*
X83487853Y-87455417D01*
X83444012Y-87511275D01*
X83205149Y-87662635D01*
X82913482Y-87660856D01*
X82586928Y-87506659D01*
X82542250Y-87475017D01*
X82357078Y-87321785D01*
X82081343Y-87071958D01*
X81739005Y-86749292D01*
X81354024Y-86377548D01*
X80950363Y-85980483D01*
X80551982Y-85581857D01*
X80182842Y-85205427D01*
X79866905Y-84874954D01*
X79628131Y-84614195D01*
X79495651Y-84454151D01*
X79348266Y-84214939D01*
X79258139Y-83999752D01*
X79244967Y-83922251D01*
X79321141Y-83691492D01*
X79519331Y-83523486D01*
X79794037Y-83456229D01*
X79803063Y-83456165D01*
X79915316Y-83474450D01*
X80045654Y-83540596D01*
X80214201Y-83671541D01*
X80441076Y-83884222D01*
X80746401Y-84195577D01*
X81004846Y-84467788D01*
X81345906Y-84824306D01*
X81666305Y-85149417D01*
X81939811Y-85417217D01*
X82140188Y-85601805D01*
X82213566Y-85661248D01*
X82468932Y-85843084D01*
X82433965Y-84078125D01*
X82420475Y-83527929D01*
X82403133Y-83017403D01*
X82383366Y-82577396D01*
X82362601Y-82238757D01*
X82342263Y-82032337D01*
X82338320Y-82009375D01*
X82335133Y-81710926D01*
X82462615Y-81519279D01*
X82716424Y-81439035D01*
X82874998Y-81440849D01*
G37*
G36*
X85554154Y-79889976D02*
G01*
X85715067Y-80087843D01*
X85764301Y-80329546D01*
X85701851Y-80593024D01*
X85504358Y-80812363D01*
X85156605Y-81002842D01*
X85051912Y-81044886D01*
X84832346Y-81147797D01*
X84704928Y-81245198D01*
X84690668Y-81289048D01*
X84731348Y-81409969D01*
X84807237Y-81646100D01*
X84903415Y-81950909D01*
X84924026Y-82016832D01*
X85019927Y-82319642D01*
X85096437Y-82553062D01*
X85139937Y-82675759D01*
X85143914Y-82684082D01*
X85225632Y-82671600D01*
X85404514Y-82601656D01*
X85482705Y-82565846D01*
X85788750Y-82454184D01*
X86117907Y-82380069D01*
X86154530Y-82375380D01*
X86392707Y-82363443D01*
X86535652Y-82414739D01*
X86653352Y-82555402D01*
X86658801Y-82563678D01*
X86764975Y-82816800D01*
X86724782Y-83044438D01*
X86531024Y-83259223D01*
X86176506Y-83473786D01*
X86126181Y-83498499D01*
X85847921Y-83639180D01*
X85627364Y-83762426D01*
X85513569Y-83840517D01*
X85483299Y-83974395D01*
X85525119Y-84246808D01*
X85593131Y-84508077D01*
X85680211Y-84799299D01*
X85753415Y-85020336D01*
X85797791Y-85126244D01*
X85799463Y-85128216D01*
X85892748Y-85115420D01*
X86068316Y-85025219D01*
X86277918Y-84888071D01*
X86473302Y-84734434D01*
X86566160Y-84644232D01*
X86789459Y-84502413D01*
X87056101Y-84473069D01*
X87300059Y-84554939D01*
X87410500Y-84660337D01*
X87524473Y-84928172D01*
X87487542Y-85198296D01*
X87295697Y-85476246D01*
X86944926Y-85767557D01*
X86431219Y-86077764D01*
X86353800Y-86118959D01*
X86020728Y-86287724D01*
X85792101Y-86379806D01*
X85625837Y-86403399D01*
X85479856Y-86366697D01*
X85369245Y-86310665D01*
X85166169Y-86159310D01*
X84984729Y-85935687D01*
X84816628Y-85620986D01*
X84653564Y-85196394D01*
X84487240Y-84643103D01*
X84309355Y-83942301D01*
X84291918Y-83868913D01*
X84169378Y-83382155D01*
X84021828Y-82842082D01*
X83874769Y-82340831D01*
X83824894Y-82181490D01*
X83675719Y-81655778D01*
X83582654Y-81195104D01*
X83548658Y-80824602D01*
X83576687Y-80569407D01*
X83624877Y-80481722D01*
X83757831Y-80398323D01*
X84005318Y-80280721D01*
X84320877Y-80147204D01*
X84658051Y-80016060D01*
X84970380Y-79905576D01*
X85211405Y-79834040D01*
X85313753Y-79816923D01*
X85554154Y-79889976D01*
G37*
G36*
X73050242Y-79663237D02*
G01*
X73404929Y-79827094D01*
X73644510Y-80005999D01*
X73874283Y-80200347D01*
X74192727Y-80469561D01*
X74559148Y-80779245D01*
X74932851Y-81095000D01*
X74962568Y-81120105D01*
X75293534Y-81408207D01*
X75577035Y-81671014D01*
X75787322Y-81883465D01*
X75898645Y-82020495D01*
X75908129Y-82040447D01*
X75894181Y-82237976D01*
X75775258Y-82452169D01*
X75596011Y-82620410D01*
X75453370Y-82678136D01*
X75291523Y-82672776D01*
X75097944Y-82602278D01*
X74851411Y-82453536D01*
X74530704Y-82213446D01*
X74114601Y-81868899D01*
X74040588Y-81805633D01*
X73744014Y-81560749D01*
X73496268Y-81374001D01*
X73323082Y-81263541D01*
X73250190Y-81247525D01*
X73250046Y-81247929D01*
X73246728Y-81364217D01*
X73260095Y-81612311D01*
X73286856Y-81955865D01*
X73323720Y-82358532D01*
X73367398Y-82783968D01*
X73414598Y-83195827D01*
X73453975Y-83500475D01*
X73472150Y-83700933D01*
X73437391Y-83837522D01*
X73319762Y-83964673D01*
X73113567Y-84119428D01*
X72888370Y-84263000D01*
X72712545Y-84342416D01*
X72642863Y-84346337D01*
X72559575Y-84263240D01*
X72395252Y-84075695D01*
X72174049Y-83811950D01*
X71932561Y-83515718D01*
X71643063Y-83161236D01*
X71351395Y-82812949D01*
X71096416Y-82516818D01*
X70951617Y-82355499D01*
X70597808Y-81974499D01*
X70644852Y-83634329D01*
X70660010Y-84207574D01*
X70667471Y-84635502D01*
X70665816Y-84942017D01*
X70653624Y-85151018D01*
X70629475Y-85286408D01*
X70591948Y-85372088D01*
X70539623Y-85431959D01*
X70537931Y-85433496D01*
X70304522Y-85554054D01*
X70039652Y-85565073D01*
X69810461Y-85470794D01*
X69728165Y-85382332D01*
X69674406Y-85239003D01*
X69629600Y-84981141D01*
X69591984Y-84592974D01*
X69559799Y-84058729D01*
X69545964Y-83750694D01*
X69524262Y-82937098D01*
X69534400Y-82274349D01*
X69578480Y-81746588D01*
X69658609Y-81337961D01*
X69776889Y-81032611D01*
X69935426Y-80814681D01*
X69935644Y-80814462D01*
X70170468Y-80638001D01*
X70417946Y-80579632D01*
X70693113Y-80645350D01*
X71011005Y-80841151D01*
X71386657Y-81173030D01*
X71728770Y-81529492D01*
X72213572Y-82059165D01*
X72161553Y-81655478D01*
X72148022Y-81326632D01*
X72174891Y-80939655D01*
X72233695Y-80542909D01*
X72315972Y-80184760D01*
X72413256Y-79913572D01*
X72486082Y-79801050D01*
X72741242Y-79654075D01*
X73050242Y-79663237D01*
G37*
G36*
X104963778Y-79069043D02*
G01*
X105175842Y-79117413D01*
X105389661Y-79218106D01*
X105634053Y-79388264D01*
X105937839Y-79645030D01*
X106329838Y-80005546D01*
X106344684Y-80019478D01*
X106663795Y-80360812D01*
X106830871Y-80648338D01*
X106849914Y-80894025D01*
X106724926Y-81109843D01*
X106713253Y-81121784D01*
X106479930Y-81252454D01*
X106196700Y-81225441D01*
X105860813Y-81040068D01*
X105636173Y-80855550D01*
X105384471Y-80628601D01*
X105158502Y-80426584D01*
X105015450Y-80300462D01*
X104835600Y-80144658D01*
X104645223Y-80915129D01*
X104565839Y-81251982D01*
X104509777Y-81520688D01*
X104484511Y-81683635D01*
X104486407Y-81714513D01*
X104639276Y-81827224D01*
X104868666Y-81968257D01*
X105121678Y-82108486D01*
X105345415Y-82218784D01*
X105486976Y-82270026D01*
X105496792Y-82270832D01*
X105724445Y-82343121D01*
X105933558Y-82521048D01*
X106065539Y-82746200D01*
X106084301Y-82856521D01*
X106018613Y-83127761D01*
X105833863Y-83296726D01*
X105548516Y-83359928D01*
X105181042Y-83313881D01*
X104749907Y-83155097D01*
X104681148Y-83121471D01*
X104428087Y-82996967D01*
X104245813Y-82913251D01*
X104174838Y-82888638D01*
X104140707Y-82969690D01*
X104060973Y-83166629D01*
X103952438Y-83437928D01*
X103945178Y-83456165D01*
X103726145Y-84006499D01*
X104122056Y-84191802D01*
X104411266Y-84303155D01*
X104688399Y-84372090D01*
X104788333Y-84382302D01*
X105060979Y-84455882D01*
X105240438Y-84633978D01*
X105311389Y-84870739D01*
X105258511Y-85120313D01*
X105099216Y-85312687D01*
X104811894Y-85453562D01*
X104456107Y-85468805D01*
X104015448Y-85357485D01*
X103713634Y-85234165D01*
X103428244Y-85110257D01*
X103198469Y-85020253D01*
X103071851Y-84982709D01*
X103068885Y-84982536D01*
X102942042Y-84932302D01*
X102762943Y-84813684D01*
X102751385Y-84804687D01*
X102600255Y-84632091D01*
X102536422Y-84404622D01*
X102560993Y-84098992D01*
X102675076Y-83691915D01*
X102823032Y-83298610D01*
X102964281Y-82911071D01*
X103119672Y-82425222D01*
X103268553Y-81908474D01*
X103371325Y-81508832D01*
X103549697Y-80781291D01*
X103700319Y-80206335D01*
X103827499Y-79770275D01*
X103935542Y-79459426D01*
X104028753Y-79260099D01*
X104110447Y-79159332D01*
X104272853Y-79100304D01*
X104534773Y-79062958D01*
X104724649Y-79055854D01*
X104963778Y-79069043D01*
G37*
G36*
X118770356Y-78604168D02*
G01*
X118936760Y-78778827D01*
X118981386Y-79067450D01*
X118904062Y-79468013D01*
X118704618Y-79978492D01*
X118618822Y-80157027D01*
X118454192Y-80480570D01*
X118310423Y-80751244D01*
X118208796Y-80929517D01*
X118179985Y-80972199D01*
X118202928Y-81010241D01*
X118353012Y-81004267D01*
X118596306Y-80962509D01*
X118898879Y-80893199D01*
X119226803Y-80804570D01*
X119546145Y-80704854D01*
X119822975Y-80602284D01*
X119958971Y-80540568D01*
X120244166Y-80417831D01*
X120509585Y-80339137D01*
X120631030Y-80323499D01*
X120897620Y-80395289D01*
X121082496Y-80585337D01*
X121169231Y-80855659D01*
X121141395Y-81168268D01*
X121072012Y-81343090D01*
X120868226Y-81660697D01*
X120561552Y-82044548D01*
X120185099Y-82459999D01*
X119771977Y-82872406D01*
X119355294Y-83247123D01*
X118968160Y-83549508D01*
X118953634Y-83559695D01*
X118728214Y-83727736D01*
X118560827Y-83872129D01*
X118507266Y-83933002D01*
X118289696Y-84175199D01*
X118030171Y-84294267D01*
X117769938Y-84280747D01*
X117569756Y-84147998D01*
X117431773Y-83886744D01*
X117459487Y-83591204D01*
X117652806Y-83261558D01*
X118011641Y-82897992D01*
X118310850Y-82660316D01*
X118674153Y-82384349D01*
X118903485Y-82191444D01*
X119007356Y-82073156D01*
X118994274Y-82021043D01*
X118959375Y-82016832D01*
X118846272Y-82033784D01*
X118603012Y-82079995D01*
X118264851Y-82148501D01*
X117867045Y-82232335D01*
X117848383Y-82236340D01*
X117436923Y-82317676D01*
X117071076Y-82377100D01*
X116790515Y-82409011D01*
X116634911Y-82407808D01*
X116634487Y-82407703D01*
X116447802Y-82284046D01*
X116305519Y-82052811D01*
X116244568Y-81775587D01*
X116244301Y-81756956D01*
X116298859Y-81604726D01*
X116439358Y-81389735D01*
X116570328Y-81231773D01*
X116799012Y-80967180D01*
X117025641Y-80682468D01*
X117223788Y-80413664D01*
X117367025Y-80196792D01*
X117428925Y-80067877D01*
X117429634Y-80060396D01*
X117355046Y-80061774D01*
X117150654Y-80113335D01*
X116845515Y-80206638D01*
X116468687Y-80333243D01*
X116365769Y-80369433D01*
X115796751Y-80560761D01*
X115359729Y-80681257D01*
X115034226Y-80733752D01*
X114799769Y-80721080D01*
X114635881Y-80646072D01*
X114599348Y-80613784D01*
X114488006Y-80401204D01*
X114480718Y-80144839D01*
X114575818Y-79924976D01*
X114614467Y-79885904D01*
X114753062Y-79809554D01*
X115023682Y-79693277D01*
X115396636Y-79547364D01*
X115842231Y-79382104D01*
X116330777Y-79207786D01*
X116832583Y-79034700D01*
X117317957Y-78873136D01*
X117757207Y-78733382D01*
X118120642Y-78625728D01*
X118378571Y-78560464D01*
X118482346Y-78545499D01*
X118770356Y-78604168D01*
G37*
G36*
X76007510Y-83492486D02*
G01*
X76020770Y-83587932D01*
X76017451Y-83790919D01*
X76011766Y-83882721D01*
X75985301Y-84242234D01*
X75752123Y-83913222D01*
X75518946Y-83584210D01*
X75747867Y-83522987D01*
X75924041Y-83488152D01*
X76007510Y-83492486D01*
G37*
G36*
X99872591Y-77980269D02*
G01*
X100018276Y-78079280D01*
X100106083Y-78274917D01*
X100148335Y-78592231D01*
X100157634Y-78971338D01*
X100157634Y-79723750D01*
X100729134Y-79467042D01*
X101284174Y-79252620D01*
X101725899Y-79158238D01*
X102052657Y-79183676D01*
X102262794Y-79328714D01*
X102354656Y-79593133D01*
X102358967Y-79684179D01*
X102319070Y-79937964D01*
X102176192Y-80097007D01*
X101935634Y-80192310D01*
X101747691Y-80255028D01*
X101468294Y-80359963D01*
X101194228Y-80469617D01*
X100664488Y-80688055D01*
X101142189Y-81585277D01*
X101365678Y-81987420D01*
X101599672Y-82379234D01*
X101813155Y-82710221D01*
X101947095Y-82895725D01*
X102121987Y-83147866D01*
X102240713Y-83378873D01*
X102274301Y-83509558D01*
X102200699Y-83749024D01*
X102018336Y-83947338D01*
X101784874Y-84046125D01*
X101741595Y-84048832D01*
X101532082Y-83973940D01*
X101273629Y-83761789D01*
X100983049Y-83431167D01*
X100677154Y-83000860D01*
X100415647Y-82567165D01*
X100225373Y-82231073D01*
X100101944Y-82028038D01*
X100030966Y-81942540D01*
X99998050Y-81959062D01*
X99988803Y-82062084D01*
X99988494Y-82106545D01*
X99964816Y-82360823D01*
X99902483Y-82708836D01*
X99814179Y-83099401D01*
X99712588Y-83481335D01*
X99610396Y-83803456D01*
X99520285Y-84014579D01*
X99512396Y-84027665D01*
X99333858Y-84169469D01*
X99080936Y-84220842D01*
X98825428Y-84176816D01*
X98682015Y-84085118D01*
X98594528Y-83962279D01*
X98559991Y-83798489D01*
X98579339Y-83559878D01*
X98653503Y-83212581D01*
X98712350Y-82984146D01*
X98786375Y-82690493D01*
X98846106Y-82408599D01*
X98894636Y-82110291D01*
X98935063Y-81767391D01*
X98970481Y-81351726D01*
X99003984Y-80835118D01*
X99038670Y-80189394D01*
X99054491Y-79869703D01*
X99087937Y-79250039D01*
X99124273Y-78779458D01*
X99169850Y-78437748D01*
X99231017Y-78204694D01*
X99314126Y-78060082D01*
X99425528Y-77983699D01*
X99571572Y-77955330D01*
X99656708Y-77952832D01*
X99872591Y-77980269D01*
G37*
G36*
X96788458Y-77900251D02*
G01*
X96964233Y-77973999D01*
X97057401Y-78111180D01*
X97168805Y-78398327D01*
X97299345Y-78838823D01*
X97449918Y-79436052D01*
X97621423Y-80193399D01*
X97814759Y-81114248D01*
X97868907Y-81381832D01*
X98002743Y-82060405D01*
X98100603Y-82594320D01*
X98163899Y-83004070D01*
X98194042Y-83310150D01*
X98192446Y-83533056D01*
X98160520Y-83693282D01*
X98099678Y-83811323D01*
X98040967Y-83879499D01*
X97802007Y-84028006D01*
X97552790Y-84007834D01*
X97317452Y-83841014D01*
X97167817Y-83623994D01*
X97109634Y-83406275D01*
X97094332Y-83203728D01*
X97054550Y-82905609D01*
X97008249Y-82629122D01*
X96944624Y-82325614D01*
X96876957Y-82144124D01*
X96780090Y-82038658D01*
X96648416Y-81971251D01*
X96396071Y-81889644D01*
X96088676Y-81820036D01*
X96008123Y-81806657D01*
X95626279Y-81749700D01*
X95426158Y-82683702D01*
X95334465Y-83077640D01*
X95240675Y-83423281D01*
X95156957Y-83678700D01*
X95104701Y-83790934D01*
X94910910Y-83937575D01*
X94659149Y-83970035D01*
X94413509Y-83891499D01*
X94263284Y-83749094D01*
X94207559Y-83651425D01*
X94178167Y-83544992D01*
X94177377Y-83397688D01*
X94207458Y-83177408D01*
X94270679Y-82852047D01*
X94354532Y-82457927D01*
X94543978Y-81634999D01*
X94733075Y-80938969D01*
X94847829Y-80592949D01*
X96019256Y-80592949D01*
X96079547Y-80707089D01*
X96247526Y-80759163D01*
X96284134Y-80763357D01*
X96480163Y-80778303D01*
X96584160Y-80777743D01*
X96586347Y-80776953D01*
X96585334Y-80693956D01*
X96556079Y-80490694D01*
X96509485Y-80235137D01*
X96405577Y-79706980D01*
X96211098Y-80078739D01*
X96063993Y-80391810D01*
X96019256Y-80592949D01*
X94847829Y-80592949D01*
X94935696Y-80328003D01*
X95165715Y-79760264D01*
X95436765Y-79194387D01*
X95700614Y-78695844D01*
X95916164Y-78334401D01*
X96099726Y-78090634D01*
X96267614Y-77945122D01*
X96436140Y-77878441D01*
X96550645Y-77868165D01*
X96788458Y-77900251D01*
G37*
G36*
X79431240Y-81988404D02*
G01*
X79592718Y-82226119D01*
X79702121Y-82401193D01*
X79736435Y-82476735D01*
X79736065Y-82477077D01*
X79646670Y-82508775D01*
X79451663Y-82568256D01*
X79355761Y-82596143D01*
X78968461Y-82792934D01*
X78712639Y-83034744D01*
X78534666Y-83228175D01*
X78382792Y-83328530D01*
X78187897Y-83366160D01*
X77945679Y-83371499D01*
X77686599Y-83382549D01*
X77512763Y-83411125D01*
X77466967Y-83440484D01*
X77400499Y-83506515D01*
X77242121Y-83609054D01*
X77053369Y-83713001D01*
X76895782Y-83783257D01*
X76845703Y-83794832D01*
X76778912Y-83739877D01*
X76635703Y-83600581D01*
X76550170Y-83513496D01*
X76387782Y-83339161D01*
X76331707Y-83235586D01*
X76369950Y-83152385D01*
X76446733Y-83078997D01*
X76593848Y-82907853D01*
X76662619Y-82778880D01*
X76789917Y-82656120D01*
X77079066Y-82581240D01*
X77080606Y-82581028D01*
X77509322Y-82484631D01*
X77963976Y-82321130D01*
X78387581Y-82115917D01*
X78723149Y-81894383D01*
X78821429Y-81805376D01*
X79100984Y-81516948D01*
X79431240Y-81988404D01*
G37*
G36*
X95064114Y-77983593D02*
G01*
X95122869Y-78263520D01*
X95031997Y-78510463D01*
X94810445Y-78707499D01*
X94477155Y-78837706D01*
X94056001Y-78884165D01*
X93706263Y-78884165D01*
X93778115Y-79878999D01*
X93809225Y-80402127D01*
X93833549Y-80986996D01*
X93847721Y-81543323D01*
X93849967Y-81805165D01*
X93830738Y-82377815D01*
X93765884Y-82815286D01*
X93644652Y-83148101D01*
X93456293Y-83406783D01*
X93216248Y-83604332D01*
X92914203Y-83731258D01*
X92525870Y-83789423D01*
X92121296Y-83775133D01*
X91770526Y-83684692D01*
X91762135Y-83681017D01*
X91428609Y-83479112D01*
X91235845Y-83242995D01*
X91191951Y-82992188D01*
X91305034Y-82746210D01*
X91352301Y-82694165D01*
X91552660Y-82558992D01*
X91794301Y-82538466D01*
X92117398Y-82630750D01*
X92180363Y-82656290D01*
X92387465Y-82734016D01*
X92507269Y-82734074D01*
X92606571Y-82649002D01*
X92643311Y-82604577D01*
X92722977Y-82438538D01*
X92772237Y-82166356D01*
X92791340Y-81775155D01*
X92780537Y-81252057D01*
X92740077Y-80584186D01*
X92693500Y-80015234D01*
X92595121Y-78902637D01*
X92129790Y-79062734D01*
X91697330Y-79185828D01*
X91380748Y-79212424D01*
X91156853Y-79142637D01*
X91069089Y-79067998D01*
X90950837Y-78833607D01*
X90945925Y-78567509D01*
X91055376Y-78346587D01*
X91059423Y-78342471D01*
X91199641Y-78256107D01*
X91453339Y-78145071D01*
X91770987Y-78030543D01*
X91842590Y-78007590D01*
X92157971Y-77918674D01*
X92470463Y-77856045D01*
X92825239Y-77814040D01*
X93267474Y-77786999D01*
X93721396Y-77772164D01*
X94947491Y-77741165D01*
X95064114Y-77983593D01*
G37*
G36*
X76681945Y-75527818D02*
G01*
X76916286Y-75625309D01*
X77080516Y-75783019D01*
X77114033Y-75866939D01*
X77120659Y-76080369D01*
X77039709Y-76281285D01*
X76851988Y-76496318D01*
X76538303Y-76752096D01*
X76407224Y-76847588D01*
X76122443Y-77054665D01*
X75893503Y-77227541D01*
X75753218Y-77341121D01*
X75726215Y-77368394D01*
X75741903Y-77470360D01*
X75821214Y-77671380D01*
X75913298Y-77861593D01*
X76013522Y-78055311D01*
X76095461Y-78175114D01*
X76187724Y-78216510D01*
X76318919Y-78175007D01*
X76517654Y-78046111D01*
X76812536Y-77825330D01*
X76986547Y-77693042D01*
X77260443Y-77511248D01*
X77507669Y-77391928D01*
X77644345Y-77360529D01*
X77903673Y-77433596D01*
X78075842Y-77630088D01*
X78132087Y-77914484D01*
X78129089Y-77959135D01*
X78112412Y-78066605D01*
X78072968Y-78165497D01*
X77991950Y-78273689D01*
X77850552Y-78409061D01*
X77629967Y-78589490D01*
X77311390Y-78832856D01*
X76876014Y-79157037D01*
X76844348Y-79180499D01*
X76615774Y-79349832D01*
X76850871Y-79920039D01*
X76973710Y-80197513D01*
X77079760Y-80400759D01*
X77148164Y-80490307D01*
X77152896Y-80491539D01*
X77259618Y-80446335D01*
X77434610Y-80333644D01*
X77465497Y-80311198D01*
X77653194Y-80194750D01*
X77808642Y-80181860D01*
X77964574Y-80234527D01*
X78203484Y-80411161D01*
X78326117Y-80665942D01*
X78310856Y-80946361D01*
X78284378Y-81011428D01*
X78127263Y-81189784D01*
X77854079Y-81369862D01*
X77515818Y-81525738D01*
X77163475Y-81631488D01*
X77017631Y-81655402D01*
X76724821Y-81657277D01*
X76515588Y-81572303D01*
X76471751Y-81538736D01*
X76372007Y-81407079D01*
X76225229Y-81150925D01*
X76048313Y-80802577D01*
X75858155Y-80394337D01*
X75779356Y-80214994D01*
X75557490Y-79714145D01*
X75313276Y-79184564D01*
X75074599Y-78685507D01*
X74869338Y-78276233D01*
X74847409Y-78234320D01*
X74670123Y-77876326D01*
X74528590Y-77550117D01*
X74440112Y-77298069D01*
X74418967Y-77184987D01*
X74437150Y-77073946D01*
X74505578Y-76955606D01*
X74645068Y-76808906D01*
X74876439Y-76612782D01*
X75220508Y-76346171D01*
X75329134Y-76264108D01*
X75683334Y-76004730D01*
X76005995Y-75781848D01*
X76265027Y-75616712D01*
X76428343Y-75530571D01*
X76445100Y-75525095D01*
X76681945Y-75527818D01*
G37*
G36*
X91831707Y-80471665D02*
G01*
X91842890Y-80645007D01*
X91831707Y-80683332D01*
X91800804Y-80693968D01*
X91789002Y-80577499D01*
X91802308Y-80457303D01*
X91831707Y-80471665D01*
G37*
G36*
X79711329Y-73438996D02*
G01*
X80135544Y-73634690D01*
X80495497Y-73966409D01*
X80603452Y-74117050D01*
X80753798Y-74376089D01*
X80826090Y-74594006D01*
X80841127Y-74853598D01*
X80833267Y-75031832D01*
X80810972Y-75322849D01*
X80784335Y-75552229D01*
X80764887Y-75649358D01*
X80817154Y-75745175D01*
X81023978Y-75859902D01*
X81186864Y-75923755D01*
X81673432Y-76161214D01*
X82048702Y-76498308D01*
X82343195Y-76955184D01*
X82509282Y-77377924D01*
X82542284Y-77726142D01*
X82442354Y-77987848D01*
X82328739Y-78091917D01*
X82071709Y-78192402D01*
X81836829Y-78136144D01*
X81616186Y-77918762D01*
X81428894Y-77593584D01*
X81264996Y-77292836D01*
X81102729Y-77105934D01*
X80898205Y-76983622D01*
X80877306Y-76974558D01*
X80613113Y-76903358D01*
X80296980Y-76874579D01*
X79989096Y-76887354D01*
X79749648Y-76940817D01*
X79663914Y-76992018D01*
X79662907Y-77099103D01*
X79728113Y-77315114D01*
X79842583Y-77601470D01*
X79989370Y-77919588D01*
X80151528Y-78230888D01*
X80312108Y-78496789D01*
X80347389Y-78547963D01*
X80494379Y-78854499D01*
X80498105Y-79128649D01*
X80370900Y-79340622D01*
X80125094Y-79460626D01*
X79962895Y-79476832D01*
X79732890Y-79439328D01*
X79549952Y-79299696D01*
X79470277Y-79201665D01*
X79214658Y-78801710D01*
X78935627Y-78256363D01*
X78643128Y-77586248D01*
X78438929Y-77062653D01*
X78270460Y-76631714D01*
X78083910Y-76186156D01*
X77909111Y-75796145D01*
X77837391Y-75647779D01*
X77698409Y-75354014D01*
X77596769Y-75107081D01*
X77552208Y-74955463D01*
X77551634Y-74945906D01*
X77563206Y-74899192D01*
X78698926Y-74899192D01*
X78939166Y-75388845D01*
X79179406Y-75878499D01*
X79466187Y-75546892D01*
X79638382Y-75306653D01*
X79739832Y-75083478D01*
X79752967Y-75003226D01*
X79694389Y-74769652D01*
X79550069Y-74577613D01*
X79367128Y-74485965D01*
X79337678Y-74484543D01*
X79186801Y-74537400D01*
X78988430Y-74663741D01*
X78950780Y-74693390D01*
X78698926Y-74899192D01*
X77563206Y-74899192D01*
X77620706Y-74667083D01*
X77805782Y-74347015D01*
X78073645Y-74024505D01*
X78391082Y-73738359D01*
X78724879Y-73527382D01*
X78791590Y-73497240D01*
X79253221Y-73389717D01*
X79711329Y-73438996D01*
G37*
G36*
X114778709Y-73063940D02*
G01*
X114991686Y-73187525D01*
X114994189Y-73190332D01*
X115090586Y-73331483D01*
X115234874Y-73580167D01*
X115401404Y-73891387D01*
X115464753Y-74015832D01*
X115660984Y-74367459D01*
X115926718Y-74790190D01*
X116223423Y-75224733D01*
X116449225Y-75530695D01*
X116936316Y-76178680D01*
X117311716Y-76715389D01*
X117580359Y-77152316D01*
X117747178Y-77500955D01*
X117817106Y-77772800D01*
X117795076Y-77979347D01*
X117686021Y-78132090D01*
X117593100Y-78196013D01*
X117321112Y-78283066D01*
X117070466Y-78218858D01*
X116827184Y-77996860D01*
X116664988Y-77762580D01*
X116470439Y-77456232D01*
X116230722Y-77095804D01*
X116018582Y-76789066D01*
X115643650Y-76260300D01*
X115236398Y-76746733D01*
X115007936Y-77011790D01*
X114794974Y-77245607D01*
X114642346Y-77399016D01*
X114638452Y-77402499D01*
X114493856Y-77550296D01*
X114286941Y-77785283D01*
X114058791Y-78060553D01*
X114024248Y-78103710D01*
X113720554Y-78447538D01*
X113433219Y-78703695D01*
X113188489Y-78851260D01*
X113052338Y-78878435D01*
X112930493Y-78840403D01*
X112792293Y-78780009D01*
X112607577Y-78606830D01*
X112534151Y-78355227D01*
X112587937Y-78094755D01*
X112634594Y-78019670D01*
X112726233Y-77898488D01*
X112872430Y-77720138D01*
X113082763Y-77473549D01*
X113366810Y-77147651D01*
X113734147Y-76731374D01*
X114194351Y-76213646D01*
X114757001Y-75583397D01*
X114865297Y-75462290D01*
X114857490Y-75359496D01*
X114781392Y-75143605D01*
X114650725Y-74849667D01*
X114533815Y-74615623D01*
X114300248Y-74127937D01*
X114170730Y-73752628D01*
X114141996Y-73471085D01*
X114210783Y-73264697D01*
X114282467Y-73182287D01*
X114518753Y-73061928D01*
X114778709Y-73063940D01*
G37*
G36*
X84494674Y-71047668D02*
G01*
X84806560Y-71150398D01*
X85138692Y-71394659D01*
X85382854Y-71745586D01*
X85530988Y-72162010D01*
X85575041Y-72602761D01*
X85506956Y-73026669D01*
X85318677Y-73392564D01*
X85258998Y-73462611D01*
X85119899Y-73632637D01*
X85102510Y-73725752D01*
X85146057Y-73756546D01*
X85234704Y-73850836D01*
X85364782Y-74060879D01*
X85512067Y-74346338D01*
X85553077Y-74434258D01*
X85710862Y-74755485D01*
X85867931Y-75033929D01*
X85994835Y-75218179D01*
X86014373Y-75239571D01*
X86156096Y-75481106D01*
X86161074Y-75741522D01*
X86048738Y-75974249D01*
X85838517Y-76132716D01*
X85624191Y-76174832D01*
X85394423Y-76100314D01*
X85142964Y-75899942D01*
X84901720Y-75608488D01*
X84702600Y-75260723D01*
X84636382Y-75098344D01*
X84525817Y-74845481D01*
X84408330Y-74664387D01*
X84344014Y-74611278D01*
X84191488Y-74592141D01*
X83951080Y-74598737D01*
X83681829Y-74624730D01*
X83442770Y-74663784D01*
X83292942Y-74709561D01*
X83272313Y-74726309D01*
X83282315Y-74833513D01*
X83347535Y-75054908D01*
X83452377Y-75350870D01*
X83581242Y-75681773D01*
X83718533Y-76007995D01*
X83848655Y-76289911D01*
X83956009Y-76487897D01*
X83979082Y-76521843D01*
X84128630Y-76820255D01*
X84147920Y-77095827D01*
X84060021Y-77321358D01*
X83887999Y-77469647D01*
X83654921Y-77513494D01*
X83383855Y-77425698D01*
X83275246Y-77351813D01*
X83108863Y-77184763D01*
X82942674Y-76937386D01*
X82766818Y-76589725D01*
X82571433Y-76121824D01*
X82346659Y-75513726D01*
X82296251Y-75370499D01*
X82113807Y-74869388D01*
X81902015Y-74319702D01*
X81691108Y-73798564D01*
X81557436Y-73485808D01*
X81348044Y-72973418D01*
X81250801Y-72631174D01*
X82397416Y-72631174D01*
X82568186Y-73035374D01*
X82738955Y-73439575D01*
X83502907Y-73155550D01*
X83846397Y-73022633D01*
X84136092Y-72900939D01*
X84330302Y-72808444D01*
X84380579Y-72777145D01*
X84484899Y-72595230D01*
X84466752Y-72374556D01*
X84335191Y-72183021D01*
X84297653Y-72155220D01*
X84166089Y-72085857D01*
X84026632Y-72070912D01*
X83820814Y-72110945D01*
X83641486Y-72161487D01*
X83291266Y-72274692D01*
X82931029Y-72406516D01*
X82789692Y-72463889D01*
X82397416Y-72631174D01*
X81250801Y-72631174D01*
X81235718Y-72578089D01*
X81226439Y-72274130D01*
X81326190Y-72035852D01*
X81540951Y-71837567D01*
X81876705Y-71653583D01*
X81996634Y-71599639D01*
X82780901Y-71289873D01*
X83452320Y-71095636D01*
X84020406Y-71015408D01*
X84494674Y-71047668D01*
G37*
G36*
X112067373Y-71173128D02*
G01*
X112624052Y-71304455D01*
X113097594Y-71488334D01*
X113473633Y-71711630D01*
X113737807Y-71961208D01*
X113875748Y-72223934D01*
X113873093Y-72486671D01*
X113744095Y-72706304D01*
X113562737Y-72839686D01*
X113347007Y-72853024D01*
X113066887Y-72743501D01*
X112865046Y-72623832D01*
X112380982Y-72384101D01*
X111847424Y-72234468D01*
X111480556Y-72197568D01*
X111278873Y-72245366D01*
X111113088Y-72416904D01*
X111078706Y-72470665D01*
X110966735Y-72690276D01*
X110925334Y-72898276D01*
X110959471Y-73134818D01*
X111074118Y-73440052D01*
X111242065Y-73790437D01*
X111555034Y-74479576D01*
X111746760Y-75069743D01*
X111819222Y-75578112D01*
X111774400Y-76021857D01*
X111614273Y-76418153D01*
X111555887Y-76512687D01*
X111353187Y-76772054D01*
X111122994Y-76952933D01*
X110829847Y-77069657D01*
X110438282Y-77136563D01*
X109936634Y-77167236D01*
X109480286Y-77173106D01*
X109137024Y-77152561D01*
X108851865Y-77099860D01*
X108628471Y-77030635D01*
X108354025Y-76913796D01*
X108137264Y-76787016D01*
X108053382Y-76711332D01*
X107964173Y-76461728D01*
X108023555Y-76201173D01*
X108213117Y-75982906D01*
X108348442Y-75891342D01*
X108466321Y-75859140D01*
X108625483Y-75885221D01*
X108884653Y-75968508D01*
X108890450Y-75970475D01*
X109328599Y-76077969D01*
X109775407Y-76117679D01*
X110179488Y-76089676D01*
X110489458Y-75994031D01*
X110533531Y-75968179D01*
X110679313Y-75849161D01*
X110730875Y-75708673D01*
X110715236Y-75478098D01*
X110658209Y-75256524D01*
X110541637Y-74935556D01*
X110384892Y-74565623D01*
X110274428Y-74330517D01*
X110027610Y-73787587D01*
X109877559Y-73344677D01*
X109820729Y-72965386D01*
X109853572Y-72613313D01*
X109972542Y-72252056D01*
X110054567Y-72074084D01*
X110322306Y-71633640D01*
X110634710Y-71333782D01*
X111014975Y-71164126D01*
X111486295Y-71114290D01*
X112067373Y-71173128D01*
G37*
G36*
X106563404Y-68857142D02*
G01*
X106786399Y-68986391D01*
X107064791Y-69173061D01*
X107199074Y-69270502D01*
X107519539Y-69506501D01*
X107924756Y-69801593D01*
X108361286Y-70117009D01*
X108750906Y-70396307D01*
X109096629Y-70652190D01*
X109388700Y-70885867D01*
X109600371Y-71074628D01*
X109704895Y-71195767D01*
X109710904Y-71211333D01*
X109702389Y-71522326D01*
X109567748Y-71756697D01*
X109339829Y-71886832D01*
X109051478Y-71885113D01*
X108949691Y-71851333D01*
X108761107Y-71750502D01*
X108498058Y-71582131D01*
X108231121Y-71392625D01*
X107748690Y-71031730D01*
X107100421Y-72523781D01*
X106881749Y-73023030D01*
X106670188Y-73498720D01*
X106480940Y-73917214D01*
X106329205Y-74244874D01*
X106235402Y-74437971D01*
X106018653Y-74860110D01*
X106563200Y-75225419D01*
X106935959Y-75508318D01*
X107154481Y-75758788D01*
X107227413Y-75990683D01*
X107172304Y-76201542D01*
X107059564Y-76374915D01*
X106927276Y-76476642D01*
X106756656Y-76501684D01*
X106528921Y-76445000D01*
X106225287Y-76301553D01*
X105826969Y-76066302D01*
X105315183Y-75734209D01*
X105237634Y-75682524D01*
X104807270Y-75387426D01*
X104446802Y-75125204D01*
X104176452Y-74911550D01*
X104016441Y-74762154D01*
X103981303Y-74707635D01*
X103986782Y-74385984D01*
X104118971Y-74156428D01*
X104351115Y-74039486D01*
X104656463Y-74055677D01*
X104777171Y-74097216D01*
X105070609Y-74219822D01*
X105479714Y-73398160D01*
X105677313Y-72986992D01*
X105908437Y-72483909D01*
X106143596Y-71954170D01*
X106343368Y-71486883D01*
X106797918Y-70397268D01*
X106354763Y-70005217D01*
X106108216Y-69771906D01*
X105971992Y-69594322D01*
X105918110Y-69430482D01*
X105913288Y-69342799D01*
X105988595Y-69077090D01*
X106179379Y-68882929D01*
X106434746Y-68808832D01*
X106563404Y-68857142D01*
G37*
G36*
X88255235Y-69026374D02*
G01*
X88453939Y-69112764D01*
X88574695Y-69264651D01*
X88618477Y-69500318D01*
X88586260Y-69838048D01*
X88479019Y-70296125D01*
X88346607Y-70740219D01*
X88212120Y-71108833D01*
X88052857Y-71462380D01*
X87900834Y-71730599D01*
X87885043Y-71753102D01*
X87633950Y-72099726D01*
X87889604Y-72846112D01*
X88065598Y-73398265D01*
X88221532Y-73977914D01*
X88372117Y-74642088D01*
X88445748Y-75002285D01*
X88424610Y-75250873D01*
X88283128Y-75440697D01*
X88065957Y-75551069D01*
X87817754Y-75561299D01*
X87583171Y-75450698D01*
X87547798Y-75418329D01*
X87408686Y-75207670D01*
X87288319Y-74906188D01*
X87214668Y-74592140D01*
X87204106Y-74456726D01*
X87178681Y-74322487D01*
X87109454Y-74062832D01*
X87006441Y-73712900D01*
X86879655Y-73307828D01*
X86854202Y-73229060D01*
X86652833Y-72650470D01*
X86472926Y-72224320D01*
X86308034Y-71936035D01*
X86249058Y-71860842D01*
X86077812Y-71627491D01*
X85886783Y-71311215D01*
X85737648Y-71022104D01*
X85606114Y-70728974D01*
X85543435Y-70539567D01*
X85541201Y-70406924D01*
X85591003Y-70284089D01*
X85601958Y-70264457D01*
X85810812Y-70000979D01*
X86037372Y-69902757D01*
X86272664Y-69967831D01*
X86507715Y-70194238D01*
X86696389Y-70503662D01*
X86836206Y-70759697D01*
X86955834Y-70941818D01*
X87028616Y-71010165D01*
X87091964Y-70933365D01*
X87185648Y-70723983D01*
X87298280Y-70413552D01*
X87418468Y-70033601D01*
X87534824Y-69615662D01*
X87540996Y-69591772D01*
X87684382Y-69261967D01*
X87900608Y-69063364D01*
X88169886Y-69011629D01*
X88255235Y-69026374D01*
G37*
G36*
X108466700Y-72614656D02*
G01*
X108665689Y-72713364D01*
X108785457Y-72819448D01*
X108860515Y-72983776D01*
X108925375Y-73257216D01*
X108935219Y-73305201D01*
X109028779Y-73652407D01*
X109172140Y-74062380D01*
X109334966Y-74448717D01*
X109341724Y-74463022D01*
X109515971Y-74834051D01*
X109612235Y-75071564D01*
X109624003Y-75195557D01*
X109544762Y-75226024D01*
X109368003Y-75182960D01*
X109133458Y-75102512D01*
X108613141Y-75004866D01*
X108285340Y-75012070D01*
X108001087Y-75027919D01*
X107809393Y-74996713D01*
X107635436Y-74897020D01*
X107497836Y-74786522D01*
X107178606Y-74518513D01*
X107512501Y-73801506D01*
X107678021Y-73442047D01*
X107831428Y-73101894D01*
X107947434Y-72837360D01*
X107976252Y-72768856D01*
X108106108Y-72453214D01*
X108466700Y-72614656D01*
G37*
G36*
X102726916Y-67655379D02*
G01*
X103036819Y-67804682D01*
X103379046Y-68022998D01*
X103786842Y-68305257D01*
X104073211Y-68529028D01*
X104259384Y-68727047D01*
X104366595Y-68932053D01*
X104416074Y-69176782D01*
X104429054Y-69493971D01*
X104428825Y-69641618D01*
X104395102Y-70196994D01*
X104293085Y-70612494D01*
X104109937Y-70908235D01*
X103832818Y-71104337D01*
X103448889Y-71220919D01*
X103417301Y-71226689D01*
X103190334Y-71271600D01*
X103041863Y-71309963D01*
X103023027Y-71317737D01*
X103028783Y-71403962D01*
X103091255Y-71608071D01*
X103198419Y-71893196D01*
X103257753Y-72037476D01*
X103431188Y-72509523D01*
X103563255Y-72990013D01*
X103646526Y-73438671D01*
X103673570Y-73815221D01*
X103636958Y-74079387D01*
X103635266Y-74083931D01*
X103466387Y-74359832D01*
X103234260Y-74526185D01*
X102978597Y-74569542D01*
X102739110Y-74476455D01*
X102668423Y-74411332D01*
X102579325Y-74240742D01*
X102535564Y-73958695D01*
X102528301Y-73706262D01*
X102489916Y-73290583D01*
X102386919Y-72841932D01*
X102237541Y-72415960D01*
X102060016Y-72068319D01*
X101940980Y-71913596D01*
X101866307Y-71847900D01*
X101807620Y-71848448D01*
X101748572Y-71939660D01*
X101672820Y-72145953D01*
X101572606Y-72463929D01*
X101463530Y-72832917D01*
X101368457Y-73182842D01*
X101304300Y-73450707D01*
X101294928Y-73498264D01*
X101175687Y-73839621D01*
X100974660Y-74061988D01*
X100712385Y-74142812D01*
X100707967Y-74142832D01*
X100460067Y-74069418D01*
X100258630Y-73885945D01*
X100160093Y-73647566D01*
X100157634Y-73605002D01*
X100181606Y-73447342D01*
X100250183Y-73146143D01*
X100358353Y-72719766D01*
X100501103Y-72186575D01*
X100673424Y-71564931D01*
X100870303Y-70873196D01*
X101045621Y-70270945D01*
X102190768Y-70270945D01*
X102259428Y-70306889D01*
X102380134Y-70296990D01*
X102589844Y-70257575D01*
X102860537Y-70210906D01*
X102909106Y-70202939D01*
X103175968Y-70135799D01*
X103316488Y-70015259D01*
X103368758Y-69795619D01*
X103373671Y-69645583D01*
X103354136Y-69442339D01*
X103267501Y-69294293D01*
X103074905Y-69141150D01*
X103028532Y-69110074D01*
X102819527Y-68986932D01*
X102671079Y-68927381D01*
X102632606Y-68930305D01*
X102586838Y-69027510D01*
X102508779Y-69237988D01*
X102414574Y-69512751D01*
X102320368Y-69802812D01*
X102242305Y-70059186D01*
X102196530Y-70232885D01*
X102190768Y-70270945D01*
X101045621Y-70270945D01*
X101086729Y-70129732D01*
X101317690Y-69352902D01*
X101322504Y-69336880D01*
X101473145Y-68843340D01*
X101590630Y-68484743D01*
X101687600Y-68233010D01*
X101776698Y-68060064D01*
X101870566Y-67937823D01*
X101981844Y-67838210D01*
X102005460Y-67819935D01*
X102246518Y-67668221D01*
X102475243Y-67611630D01*
X102726916Y-67655379D01*
G37*
G36*
X94048281Y-67729058D02*
G01*
X94233713Y-67899834D01*
X94313475Y-68145524D01*
X94281739Y-68404275D01*
X94132677Y-68614234D01*
X94131756Y-68614957D01*
X93696635Y-69013115D01*
X93334413Y-69458213D01*
X93057905Y-69922984D01*
X92879926Y-70380159D01*
X92813290Y-70802469D01*
X92870812Y-71162646D01*
X92901941Y-71231884D01*
X93031429Y-71419848D01*
X93241068Y-71662472D01*
X93457947Y-71880664D01*
X93696798Y-72091439D01*
X93896791Y-72217879D01*
X94113931Y-72278315D01*
X94404227Y-72291078D01*
X94682270Y-72281403D01*
X95015040Y-72326002D01*
X95233780Y-72490208D01*
X95328452Y-72765402D01*
X95331634Y-72838820D01*
X95287770Y-73083888D01*
X95143309Y-73248299D01*
X94878945Y-73342791D01*
X94475373Y-73378097D01*
X94360295Y-73378972D01*
X93827640Y-73338269D01*
X93409503Y-73215600D01*
X93398768Y-73210779D01*
X93166299Y-73071464D01*
X92873521Y-72848752D01*
X92574146Y-72584436D01*
X92496578Y-72508788D01*
X92075262Y-72009222D01*
X91812416Y-71503998D01*
X91697924Y-70971561D01*
X91690967Y-70792050D01*
X91752931Y-70323395D01*
X91923967Y-69792376D01*
X92181792Y-69243492D01*
X92504125Y-68721242D01*
X92868682Y-68270126D01*
X93035702Y-68106553D01*
X93371806Y-67835939D01*
X93644080Y-67695898D01*
X93881753Y-67675534D01*
X94048281Y-67729058D01*
G37*
G36*
X99597748Y-67271950D02*
G01*
X99798854Y-67450710D01*
X99899629Y-67681556D01*
X99902727Y-67729332D01*
X99893687Y-67881976D01*
X99869584Y-68165213D01*
X99833876Y-68541320D01*
X99790021Y-68972571D01*
X99780398Y-69063804D01*
X99727532Y-69532345D01*
X99668637Y-69987372D01*
X99598308Y-70462924D01*
X99511141Y-70993038D01*
X99401730Y-71611755D01*
X99264671Y-72353113D01*
X99222644Y-72576499D01*
X99149579Y-72874949D01*
X99059878Y-73120710D01*
X98994094Y-73232665D01*
X98782187Y-73356728D01*
X98524209Y-73364354D01*
X98296373Y-73256241D01*
X98265756Y-73225998D01*
X98165939Y-73006724D01*
X98131171Y-72661575D01*
X98161683Y-72221113D01*
X98254327Y-71729832D01*
X98319526Y-71446684D01*
X98364523Y-71226245D01*
X98378311Y-71130540D01*
X98303675Y-71064847D01*
X98111657Y-70989216D01*
X97852537Y-70917465D01*
X97576592Y-70863415D01*
X97334100Y-70840883D01*
X97324285Y-70840832D01*
X97244292Y-70847286D01*
X97187757Y-70884638D01*
X97148400Y-70979874D01*
X97119938Y-71159980D01*
X97096090Y-71451942D01*
X97070575Y-71882746D01*
X97067056Y-71945895D01*
X97039991Y-72399304D01*
X97013772Y-72713956D01*
X96981937Y-72920267D01*
X96938022Y-73048654D01*
X96875565Y-73129536D01*
X96804229Y-73182895D01*
X96532978Y-73271021D01*
X96263970Y-73208997D01*
X96052814Y-73014024D01*
X96005809Y-72919892D01*
X95976130Y-72790029D01*
X95963107Y-72597333D01*
X95966073Y-72314703D01*
X95984358Y-71915038D01*
X96013678Y-71427868D01*
X96049905Y-70824882D01*
X96086806Y-70153262D01*
X96120522Y-69486794D01*
X96147194Y-68899263D01*
X96151725Y-68788135D01*
X96176305Y-68318226D01*
X96208703Y-67916411D01*
X96245708Y-67613310D01*
X96284104Y-67439543D01*
X96295623Y-67416936D01*
X96446205Y-67305004D01*
X96618540Y-67239023D01*
X96814038Y-67231727D01*
X96994859Y-67336537D01*
X97071616Y-67408450D01*
X97164695Y-67507040D01*
X97226734Y-67604647D01*
X97262867Y-67734957D01*
X97278226Y-67931654D01*
X97277945Y-68228424D01*
X97267156Y-68658952D01*
X97266376Y-68686580D01*
X97236634Y-69740206D01*
X97451016Y-69740185D01*
X97657424Y-69761425D01*
X97943389Y-69815534D01*
X98103273Y-69853748D01*
X98377494Y-69913792D01*
X98526476Y-69914137D01*
X98579333Y-69867822D01*
X98601343Y-69750330D01*
X98634714Y-69498721D01*
X98675273Y-69147501D01*
X98718849Y-68731173D01*
X98728306Y-68635509D01*
X98787588Y-68103455D01*
X98852024Y-67718328D01*
X98931345Y-67457781D01*
X99035280Y-67299469D01*
X99173560Y-67221046D01*
X99353301Y-67200165D01*
X99597748Y-67271950D01*
G37*
G36*
X94623679Y-69427322D02*
G01*
X94638519Y-69513871D01*
X94662347Y-69727252D01*
X94691497Y-70025438D01*
X94722303Y-70366401D01*
X94751097Y-70708114D01*
X94774215Y-71008549D01*
X94787990Y-71225679D01*
X94788755Y-71317477D01*
X94788595Y-71317775D01*
X94710685Y-71341209D01*
X94532580Y-71382230D01*
X94525691Y-71383706D01*
X94357382Y-71398763D01*
X94209763Y-71342724D01*
X94029143Y-71189857D01*
X93944912Y-71105358D01*
X93619742Y-70772354D01*
X93897694Y-70250863D01*
X94069104Y-69966157D01*
X94255970Y-69712715D01*
X94430943Y-69521557D01*
X94566678Y-69423707D01*
X94623679Y-69427322D01*
G37*
D14*
X77825234Y-133543299D02*
X77100234Y-133543299D01*
X71605234Y-132818299D02*
X71605234Y-133543299D01*
X77825234Y-132818299D02*
X77825234Y-133543299D01*
X71605234Y-128048299D02*
X71605234Y-127323299D01*
X77825234Y-128048299D02*
X77825234Y-127323299D01*
X71605234Y-127323299D02*
X72330234Y-127323299D01*
X77825234Y-127323299D02*
X77100234Y-127323299D01*
X69187798Y-138251499D02*
X69403470Y-138251499D01*
X69187798Y-138971499D02*
X69403470Y-138971499D01*
X74653134Y-141761499D02*
X74653134Y-140161499D01*
X72853134Y-140161499D02*
X72853134Y-142061499D01*
X82383470Y-111921499D02*
X82167798Y-111921499D01*
X82383470Y-111201499D02*
X82167798Y-111201499D01*
X79635634Y-129553663D02*
X79635634Y-129769335D01*
X78915634Y-129553663D02*
X78915634Y-129769335D01*
X69194834Y-135878099D02*
X69194834Y-136518099D01*
X68464834Y-137758099D02*
X69154834Y-137758099D01*
X68254834Y-134838099D02*
X67914834Y-134838099D01*
X68244834Y-137558099D02*
X67914834Y-137558099D01*
X66974834Y-135878099D02*
X66974834Y-136518099D01*
X68464834Y-137758099D02*
G75*
G02*
X68244833Y-137558099I90001J320002D01*
G01*
X78883470Y-126421499D02*
X78667798Y-126421499D01*
X78883470Y-125701499D02*
X78667798Y-125701499D01*
X68724234Y-132788263D02*
X68724234Y-133003935D01*
X68004234Y-132788263D02*
X68004234Y-133003935D01*
X72351034Y-135077258D02*
X72351034Y-135384540D01*
X71591034Y-135077258D02*
X71591034Y-135384540D01*
D15*
X71475634Y-116811499D02*
X69725634Y-115061499D01*
X79725634Y-116811499D02*
X71475634Y-116811499D01*
X69725634Y-115061499D02*
X69725634Y-105811499D01*
X69725634Y-105811499D02*
X79725634Y-105811499D01*
X79725634Y-105811499D02*
X79725634Y-116811499D01*
X69825634Y-116811499D02*
G75*
G02*
X69625634Y-116811499I-100000J0D01*
G01*
X69625634Y-116811499D02*
G75*
G02*
X69825634Y-116811499I100000J0D01*
G01*
D14*
X79356198Y-141908699D02*
X79571870Y-141908699D01*
X79356198Y-142628699D02*
X79571870Y-142628699D01*
X78614034Y-140978499D02*
X78614034Y-139278499D01*
X80314034Y-140828499D02*
X80314034Y-139278499D01*
X79841398Y-137616099D02*
X80057070Y-137616099D01*
X79841398Y-138336099D02*
X80057070Y-138336099D01*
X78046034Y-139849463D02*
X78046034Y-140065135D01*
X77326034Y-139849463D02*
X77326034Y-140065135D01*
X69189275Y-129841499D02*
X68881993Y-129841499D01*
X69189275Y-129081499D02*
X68881993Y-129081499D01*
X72867798Y-118701499D02*
X73083470Y-118701499D01*
X72867798Y-119421499D02*
X73083470Y-119421499D01*
X82585634Y-114123663D02*
X82585634Y-114339335D01*
X81865634Y-114123663D02*
X81865634Y-114339335D01*
X76517798Y-136701499D02*
X76733470Y-136701499D01*
X76517798Y-137421499D02*
X76733470Y-137421499D01*
X70115834Y-132740458D02*
X70115834Y-133047740D01*
X69355834Y-132740458D02*
X69355834Y-133047740D01*
X77023134Y-103246499D02*
X77023134Y-100976499D01*
X77023134Y-100976499D02*
X72963134Y-100976499D01*
X72963134Y-103246499D02*
X77023134Y-103246499D01*
X79587798Y-130951499D02*
X79803470Y-130951499D01*
X79587798Y-131671499D02*
X79803470Y-131671499D01*
X70029275Y-127641499D02*
X69721993Y-127641499D01*
X70029275Y-126881499D02*
X69721993Y-126881499D01*
X78895634Y-127855140D02*
X78895634Y-127547858D01*
X79655634Y-127855140D02*
X79655634Y-127547858D01*
%LPC*%
D16*
X72715234Y-133270799D03*
X73215234Y-133270799D03*
X73715234Y-133270799D03*
X74215234Y-133270799D03*
X74715234Y-133270799D03*
X75215234Y-133270799D03*
X75715234Y-133270799D03*
X76215234Y-133270799D03*
X76715234Y-133270799D03*
D17*
X77552734Y-132433299D03*
X77552734Y-131933299D03*
X77552734Y-131433299D03*
X77552734Y-130933299D03*
X77552734Y-130433299D03*
X77552734Y-129933299D03*
X77552734Y-129433299D03*
X77552734Y-128933299D03*
X77552734Y-128433299D03*
D16*
X76715234Y-127595799D03*
X76215234Y-127595799D03*
X75715234Y-127595799D03*
X75215234Y-127595799D03*
X74715234Y-127595799D03*
X74215234Y-127595799D03*
X73715234Y-127595799D03*
X73215234Y-127595799D03*
X72715234Y-127595799D03*
D17*
X71877734Y-128433299D03*
X71877734Y-128933299D03*
X71877734Y-129433299D03*
X71877734Y-129933299D03*
X71877734Y-130433299D03*
X71877734Y-130933299D03*
X71877734Y-131433299D03*
X71877734Y-131933299D03*
X71877734Y-132433299D03*
D18*
X74715234Y-130433299D03*
D19*
X68815634Y-138611499D03*
X69775634Y-138611499D03*
D20*
X73215634Y-141811499D03*
D21*
X73753134Y-141886499D03*
D20*
X74290634Y-141811499D03*
X74290634Y-140111499D03*
D21*
X73753134Y-140036499D03*
D20*
X73215634Y-140111499D03*
D22*
X82755634Y-111561499D03*
X81795634Y-111561499D03*
D23*
X79275634Y-129181499D03*
X79275634Y-130141499D03*
D24*
X68809834Y-137123099D03*
X68809834Y-135273099D03*
X67359834Y-135273099D03*
X67359834Y-137123099D03*
D22*
X79255634Y-126061499D03*
X78295634Y-126061499D03*
D23*
X68364234Y-132416099D03*
X68364234Y-133376099D03*
D25*
X78300000Y-153440000D03*
D26*
X75790000Y-153190000D03*
X73190000Y-153190000D03*
D25*
X70680000Y-153440000D03*
D27*
X71971034Y-134720899D03*
X71971034Y-135740899D03*
D28*
X71475634Y-114561499D03*
X71475634Y-113561499D03*
X71475634Y-113061499D03*
X71475634Y-112561499D03*
X71475634Y-112061499D03*
X71475634Y-110561499D03*
X71475634Y-110061499D03*
X71475634Y-109561499D03*
X71475634Y-109061499D03*
X71475634Y-108561499D03*
X71475634Y-108061499D03*
X71975634Y-114561499D03*
X71975634Y-114061499D03*
X71475634Y-114061499D03*
X71975634Y-113561499D03*
X72975634Y-114561499D03*
X72975634Y-114061499D03*
X72475634Y-113561499D03*
X71975634Y-113061499D03*
X71975634Y-112561499D03*
X72475634Y-112561499D03*
X71975634Y-112061499D03*
X71975634Y-111561499D03*
X71475634Y-111061499D03*
X71975634Y-111061499D03*
X71975634Y-110561499D03*
X71975634Y-110061499D03*
X71975634Y-109561499D03*
X71975634Y-109061499D03*
X71975634Y-108561499D03*
X71975634Y-108061499D03*
X72475634Y-114561499D03*
X72475634Y-114061499D03*
X72475634Y-113061499D03*
X72975634Y-113061499D03*
X72475634Y-112061499D03*
X72475634Y-111561499D03*
X72475634Y-111061499D03*
X72475634Y-110561499D03*
X72475634Y-110061499D03*
X72475634Y-109561499D03*
X72475634Y-109061499D03*
X72475634Y-108561499D03*
X72475634Y-108061499D03*
X72975634Y-113561499D03*
X72975634Y-109061499D03*
X72975634Y-108561499D03*
X72975634Y-108061499D03*
X73475634Y-114561499D03*
X73475634Y-114061499D03*
X73475634Y-113561499D03*
X73475634Y-112561499D03*
X73475634Y-112061499D03*
X73475634Y-111561499D03*
X73475634Y-111061499D03*
X73475634Y-110561499D03*
X73475634Y-110061499D03*
X73475634Y-109061499D03*
X73475634Y-108561499D03*
X73475634Y-108061499D03*
X73975634Y-114561499D03*
X73975634Y-114061499D03*
X73975634Y-113561499D03*
X73975634Y-112561499D03*
X73975634Y-110061499D03*
X73975634Y-109061499D03*
X73975634Y-108561499D03*
X73975634Y-108061499D03*
X74475634Y-114561499D03*
X74475634Y-114061499D03*
X74475634Y-113561499D03*
X74475634Y-112561499D03*
X74475634Y-110061499D03*
X74475634Y-109061499D03*
X74475634Y-108561499D03*
X74475634Y-108061499D03*
X74975634Y-114561499D03*
X74975634Y-114061499D03*
X74975634Y-113561499D03*
X74975634Y-112561499D03*
X74975634Y-110061499D03*
X74975634Y-109061499D03*
X74975634Y-108561499D03*
X74975634Y-108061499D03*
X75475634Y-114561499D03*
X75475634Y-114061499D03*
X75475634Y-113561499D03*
X75475634Y-112561499D03*
X75475634Y-110061499D03*
X75475634Y-109061499D03*
X75475634Y-108561499D03*
X75475634Y-108061499D03*
X75975634Y-114561499D03*
X75975634Y-114061499D03*
X75975634Y-113561499D03*
X75975634Y-112561499D03*
X75975634Y-112061499D03*
X75975634Y-111561499D03*
X75975634Y-111061499D03*
X75975634Y-110561499D03*
X75975634Y-110061499D03*
X75975634Y-109061499D03*
X75975634Y-108561499D03*
X75975634Y-108061499D03*
X76475634Y-114561499D03*
X76475634Y-114061499D03*
X76475634Y-113561499D03*
X76475634Y-109061499D03*
X76475634Y-108561499D03*
X76475634Y-108061499D03*
X76975634Y-114561499D03*
X76975634Y-114061499D03*
X76975634Y-113561499D03*
X76975634Y-113061499D03*
X76975634Y-112561499D03*
X76975634Y-112061499D03*
X76975634Y-111561499D03*
X76975634Y-111061499D03*
X76975634Y-110561499D03*
X76975634Y-110061499D03*
X76975634Y-109561499D03*
X76975634Y-109061499D03*
X76975634Y-108561499D03*
X76975634Y-108061499D03*
X77475634Y-114561499D03*
X77475634Y-114061499D03*
X77475634Y-113561499D03*
X77475634Y-113061499D03*
X77475634Y-112561499D03*
X77475634Y-112061499D03*
X77475634Y-111561499D03*
X77475634Y-111061499D03*
X77475634Y-110561499D03*
X77475634Y-110061499D03*
X77475634Y-109561499D03*
X77475634Y-109061499D03*
X77475634Y-108561499D03*
X77475634Y-108061499D03*
X77975634Y-114561499D03*
X77975634Y-114061499D03*
X77975634Y-113561499D03*
X77975634Y-113061499D03*
X77975634Y-112561499D03*
X77975634Y-112061499D03*
X77975634Y-111561499D03*
X77975634Y-111061499D03*
X77975634Y-110561499D03*
X77975634Y-109561499D03*
X77975634Y-109061499D03*
X77975634Y-108561499D03*
X77975634Y-108061499D03*
X71475634Y-111561499D03*
X77975634Y-110061499D03*
D19*
X78984034Y-142268699D03*
X79944034Y-142268699D03*
D29*
X78964034Y-140558499D03*
D30*
X79464034Y-140608499D03*
X79964034Y-140608499D03*
X79964034Y-139458499D03*
X79464034Y-139458499D03*
X78964034Y-139458499D03*
D19*
X79469234Y-137976099D03*
X80429234Y-137976099D03*
D31*
X90425634Y-68311499D03*
D23*
X77686034Y-139477299D03*
X77686034Y-140437299D03*
D32*
X69545634Y-129461499D03*
X68525634Y-129461499D03*
D19*
X72495634Y-119061499D03*
X73455634Y-119061499D03*
D23*
X82225634Y-113751499D03*
X82225634Y-114711499D03*
D19*
X76145634Y-137061499D03*
X77105634Y-137061499D03*
D27*
X69735834Y-132384099D03*
X69735834Y-133404099D03*
D33*
X76050634Y-102111499D03*
X73075634Y-102111499D03*
D19*
X79215634Y-131311499D03*
X80175634Y-131311499D03*
D32*
X70385634Y-127261499D03*
X69365634Y-127261499D03*
D34*
X79275634Y-128211499D03*
X79275634Y-127191499D03*
%LPD*%
M02*
