G04 #@! TF.GenerationSoftware,KiCad,Pcbnew,7.0.9*
G04 #@! TF.CreationDate,2023-12-10T17:48:37-07:00*
G04 #@! TF.ProjectId,chrimbus2023,63687269-6d62-4757-9332-3032332e6b69,rev?*
G04 #@! TF.SameCoordinates,Original*
G04 #@! TF.FileFunction,Copper,L2,Bot*
G04 #@! TF.FilePolarity,Positive*
%FSLAX46Y46*%
G04 Gerber Fmt 4.6, Leading zero omitted, Abs format (unit mm)*
G04 Created by KiCad (PCBNEW 7.0.9) date 2023-12-10 17:48:37*
%MOMM*%
%LPD*%
G01*
G04 APERTURE LIST*
G04 #@! TA.AperFunction,SMDPad,CuDef*
%ADD10R,2.500000X2.500000*%
G04 #@! TD*
G04 #@! TA.AperFunction,ComponentPad*
%ADD11C,0.600000*%
G04 #@! TD*
G04 #@! TA.AperFunction,ViaPad*
%ADD12C,0.500000*%
G04 #@! TD*
G04 #@! TA.AperFunction,ViaPad*
%ADD13C,0.700000*%
G04 #@! TD*
G04 #@! TA.AperFunction,Conductor*
%ADD14C,0.127000*%
G04 #@! TD*
G04 #@! TA.AperFunction,Conductor*
%ADD15C,0.200000*%
G04 #@! TD*
G04 APERTURE END LIST*
D10*
X74715234Y-130433299D03*
D11*
X74715234Y-131433299D03*
X73715234Y-131433299D03*
X75715234Y-131433299D03*
X73715234Y-129433299D03*
X73715234Y-130433299D03*
X74715234Y-129433299D03*
X75715234Y-129433299D03*
X75715234Y-130433299D03*
X74715234Y-130433299D03*
D12*
X81775634Y-141161499D03*
X67125634Y-139111499D03*
X69725634Y-134161499D03*
X77375634Y-124061499D03*
X83525634Y-124211499D03*
X83625634Y-115811499D03*
X83175634Y-119511499D03*
X74475634Y-147661499D03*
X76375634Y-144411499D03*
X77375634Y-121861499D03*
X75925634Y-139561499D03*
X83475634Y-138411499D03*
X80925634Y-134161499D03*
X81775634Y-109961499D03*
X73425634Y-117511499D03*
X69475634Y-121661499D03*
X68225634Y-123611499D03*
X71475634Y-117461499D03*
X76423743Y-109580414D03*
X73775634Y-120311499D03*
X76519759Y-111814763D03*
X82125634Y-117061499D03*
X82075634Y-130261499D03*
X80525634Y-115011499D03*
X67775634Y-117461499D03*
X72625634Y-123111499D03*
X81575634Y-127711499D03*
X82725634Y-122361499D03*
X80225634Y-118761499D03*
X82225634Y-132711499D03*
X76425634Y-115311499D03*
X75125634Y-115261499D03*
X75025634Y-116261499D03*
X70625634Y-113261499D03*
X83525634Y-118061499D03*
X70625634Y-114161499D03*
X73075634Y-115411499D03*
X74925634Y-126361499D03*
X70725634Y-111761499D03*
X84225634Y-133711499D03*
X79525634Y-133111499D03*
X81075634Y-116311499D03*
X79775634Y-132261499D03*
X76519759Y-112808235D03*
X75725634Y-113061499D03*
X75725634Y-126461499D03*
X76825634Y-126011499D03*
X70975634Y-115211499D03*
X80325634Y-113761499D03*
X76454131Y-110561499D03*
X79125634Y-112511499D03*
X75275634Y-136311499D03*
X80225634Y-128711499D03*
X72953227Y-112540478D03*
X73723864Y-113020135D03*
X74725634Y-113061499D03*
X74725634Y-111361499D03*
D13*
X76339834Y-135410699D03*
X84290034Y-113007899D03*
X78422634Y-136934699D03*
X78448034Y-137976099D03*
X71844034Y-133175499D03*
X70066034Y-137137899D03*
D14*
X80925634Y-135861499D02*
X83475634Y-138411499D01*
X80925634Y-134161499D02*
X80925634Y-135861499D01*
D15*
X84290034Y-113007899D02*
X84747234Y-113465099D01*
X84747234Y-113465099D02*
X84747234Y-139039899D01*
X84747234Y-139039899D02*
X83925634Y-139861499D01*
X83925634Y-139861499D02*
X82125634Y-139861499D01*
X82125634Y-139861499D02*
X79198834Y-136934699D01*
X79198834Y-136934699D02*
X78422634Y-136934699D01*
D14*
X73375634Y-117461499D02*
X71475634Y-117461499D01*
X73425634Y-117511499D02*
X73375634Y-117461499D01*
X69475634Y-122361499D02*
X68225634Y-123611499D01*
X69475634Y-121661499D02*
X69475634Y-122361499D01*
X74725634Y-108261499D02*
X74775634Y-108211499D01*
D15*
X76423743Y-109809608D02*
X76423743Y-109580414D01*
X79125634Y-112511499D02*
X76423743Y-109809608D01*
D14*
X76519759Y-111814763D02*
X77328898Y-111814763D01*
X82125634Y-130211499D02*
X82075634Y-130261499D01*
X77328898Y-111814763D02*
X80525634Y-115011499D01*
X82125634Y-117061499D02*
X82125634Y-130211499D01*
X72625634Y-123111499D02*
X67775634Y-118261499D01*
X67775634Y-118261499D02*
X67775634Y-117461499D01*
X81516134Y-127651999D02*
X81575634Y-127711499D01*
X81516134Y-114951999D02*
X81516134Y-127651999D01*
X80325634Y-113761499D02*
X81516134Y-114951999D01*
X72953227Y-113089092D02*
X75125634Y-115261499D01*
X82725634Y-122361499D02*
X82725634Y-132211499D01*
X82725634Y-132211499D02*
X82225634Y-132711499D01*
X76775634Y-115311499D02*
X80225634Y-118761499D01*
X72953227Y-112540478D02*
X72953227Y-113089092D01*
X76425634Y-115311499D02*
X76775634Y-115311499D01*
X74548596Y-116261499D02*
X75025634Y-116261499D01*
X71548596Y-113261499D02*
X74548596Y-116261499D01*
X70625634Y-113261499D02*
X71548596Y-113261499D01*
X84225634Y-133711499D02*
X84225634Y-118811499D01*
X83525634Y-118061499D02*
X84225634Y-118761499D01*
X84225634Y-118761499D02*
X84225634Y-118811499D01*
X70625634Y-114161499D02*
X71875634Y-115411499D01*
X71875634Y-115411499D02*
X73075634Y-115411499D01*
X77275634Y-128711499D02*
X74925634Y-126361499D01*
X80225634Y-128711499D02*
X77275634Y-128711499D01*
X74325634Y-111761499D02*
X70725634Y-111761499D01*
X74725634Y-111361499D02*
X74325634Y-111761499D01*
X74725634Y-113061499D02*
X74725634Y-112289996D01*
X74725634Y-112289996D02*
X76454131Y-110561499D01*
X79525634Y-133111499D02*
X79548596Y-133111499D01*
X79548596Y-133111499D02*
X81075634Y-131584461D01*
X81075634Y-131584461D02*
X81075634Y-116311499D01*
X80666134Y-117001999D02*
X80666134Y-131370999D01*
X80666134Y-131370999D02*
X79775634Y-132261499D01*
X76475634Y-112811499D02*
X80666134Y-117001999D01*
X75725634Y-113061499D02*
X75725634Y-124011499D01*
X77425634Y-125711499D02*
X77425634Y-126361499D01*
X75725634Y-124011499D02*
X77425634Y-125711499D01*
X77425634Y-126361499D02*
X77325634Y-126461499D01*
X77325634Y-126461499D02*
X75725634Y-126461499D01*
X70975634Y-120161499D02*
X76825634Y-126011499D01*
X70975634Y-115211499D02*
X70975634Y-120161499D01*
X79654131Y-113761499D02*
X80325634Y-113761499D01*
X76454131Y-110561499D02*
X79654131Y-113761499D01*
D15*
X83793634Y-112511499D02*
X79125634Y-112511499D01*
X84290034Y-113007899D02*
X83793634Y-112511499D01*
D14*
X76339834Y-135410699D02*
X76339834Y-132197299D01*
X76339834Y-132197299D02*
X79825634Y-128711499D01*
X79825634Y-128711499D02*
X80225634Y-128711499D01*
X75439034Y-136311499D02*
X76339834Y-135410699D01*
X75275634Y-136311499D02*
X75439034Y-136311499D01*
D15*
X76339834Y-135867899D02*
X76339834Y-135410699D01*
X78448034Y-137976099D02*
X76339834Y-135867899D01*
X78448034Y-137976099D02*
X70904234Y-137976099D01*
X70904234Y-137976099D02*
X70066034Y-137137899D01*
X70066034Y-134953499D02*
X71844034Y-133175499D01*
X70066034Y-137137899D02*
X70066034Y-134953499D01*
G04 #@! TA.AperFunction,Conductor*
G36*
X83553355Y-112931684D02*
G01*
X83599110Y-112984488D01*
X83607409Y-113009311D01*
X83619919Y-113066074D01*
X83621978Y-113074317D01*
X83624409Y-113083018D01*
X83626855Y-113090934D01*
X83674918Y-113232747D01*
X83676903Y-113238039D01*
X83683135Y-113253373D01*
X83684269Y-113255038D01*
X83684551Y-113255452D01*
X83698001Y-113281275D01*
X83706440Y-113303526D01*
X83709814Y-113312422D01*
X83799551Y-113442429D01*
X83917794Y-113547182D01*
X84057669Y-113620595D01*
X84090365Y-113628653D01*
X84094786Y-113629920D01*
X84101751Y-113632201D01*
X84101761Y-113632205D01*
X84141362Y-113641223D01*
X84211049Y-113658399D01*
X84211050Y-113658399D01*
X84220159Y-113659505D01*
X84226457Y-113660601D01*
X84239432Y-113663556D01*
X84239434Y-113663556D01*
X84239437Y-113663557D01*
X84243653Y-113664278D01*
X84306410Y-113694990D01*
X84342602Y-113754755D01*
X84346734Y-113786501D01*
X84346734Y-118038337D01*
X84327049Y-118105376D01*
X84274245Y-118151131D01*
X84205087Y-118161075D01*
X84141531Y-118132050D01*
X84103757Y-118073272D01*
X84101083Y-118062356D01*
X84090182Y-118007146D01*
X84088040Y-117997837D01*
X84085427Y-117987915D01*
X84082715Y-117978781D01*
X84048864Y-117876577D01*
X84046715Y-117870781D01*
X84040191Y-117854612D01*
X84040189Y-117854608D01*
X84036072Y-117848550D01*
X84024073Y-117826312D01*
X84006495Y-117783874D01*
X83918255Y-117668878D01*
X83803259Y-117580638D01*
X83803258Y-117580637D01*
X83803256Y-117580636D01*
X83669346Y-117525170D01*
X83669344Y-117525169D01*
X83669343Y-117525169D01*
X83597488Y-117515709D01*
X83525635Y-117506249D01*
X83525633Y-117506249D01*
X83381925Y-117525169D01*
X83381921Y-117525170D01*
X83248011Y-117580636D01*
X83133013Y-117668878D01*
X83044771Y-117783876D01*
X82989305Y-117917786D01*
X82989304Y-117917790D01*
X82978766Y-117997836D01*
X82970384Y-118061499D01*
X82988794Y-118201338D01*
X82989304Y-118205207D01*
X82989305Y-118205211D01*
X83044771Y-118339121D01*
X83044772Y-118339123D01*
X83044773Y-118339124D01*
X83133013Y-118454120D01*
X83248009Y-118542360D01*
X83316922Y-118570903D01*
X83323175Y-118573914D01*
X83345805Y-118586415D01*
X83345808Y-118586416D01*
X83345812Y-118586418D01*
X83442916Y-118618580D01*
X83452050Y-118621292D01*
X83461972Y-118623905D01*
X83471281Y-118626047D01*
X83552191Y-118642022D01*
X83552450Y-118642079D01*
X83554989Y-118642646D01*
X83607713Y-118668660D01*
X83629801Y-118687178D01*
X83631570Y-118688198D01*
X83657288Y-118707926D01*
X83825315Y-118875953D01*
X83858800Y-118937276D01*
X83861634Y-118963634D01*
X83861634Y-133161363D01*
X83857743Y-133189741D01*
X83857897Y-133189769D01*
X83857259Y-133193272D01*
X83857059Y-133194734D01*
X83856870Y-133195407D01*
X83856868Y-133195419D01*
X83854344Y-133224131D01*
X83835508Y-133279727D01*
X83833924Y-133282222D01*
X83788073Y-133350632D01*
X83783124Y-133358527D01*
X83777941Y-133367384D01*
X83773281Y-133375965D01*
X83724886Y-133472295D01*
X83722314Y-133477899D01*
X83717700Y-133488755D01*
X83715493Y-133493948D01*
X83715491Y-133493952D01*
X83714117Y-133501157D01*
X83706877Y-133525361D01*
X83689305Y-133567785D01*
X83689304Y-133567790D01*
X83676276Y-133666749D01*
X83670384Y-133711499D01*
X83687769Y-133843552D01*
X83689304Y-133855207D01*
X83689305Y-133855211D01*
X83744771Y-133989121D01*
X83744772Y-133989123D01*
X83744773Y-133989124D01*
X83833013Y-134104120D01*
X83948009Y-134192360D01*
X84081925Y-134247829D01*
X84225634Y-134266749D01*
X84233693Y-134267810D01*
X84233419Y-134269886D01*
X84289773Y-134286434D01*
X84335528Y-134339238D01*
X84346734Y-134390749D01*
X84346734Y-138822644D01*
X84327049Y-138889683D01*
X84310415Y-138910325D01*
X83796060Y-139424680D01*
X83734737Y-139458165D01*
X83708379Y-139460999D01*
X82342888Y-139460999D01*
X82275849Y-139441314D01*
X82255207Y-139424680D01*
X79458121Y-136627592D01*
X79458090Y-136627563D01*
X79437176Y-136606649D01*
X79437175Y-136606648D01*
X79417434Y-136596589D01*
X79400848Y-136586425D01*
X79382924Y-136573403D01*
X79382925Y-136573403D01*
X79361852Y-136566556D01*
X79343879Y-136559111D01*
X79324141Y-136549054D01*
X79324138Y-136549053D01*
X79302252Y-136545586D01*
X79283341Y-136541045D01*
X79262273Y-136534200D01*
X79262268Y-136534199D01*
X79262267Y-136534199D01*
X79262263Y-136534199D01*
X79171036Y-136534199D01*
X79138481Y-136529849D01*
X79136555Y-136529325D01*
X79136553Y-136529324D01*
X79136552Y-136529324D01*
X79049167Y-136522243D01*
X79020641Y-136516506D01*
X79012724Y-136513917D01*
X78988046Y-136502732D01*
X78950558Y-136480513D01*
X78949794Y-136480060D01*
X78855399Y-136419757D01*
X78848266Y-136415469D01*
X78844720Y-136413468D01*
X78840413Y-136411036D01*
X78836446Y-136408939D01*
X78832935Y-136407082D01*
X78698599Y-136340756D01*
X78693490Y-136338433D01*
X78672108Y-136329408D01*
X78672134Y-136329344D01*
X78657850Y-136323499D01*
X78655000Y-136322003D01*
X78501619Y-136284199D01*
X78343649Y-136284199D01*
X78343648Y-136284199D01*
X78190268Y-136322002D01*
X78050396Y-136395414D01*
X77982903Y-136455207D01*
X77954849Y-136480061D01*
X77932150Y-136500170D01*
X77855915Y-136610615D01*
X77801632Y-136654606D01*
X77732183Y-136662265D01*
X77669618Y-136631161D01*
X77666184Y-136627856D01*
X76927459Y-135889131D01*
X76893974Y-135827808D01*
X76898958Y-135758116D01*
X76907647Y-135739635D01*
X76923228Y-135712549D01*
X76944052Y-135668575D01*
X76945369Y-135665103D01*
X76945608Y-135664282D01*
X76958935Y-135618443D01*
X76959525Y-135615579D01*
X76965031Y-135596624D01*
X76976071Y-135567517D01*
X76985281Y-135491658D01*
X76986101Y-135486646D01*
X76987702Y-135478883D01*
X76990043Y-135463698D01*
X76991072Y-135453719D01*
X76991569Y-135441516D01*
X76991970Y-135436571D01*
X76995112Y-135410702D01*
X76995112Y-135410699D01*
X76976071Y-135253881D01*
X76954638Y-135197368D01*
X76934074Y-135143147D01*
X76932759Y-135139298D01*
X76928121Y-135124100D01*
X76925175Y-135118455D01*
X76922177Y-135111776D01*
X76920054Y-135106176D01*
X76920053Y-135106174D01*
X76916942Y-135101667D01*
X76913000Y-135095129D01*
X76858867Y-134991414D01*
X76852861Y-134980938D01*
X76845462Y-134969138D01*
X76838641Y-134959162D01*
X76765899Y-134861296D01*
X76739473Y-134825353D01*
X76716033Y-134764643D01*
X76712960Y-134734896D01*
X76708302Y-134689804D01*
X76708298Y-134689790D01*
X76707312Y-134684610D01*
X76707650Y-134684545D01*
X76703834Y-134656814D01*
X76703834Y-132399434D01*
X76723519Y-132332395D01*
X76740153Y-132311753D01*
X78265054Y-130786852D01*
X79825416Y-129226489D01*
X79886737Y-129193006D01*
X79956429Y-129197990D01*
X79968759Y-129203368D01*
X79986328Y-129212194D01*
X79991855Y-129214736D01*
X80008086Y-129221640D01*
X80015277Y-129223011D01*
X80039486Y-129230250D01*
X80081925Y-129247829D01*
X80194319Y-129262626D01*
X80258216Y-129290893D01*
X80296687Y-129349217D01*
X80302134Y-129385565D01*
X80302134Y-131168862D01*
X80282449Y-131235901D01*
X80265815Y-131256543D01*
X79907248Y-131615109D01*
X79884432Y-131632424D01*
X79884521Y-131632552D01*
X79881612Y-131634564D01*
X79880425Y-131635466D01*
X79879808Y-131635813D01*
X79857707Y-131654341D01*
X79805096Y-131680327D01*
X79802200Y-131680974D01*
X79721232Y-131696958D01*
X79711842Y-131699121D01*
X79706894Y-131700426D01*
X79701946Y-131701732D01*
X79692888Y-131704425D01*
X79590512Y-131738334D01*
X79584563Y-131740548D01*
X79568747Y-131746940D01*
X79568742Y-131746943D01*
X79562678Y-131751064D01*
X79540447Y-131763058D01*
X79498011Y-131780637D01*
X79498009Y-131780638D01*
X79399840Y-131855966D01*
X79383013Y-131868878D01*
X79294771Y-131983876D01*
X79239305Y-132117786D01*
X79239304Y-132117790D01*
X79220384Y-132261498D01*
X79220384Y-132261499D01*
X79239304Y-132405207D01*
X79239305Y-132405211D01*
X79275847Y-132493432D01*
X79283316Y-132562901D01*
X79252041Y-132625380D01*
X79236773Y-132639259D01*
X79133015Y-132718876D01*
X79044771Y-132833876D01*
X78989305Y-132967786D01*
X78989304Y-132967790D01*
X78971356Y-133104119D01*
X78970384Y-133111499D01*
X78988332Y-133247828D01*
X78989304Y-133255207D01*
X78989305Y-133255211D01*
X79044771Y-133389121D01*
X79044772Y-133389123D01*
X79044773Y-133389124D01*
X79133013Y-133504120D01*
X79248009Y-133592360D01*
X79381925Y-133647829D01*
X79508914Y-133664547D01*
X79525633Y-133666749D01*
X79525634Y-133666749D01*
X79525635Y-133666749D01*
X79540611Y-133664777D01*
X79669343Y-133647829D01*
X79803259Y-133592360D01*
X79918255Y-133504120D01*
X80006495Y-133389124D01*
X80033127Y-133324823D01*
X80036535Y-133317863D01*
X80049363Y-133295347D01*
X80081756Y-133201705D01*
X80084002Y-133194664D01*
X80086222Y-133187078D01*
X80088102Y-133180033D01*
X80106055Y-133105676D01*
X80107772Y-133099668D01*
X80133020Y-133052854D01*
X80157732Y-133024148D01*
X80159828Y-133020594D01*
X80178944Y-132995922D01*
X81297238Y-131877629D01*
X81317092Y-131861507D01*
X81325573Y-131855967D01*
X81346646Y-131828891D01*
X81351706Y-131823162D01*
X81354349Y-131820520D01*
X81367510Y-131802086D01*
X81400189Y-131760101D01*
X81400190Y-131760095D01*
X81403821Y-131753386D01*
X81407167Y-131746543D01*
X81407170Y-131746539D01*
X81408954Y-131740548D01*
X81422353Y-131695540D01*
X81427353Y-131680974D01*
X81439634Y-131645202D01*
X81439634Y-131645194D01*
X81440892Y-131637656D01*
X81441833Y-131630107D01*
X81439634Y-131576938D01*
X81439634Y-130702234D01*
X81459319Y-130635195D01*
X81512123Y-130589440D01*
X81581281Y-130579496D01*
X81644837Y-130608521D01*
X81662007Y-130626745D01*
X81683013Y-130654120D01*
X81798009Y-130742360D01*
X81931925Y-130797829D01*
X82058914Y-130814547D01*
X82075633Y-130816749D01*
X82075634Y-130816749D01*
X82075635Y-130816749D01*
X82094870Y-130814216D01*
X82219343Y-130797829D01*
X82219346Y-130797827D01*
X82221448Y-130797551D01*
X82290483Y-130808316D01*
X82342739Y-130854696D01*
X82361634Y-130920490D01*
X82361634Y-132001276D01*
X82341949Y-132068315D01*
X82317297Y-132096301D01*
X82307709Y-132104339D01*
X82255096Y-132130327D01*
X82252200Y-132130974D01*
X82171232Y-132146958D01*
X82161842Y-132149121D01*
X82156894Y-132150426D01*
X82151946Y-132151732D01*
X82142888Y-132154425D01*
X82040512Y-132188334D01*
X82034563Y-132190548D01*
X82018747Y-132196940D01*
X82018742Y-132196943D01*
X82012678Y-132201064D01*
X81990447Y-132213058D01*
X81948011Y-132230637D01*
X81948009Y-132230638D01*
X81903839Y-132264531D01*
X81833013Y-132318878D01*
X81744771Y-132433876D01*
X81689305Y-132567786D01*
X81689304Y-132567790D01*
X81670384Y-132711498D01*
X81670384Y-132711499D01*
X81689304Y-132855207D01*
X81689305Y-132855211D01*
X81744771Y-132989121D01*
X81744772Y-132989123D01*
X81744773Y-132989124D01*
X81833013Y-133104120D01*
X81948009Y-133192360D01*
X81948010Y-133192360D01*
X81948011Y-133192361D01*
X81953569Y-133194663D01*
X82081925Y-133247829D01*
X82208914Y-133264547D01*
X82225633Y-133266749D01*
X82225634Y-133266749D01*
X82225635Y-133266749D01*
X82240611Y-133264777D01*
X82369343Y-133247829D01*
X82503259Y-133192360D01*
X82618255Y-133104120D01*
X82706495Y-132989124D01*
X82735043Y-132920200D01*
X82738052Y-132913951D01*
X82750553Y-132891319D01*
X82750554Y-132891318D01*
X82782749Y-132794110D01*
X82785516Y-132784768D01*
X82788115Y-132774841D01*
X82790202Y-132765742D01*
X82795094Y-132740969D01*
X82800912Y-132711499D01*
X82806157Y-132684937D01*
X82806790Y-132682098D01*
X82832797Y-132629415D01*
X82836180Y-132625380D01*
X82851311Y-132607333D01*
X82852326Y-132605572D01*
X82872052Y-132579853D01*
X82947238Y-132504666D01*
X82967099Y-132488540D01*
X82975573Y-132483005D01*
X82996638Y-132455938D01*
X83001715Y-132450191D01*
X83004349Y-132447558D01*
X83017510Y-132429124D01*
X83050189Y-132387139D01*
X83050190Y-132387133D01*
X83053821Y-132380424D01*
X83057167Y-132373581D01*
X83057170Y-132373577D01*
X83072353Y-132322577D01*
X83089634Y-132272240D01*
X83089634Y-132272232D01*
X83090892Y-132264694D01*
X83091833Y-132257145D01*
X83089634Y-132203976D01*
X83089634Y-122911624D01*
X83093524Y-122883241D01*
X83093372Y-122883214D01*
X83094005Y-122879732D01*
X83094208Y-122878255D01*
X83094398Y-122877577D01*
X83096921Y-122848869D01*
X83115784Y-122793229D01*
X83117347Y-122790768D01*
X83163208Y-122722340D01*
X83168179Y-122714407D01*
X83173365Y-122705540D01*
X83178000Y-122697003D01*
X83203034Y-122647173D01*
X83226329Y-122600806D01*
X83228871Y-122595277D01*
X83235775Y-122579046D01*
X83237145Y-122571860D01*
X83244386Y-122547642D01*
X83261964Y-122505208D01*
X83280884Y-122361499D01*
X83261964Y-122217790D01*
X83206495Y-122083874D01*
X83118255Y-121968878D01*
X83003259Y-121880638D01*
X83003258Y-121880637D01*
X83003256Y-121880636D01*
X82869346Y-121825170D01*
X82869344Y-121825169D01*
X82869343Y-121825169D01*
X82739671Y-121808097D01*
X82725635Y-121806249D01*
X82725632Y-121806249D01*
X82629819Y-121818863D01*
X82560784Y-121808097D01*
X82508528Y-121761717D01*
X82489634Y-121695924D01*
X82489634Y-117611624D01*
X82493524Y-117583241D01*
X82493372Y-117583214D01*
X82494005Y-117579732D01*
X82494208Y-117578255D01*
X82494398Y-117577577D01*
X82496921Y-117548869D01*
X82515784Y-117493229D01*
X82517347Y-117490768D01*
X82536964Y-117461499D01*
X82563208Y-117422340D01*
X82568180Y-117414406D01*
X82573365Y-117405540D01*
X82578000Y-117397003D01*
X82626329Y-117300806D01*
X82628871Y-117295277D01*
X82635775Y-117279046D01*
X82637145Y-117271860D01*
X82644386Y-117247642D01*
X82661964Y-117205208D01*
X82680884Y-117061499D01*
X82680371Y-117057606D01*
X82670238Y-116980638D01*
X82661964Y-116917790D01*
X82606495Y-116783874D01*
X82518255Y-116668878D01*
X82403259Y-116580638D01*
X82403258Y-116580637D01*
X82403256Y-116580636D01*
X82269346Y-116525170D01*
X82269344Y-116525169D01*
X82269343Y-116525169D01*
X82188100Y-116514473D01*
X82125635Y-116506249D01*
X82125633Y-116506249D01*
X82020320Y-116520114D01*
X81951284Y-116509349D01*
X81899028Y-116462969D01*
X81880134Y-116397175D01*
X81880134Y-115002604D01*
X81882773Y-114977159D01*
X81884851Y-114967249D01*
X81882886Y-114951487D01*
X81880611Y-114933226D01*
X81880134Y-114925550D01*
X81880134Y-114921841D01*
X81880133Y-114921833D01*
X81876405Y-114899491D01*
X81869825Y-114846701D01*
X81867643Y-114839375D01*
X81865171Y-114832172D01*
X81839841Y-114785367D01*
X81834856Y-114775170D01*
X81816471Y-114737562D01*
X81816469Y-114737560D01*
X81816468Y-114737557D01*
X81812049Y-114731368D01*
X81807350Y-114725330D01*
X81768203Y-114689294D01*
X80972019Y-113893110D01*
X80954698Y-113870287D01*
X80954571Y-113870376D01*
X80952559Y-113867469D01*
X80951658Y-113866281D01*
X80951312Y-113865666D01*
X80932796Y-113843581D01*
X80906791Y-113790899D01*
X80906156Y-113788052D01*
X80901191Y-113762907D01*
X80890182Y-113707146D01*
X80888040Y-113697837D01*
X80885427Y-113687915D01*
X80882715Y-113678781D01*
X80855902Y-113597827D01*
X80848865Y-113576580D01*
X80846715Y-113570782D01*
X80840191Y-113554612D01*
X80840189Y-113554608D01*
X80836072Y-113548550D01*
X80824073Y-113526312D01*
X80806495Y-113483874D01*
X80718255Y-113368878D01*
X80603259Y-113280638D01*
X80603258Y-113280637D01*
X80603256Y-113280636D01*
X80469346Y-113225170D01*
X80469344Y-113225169D01*
X80469343Y-113225169D01*
X80397488Y-113215709D01*
X80325635Y-113206249D01*
X80325633Y-113206249D01*
X80181923Y-113225169D01*
X80113024Y-113253707D01*
X80106474Y-113256000D01*
X80081613Y-113263170D01*
X79990102Y-113309144D01*
X79988981Y-113309753D01*
X79981518Y-113313806D01*
X79972662Y-113318989D01*
X79964767Y-113323938D01*
X79909667Y-113360868D01*
X79843020Y-113381840D01*
X79775613Y-113363450D01*
X79752950Y-113345544D01*
X79536809Y-113129403D01*
X79503324Y-113068080D01*
X79508308Y-112998388D01*
X79550180Y-112942455D01*
X79615644Y-112918038D01*
X79617560Y-112917916D01*
X79631500Y-112917143D01*
X79638309Y-112915491D01*
X79667533Y-112911999D01*
X83486316Y-112911999D01*
X83553355Y-112931684D01*
G37*
G04 #@! TD.AperFunction*
G04 #@! TA.AperFunction,Conductor*
G36*
X75341374Y-128721733D02*
G01*
X75385721Y-128750234D01*
X75715234Y-129079746D01*
X76398298Y-129762811D01*
X76431783Y-129824134D01*
X76426799Y-129893826D01*
X76403173Y-129930589D01*
X76403173Y-129937351D01*
X76431783Y-129989745D01*
X76426799Y-130059437D01*
X76398298Y-130103786D01*
X76068787Y-130433298D01*
X76068787Y-130433299D01*
X76398298Y-130762811D01*
X76431783Y-130824134D01*
X76426799Y-130893826D01*
X76403173Y-130930589D01*
X76403173Y-130937351D01*
X76431783Y-130989745D01*
X76426799Y-131059437D01*
X76398298Y-131103786D01*
X75715234Y-131786852D01*
X75385721Y-132116364D01*
X75324398Y-132149848D01*
X75254706Y-132144864D01*
X75217944Y-132121238D01*
X75211182Y-132121238D01*
X75158783Y-132149849D01*
X75089092Y-132144863D01*
X75044746Y-132116363D01*
X74715234Y-131786852D01*
X74385721Y-132116363D01*
X74324398Y-132149848D01*
X74254706Y-132144864D01*
X74217944Y-132121238D01*
X74211182Y-132121238D01*
X74158783Y-132149849D01*
X74089092Y-132144863D01*
X74044746Y-132116363D01*
X73715234Y-131786852D01*
X73361682Y-131433299D01*
X73559943Y-131433299D01*
X73580748Y-131510944D01*
X73637589Y-131567785D01*
X73695488Y-131583299D01*
X73734980Y-131583299D01*
X73792879Y-131567785D01*
X73849720Y-131510945D01*
X73870525Y-131433299D01*
X74068787Y-131433299D01*
X74215234Y-131579746D01*
X74361681Y-131433299D01*
X74559943Y-131433299D01*
X74580748Y-131510944D01*
X74637589Y-131567785D01*
X74695488Y-131583299D01*
X74734980Y-131583299D01*
X74792879Y-131567785D01*
X74849720Y-131510945D01*
X74870525Y-131433299D01*
X75068787Y-131433299D01*
X75215234Y-131579746D01*
X75361681Y-131433299D01*
X75559943Y-131433299D01*
X75580748Y-131510944D01*
X75637589Y-131567785D01*
X75695488Y-131583299D01*
X75734980Y-131583299D01*
X75792879Y-131567785D01*
X75849720Y-131510945D01*
X75870525Y-131433299D01*
X75849720Y-131355654D01*
X75792879Y-131298813D01*
X75734980Y-131283299D01*
X75695488Y-131283299D01*
X75637589Y-131298813D01*
X75580748Y-131355653D01*
X75559943Y-131433299D01*
X75361681Y-131433299D01*
X75215234Y-131286852D01*
X75068787Y-131433299D01*
X74870525Y-131433299D01*
X74849720Y-131355654D01*
X74792879Y-131298813D01*
X74734980Y-131283299D01*
X74695488Y-131283299D01*
X74637589Y-131298813D01*
X74580748Y-131355653D01*
X74559943Y-131433299D01*
X74361681Y-131433299D01*
X74215234Y-131286852D01*
X74068787Y-131433299D01*
X73870525Y-131433299D01*
X73849720Y-131355654D01*
X73792879Y-131298813D01*
X73734980Y-131283299D01*
X73695488Y-131283299D01*
X73637589Y-131298813D01*
X73580748Y-131355653D01*
X73559943Y-131433299D01*
X73361682Y-131433299D01*
X73032169Y-131103786D01*
X72998684Y-131042463D01*
X73003668Y-130972771D01*
X73027294Y-130936009D01*
X73027294Y-130933299D01*
X73568787Y-130933299D01*
X73715234Y-131079746D01*
X73861681Y-130933299D01*
X74568787Y-130933299D01*
X74715234Y-131079746D01*
X74861681Y-130933299D01*
X75568787Y-130933299D01*
X75715234Y-131079746D01*
X75861681Y-130933299D01*
X75715234Y-130786852D01*
X75568787Y-130933299D01*
X74861681Y-130933299D01*
X74715234Y-130786852D01*
X74568787Y-130933299D01*
X73861681Y-130933299D01*
X73715234Y-130786852D01*
X73568787Y-130933299D01*
X73027294Y-130933299D01*
X73027294Y-130929247D01*
X72998683Y-130876848D01*
X73003669Y-130807157D01*
X73032169Y-130762811D01*
X73361681Y-130433299D01*
X73559943Y-130433299D01*
X73580748Y-130510944D01*
X73637589Y-130567785D01*
X73695488Y-130583299D01*
X73734980Y-130583299D01*
X73792879Y-130567785D01*
X73849720Y-130510945D01*
X73870525Y-130433299D01*
X74068787Y-130433299D01*
X74215234Y-130579746D01*
X74361681Y-130433299D01*
X74559943Y-130433299D01*
X74580748Y-130510944D01*
X74637589Y-130567785D01*
X74695488Y-130583299D01*
X74734980Y-130583299D01*
X74792879Y-130567785D01*
X74849720Y-130510945D01*
X74870525Y-130433299D01*
X75068787Y-130433299D01*
X75215234Y-130579746D01*
X75361681Y-130433299D01*
X75559943Y-130433299D01*
X75580748Y-130510944D01*
X75637589Y-130567785D01*
X75695488Y-130583299D01*
X75734980Y-130583299D01*
X75792879Y-130567785D01*
X75849720Y-130510945D01*
X75870525Y-130433299D01*
X75849720Y-130355654D01*
X75792879Y-130298813D01*
X75734980Y-130283299D01*
X75695488Y-130283299D01*
X75637589Y-130298813D01*
X75580748Y-130355653D01*
X75559943Y-130433299D01*
X75361681Y-130433299D01*
X75215234Y-130286852D01*
X75068787Y-130433299D01*
X74870525Y-130433299D01*
X74849720Y-130355654D01*
X74792879Y-130298813D01*
X74734980Y-130283299D01*
X74695488Y-130283299D01*
X74637589Y-130298813D01*
X74580748Y-130355653D01*
X74559943Y-130433299D01*
X74361681Y-130433299D01*
X74215234Y-130286852D01*
X74068787Y-130433299D01*
X73870525Y-130433299D01*
X73849720Y-130355654D01*
X73792879Y-130298813D01*
X73734980Y-130283299D01*
X73695488Y-130283299D01*
X73637589Y-130298813D01*
X73580748Y-130355653D01*
X73559943Y-130433299D01*
X73361681Y-130433299D01*
X73361681Y-130433298D01*
X73032169Y-130103786D01*
X72998684Y-130042463D01*
X73003668Y-129972771D01*
X73027294Y-129936009D01*
X73027294Y-129933299D01*
X73568787Y-129933299D01*
X73715234Y-130079746D01*
X73861681Y-129933299D01*
X74568787Y-129933299D01*
X74715234Y-130079746D01*
X74861681Y-129933299D01*
X75568787Y-129933299D01*
X75715234Y-130079746D01*
X75861681Y-129933299D01*
X75715234Y-129786852D01*
X75568787Y-129933299D01*
X74861681Y-129933299D01*
X74715234Y-129786852D01*
X74568787Y-129933299D01*
X73861681Y-129933299D01*
X73715234Y-129786852D01*
X73568787Y-129933299D01*
X73027294Y-129933299D01*
X73027294Y-129929247D01*
X72998683Y-129876848D01*
X73003669Y-129807157D01*
X73032169Y-129762811D01*
X73361681Y-129433299D01*
X73559943Y-129433299D01*
X73580748Y-129510944D01*
X73637589Y-129567785D01*
X73695488Y-129583299D01*
X73734980Y-129583299D01*
X73792879Y-129567785D01*
X73849720Y-129510945D01*
X73870525Y-129433299D01*
X74068787Y-129433299D01*
X74215234Y-129579746D01*
X74361681Y-129433299D01*
X74559943Y-129433299D01*
X74580748Y-129510944D01*
X74637589Y-129567785D01*
X74695488Y-129583299D01*
X74734980Y-129583299D01*
X74792879Y-129567785D01*
X74849720Y-129510945D01*
X74870525Y-129433299D01*
X75068787Y-129433299D01*
X75215234Y-129579746D01*
X75361681Y-129433299D01*
X75559943Y-129433299D01*
X75580748Y-129510944D01*
X75637589Y-129567785D01*
X75695488Y-129583299D01*
X75734980Y-129583299D01*
X75792879Y-129567785D01*
X75849720Y-129510945D01*
X75870525Y-129433299D01*
X75849720Y-129355654D01*
X75792879Y-129298813D01*
X75734980Y-129283299D01*
X75695488Y-129283299D01*
X75637589Y-129298813D01*
X75580748Y-129355653D01*
X75559943Y-129433299D01*
X75361681Y-129433299D01*
X75215234Y-129286852D01*
X75068787Y-129433299D01*
X74870525Y-129433299D01*
X74849720Y-129355654D01*
X74792879Y-129298813D01*
X74734980Y-129283299D01*
X74695488Y-129283299D01*
X74637589Y-129298813D01*
X74580748Y-129355653D01*
X74559943Y-129433299D01*
X74361681Y-129433299D01*
X74215234Y-129286852D01*
X74068787Y-129433299D01*
X73870525Y-129433299D01*
X73849720Y-129355654D01*
X73792879Y-129298813D01*
X73734980Y-129283299D01*
X73695488Y-129283299D01*
X73637589Y-129298813D01*
X73580748Y-129355653D01*
X73559943Y-129433299D01*
X73361681Y-129433299D01*
X74044746Y-128750234D01*
X74106069Y-128716749D01*
X74175761Y-128721733D01*
X74212524Y-128745359D01*
X74219287Y-128745359D01*
X74271682Y-128716749D01*
X74341374Y-128721733D01*
X74385721Y-128750234D01*
X74715233Y-129079746D01*
X75044746Y-128750234D01*
X75106069Y-128716749D01*
X75175761Y-128721733D01*
X75212524Y-128745359D01*
X75219287Y-128745359D01*
X75271682Y-128716749D01*
X75341374Y-128721733D01*
G37*
G04 #@! TD.AperFunction*
G04 #@! TA.AperFunction,Conductor*
G36*
X76789227Y-115839866D02*
G01*
X79579243Y-118629882D01*
X79596559Y-118652698D01*
X79596687Y-118652610D01*
X79598705Y-118655527D01*
X79599602Y-118656708D01*
X79599947Y-118657321D01*
X79599951Y-118657326D01*
X79599953Y-118657330D01*
X79599955Y-118657332D01*
X79618473Y-118679421D01*
X79644464Y-118732044D01*
X79645109Y-118734933D01*
X79661076Y-118815807D01*
X79663193Y-118825023D01*
X79665794Y-118834926D01*
X79668531Y-118844156D01*
X79702404Y-118946422D01*
X79704552Y-118952216D01*
X79711076Y-118968385D01*
X79715194Y-118974444D01*
X79727196Y-118996689D01*
X79744771Y-119039121D01*
X79744772Y-119039123D01*
X79744773Y-119039124D01*
X79833013Y-119154120D01*
X79948009Y-119242360D01*
X80081925Y-119297829D01*
X80194319Y-119312626D01*
X80258216Y-119340893D01*
X80296687Y-119399217D01*
X80302134Y-119435565D01*
X80302134Y-128037432D01*
X80282449Y-128104471D01*
X80229645Y-128150226D01*
X80194320Y-128160371D01*
X80081923Y-128175169D01*
X80041881Y-128191754D01*
X80018966Y-128198740D01*
X80004827Y-128201593D01*
X79898582Y-128244512D01*
X79810851Y-128281893D01*
X79807485Y-128283434D01*
X79803498Y-128285259D01*
X79795441Y-128289209D01*
X79787816Y-128293217D01*
X79726273Y-128327814D01*
X79719556Y-128331590D01*
X79658792Y-128347499D01*
X77477769Y-128347499D01*
X77410730Y-128327814D01*
X77390088Y-128311180D01*
X76128204Y-127049295D01*
X76094719Y-126987972D01*
X76099703Y-126918280D01*
X76141575Y-126862347D01*
X76146836Y-126858618D01*
X76154909Y-126853208D01*
X76157349Y-126851657D01*
X76213002Y-126832786D01*
X76241712Y-126830263D01*
X76243676Y-126829735D01*
X76275814Y-126825499D01*
X77275028Y-126825499D01*
X77300472Y-126828138D01*
X77303639Y-126828801D01*
X77310384Y-126830216D01*
X77329281Y-126827860D01*
X77344405Y-126825976D01*
X77352081Y-126825499D01*
X77355793Y-126825499D01*
X77355796Y-126825499D01*
X77378140Y-126821770D01*
X77430933Y-126815190D01*
X77430939Y-126815186D01*
X77438253Y-126813009D01*
X77445455Y-126810537D01*
X77445459Y-126810537D01*
X77492270Y-126785203D01*
X77540070Y-126761836D01*
X77540073Y-126761832D01*
X77546285Y-126757396D01*
X77552292Y-126752721D01*
X77552299Y-126752718D01*
X77588350Y-126713555D01*
X77647234Y-126654670D01*
X77667089Y-126638547D01*
X77675573Y-126633005D01*
X77696644Y-126605930D01*
X77701721Y-126600183D01*
X77704348Y-126597558D01*
X77717501Y-126579136D01*
X77750189Y-126537139D01*
X77750191Y-126537132D01*
X77753822Y-126530422D01*
X77757165Y-126523583D01*
X77757170Y-126523577D01*
X77772354Y-126472574D01*
X77789634Y-126422240D01*
X77789634Y-126422233D01*
X77790893Y-126414691D01*
X77791833Y-126407146D01*
X77789634Y-126353976D01*
X77789634Y-125762104D01*
X77792273Y-125736659D01*
X77794351Y-125726749D01*
X77792404Y-125711132D01*
X77790111Y-125692726D01*
X77789634Y-125685050D01*
X77789634Y-125681341D01*
X77789633Y-125681333D01*
X77785905Y-125658991D01*
X77779325Y-125606201D01*
X77777143Y-125598875D01*
X77774671Y-125591672D01*
X77749341Y-125544867D01*
X77725971Y-125497062D01*
X77725969Y-125497060D01*
X77725968Y-125497057D01*
X77721549Y-125490868D01*
X77716850Y-125484830D01*
X77677703Y-125448794D01*
X76125953Y-123897043D01*
X76092468Y-123835720D01*
X76089634Y-123809362D01*
X76089634Y-115953758D01*
X76109319Y-115886719D01*
X76162123Y-115840964D01*
X76231281Y-115831020D01*
X76261079Y-115839194D01*
X76281925Y-115847829D01*
X76368515Y-115859229D01*
X76425633Y-115866749D01*
X76425634Y-115866749D01*
X76425635Y-115866749D01*
X76482753Y-115859229D01*
X76569343Y-115847829D01*
X76653435Y-115812996D01*
X76657985Y-115811318D01*
X76663270Y-115809603D01*
X76733106Y-115807630D01*
X76789227Y-115839866D01*
G37*
G04 #@! TD.AperFunction*
G04 #@! TA.AperFunction,Conductor*
G36*
X71558731Y-115609609D02*
G01*
X71563430Y-115614069D01*
X71582460Y-115633099D01*
X71598585Y-115652955D01*
X71604125Y-115661434D01*
X71604128Y-115661438D01*
X71631182Y-115682495D01*
X71636946Y-115687586D01*
X71639572Y-115690212D01*
X71658008Y-115703375D01*
X71699993Y-115736054D01*
X71706694Y-115739680D01*
X71713553Y-115743033D01*
X71713556Y-115743035D01*
X71764558Y-115758219D01*
X71814893Y-115775499D01*
X71814896Y-115775499D01*
X71822427Y-115776756D01*
X71829986Y-115777698D01*
X71829986Y-115777697D01*
X71829987Y-115777698D01*
X71883156Y-115775499D01*
X72525509Y-115775499D01*
X72553891Y-115779389D01*
X72553919Y-115779237D01*
X72557400Y-115779870D01*
X72558877Y-115780073D01*
X72559556Y-115780263D01*
X72588261Y-115782786D01*
X72643884Y-115801637D01*
X72646358Y-115803209D01*
X72714789Y-115849072D01*
X72722724Y-115854045D01*
X72731590Y-115859230D01*
X72740129Y-115863866D01*
X72836328Y-115912194D01*
X72841855Y-115914736D01*
X72858086Y-115921640D01*
X72865277Y-115923011D01*
X72889486Y-115930250D01*
X72931925Y-115947829D01*
X73039706Y-115962019D01*
X73075633Y-115966749D01*
X73075634Y-115966749D01*
X73075635Y-115966749D01*
X73090611Y-115964777D01*
X73219343Y-115947829D01*
X73353259Y-115892360D01*
X73443199Y-115823346D01*
X73508366Y-115798153D01*
X73576811Y-115812191D01*
X73606365Y-115834042D01*
X74255421Y-116483098D01*
X74271548Y-116502957D01*
X74277087Y-116511435D01*
X74277091Y-116511439D01*
X74280988Y-116514473D01*
X74294173Y-116526346D01*
X74297295Y-116529591D01*
X74297303Y-116529598D01*
X74297304Y-116529599D01*
X74383553Y-116604087D01*
X74383556Y-116604089D01*
X74383556Y-116604090D01*
X74396588Y-116614171D01*
X74396586Y-116614170D01*
X74405834Y-116620557D01*
X74412222Y-116624971D01*
X74426279Y-116633599D01*
X74513259Y-116680730D01*
X74527815Y-116687650D01*
X74527828Y-116687656D01*
X74527827Y-116687655D01*
X74530007Y-116688554D01*
X74544970Y-116694723D01*
X74544975Y-116694725D01*
X74544983Y-116694728D01*
X74544985Y-116694729D01*
X74560115Y-116700056D01*
X74560116Y-116700056D01*
X74560125Y-116700058D01*
X74560129Y-116700060D01*
X74646906Y-116725566D01*
X74724372Y-116744698D01*
X74729869Y-116746329D01*
X74819228Y-116777406D01*
X74825914Y-116778442D01*
X74854375Y-116786417D01*
X74881925Y-116797829D01*
X75008914Y-116814547D01*
X75025633Y-116816749D01*
X75025634Y-116816749D01*
X75025635Y-116816749D01*
X75061561Y-116812019D01*
X75169343Y-116797829D01*
X75190183Y-116789196D01*
X75259650Y-116781728D01*
X75322129Y-116813002D01*
X75357782Y-116873091D01*
X75361634Y-116903758D01*
X75361634Y-123733363D01*
X75341949Y-123800402D01*
X75289145Y-123846157D01*
X75219987Y-123856101D01*
X75156431Y-123827076D01*
X75149953Y-123821044D01*
X71375953Y-120047044D01*
X71342468Y-119985721D01*
X71339634Y-119959363D01*
X71339634Y-115761624D01*
X71343524Y-115733241D01*
X71343372Y-115733214D01*
X71344005Y-115729732D01*
X71344208Y-115728255D01*
X71344398Y-115727577D01*
X71346921Y-115698869D01*
X71365784Y-115643229D01*
X71367343Y-115640774D01*
X71368937Y-115638396D01*
X71372738Y-115632723D01*
X71426406Y-115587990D01*
X71495742Y-115579372D01*
X71558731Y-115609609D01*
G37*
G04 #@! TD.AperFunction*
G04 #@! TA.AperFunction,Conductor*
G36*
X99032712Y-64341580D02*
G01*
X99291463Y-64354829D01*
X101771072Y-64481801D01*
X101785661Y-64482925D01*
X101788828Y-64483170D01*
X101791963Y-64483491D01*
X103519734Y-64705811D01*
X103522777Y-64706281D01*
X105224076Y-65013628D01*
X105227072Y-65014247D01*
X106324334Y-65270183D01*
X106899581Y-65404360D01*
X106902586Y-65405141D01*
X108544101Y-65875773D01*
X108547003Y-65876683D01*
X110155313Y-66425598D01*
X110158123Y-66426635D01*
X110559614Y-66586163D01*
X111730924Y-67051569D01*
X111733685Y-67052744D01*
X112864440Y-67567424D01*
X113268747Y-67751451D01*
X113271457Y-67752765D01*
X114094096Y-68176570D01*
X114766217Y-68522832D01*
X114766534Y-68522995D01*
X114769139Y-68524418D01*
X116221975Y-69363924D01*
X116224455Y-69365437D01*
X116904720Y-69803313D01*
X117632791Y-70271961D01*
X117635239Y-70273621D01*
X118996805Y-71244896D01*
X118999162Y-71246663D01*
X120311738Y-72280466D01*
X120314001Y-72282337D01*
X121575335Y-73376416D01*
X121577503Y-73378388D01*
X122785298Y-74530449D01*
X122787370Y-74532520D01*
X123939415Y-75740350D01*
X123941388Y-75742518D01*
X125035440Y-77003876D01*
X125037312Y-77006139D01*
X126071061Y-78318701D01*
X126072828Y-78321058D01*
X127044109Y-79682683D01*
X127045756Y-79685112D01*
X127952244Y-81093449D01*
X127952254Y-81093464D01*
X127953803Y-81096002D01*
X128793259Y-82548814D01*
X128794686Y-82551426D01*
X128978066Y-82907396D01*
X129564894Y-84046520D01*
X129566208Y-84049230D01*
X130264885Y-85584287D01*
X130266069Y-85587066D01*
X130890981Y-87159877D01*
X130892032Y-87162726D01*
X131440917Y-88771002D01*
X131441836Y-88773930D01*
X131599395Y-89323498D01*
X131912455Y-90415459D01*
X131913235Y-90418464D01*
X132303328Y-92090951D01*
X132303961Y-92094013D01*
X132376840Y-92497442D01*
X132601957Y-93743610D01*
X132611286Y-93795249D01*
X132611766Y-93798359D01*
X132834074Y-95526096D01*
X132834398Y-95529244D01*
X132905451Y-96451115D01*
X132905634Y-96455861D01*
X132905634Y-100310026D01*
X132904165Y-100329057D01*
X132888701Y-100428624D01*
X132888009Y-100432331D01*
X132792076Y-100871846D01*
X132791173Y-100875458D01*
X132669362Y-101307275D01*
X132668263Y-101310772D01*
X132614144Y-101466703D01*
X132540936Y-101677633D01*
X132521236Y-101734392D01*
X132519957Y-101737758D01*
X132348398Y-102152596D01*
X132346957Y-102155819D01*
X132151530Y-102561349D01*
X132149943Y-102564419D01*
X131931321Y-102960076D01*
X131929607Y-102962988D01*
X131688495Y-103348161D01*
X131686669Y-103350913D01*
X131423686Y-103725126D01*
X131421762Y-103727718D01*
X131137633Y-104090336D01*
X131135628Y-104092765D01*
X131011390Y-104235711D01*
X130831026Y-104443233D01*
X130828945Y-104445510D01*
X130504515Y-104783292D01*
X130502372Y-104785417D01*
X130158841Y-105109900D01*
X130156645Y-105111877D01*
X129794653Y-105422529D01*
X129792410Y-105424365D01*
X129412677Y-105720582D01*
X129410393Y-105722281D01*
X129013589Y-106003509D01*
X129011270Y-106005076D01*
X128769419Y-106160580D01*
X128596934Y-106271483D01*
X128165706Y-106522387D01*
X127719414Y-106756484D01*
X127258815Y-106973177D01*
X126784513Y-107171938D01*
X126297278Y-107352168D01*
X125797792Y-107513309D01*
X125286713Y-107654805D01*
X124764742Y-107776086D01*
X124232583Y-107876585D01*
X123690945Y-107955734D01*
X123140441Y-108012979D01*
X122581841Y-108047744D01*
X122015804Y-108059465D01*
X121966379Y-108058965D01*
X121519617Y-108049913D01*
X121504160Y-108049443D01*
X121470331Y-108048414D01*
X121198997Y-108034653D01*
X120928600Y-108015445D01*
X120659406Y-107990838D01*
X120391477Y-107960866D01*
X120124868Y-107925560D01*
X119859846Y-107884981D01*
X119596338Y-107839136D01*
X119334584Y-107788087D01*
X119279103Y-107776086D01*
X119074612Y-107731853D01*
X118816683Y-107670508D01*
X118560693Y-107604038D01*
X118306971Y-107532535D01*
X118055425Y-107455982D01*
X117806343Y-107374469D01*
X117559695Y-107287987D01*
X117315748Y-107196629D01*
X117074504Y-107100394D01*
X116836047Y-106999307D01*
X116600587Y-106893445D01*
X116368212Y-106782839D01*
X116139000Y-106667510D01*
X115913083Y-106547504D01*
X115690539Y-106422841D01*
X115471530Y-106293586D01*
X115256171Y-106159782D01*
X115044517Y-106021429D01*
X114836762Y-105878617D01*
X114632957Y-105731344D01*
X114433256Y-105579679D01*
X114237709Y-105423612D01*
X114236418Y-105422529D01*
X114206403Y-105397356D01*
X113968620Y-105192926D01*
X113892089Y-105127129D01*
X113861585Y-105100244D01*
X113681589Y-104933509D01*
X113507029Y-104763529D01*
X113337916Y-104590356D01*
X113253098Y-104498977D01*
X113174371Y-104414160D01*
X113016389Y-104234978D01*
X112864030Y-104052918D01*
X112717372Y-103868111D01*
X112576391Y-103680558D01*
X112441183Y-103490419D01*
X112311786Y-103297769D01*
X112188264Y-103102731D01*
X112070630Y-102905344D01*
X111958938Y-102705710D01*
X111853260Y-102503968D01*
X111753606Y-102300136D01*
X111687454Y-102154640D01*
X111660062Y-102094394D01*
X111572655Y-101886788D01*
X111514841Y-101737758D01*
X111491415Y-101677370D01*
X111453911Y-101571824D01*
X111416407Y-101466278D01*
X111347691Y-101253641D01*
X111290490Y-101057332D01*
X111285291Y-101039488D01*
X111229252Y-100823893D01*
X111179647Y-100607062D01*
X111136491Y-100388948D01*
X111099853Y-100169741D01*
X111083677Y-100051311D01*
X111069770Y-99949497D01*
X111046289Y-99728289D01*
X111029461Y-99506261D01*
X111019328Y-99283445D01*
X111016107Y-99071040D01*
X111016767Y-99062537D01*
X111016469Y-99056359D01*
X111016470Y-99056355D01*
X111016468Y-99056350D01*
X111016450Y-99055961D01*
X111000316Y-98399016D01*
X111000568Y-98394767D01*
X111000229Y-98390610D01*
X111000029Y-98386379D01*
X110999989Y-98383424D01*
X110999383Y-98379323D01*
X110952500Y-97741616D01*
X110952552Y-97737755D01*
X110951892Y-97732311D01*
X110951586Y-97729082D01*
X110951344Y-97725557D01*
X110950595Y-97721747D01*
X110947949Y-97700242D01*
X110873526Y-97095261D01*
X110873401Y-97091111D01*
X110872398Y-97085387D01*
X110871908Y-97082065D01*
X110871391Y-97077760D01*
X110870409Y-97073925D01*
X110866400Y-97050783D01*
X110763710Y-96458048D01*
X110763342Y-96454083D01*
X110762412Y-96450014D01*
X110761727Y-96446575D01*
X110761592Y-96445782D01*
X110761047Y-96443960D01*
X110624468Y-95835407D01*
X110623934Y-95831521D01*
X110622573Y-95826610D01*
X110621815Y-95823578D01*
X110620871Y-95819356D01*
X110619568Y-95815757D01*
X110456217Y-95225626D01*
X110455419Y-95221277D01*
X110453950Y-95216963D01*
X110452691Y-95212793D01*
X110452637Y-95212590D01*
X110451852Y-95210677D01*
X110259544Y-94629062D01*
X110258578Y-94624940D01*
X110256704Y-94620159D01*
X110255477Y-94616737D01*
X110255312Y-94616233D01*
X110254522Y-94614529D01*
X110085696Y-94177434D01*
X110034817Y-94045707D01*
X110033688Y-94041916D01*
X110031944Y-94038021D01*
X110030631Y-94034858D01*
X110029102Y-94030865D01*
X110027218Y-94027391D01*
X109784262Y-93480154D01*
X109782943Y-93476252D01*
X109780336Y-93471103D01*
X109778931Y-93468136D01*
X109778613Y-93467417D01*
X109777669Y-93465819D01*
X109707891Y-93327429D01*
X109506503Y-92928018D01*
X109504996Y-92924288D01*
X109502669Y-92920215D01*
X109501045Y-92917180D01*
X109500730Y-92916550D01*
X109499691Y-92914976D01*
X109386918Y-92716242D01*
X109200863Y-92388362D01*
X109200022Y-92386602D01*
X109199645Y-92386014D01*
X109197751Y-92382860D01*
X109197497Y-92382408D01*
X109196372Y-92380870D01*
X108876396Y-91876368D01*
X108874494Y-91872734D01*
X108871860Y-91869036D01*
X108869862Y-91866051D01*
X108867666Y-91862556D01*
X108865102Y-91859468D01*
X108524391Y-91376356D01*
X108522393Y-91373028D01*
X108520154Y-91370185D01*
X108518028Y-91367321D01*
X108517692Y-91366840D01*
X108516426Y-91365425D01*
X108150823Y-90897462D01*
X108148700Y-90894194D01*
X108145036Y-90889941D01*
X108143181Y-90887683D01*
X108142419Y-90886710D01*
X108141132Y-90885416D01*
X107753534Y-90436434D01*
X107751117Y-90433104D01*
X107747871Y-90429729D01*
X107745487Y-90427104D01*
X107743113Y-90424334D01*
X107740251Y-90421740D01*
X107333632Y-89994839D01*
X107331314Y-89992029D01*
X107328527Y-89989375D01*
X107326386Y-89987233D01*
X107325892Y-89986714D01*
X107324555Y-89985591D01*
X106955032Y-89633809D01*
X106894625Y-89576302D01*
X106891954Y-89573309D01*
X106888547Y-89570389D01*
X106885919Y-89568003D01*
X106885406Y-89567510D01*
X106883871Y-89566361D01*
X106607483Y-89327887D01*
X106434135Y-89178318D01*
X106431504Y-89175663D01*
X106427860Y-89172811D01*
X106425605Y-89170959D01*
X106422503Y-89168287D01*
X106419454Y-89166246D01*
X105954669Y-88803321D01*
X105952025Y-88800889D01*
X105946655Y-88797063D01*
X105944816Y-88795642D01*
X105943408Y-88794775D01*
X105913851Y-88773942D01*
X105451289Y-88447904D01*
X105449966Y-88446831D01*
X105447784Y-88445433D01*
X105445796Y-88444041D01*
X105444279Y-88443212D01*
X104938405Y-88122551D01*
X104935625Y-88120496D01*
X104930868Y-88117770D01*
X104930868Y-88117769D01*
X104930786Y-88117722D01*
X104930719Y-88117680D01*
X104930717Y-88117679D01*
X104929039Y-88116627D01*
X104927623Y-88115927D01*
X104404362Y-87819186D01*
X104401408Y-87817215D01*
X104396516Y-87814733D01*
X104396515Y-87814732D01*
X104396448Y-87814698D01*
X104396363Y-87814650D01*
X104396360Y-87814649D01*
X104391691Y-87812012D01*
X104388369Y-87810627D01*
X103893917Y-87561481D01*
X103849324Y-87539011D01*
X103847810Y-87538114D01*
X103845524Y-87537092D01*
X103845439Y-87537054D01*
X103845367Y-87537018D01*
X103845365Y-87537017D01*
X103840485Y-87534577D01*
X103837157Y-87533379D01*
X103287782Y-87289649D01*
X103284528Y-87287880D01*
X103278530Y-87285544D01*
X103276634Y-87284711D01*
X103275088Y-87284215D01*
X102816517Y-87107234D01*
X102700386Y-87062415D01*
X102698867Y-87061711D01*
X102696446Y-87060895D01*
X102693898Y-87059930D01*
X102692266Y-87059514D01*
X102103726Y-86865090D01*
X102102264Y-86864503D01*
X102099919Y-86863833D01*
X102097873Y-86863176D01*
X102096379Y-86862854D01*
X101498743Y-86697597D01*
X101495581Y-86696462D01*
X101489664Y-86695086D01*
X101487267Y-86694443D01*
X101485671Y-86694191D01*
X100870627Y-86556327D01*
X100868885Y-86555811D01*
X100867948Y-86555649D01*
X100864915Y-86555047D01*
X100864056Y-86554854D01*
X100862253Y-86554663D01*
X100239845Y-86447003D01*
X100236376Y-86446141D01*
X100232326Y-86445635D01*
X100229524Y-86445220D01*
X100228391Y-86445025D01*
X100226581Y-86444927D01*
X99593292Y-86367192D01*
X99590115Y-86366555D01*
X99583942Y-86366041D01*
X99583858Y-86366034D01*
X99583770Y-86366024D01*
X99583769Y-86366024D01*
X99581295Y-86365743D01*
X99579708Y-86365730D01*
X98930157Y-86318149D01*
X98928436Y-86317909D01*
X98927424Y-86317883D01*
X98924602Y-86317744D01*
X98923683Y-86317677D01*
X98921922Y-86317747D01*
X98348591Y-86303820D01*
X98334502Y-86299308D01*
X98273394Y-86301558D01*
X98269318Y-86301287D01*
X98269321Y-86301510D01*
X98258073Y-86301620D01*
X98257998Y-86301620D01*
X98257997Y-86301620D01*
X98255120Y-86301582D01*
X98253745Y-86301701D01*
X97755589Y-86310869D01*
X97754218Y-86310798D01*
X97751125Y-86310952D01*
X97748080Y-86311029D01*
X97746767Y-86311193D01*
X97254205Y-86338489D01*
X97252915Y-86338473D01*
X97249879Y-86338729D01*
X97239927Y-86339352D01*
X97239917Y-86339201D01*
X97235663Y-86339753D01*
X97176881Y-86341916D01*
X97158853Y-86347167D01*
X96758975Y-86384236D01*
X96757473Y-86384271D01*
X96754594Y-86384643D01*
X96752029Y-86384884D01*
X96750596Y-86385164D01*
X96605117Y-86404124D01*
X96269285Y-86447894D01*
X96268176Y-86447974D01*
X96265665Y-86448366D01*
X96262636Y-86448790D01*
X96261408Y-86449083D01*
X95787360Y-86528913D01*
X95785924Y-86529061D01*
X95783333Y-86529592D01*
X95780560Y-86530063D01*
X95779134Y-86530460D01*
X95317642Y-86625992D01*
X95314878Y-86626340D01*
X95307971Y-86627994D01*
X95305168Y-86628587D01*
X95303812Y-86629018D01*
X94849656Y-86740851D01*
X94846896Y-86741299D01*
X94839941Y-86743241D01*
X94839940Y-86743241D01*
X94839854Y-86743265D01*
X94839767Y-86743287D01*
X94839765Y-86743287D01*
X94837275Y-86743917D01*
X94836031Y-86744359D01*
X94383118Y-86873995D01*
X94381777Y-86874291D01*
X94379423Y-86875051D01*
X94379422Y-86875051D01*
X94379329Y-86875081D01*
X94379250Y-86875104D01*
X94379248Y-86875104D01*
X94377315Y-86875667D01*
X94376114Y-86876131D01*
X93935448Y-87020265D01*
X93933248Y-87020810D01*
X93926721Y-87023119D01*
X93923808Y-87024112D01*
X93922744Y-87024587D01*
X93491809Y-87183573D01*
X93489073Y-87184339D01*
X93482327Y-87187071D01*
X93480208Y-87187865D01*
X93479040Y-87188424D01*
X93243277Y-87285544D01*
X93050140Y-87365104D01*
X93048884Y-87365532D01*
X93046467Y-87366617D01*
X93043887Y-87367696D01*
X93042686Y-87368342D01*
X92623527Y-87559585D01*
X92622463Y-87559983D01*
X92619464Y-87561439D01*
X92613402Y-87564275D01*
X92611231Y-87565572D01*
X92204974Y-87769542D01*
X92203715Y-87770084D01*
X92201702Y-87771182D01*
X92201700Y-87771183D01*
X92201612Y-87771231D01*
X92201541Y-87771267D01*
X92201539Y-87771268D01*
X92199284Y-87772411D01*
X92198119Y-87773150D01*
X91797155Y-87993517D01*
X91796005Y-87994050D01*
X91793352Y-87995604D01*
X91793352Y-87995605D01*
X91793265Y-87995656D01*
X91791140Y-87996857D01*
X91790228Y-87997474D01*
X91398314Y-88232255D01*
X91397061Y-88232898D01*
X91394812Y-88234352D01*
X91394810Y-88234353D01*
X91394745Y-88234395D01*
X91394657Y-88234448D01*
X91394655Y-88234449D01*
X91392630Y-88235669D01*
X91391506Y-88236501D01*
X91009364Y-88485174D01*
X91008297Y-88485785D01*
X91006391Y-88487106D01*
X91006391Y-88487107D01*
X91006316Y-88487159D01*
X91006242Y-88487208D01*
X91004386Y-88488436D01*
X91003432Y-88489191D01*
X90635923Y-88748261D01*
X90633754Y-88749562D01*
X90628333Y-88753611D01*
X90625742Y-88755484D01*
X90624856Y-88756261D01*
X90263860Y-89031340D01*
X90262812Y-89032053D01*
X90261192Y-89033370D01*
X90261192Y-89033371D01*
X90261133Y-89033419D01*
X90261051Y-89033482D01*
X90261050Y-89033482D01*
X90258896Y-89035137D01*
X90257882Y-89036089D01*
X89908389Y-89323498D01*
X89907265Y-89324299D01*
X89905046Y-89326244D01*
X89905045Y-89326245D01*
X89904964Y-89326316D01*
X89904909Y-89326362D01*
X89904908Y-89326363D01*
X89903085Y-89327887D01*
X89902228Y-89328740D01*
X89563517Y-89629003D01*
X89562413Y-89629853D01*
X89560220Y-89631927D01*
X89558123Y-89633809D01*
X89557232Y-89634779D01*
X89234308Y-89943155D01*
X89232159Y-89944907D01*
X89227251Y-89949891D01*
X89227250Y-89949892D01*
X89227185Y-89949958D01*
X89227122Y-89950019D01*
X89227120Y-89950021D01*
X89224951Y-89952121D01*
X89224093Y-89953136D01*
X88912926Y-90273152D01*
X88911019Y-90274832D01*
X88906175Y-90280094D01*
X88901681Y-90284798D01*
X88900108Y-90286816D01*
X88603825Y-90615021D01*
X88601916Y-90616840D01*
X88597493Y-90622035D01*
X88592709Y-90627438D01*
X88591224Y-90629520D01*
X88307364Y-90968414D01*
X88305766Y-90970062D01*
X88301552Y-90975350D01*
X88301551Y-90975351D01*
X88301496Y-90975420D01*
X88301438Y-90975491D01*
X88301437Y-90975492D01*
X88296757Y-90981221D01*
X88295454Y-90983202D01*
X88021078Y-91336604D01*
X88020331Y-91337444D01*
X88018520Y-91339896D01*
X88018519Y-91339898D01*
X88018471Y-91339963D01*
X88018411Y-91340042D01*
X88018410Y-91340043D01*
X88014159Y-91345639D01*
X88012870Y-91347758D01*
X87751271Y-91711824D01*
X87750380Y-91712901D01*
X87748732Y-91715358D01*
X87747609Y-91716937D01*
X87746983Y-91717990D01*
X87497755Y-92093512D01*
X87496170Y-92095554D01*
X87492604Y-92101274D01*
X87491056Y-92103676D01*
X87490548Y-92104636D01*
X87252632Y-92493753D01*
X87251833Y-92494884D01*
X87250418Y-92497375D01*
X87249332Y-92499183D01*
X87248809Y-92500239D01*
X87027120Y-92895095D01*
X87025559Y-92897443D01*
X87022477Y-92903366D01*
X87019138Y-92909434D01*
X87018127Y-92911838D01*
X86810646Y-93315912D01*
X86810086Y-93316874D01*
X86809116Y-93318892D01*
X86806000Y-93325123D01*
X86805126Y-93327429D01*
X86612268Y-93740172D01*
X86611666Y-93741279D01*
X86610624Y-93743692D01*
X86609434Y-93746290D01*
X86609007Y-93747518D01*
X86428775Y-94174012D01*
X86428209Y-94175160D01*
X86427330Y-94177433D01*
X86426500Y-94179451D01*
X86426143Y-94180569D01*
X86336114Y-94418695D01*
X86335585Y-94419884D01*
X86334829Y-94422098D01*
X86332599Y-94428065D01*
X86331893Y-94430811D01*
X86250006Y-94673865D01*
X86249541Y-94674987D01*
X86248631Y-94677949D01*
X86247672Y-94680860D01*
X86247408Y-94682012D01*
X86171297Y-94935030D01*
X86170525Y-94937027D01*
X86168521Y-94944259D01*
X86167692Y-94947120D01*
X86167506Y-94948030D01*
X86109173Y-95164942D01*
X86095709Y-95215012D01*
X86095053Y-95217450D01*
X86094799Y-95218245D01*
X86094285Y-95220303D01*
X86093630Y-95222818D01*
X86093467Y-95223705D01*
X86026476Y-95502164D01*
X86026217Y-95503037D01*
X86025691Y-95505430D01*
X86025167Y-95507659D01*
X86025032Y-95508481D01*
X85963327Y-95795160D01*
X85963128Y-95795876D01*
X85962529Y-95798873D01*
X85960710Y-95807512D01*
X85960518Y-95809317D01*
X85905124Y-96097080D01*
X85905018Y-96097520D01*
X85904578Y-96099919D01*
X85904576Y-96099924D01*
X85904560Y-96100011D01*
X85904542Y-96100110D01*
X85904542Y-96100112D01*
X85902743Y-96110002D01*
X85902655Y-96111091D01*
X85852023Y-96405491D01*
X85851994Y-96405630D01*
X85851585Y-96408041D01*
X85850219Y-96416293D01*
X85850122Y-96417576D01*
X85803878Y-96719006D01*
X85803723Y-96719751D01*
X85803356Y-96722419D01*
X85803153Y-96723749D01*
X85803088Y-96724370D01*
X85759690Y-97042154D01*
X85759674Y-97042266D01*
X85759660Y-97042377D01*
X85759454Y-97043884D01*
X85759429Y-97044136D01*
X85758559Y-97050783D01*
X85758511Y-97051874D01*
X85720783Y-97363102D01*
X85720628Y-97363944D01*
X85720316Y-97366960D01*
X85720191Y-97367997D01*
X85720147Y-97368524D01*
X85684649Y-97699544D01*
X85684632Y-97700239D01*
X85682241Y-97725557D01*
X85653996Y-98024561D01*
X85653923Y-98025048D01*
X85653667Y-98028049D01*
X85653655Y-98028180D01*
X85653655Y-98028182D01*
X85626677Y-98354081D01*
X85626497Y-98355240D01*
X85601915Y-98696224D01*
X85601852Y-98696695D01*
X85601642Y-98700020D01*
X85601641Y-98700023D01*
X85601637Y-98700086D01*
X85601628Y-98700216D01*
X85601628Y-98700218D01*
X85601622Y-98700305D01*
X85601618Y-98700372D01*
X85580809Y-99034320D01*
X85580775Y-99034589D01*
X85580549Y-99038503D01*
X85580504Y-99039325D01*
X85580505Y-99039319D01*
X85561907Y-99387787D01*
X85561949Y-99388723D01*
X85547137Y-99716324D01*
X85547135Y-99716386D01*
X85547131Y-99716490D01*
X85547131Y-99716491D01*
X85547076Y-99717936D01*
X85546972Y-99718263D01*
X85547042Y-99718827D01*
X85546685Y-99728298D01*
X85534484Y-100051311D01*
X85534449Y-100051697D01*
X85523472Y-100405580D01*
X85523542Y-100406310D01*
X85515584Y-100725551D01*
X85515584Y-100725554D01*
X85509132Y-101057135D01*
X85509132Y-101057137D01*
X85504347Y-101385126D01*
X85504347Y-101385129D01*
X85501003Y-101709025D01*
X85501003Y-101709026D01*
X85498884Y-102027532D01*
X85498884Y-102027533D01*
X85497766Y-102340540D01*
X85497766Y-102340542D01*
X85497429Y-102647147D01*
X85497429Y-102647148D01*
X85497651Y-102946654D01*
X85498210Y-103238353D01*
X85498887Y-103521545D01*
X85499459Y-103795525D01*
X85499707Y-104059595D01*
X85499858Y-106730099D01*
X85500075Y-109055600D01*
X85500354Y-111060880D01*
X85500690Y-112770725D01*
X85501078Y-114209916D01*
X85501515Y-115403239D01*
X85501995Y-116375477D01*
X85502515Y-117151413D01*
X85503069Y-117755834D01*
X85503654Y-118213519D01*
X85504264Y-118549453D01*
X85504264Y-118549454D01*
X85505545Y-118954013D01*
X85507551Y-119266120D01*
X85508891Y-119566686D01*
X85509550Y-119819199D01*
X85510194Y-120172461D01*
X85510820Y-120651806D01*
X85511423Y-121281825D01*
X85511998Y-122087299D01*
X85512541Y-123093012D01*
X85513049Y-124323749D01*
X85513515Y-125804293D01*
X85513936Y-127559428D01*
X85514308Y-129613938D01*
X85514626Y-131992606D01*
X85514885Y-134720216D01*
X85515081Y-137821553D01*
X85515209Y-141321505D01*
X85514707Y-141341366D01*
X85490901Y-141813081D01*
X85489530Y-141831110D01*
X85489218Y-141834196D01*
X85457828Y-142081298D01*
X85457828Y-142081301D01*
X85457357Y-142084386D01*
X85413939Y-142327565D01*
X85413316Y-142330608D01*
X85358204Y-142569458D01*
X85357434Y-142572452D01*
X85290921Y-142806718D01*
X85290008Y-142809653D01*
X85212397Y-143039069D01*
X85211346Y-143041939D01*
X85122962Y-143266140D01*
X85121779Y-143268939D01*
X85022917Y-143487651D01*
X85021606Y-143490374D01*
X84912578Y-143703280D01*
X84911143Y-143705921D01*
X84792283Y-143912671D01*
X84790730Y-143915229D01*
X84662299Y-144115590D01*
X84660632Y-144118059D01*
X84522986Y-144311651D01*
X84521207Y-144314030D01*
X84374634Y-144500571D01*
X84372748Y-144502857D01*
X84217568Y-144682026D01*
X84215579Y-144684216D01*
X84052102Y-144855705D01*
X84050011Y-144857797D01*
X83878515Y-145021325D01*
X83876326Y-145023315D01*
X83697179Y-145178516D01*
X83694893Y-145180402D01*
X83508368Y-145327000D01*
X83505990Y-145328779D01*
X83312415Y-145466451D01*
X83309946Y-145468120D01*
X83109646Y-145596546D01*
X83107088Y-145598100D01*
X82900313Y-145717008D01*
X82897671Y-145718443D01*
X82684795Y-145827486D01*
X82682071Y-145828798D01*
X82463393Y-145927671D01*
X82460594Y-145928855D01*
X82236387Y-146017267D01*
X82233517Y-146018318D01*
X82023630Y-146089344D01*
X82004170Y-146095930D01*
X82004146Y-146095938D01*
X82001210Y-146096851D01*
X81766944Y-146163381D01*
X81763950Y-146164151D01*
X81525093Y-146219286D01*
X81522049Y-146219909D01*
X81278937Y-146263329D01*
X81275853Y-146263800D01*
X81028717Y-146295208D01*
X81025601Y-146295524D01*
X80774839Y-146314593D01*
X80771708Y-146314751D01*
X80649628Y-146317839D01*
X80517567Y-146321179D01*
X80516006Y-146321177D01*
X80515823Y-146321256D01*
X80515624Y-146321338D01*
X80515545Y-146321544D01*
X80515473Y-146321721D01*
X80515515Y-146323179D01*
X80515515Y-156321627D01*
X80515483Y-156322883D01*
X80515358Y-156327843D01*
X80515147Y-156331628D01*
X80487968Y-156645338D01*
X80487476Y-156649740D01*
X80486152Y-156661584D01*
X80484845Y-156669080D01*
X80429913Y-156899498D01*
X80427709Y-156906747D01*
X80345342Y-157128123D01*
X80342276Y-157135041D01*
X80233502Y-157344896D01*
X80229603Y-157351409D01*
X80095452Y-157547252D01*
X80090756Y-157553276D01*
X79933548Y-157731174D01*
X79920409Y-157743991D01*
X79681284Y-157944957D01*
X79668522Y-157955152D01*
X79662296Y-157959528D01*
X79460518Y-158083600D01*
X79453833Y-158087167D01*
X79357274Y-158131350D01*
X79239052Y-158185445D01*
X79231999Y-158188166D01*
X79006672Y-158259630D01*
X78999311Y-158261478D01*
X78765966Y-158305086D01*
X78758386Y-158306025D01*
X78517509Y-158320881D01*
X78513692Y-158320999D01*
X70457211Y-158320999D01*
X70454078Y-158320919D01*
X70452298Y-158320829D01*
X70447232Y-158320572D01*
X70444159Y-158320339D01*
X70066337Y-158282231D01*
X70044939Y-158278149D01*
X69777054Y-158202152D01*
X69759843Y-158195862D01*
X69510887Y-158083367D01*
X69495040Y-158074768D01*
X69266940Y-157928574D01*
X69252673Y-157917910D01*
X69048627Y-157741173D01*
X69036087Y-157728632D01*
X68859364Y-157524600D01*
X68848695Y-157510327D01*
X68746840Y-157351409D01*
X68702493Y-157282216D01*
X68693893Y-157266367D01*
X68581406Y-157017425D01*
X68575113Y-157000208D01*
X68497964Y-156728264D01*
X68496324Y-156720712D01*
X68487890Y-156665472D01*
X68467076Y-156529136D01*
X68466445Y-156522915D01*
X68456349Y-156323174D01*
X68456270Y-156320044D01*
X68456270Y-146431125D01*
X68475955Y-146364086D01*
X68497437Y-146338850D01*
X68498766Y-146337657D01*
X68503350Y-146334871D01*
X68514894Y-146323306D01*
X68516245Y-146322024D01*
X68516255Y-146321718D01*
X68516174Y-146321521D01*
X68516103Y-146321338D01*
X68515894Y-146321252D01*
X68515821Y-146321220D01*
X68515815Y-146321219D01*
X68515813Y-146321219D01*
X68515706Y-146321219D01*
X68515027Y-146321201D01*
X68495887Y-146320717D01*
X68024151Y-146296893D01*
X68009683Y-146295793D01*
X68006100Y-146295521D01*
X68002990Y-146295205D01*
X67755884Y-146263803D01*
X67752823Y-146263335D01*
X67579094Y-146232307D01*
X67509660Y-146219906D01*
X67506633Y-146219287D01*
X67346658Y-146182362D01*
X67267775Y-146164155D01*
X67264780Y-146163384D01*
X67030475Y-146096843D01*
X67027554Y-146095934D01*
X66944067Y-146067684D01*
X66798171Y-146018314D01*
X66795301Y-146017264D01*
X66571095Y-145928856D01*
X66568296Y-145927673D01*
X66349570Y-145828783D01*
X66346847Y-145827471D01*
X66134447Y-145718679D01*
X66133945Y-145718421D01*
X66131332Y-145717002D01*
X65924526Y-145598085D01*
X65921984Y-145596540D01*
X65721661Y-145468108D01*
X65719192Y-145466440D01*
X65525576Y-145328750D01*
X65523221Y-145326989D01*
X65336662Y-145180378D01*
X65334391Y-145178504D01*
X65155201Y-145023280D01*
X65153012Y-145021290D01*
X64981525Y-144857789D01*
X64979435Y-144855698D01*
X64815915Y-144684185D01*
X64813949Y-144682023D01*
X64658753Y-144502857D01*
X64658734Y-144502835D01*
X64656848Y-144500550D01*
X64510252Y-144314005D01*
X64508474Y-144311627D01*
X64370801Y-144118028D01*
X64369133Y-144115559D01*
X64316703Y-144033780D01*
X64240676Y-143915192D01*
X64239171Y-143912716D01*
X64120224Y-143705852D01*
X64118820Y-143703266D01*
X64009771Y-143490359D01*
X64008461Y-143487641D01*
X63909567Y-143268905D01*
X63908396Y-143266137D01*
X63819970Y-143041884D01*
X63818928Y-143039034D01*
X63741296Y-142809619D01*
X63740402Y-142806742D01*
X63696161Y-142650963D01*
X63673856Y-142572422D01*
X63673086Y-142569428D01*
X63617954Y-142330582D01*
X63617331Y-142327538D01*
X63573900Y-142084383D01*
X63573435Y-142081345D01*
X63542020Y-141834177D01*
X63541709Y-141831103D01*
X63522632Y-141580318D01*
X63522475Y-141577223D01*
X63516002Y-141321505D01*
X63515866Y-137659215D01*
X63515865Y-137659214D01*
X63515865Y-137634558D01*
X63515863Y-137634550D01*
X63515656Y-134434616D01*
X63515655Y-134434615D01*
X63515654Y-134409961D01*
X63515652Y-134409955D01*
X63515478Y-132639259D01*
X63515375Y-131594301D01*
X63515372Y-131594291D01*
X63515164Y-130103786D01*
X63515032Y-129158922D01*
X63515029Y-129158908D01*
X63515014Y-129079746D01*
X63514636Y-127099817D01*
X63514635Y-127099816D01*
X63514631Y-127075172D01*
X63514628Y-127075162D01*
X63514222Y-125490868D01*
X63514177Y-125314404D01*
X63514173Y-125314388D01*
X63513724Y-123996249D01*
X63513674Y-123847963D01*
X63513669Y-123847945D01*
X63513138Y-122671817D01*
X63513127Y-122647198D01*
X63513122Y-122647173D01*
X63513025Y-122485818D01*
X63512557Y-121708062D01*
X63512556Y-121708061D01*
X63512542Y-121683459D01*
X63512535Y-121683432D01*
X63511942Y-120952678D01*
X63511941Y-120952677D01*
X63511922Y-120928098D01*
X63511913Y-120928058D01*
X63511473Y-120531828D01*
X63511274Y-120352469D01*
X63511261Y-120352409D01*
X63510637Y-119952408D01*
X63510636Y-119952406D01*
X63510614Y-119938151D01*
X63510603Y-119938066D01*
X63509955Y-119650219D01*
X63509954Y-119650217D01*
X63509953Y-119650034D01*
X63509922Y-119636169D01*
X63509897Y-119635960D01*
X63508561Y-119298472D01*
X63508466Y-119274470D01*
X63508394Y-119274116D01*
X63508339Y-119266116D01*
X63507157Y-119092554D01*
X63505788Y-118803249D01*
X63505787Y-118803247D01*
X63505128Y-118555696D01*
X63505127Y-118555695D01*
X63504492Y-118201339D01*
X63504487Y-118198494D01*
X63503884Y-117711526D01*
X63503883Y-117711525D01*
X63503664Y-117461499D01*
X67220384Y-117461499D01*
X67239303Y-117605205D01*
X67239303Y-117605207D01*
X67239304Y-117605208D01*
X67265676Y-117668878D01*
X67267846Y-117674115D01*
X67270139Y-117680666D01*
X67277305Y-117705517D01*
X67280324Y-117711526D01*
X67323265Y-117797001D01*
X67327268Y-117804375D01*
X67327902Y-117805542D01*
X67333087Y-117814407D01*
X67338057Y-117822340D01*
X67338059Y-117822342D01*
X67383924Y-117890774D01*
X67385473Y-117893213D01*
X67404344Y-117948863D01*
X67406868Y-117977571D01*
X67406871Y-117977591D01*
X67407398Y-117979553D01*
X67411634Y-118011686D01*
X67411634Y-118210891D01*
X67408995Y-118236337D01*
X67406916Y-118246248D01*
X67411157Y-118280269D01*
X67411634Y-118287945D01*
X67411634Y-118291661D01*
X67414430Y-118308419D01*
X67415362Y-118314006D01*
X67421943Y-118366801D01*
X67424120Y-118374113D01*
X67426597Y-118381327D01*
X67451928Y-118428134D01*
X67475296Y-118475933D01*
X67479741Y-118482160D01*
X67484415Y-118488164D01*
X67523577Y-118524215D01*
X71979243Y-122979882D01*
X71996559Y-123002698D01*
X71996687Y-123002610D01*
X71998705Y-123005527D01*
X71999602Y-123006708D01*
X71999947Y-123007321D01*
X71999951Y-123007326D01*
X71999953Y-123007330D01*
X71999955Y-123007332D01*
X72018473Y-123029421D01*
X72044464Y-123082044D01*
X72045109Y-123084933D01*
X72061076Y-123165808D01*
X72063193Y-123175023D01*
X72065794Y-123184926D01*
X72068532Y-123194158D01*
X72102404Y-123296422D01*
X72104552Y-123302216D01*
X72111076Y-123318385D01*
X72115194Y-123324444D01*
X72127196Y-123346689D01*
X72144771Y-123389121D01*
X72144772Y-123389123D01*
X72144773Y-123389124D01*
X72233013Y-123504120D01*
X72348009Y-123592360D01*
X72481925Y-123647829D01*
X72608914Y-123664547D01*
X72625633Y-123666749D01*
X72625634Y-123666749D01*
X72625635Y-123666749D01*
X72640611Y-123664777D01*
X72769343Y-123647829D01*
X72903259Y-123592360D01*
X73018255Y-123504120D01*
X73106495Y-123389124D01*
X73161964Y-123255208D01*
X73174818Y-123157571D01*
X73203084Y-123093675D01*
X73261409Y-123055204D01*
X73331274Y-123054373D01*
X73385438Y-123086076D01*
X76034884Y-125735522D01*
X76068369Y-125796845D01*
X76063385Y-125866537D01*
X76021513Y-125922470D01*
X75956049Y-125946887D01*
X75899753Y-125937765D01*
X75877874Y-125928702D01*
X75869341Y-125925168D01*
X75725635Y-125906249D01*
X75725633Y-125906249D01*
X75581925Y-125925169D01*
X75581921Y-125925170D01*
X75440500Y-125983748D01*
X75439207Y-125980627D01*
X75386470Y-125993378D01*
X75320461Y-125970475D01*
X75317009Y-125967922D01*
X75203259Y-125880638D01*
X75203258Y-125880637D01*
X75203256Y-125880636D01*
X75069346Y-125825170D01*
X75069344Y-125825169D01*
X75069343Y-125825169D01*
X74997488Y-125815709D01*
X74925635Y-125806249D01*
X74925633Y-125806249D01*
X74781925Y-125825169D01*
X74781921Y-125825170D01*
X74648011Y-125880636D01*
X74533013Y-125968878D01*
X74444771Y-126083876D01*
X74389305Y-126217786D01*
X74389304Y-126217790D01*
X74370384Y-126361498D01*
X74370384Y-126361499D01*
X74389304Y-126505207D01*
X74389305Y-126505211D01*
X74444771Y-126639121D01*
X74444772Y-126639123D01*
X74444773Y-126639124D01*
X74533013Y-126754120D01*
X74648009Y-126842360D01*
X74716922Y-126870903D01*
X74723175Y-126873914D01*
X74745805Y-126886415D01*
X74745808Y-126886416D01*
X74745812Y-126886418D01*
X74842916Y-126918580D01*
X74852050Y-126921292D01*
X74861972Y-126923905D01*
X74871281Y-126926047D01*
X74952196Y-126942023D01*
X74954592Y-126942557D01*
X74955051Y-126942660D01*
X75007712Y-126968659D01*
X75029801Y-126987178D01*
X75029802Y-126987179D01*
X75029804Y-126987180D01*
X75031569Y-126988198D01*
X75057289Y-127007927D01*
X76982460Y-128933099D01*
X76998585Y-128952955D01*
X77004125Y-128961434D01*
X77004128Y-128961438D01*
X77031182Y-128982495D01*
X77036946Y-128987586D01*
X77039572Y-128990212D01*
X77058008Y-129003375D01*
X77099993Y-129036054D01*
X77106694Y-129039680D01*
X77113553Y-129043033D01*
X77113556Y-129043035D01*
X77164555Y-129058218D01*
X77188672Y-129066497D01*
X77214889Y-129075498D01*
X77214891Y-129075498D01*
X77214893Y-129075499D01*
X77214895Y-129075499D01*
X77222439Y-129076757D01*
X77229987Y-129077698D01*
X77229987Y-129077697D01*
X77229988Y-129077698D01*
X77283157Y-129075499D01*
X78647499Y-129075499D01*
X78714538Y-129095184D01*
X78760293Y-129147988D01*
X78770237Y-129217146D01*
X78741212Y-129280702D01*
X78735180Y-129287180D01*
X76708577Y-131313780D01*
X76647254Y-131347265D01*
X76577562Y-131342281D01*
X76521629Y-131300409D01*
X76503144Y-131260472D01*
X76502411Y-131260729D01*
X76472192Y-131174367D01*
X76465234Y-131133413D01*
X76465234Y-130733184D01*
X76472192Y-130692230D01*
X76500112Y-130612436D01*
X76520296Y-130433301D01*
X76520296Y-130433296D01*
X76500112Y-130254160D01*
X76500111Y-130254156D01*
X76472192Y-130174367D01*
X76465234Y-130133413D01*
X76465234Y-129733184D01*
X76472192Y-129692230D01*
X76500112Y-129612436D01*
X76520296Y-129433301D01*
X76520296Y-129433296D01*
X76500112Y-129254160D01*
X76500111Y-129254156D01*
X76472192Y-129174367D01*
X76466138Y-129138739D01*
X76465693Y-129138762D01*
X76465590Y-129138774D01*
X76465589Y-129138768D01*
X76465411Y-129138778D01*
X76465233Y-129135454D01*
X76458832Y-129075926D01*
X76458830Y-129075919D01*
X76408588Y-128941212D01*
X76408584Y-128941205D01*
X76322424Y-128826111D01*
X76322421Y-128826108D01*
X76207327Y-128739948D01*
X76207320Y-128739944D01*
X76072613Y-128689702D01*
X76072606Y-128689700D01*
X76013078Y-128683299D01*
X76009755Y-128683122D01*
X76009764Y-128682943D01*
X76009759Y-128682943D01*
X76009770Y-128682839D01*
X76009793Y-128682394D01*
X75974166Y-128676341D01*
X75894376Y-128648421D01*
X75894372Y-128648420D01*
X75715237Y-128628237D01*
X75715231Y-128628237D01*
X75536095Y-128648420D01*
X75536091Y-128648421D01*
X75456302Y-128676341D01*
X75415348Y-128683299D01*
X75015120Y-128683299D01*
X74974166Y-128676341D01*
X74894376Y-128648421D01*
X74894372Y-128648420D01*
X74715237Y-128628237D01*
X74715231Y-128628237D01*
X74536095Y-128648420D01*
X74536091Y-128648421D01*
X74456302Y-128676341D01*
X74415348Y-128683299D01*
X74015120Y-128683299D01*
X73974166Y-128676341D01*
X73894376Y-128648421D01*
X73894372Y-128648420D01*
X73715237Y-128628237D01*
X73715231Y-128628237D01*
X73536095Y-128648420D01*
X73536091Y-128648421D01*
X73456302Y-128676341D01*
X73420674Y-128682394D01*
X73420697Y-128682839D01*
X73420709Y-128682943D01*
X73420703Y-128682943D01*
X73420713Y-128683122D01*
X73417389Y-128683299D01*
X73357861Y-128689700D01*
X73357854Y-128689702D01*
X73223147Y-128739944D01*
X73223140Y-128739948D01*
X73108046Y-128826108D01*
X73108043Y-128826111D01*
X73021883Y-128941205D01*
X73021879Y-128941212D01*
X72971637Y-129075919D01*
X72971635Y-129075926D01*
X72965234Y-129135454D01*
X72965057Y-129138778D01*
X72964878Y-129138768D01*
X72964878Y-129138774D01*
X72964774Y-129138762D01*
X72964329Y-129138739D01*
X72958276Y-129174367D01*
X72930356Y-129254156D01*
X72930355Y-129254160D01*
X72910172Y-129433296D01*
X72910172Y-129433301D01*
X72930355Y-129612436D01*
X72958276Y-129692230D01*
X72965234Y-129733184D01*
X72965234Y-130133413D01*
X72958276Y-130174367D01*
X72930356Y-130254156D01*
X72930355Y-130254160D01*
X72910172Y-130433296D01*
X72910172Y-130433301D01*
X72930355Y-130612436D01*
X72958276Y-130692230D01*
X72965234Y-130733184D01*
X72965234Y-131133413D01*
X72958276Y-131174367D01*
X72930356Y-131254156D01*
X72930355Y-131254160D01*
X72910172Y-131433296D01*
X72910172Y-131433301D01*
X72930355Y-131612436D01*
X72958276Y-131692230D01*
X72964329Y-131727858D01*
X72964774Y-131727835D01*
X72964878Y-131727824D01*
X72964878Y-131727829D01*
X72965057Y-131727820D01*
X72965234Y-131731143D01*
X72971635Y-131790671D01*
X72971637Y-131790678D01*
X73021879Y-131925385D01*
X73021883Y-131925392D01*
X73108043Y-132040486D01*
X73108046Y-132040489D01*
X73223140Y-132126649D01*
X73223147Y-132126653D01*
X73357854Y-132176895D01*
X73357861Y-132176897D01*
X73417389Y-132183298D01*
X73420713Y-132183476D01*
X73420703Y-132183654D01*
X73420709Y-132183655D01*
X73420697Y-132183758D01*
X73420674Y-132184203D01*
X73456302Y-132190257D01*
X73536091Y-132218176D01*
X73536095Y-132218177D01*
X73715231Y-132238361D01*
X73715237Y-132238361D01*
X73894372Y-132218177D01*
X73894376Y-132218176D01*
X73974166Y-132190257D01*
X74015120Y-132183299D01*
X74415348Y-132183299D01*
X74456302Y-132190257D01*
X74536091Y-132218176D01*
X74536095Y-132218177D01*
X74715231Y-132238361D01*
X74715237Y-132238361D01*
X74894372Y-132218177D01*
X74894376Y-132218176D01*
X74974166Y-132190257D01*
X75015120Y-132183299D01*
X75415348Y-132183299D01*
X75456302Y-132190257D01*
X75536091Y-132218176D01*
X75536095Y-132218177D01*
X75715231Y-132238361D01*
X75715236Y-132238361D01*
X75837950Y-132224534D01*
X75906772Y-132236588D01*
X75958151Y-132283937D01*
X75975834Y-132347754D01*
X75975834Y-134656741D01*
X75971877Y-134684054D01*
X75972480Y-134684174D01*
X75971366Y-134689801D01*
X75963633Y-134764644D01*
X75940195Y-134825350D01*
X75922013Y-134850081D01*
X75913768Y-134861295D01*
X75841025Y-134959161D01*
X75834216Y-134969120D01*
X75826826Y-134980902D01*
X75820808Y-134991396D01*
X75820799Y-134991414D01*
X75766659Y-135095141D01*
X75762719Y-135101675D01*
X75759617Y-135106169D01*
X75759609Y-135106184D01*
X75757495Y-135111759D01*
X75754491Y-135118455D01*
X75748552Y-135129836D01*
X75748550Y-135129840D01*
X75745375Y-135136607D01*
X75744230Y-135139276D01*
X75737361Y-135155279D01*
X75735387Y-135161743D01*
X75735071Y-135161646D01*
X75725055Y-135190117D01*
X75721202Y-135197356D01*
X75721196Y-135197368D01*
X75676356Y-135340122D01*
X75673215Y-135351687D01*
X75670097Y-135365260D01*
X75667843Y-135377225D01*
X75650072Y-135497913D01*
X75643342Y-135542015D01*
X75616990Y-135601515D01*
X75569536Y-135659905D01*
X75566561Y-135664282D01*
X75566275Y-135664087D01*
X75549369Y-135686388D01*
X75505647Y-135730110D01*
X75444324Y-135763595D01*
X75404494Y-135765695D01*
X75401244Y-135765340D01*
X75307378Y-135757581D01*
X75300426Y-135757283D01*
X75299788Y-135757275D01*
X75285605Y-135757114D01*
X75278229Y-135756589D01*
X75275642Y-135756249D01*
X75275630Y-135756249D01*
X75160666Y-135771385D01*
X75131925Y-135775169D01*
X75131924Y-135775169D01*
X75131921Y-135775170D01*
X74998011Y-135830636D01*
X74883013Y-135918878D01*
X74794771Y-136033876D01*
X74739305Y-136167786D01*
X74739304Y-136167790D01*
X74729790Y-136240058D01*
X74720384Y-136311499D01*
X74735192Y-136423978D01*
X74739304Y-136455207D01*
X74739305Y-136455211D01*
X74794771Y-136589121D01*
X74794772Y-136589123D01*
X74794773Y-136589124D01*
X74883013Y-136704120D01*
X74998009Y-136792360D01*
X75131925Y-136847829D01*
X75258914Y-136864547D01*
X75275633Y-136866749D01*
X75275634Y-136866749D01*
X75275635Y-136866749D01*
X75290611Y-136864777D01*
X75419343Y-136847829D01*
X75553259Y-136792360D01*
X75668255Y-136704120D01*
X75670787Y-136700819D01*
X75686123Y-136685346D01*
X75685664Y-136684859D01*
X75689831Y-136680927D01*
X75689837Y-136680923D01*
X75762168Y-136598830D01*
X75769379Y-136590003D01*
X75772086Y-136586425D01*
X75777268Y-136579574D01*
X75780501Y-136574954D01*
X75783736Y-136570334D01*
X75834855Y-136491246D01*
X75841225Y-136480513D01*
X75872057Y-136423412D01*
X75874517Y-136419256D01*
X75894827Y-136387833D01*
X75905929Y-136373172D01*
X75908837Y-136369871D01*
X75954895Y-136317601D01*
X75957930Y-136312556D01*
X75976499Y-136288806D01*
X75996750Y-136268556D01*
X76058074Y-136235072D01*
X76127765Y-136240058D01*
X76176713Y-136273416D01*
X76200164Y-136299545D01*
X76207963Y-136308235D01*
X76211241Y-136311695D01*
X76222015Y-136322511D01*
X76227984Y-136326401D01*
X76228511Y-136326744D01*
X76248494Y-136342952D01*
X77269460Y-137363918D01*
X77302945Y-137425241D01*
X77297961Y-137494933D01*
X77256089Y-137550866D01*
X77190625Y-137575283D01*
X77181779Y-137575599D01*
X71121489Y-137575599D01*
X71054450Y-137555914D01*
X71033808Y-137539280D01*
X70878429Y-137383901D01*
X70858480Y-137357798D01*
X70857491Y-137356070D01*
X70800707Y-137289272D01*
X70784594Y-137265046D01*
X70780829Y-137257622D01*
X70771286Y-137232259D01*
X70760269Y-137189180D01*
X70748968Y-137137899D01*
X70736160Y-137079782D01*
X70734139Y-137071673D01*
X70734139Y-137071671D01*
X70731718Y-137062979D01*
X70731717Y-137062975D01*
X70729234Y-137054925D01*
X70681174Y-136913120D01*
X70679215Y-136907893D01*
X70679214Y-136907889D01*
X70672932Y-136892421D01*
X70669827Y-136886626D01*
X70670743Y-136886135D01*
X70659910Y-136862873D01*
X70659859Y-136862893D01*
X70659577Y-136862159D01*
X70658381Y-136859590D01*
X70657804Y-136857537D01*
X70657803Y-136857532D01*
X70648825Y-136839349D01*
X70646444Y-136833878D01*
X70646254Y-136833376D01*
X70646251Y-136833371D01*
X70642761Y-136826720D01*
X70642874Y-136826660D01*
X70640917Y-136823333D01*
X70593658Y-136727615D01*
X70589725Y-136720172D01*
X70585287Y-136712309D01*
X70580978Y-136705139D01*
X70580327Y-136704120D01*
X70520669Y-136610734D01*
X70509661Y-136592161D01*
X70497999Y-136572485D01*
X70486815Y-136547811D01*
X70484227Y-136539899D01*
X70478487Y-136511362D01*
X70477580Y-136500170D01*
X70471407Y-136423978D01*
X70470607Y-136420933D01*
X70466534Y-136389414D01*
X70466534Y-135170753D01*
X70486219Y-135103714D01*
X70502848Y-135083076D01*
X71598036Y-133987888D01*
X71624133Y-133967945D01*
X71625862Y-133966956D01*
X71692655Y-133910173D01*
X71716875Y-133894063D01*
X71724318Y-133890288D01*
X71749674Y-133880750D01*
X71792751Y-133869734D01*
X71902214Y-133845611D01*
X71910455Y-133843553D01*
X71919152Y-133841122D01*
X71927071Y-133838676D01*
X72072514Y-133789384D01*
X72075777Y-133788431D01*
X72076389Y-133788198D01*
X72076390Y-133788196D01*
X72076399Y-133788195D01*
X72077702Y-133787510D01*
X72083195Y-133784961D01*
X72089508Y-133782398D01*
X72093496Y-133779680D01*
X72099578Y-133776028D01*
X72216274Y-133714782D01*
X72334517Y-133610029D01*
X72424254Y-133480022D01*
X72480271Y-133332317D01*
X72499312Y-133175499D01*
X72491214Y-133108801D01*
X72480271Y-133018680D01*
X72446883Y-132930644D01*
X72424254Y-132870976D01*
X72334517Y-132740969D01*
X72216274Y-132636216D01*
X72216272Y-132636215D01*
X72216271Y-132636214D01*
X72076399Y-132562802D01*
X71923020Y-132524999D01*
X71923019Y-132524999D01*
X71765049Y-132524999D01*
X71765048Y-132524999D01*
X71611668Y-132562802D01*
X71471796Y-132636214D01*
X71353550Y-132740970D01*
X71263813Y-132870977D01*
X71244466Y-132921989D01*
X71236653Y-132938715D01*
X71227342Y-132955300D01*
X71227339Y-132955307D01*
X71204008Y-133024147D01*
X71180885Y-133092374D01*
X71178489Y-133100112D01*
X71176049Y-133108800D01*
X71174995Y-133113011D01*
X71173941Y-133117221D01*
X71149796Y-133226780D01*
X71138778Y-133269861D01*
X71129233Y-133295227D01*
X71125466Y-133302654D01*
X71109356Y-133326874D01*
X71052571Y-133393675D01*
X71050976Y-133396408D01*
X71031575Y-133421563D01*
X69760550Y-134692590D01*
X69760547Y-134692593D01*
X69737983Y-134715158D01*
X69737982Y-134715159D01*
X69727925Y-134734896D01*
X69717765Y-134751476D01*
X69704740Y-134769404D01*
X69704737Y-134769409D01*
X69697888Y-134790487D01*
X69690447Y-134808451D01*
X69680388Y-134828194D01*
X69676921Y-134850081D01*
X69672381Y-134868990D01*
X69665534Y-134890066D01*
X69665534Y-136389496D01*
X69661185Y-136422048D01*
X69660659Y-136423978D01*
X69653578Y-136511363D01*
X69647840Y-136539893D01*
X69645251Y-136547809D01*
X69634067Y-136572484D01*
X69611396Y-136610736D01*
X69551091Y-136705134D01*
X69546802Y-136712269D01*
X69542378Y-136720103D01*
X69538425Y-136727581D01*
X69491136Y-136823357D01*
X69489187Y-136826676D01*
X69489299Y-136826735D01*
X69485810Y-136833381D01*
X69485613Y-136833903D01*
X69483241Y-136839349D01*
X69472089Y-136861939D01*
X69469771Y-136867037D01*
X69463301Y-136882363D01*
X69463298Y-136882374D01*
X69461393Y-136892421D01*
X69455508Y-136913284D01*
X69429797Y-136981079D01*
X69429796Y-136981084D01*
X69410756Y-137137898D01*
X69410756Y-137137899D01*
X69429796Y-137294717D01*
X69456041Y-137363918D01*
X69485814Y-137442422D01*
X69575551Y-137572429D01*
X69693794Y-137677182D01*
X69693796Y-137677183D01*
X69833666Y-137750594D01*
X69840288Y-137753105D01*
X69840408Y-137752752D01*
X69845839Y-137754592D01*
X69845840Y-137754593D01*
X69983060Y-137801099D01*
X69991110Y-137803582D01*
X69991114Y-137803583D01*
X69999806Y-137806004D01*
X70005189Y-137807345D01*
X70007917Y-137808025D01*
X70117315Y-137832134D01*
X70160394Y-137843151D01*
X70185751Y-137852691D01*
X70193176Y-137856456D01*
X70217404Y-137872569D01*
X70284206Y-137929357D01*
X70286930Y-137930947D01*
X70312096Y-137950354D01*
X70645220Y-138283479D01*
X70645240Y-138283497D01*
X70665892Y-138304149D01*
X70685632Y-138314207D01*
X70702221Y-138324373D01*
X70720143Y-138337394D01*
X70720144Y-138337394D01*
X70720145Y-138337395D01*
X70741214Y-138344241D01*
X70759183Y-138351683D01*
X70778930Y-138361745D01*
X70800816Y-138365211D01*
X70819731Y-138369752D01*
X70840801Y-138376599D01*
X70872715Y-138376599D01*
X77699638Y-138376599D01*
X77732187Y-138380947D01*
X77734115Y-138381472D01*
X77821502Y-138388552D01*
X77850028Y-138394289D01*
X77857943Y-138396878D01*
X77882616Y-138408061D01*
X77920872Y-138430735D01*
X78015288Y-138491052D01*
X78022489Y-138495378D01*
X78030353Y-138499813D01*
X78037764Y-138503729D01*
X78171942Y-138569979D01*
X78175977Y-138571817D01*
X78176959Y-138572264D01*
X78198574Y-138581398D01*
X78198547Y-138581459D01*
X78212821Y-138587300D01*
X78215669Y-138588795D01*
X78290101Y-138607140D01*
X78369048Y-138626599D01*
X78369049Y-138626599D01*
X78527019Y-138626599D01*
X78680399Y-138588795D01*
X78697019Y-138580072D01*
X78820274Y-138515382D01*
X78938517Y-138410629D01*
X79028254Y-138280622D01*
X79084271Y-138132917D01*
X79103312Y-137976099D01*
X79098811Y-137939025D01*
X79084271Y-137819280D01*
X79025594Y-137664563D01*
X79027848Y-137663707D01*
X79016430Y-137606667D01*
X79041932Y-137541618D01*
X79098555Y-137500683D01*
X79168319Y-137496858D01*
X79227628Y-137529886D01*
X81797584Y-140099841D01*
X81887292Y-140189549D01*
X81907029Y-140199605D01*
X81923615Y-140209768D01*
X81941544Y-140222795D01*
X81941546Y-140222795D01*
X81941547Y-140222796D01*
X81962608Y-140229639D01*
X81980587Y-140237085D01*
X82000330Y-140247145D01*
X82022219Y-140250611D01*
X82041135Y-140255152D01*
X82062201Y-140261998D01*
X82091558Y-140261998D01*
X82091582Y-140261999D01*
X82094115Y-140261999D01*
X83989065Y-140261999D01*
X83989067Y-140261999D01*
X84010135Y-140255153D01*
X84029051Y-140250611D01*
X84050938Y-140247145D01*
X84070678Y-140237085D01*
X84088645Y-140229643D01*
X84109724Y-140222795D01*
X84127660Y-140209762D01*
X84144222Y-140199613D01*
X84163976Y-140189549D01*
X84179468Y-140174056D01*
X84179475Y-140174051D01*
X85059786Y-139293740D01*
X85059791Y-139293733D01*
X85075284Y-139278241D01*
X85085343Y-139258497D01*
X85095503Y-139241917D01*
X85108530Y-139223988D01*
X85115376Y-139202916D01*
X85122822Y-139184942D01*
X85132879Y-139165204D01*
X85132880Y-139165203D01*
X85136346Y-139143315D01*
X85140885Y-139124409D01*
X85147734Y-139103332D01*
X85147734Y-138976466D01*
X85147734Y-113517634D01*
X85148146Y-113510499D01*
X85150428Y-113490773D01*
X85151123Y-113484772D01*
X85151060Y-113483875D01*
X85147884Y-113438287D01*
X85147734Y-113433976D01*
X85147734Y-113431258D01*
X85147733Y-113431228D01*
X85147733Y-113401664D01*
X85146206Y-113392024D01*
X85146516Y-113391974D01*
X85143616Y-113377048D01*
X85143110Y-113369789D01*
X85141858Y-113351808D01*
X85139806Y-113322343D01*
X85139805Y-113322341D01*
X85139804Y-113322340D01*
X85139804Y-113322327D01*
X85137889Y-113306624D01*
X85137890Y-113306626D01*
X85134745Y-113288644D01*
X85132912Y-113280636D01*
X85131214Y-113273217D01*
X85131210Y-113273202D01*
X85131210Y-113273200D01*
X85094753Y-113144842D01*
X85094753Y-113144844D01*
X85094752Y-113144841D01*
X85089649Y-113129868D01*
X85089645Y-113129857D01*
X85089644Y-113129856D01*
X85084819Y-113117786D01*
X85082885Y-113112947D01*
X85080541Y-113107862D01*
X85076276Y-113098609D01*
X85076276Y-113098611D01*
X85076273Y-113098605D01*
X85035005Y-113020036D01*
X85021290Y-112993924D01*
X85017571Y-112987220D01*
X85017570Y-112987218D01*
X84959277Y-112888179D01*
X84956809Y-112883548D01*
X84953180Y-112875982D01*
X84893626Y-112751809D01*
X84892977Y-112750917D01*
X84891845Y-112748826D01*
X84890731Y-112746959D01*
X84890810Y-112746911D01*
X84877280Y-112721904D01*
X84870254Y-112703376D01*
X84868375Y-112700654D01*
X84821140Y-112632222D01*
X84780517Y-112573369D01*
X84662274Y-112468616D01*
X84662272Y-112468615D01*
X84662271Y-112468614D01*
X84522402Y-112395204D01*
X84515774Y-112392691D01*
X84515655Y-112393045D01*
X84373140Y-112344744D01*
X84365376Y-112342340D01*
X84356685Y-112339902D01*
X84348289Y-112337801D01*
X84238751Y-112313662D01*
X84237097Y-112313239D01*
X84195667Y-112302643D01*
X84170304Y-112293099D01*
X84162879Y-112289333D01*
X84138658Y-112273223D01*
X84114088Y-112252337D01*
X84071858Y-112216438D01*
X84069128Y-112214844D01*
X84043966Y-112195439D01*
X84031976Y-112183449D01*
X84031974Y-112183448D01*
X84012234Y-112173389D01*
X83995648Y-112163225D01*
X83977724Y-112150203D01*
X83977725Y-112150203D01*
X83956652Y-112143356D01*
X83938679Y-112135911D01*
X83918941Y-112125854D01*
X83918938Y-112125853D01*
X83897052Y-112122386D01*
X83878141Y-112117845D01*
X83857073Y-112111000D01*
X83857068Y-112110999D01*
X83857067Y-112110999D01*
X83857063Y-112110999D01*
X79667470Y-112110999D01*
X79637968Y-112107438D01*
X79631507Y-112105855D01*
X79576660Y-112102812D01*
X79533118Y-112092292D01*
X79522727Y-112087668D01*
X79518980Y-112085848D01*
X79457736Y-112053506D01*
X79450223Y-112049778D01*
X79357673Y-112007004D01*
X79354550Y-112005636D01*
X79343334Y-112000983D01*
X79340186Y-112000041D01*
X79320818Y-111991530D01*
X79320553Y-111992087D01*
X79315382Y-111989621D01*
X79315379Y-111989620D01*
X79303438Y-111985228D01*
X79222609Y-111955497D01*
X79214650Y-111952816D01*
X79148479Y-111932381D01*
X79144539Y-111931018D01*
X79133919Y-111926938D01*
X79095696Y-111903590D01*
X79075870Y-111885849D01*
X79054760Y-111866958D01*
X79054757Y-111866956D01*
X79054756Y-111866955D01*
X79048780Y-111863312D01*
X79025645Y-111845117D01*
X77000933Y-109820405D01*
X76967448Y-109759082D01*
X76966067Y-109713799D01*
X76966290Y-109712351D01*
X76976318Y-109623510D01*
X76977027Y-109615196D01*
X76977342Y-109609758D01*
X76977358Y-109608887D01*
X76977643Y-109593642D01*
X76978161Y-109586729D01*
X76978993Y-109580414D01*
X76960073Y-109436705D01*
X76904604Y-109302789D01*
X76816364Y-109187793D01*
X76701368Y-109099553D01*
X76701367Y-109099552D01*
X76701365Y-109099551D01*
X76567455Y-109044085D01*
X76567453Y-109044084D01*
X76567452Y-109044084D01*
X76495597Y-109034624D01*
X76423744Y-109025164D01*
X76423742Y-109025164D01*
X76280034Y-109044084D01*
X76280030Y-109044085D01*
X76146120Y-109099551D01*
X76031122Y-109187793D01*
X75942880Y-109302791D01*
X75887414Y-109436701D01*
X75887413Y-109436705D01*
X75868493Y-109580413D01*
X75868493Y-109580414D01*
X75887413Y-109724122D01*
X75887414Y-109724126D01*
X75942880Y-109858036D01*
X75942881Y-109858038D01*
X75942882Y-109858039D01*
X76031122Y-109973035D01*
X76031126Y-109973038D01*
X76032009Y-109973921D01*
X76036335Y-109978722D01*
X76036502Y-109978928D01*
X76036506Y-109978934D01*
X76036510Y-109978938D01*
X76057073Y-109999983D01*
X76089845Y-110061690D01*
X76084054Y-110131319D01*
X76064711Y-110161090D01*
X76066458Y-110162431D01*
X76061512Y-110168876D01*
X76061510Y-110168878D01*
X75973270Y-110283874D01*
X75973269Y-110283875D01*
X75973269Y-110283876D01*
X75944730Y-110352774D01*
X75941719Y-110359027D01*
X75929216Y-110381663D01*
X75929214Y-110381668D01*
X75929214Y-110381669D01*
X75897057Y-110478752D01*
X75894364Y-110487812D01*
X75891753Y-110497707D01*
X75889590Y-110507097D01*
X75873606Y-110588065D01*
X75872960Y-110590961D01*
X75846972Y-110643573D01*
X75828449Y-110665667D01*
X75828439Y-110665681D01*
X75827417Y-110667454D01*
X75807700Y-110693154D01*
X74504030Y-111996824D01*
X74484178Y-112012947D01*
X74475693Y-112018491D01*
X74454632Y-112045547D01*
X74449556Y-112051297D01*
X74446933Y-112053921D01*
X74446919Y-112053937D01*
X74433756Y-112072371D01*
X74401078Y-112114355D01*
X74397449Y-112121059D01*
X74394098Y-112127915D01*
X74378912Y-112178921D01*
X74361633Y-112229256D01*
X74360380Y-112236764D01*
X74359434Y-112244350D01*
X74361634Y-112297517D01*
X74361634Y-112511363D01*
X74357743Y-112539741D01*
X74357897Y-112539769D01*
X74357259Y-112543272D01*
X74357059Y-112544734D01*
X74356870Y-112545407D01*
X74356868Y-112545419D01*
X74354344Y-112574131D01*
X74335509Y-112629726D01*
X74333924Y-112632222D01*
X74312273Y-112664526D01*
X74288071Y-112700635D01*
X74283122Y-112708530D01*
X74282213Y-112710083D01*
X74277941Y-112717384D01*
X74273281Y-112725965D01*
X74224886Y-112822295D01*
X74222314Y-112827899D01*
X74217700Y-112838755D01*
X74215493Y-112843948D01*
X74215491Y-112843952D01*
X74214117Y-112851157D01*
X74206877Y-112875361D01*
X74189305Y-112917785D01*
X74189304Y-112917790D01*
X74179732Y-112990499D01*
X74170384Y-113061499D01*
X74180929Y-113141598D01*
X74189304Y-113205207D01*
X74189305Y-113205211D01*
X74244771Y-113339121D01*
X74244772Y-113339123D01*
X74244773Y-113339124D01*
X74333013Y-113454120D01*
X74448009Y-113542360D01*
X74448010Y-113542360D01*
X74448011Y-113542361D01*
X74477579Y-113554608D01*
X74581925Y-113597829D01*
X74708914Y-113614547D01*
X74725633Y-113616749D01*
X74725634Y-113616749D01*
X74725635Y-113616749D01*
X74740611Y-113614777D01*
X74869343Y-113597829D01*
X75003259Y-113542360D01*
X75118255Y-113454120D01*
X75118259Y-113454115D01*
X75124002Y-113448373D01*
X75125952Y-113450323D01*
X75171490Y-113417064D01*
X75241235Y-113412901D01*
X75302160Y-113447105D01*
X75316450Y-113464702D01*
X75333924Y-113490774D01*
X75335473Y-113493213D01*
X75354344Y-113548863D01*
X75356868Y-113577571D01*
X75356871Y-113577591D01*
X75357398Y-113579553D01*
X75361634Y-113611686D01*
X75361634Y-114583760D01*
X75341949Y-114650799D01*
X75289145Y-114696554D01*
X75219987Y-114706498D01*
X75202377Y-114702642D01*
X75199063Y-114701659D01*
X75189158Y-114699058D01*
X75179943Y-114696941D01*
X75099068Y-114680974D01*
X75096954Y-114680502D01*
X75096161Y-114680325D01*
X75043556Y-114654337D01*
X75021472Y-114635822D01*
X75021461Y-114635815D01*
X75019691Y-114634794D01*
X74993980Y-114615071D01*
X73417877Y-113038968D01*
X73384392Y-112977645D01*
X73389376Y-112907953D01*
X73398518Y-112888689D01*
X73400958Y-112884519D01*
X73405593Y-112875982D01*
X73453922Y-112779785D01*
X73456464Y-112774256D01*
X73463368Y-112758025D01*
X73464738Y-112750839D01*
X73471979Y-112726621D01*
X73489557Y-112684187D01*
X73508477Y-112540478D01*
X73506461Y-112525169D01*
X73504638Y-112511318D01*
X73489557Y-112396769D01*
X73449171Y-112299267D01*
X73434089Y-112262855D01*
X73434088Y-112262854D01*
X73434088Y-112262853D01*
X73345848Y-112147857D01*
X73230852Y-112059617D01*
X73230851Y-112059616D01*
X73230849Y-112059615D01*
X73096939Y-112004149D01*
X73096937Y-112004148D01*
X73096936Y-112004148D01*
X73025081Y-111994688D01*
X72953228Y-111985228D01*
X72953226Y-111985228D01*
X72809518Y-112004148D01*
X72809514Y-112004149D01*
X72675604Y-112059615D01*
X72560606Y-112147857D01*
X72472364Y-112262855D01*
X72416898Y-112396765D01*
X72416897Y-112396769D01*
X72397977Y-112540477D01*
X72397977Y-112540478D01*
X72416896Y-112684184D01*
X72416896Y-112684186D01*
X72416897Y-112684187D01*
X72444907Y-112751811D01*
X72445439Y-112753094D01*
X72447732Y-112759645D01*
X72454898Y-112784496D01*
X72467274Y-112809130D01*
X72500858Y-112875980D01*
X72505494Y-112884519D01*
X72510679Y-112893385D01*
X72511879Y-112895300D01*
X72515650Y-112901319D01*
X72515652Y-112901321D01*
X72561517Y-112969753D01*
X72563104Y-112972251D01*
X72581937Y-113027844D01*
X72584629Y-113058466D01*
X72584814Y-113066461D01*
X72584509Y-113073839D01*
X72588750Y-113107862D01*
X72589227Y-113115538D01*
X72589227Y-113119254D01*
X72590996Y-113129856D01*
X72592955Y-113141599D01*
X72599536Y-113194394D01*
X72601713Y-113201706D01*
X72604190Y-113208920D01*
X72629521Y-113255727D01*
X72652889Y-113303526D01*
X72657334Y-113309753D01*
X72662008Y-113315757D01*
X72701170Y-113351808D01*
X74479243Y-115129881D01*
X74496562Y-115152702D01*
X74496690Y-115152614D01*
X74498698Y-115155516D01*
X74499602Y-115156707D01*
X74499950Y-115157326D01*
X74499954Y-115157331D01*
X74518473Y-115179421D01*
X74544464Y-115232044D01*
X74545109Y-115234933D01*
X74561076Y-115315807D01*
X74563193Y-115325023D01*
X74565794Y-115334926D01*
X74568531Y-115344156D01*
X74595015Y-115424115D01*
X74602404Y-115446422D01*
X74604552Y-115452216D01*
X74611076Y-115468385D01*
X74613554Y-115474526D01*
X74610952Y-115475575D01*
X74622616Y-115531856D01*
X74597556Y-115597077D01*
X74541213Y-115638396D01*
X74471476Y-115642694D01*
X74411344Y-115609474D01*
X73240994Y-114439124D01*
X71841768Y-113039897D01*
X71825640Y-113020036D01*
X71820104Y-113011563D01*
X71820100Y-113011558D01*
X71793043Y-112990499D01*
X71787279Y-112985408D01*
X71784656Y-112982785D01*
X71784657Y-112982785D01*
X71777458Y-112977645D01*
X71766221Y-112969622D01*
X71742049Y-112950808D01*
X71724237Y-112936944D01*
X71717534Y-112933317D01*
X71717486Y-112933294D01*
X71717463Y-112933281D01*
X71710674Y-112929962D01*
X71659671Y-112914778D01*
X71609336Y-112897498D01*
X71601813Y-112896243D01*
X71594243Y-112895299D01*
X71541074Y-112897499D01*
X71175768Y-112897499D01*
X71147390Y-112893608D01*
X71147363Y-112893762D01*
X71143856Y-112893123D01*
X71142392Y-112892923D01*
X71141717Y-112892734D01*
X71141713Y-112892733D01*
X71112998Y-112890209D01*
X71057362Y-112871347D01*
X71054907Y-112869788D01*
X70992408Y-112827899D01*
X70986476Y-112823923D01*
X70982509Y-112821437D01*
X70978541Y-112818951D01*
X70969675Y-112813766D01*
X70961136Y-112809130D01*
X70960230Y-112808675D01*
X70864897Y-112760781D01*
X70862342Y-112759607D01*
X70859336Y-112758226D01*
X70843181Y-112751357D01*
X70843178Y-112751356D01*
X70843177Y-112751356D01*
X70835981Y-112749983D01*
X70811766Y-112742741D01*
X70769343Y-112725169D01*
X70642960Y-112708530D01*
X70625635Y-112706249D01*
X70625633Y-112706249D01*
X70481925Y-112725169D01*
X70481921Y-112725170D01*
X70348011Y-112780636D01*
X70233013Y-112868878D01*
X70144771Y-112983876D01*
X70089305Y-113117786D01*
X70089304Y-113117790D01*
X70071235Y-113255038D01*
X70070384Y-113261499D01*
X70088837Y-113401664D01*
X70089304Y-113405207D01*
X70089305Y-113405211D01*
X70144771Y-113539121D01*
X70144772Y-113539123D01*
X70144773Y-113539124D01*
X70219119Y-113636014D01*
X70244313Y-113701181D01*
X70230275Y-113769626D01*
X70219123Y-113786979D01*
X70216116Y-113790899D01*
X70144771Y-113883876D01*
X70089305Y-114017786D01*
X70089304Y-114017790D01*
X70078766Y-114097836D01*
X70070384Y-114161499D01*
X70084706Y-114270287D01*
X70089304Y-114305207D01*
X70089305Y-114305211D01*
X70144771Y-114439121D01*
X70144772Y-114439123D01*
X70144773Y-114439124D01*
X70233013Y-114554120D01*
X70348009Y-114642360D01*
X70416922Y-114670903D01*
X70423175Y-114673914D01*
X70445805Y-114686415D01*
X70445820Y-114686421D01*
X70470694Y-114694660D01*
X70528145Y-114734424D01*
X70554977Y-114798936D01*
X70542672Y-114867714D01*
X70530083Y-114887857D01*
X70494773Y-114933873D01*
X70494772Y-114933875D01*
X70439305Y-115067786D01*
X70439304Y-115067790D01*
X70420384Y-115211498D01*
X70420384Y-115211499D01*
X70439303Y-115355205D01*
X70439303Y-115355207D01*
X70439304Y-115355208D01*
X70459563Y-115404119D01*
X70467846Y-115424115D01*
X70470139Y-115430666D01*
X70477305Y-115455517D01*
X70495815Y-115492361D01*
X70523265Y-115547001D01*
X70523714Y-115547828D01*
X70527902Y-115555542D01*
X70533087Y-115564407D01*
X70538058Y-115572341D01*
X70548547Y-115587990D01*
X70583924Y-115640774D01*
X70585473Y-115643213D01*
X70604344Y-115698863D01*
X70606868Y-115727571D01*
X70606871Y-115727591D01*
X70607398Y-115729553D01*
X70611634Y-115761686D01*
X70611634Y-120110891D01*
X70608995Y-120136337D01*
X70606916Y-120146248D01*
X70611157Y-120180269D01*
X70611634Y-120187945D01*
X70611634Y-120191661D01*
X70614430Y-120208419D01*
X70615362Y-120214006D01*
X70623214Y-120276995D01*
X70620578Y-120277323D01*
X70620784Y-120331892D01*
X70583230Y-120390812D01*
X70519784Y-120420076D01*
X70450589Y-120410392D01*
X70413995Y-120385086D01*
X68175953Y-118147044D01*
X68142468Y-118085721D01*
X68139634Y-118059363D01*
X68139634Y-118011624D01*
X68143524Y-117983241D01*
X68143372Y-117983214D01*
X68144005Y-117979732D01*
X68144208Y-117978255D01*
X68144398Y-117977577D01*
X68146921Y-117948869D01*
X68165784Y-117893229D01*
X68167347Y-117890768D01*
X68180743Y-117870781D01*
X68213208Y-117822340D01*
X68218180Y-117814406D01*
X68223365Y-117805540D01*
X68228000Y-117797003D01*
X68276329Y-117700806D01*
X68278871Y-117695277D01*
X68285775Y-117679046D01*
X68287145Y-117671860D01*
X68294386Y-117647642D01*
X68311964Y-117605208D01*
X68330884Y-117461499D01*
X68311964Y-117317790D01*
X68256495Y-117183874D01*
X68168255Y-117068878D01*
X68053259Y-116980638D01*
X68053258Y-116980637D01*
X68053256Y-116980636D01*
X67919346Y-116925170D01*
X67919344Y-116925169D01*
X67919343Y-116925169D01*
X67847488Y-116915709D01*
X67775635Y-116906249D01*
X67775633Y-116906249D01*
X67631925Y-116925169D01*
X67631921Y-116925170D01*
X67498011Y-116980636D01*
X67383013Y-117068878D01*
X67294771Y-117183876D01*
X67239305Y-117317786D01*
X67239304Y-117317790D01*
X67220384Y-117461498D01*
X67220384Y-117461499D01*
X63503664Y-117461499D01*
X63503310Y-117057607D01*
X63503309Y-117057606D01*
X63503306Y-117053465D01*
X63503225Y-116925169D01*
X63502774Y-116210928D01*
X63502773Y-116210927D01*
X63502431Y-115464614D01*
X63502278Y-115131339D01*
X63502268Y-115102772D01*
X63501840Y-113824682D01*
X63501839Y-113824681D01*
X63501835Y-113809910D01*
X63501452Y-112227811D01*
X63501451Y-112227810D01*
X63501450Y-112224842D01*
X63501449Y-112216436D01*
X63501123Y-110323573D01*
X63501119Y-110298910D01*
X63501089Y-110047950D01*
X63500858Y-108083315D01*
X63500857Y-108083314D01*
X63500855Y-108058651D01*
X63500847Y-107956743D01*
X63500662Y-105478385D01*
X63500661Y-105478384D01*
X63500660Y-105453720D01*
X63500540Y-102455467D01*
X63500539Y-102455465D01*
X63500500Y-99059995D01*
X63501001Y-99040429D01*
X63679888Y-95547015D01*
X63681260Y-95529209D01*
X63681581Y-95526096D01*
X63903899Y-93798328D01*
X63904367Y-93795297D01*
X64211716Y-92093975D01*
X64212334Y-92090986D01*
X64599032Y-90433104D01*
X64602448Y-90418460D01*
X64603217Y-90415493D01*
X65073866Y-88773909D01*
X65074762Y-88771051D01*
X65623686Y-87162706D01*
X65624731Y-87159877D01*
X65663683Y-87061842D01*
X66249667Y-85587047D01*
X66250843Y-85584287D01*
X66949555Y-84049193D01*
X66950822Y-84046578D01*
X67721082Y-82551427D01*
X67722504Y-82548824D01*
X68561997Y-81095987D01*
X68563537Y-81093464D01*
X69470079Y-79685074D01*
X69471672Y-79682724D01*
X70443006Y-78321054D01*
X70444718Y-78318771D01*
X71478582Y-77006093D01*
X71480416Y-77003876D01*
X72574509Y-75742498D01*
X72576428Y-75740389D01*
X73728585Y-74532469D01*
X73730607Y-74530449D01*
X74938475Y-73378343D01*
X74940594Y-73376416D01*
X76201953Y-72282337D01*
X76204179Y-72280495D01*
X77516830Y-71246653D01*
X77519113Y-71244941D01*
X78880810Y-70273586D01*
X78883160Y-70271993D01*
X80291561Y-69365442D01*
X80294081Y-69363905D01*
X81420076Y-68713272D01*
X81746916Y-68524413D01*
X81749515Y-68522995D01*
X81898125Y-68446435D01*
X88625134Y-68446435D01*
X88665352Y-68713266D01*
X88665354Y-68713272D01*
X88744896Y-68971140D01*
X88861980Y-69214268D01*
X88861982Y-69214270D01*
X88861983Y-69214273D01*
X88965056Y-69365454D01*
X89013999Y-69437240D01*
X89197544Y-69635056D01*
X89197548Y-69635059D01*
X89197549Y-69635060D01*
X89408532Y-69803314D01*
X89642236Y-69938242D01*
X89893439Y-70036833D01*
X90156531Y-70096882D01*
X90185349Y-70099041D01*
X90358252Y-70111999D01*
X90358258Y-70111999D01*
X90493016Y-70111999D01*
X90644305Y-70100661D01*
X90694737Y-70096882D01*
X90957829Y-70036833D01*
X91209032Y-69938242D01*
X91442736Y-69803314D01*
X91653719Y-69635060D01*
X91837269Y-69437240D01*
X91989285Y-69214274D01*
X92106372Y-68971140D01*
X92185914Y-68713271D01*
X92214594Y-68522995D01*
X92226133Y-68446435D01*
X92226134Y-68446426D01*
X92226134Y-68176571D01*
X92226133Y-68176562D01*
X92185915Y-67909731D01*
X92185913Y-67909725D01*
X92106372Y-67651858D01*
X91989285Y-67408725D01*
X91837269Y-67185758D01*
X91826992Y-67174682D01*
X91653723Y-66987941D01*
X91613143Y-66955579D01*
X91442736Y-66819684D01*
X91209032Y-66684756D01*
X91209030Y-66684755D01*
X90957829Y-66586165D01*
X90957822Y-66586163D01*
X90694735Y-66526115D01*
X90493016Y-66510999D01*
X90493010Y-66510999D01*
X90358258Y-66510999D01*
X90358252Y-66510999D01*
X90156532Y-66526115D01*
X89893445Y-66586163D01*
X89893438Y-66586165D01*
X89642237Y-66684755D01*
X89642233Y-66684757D01*
X89408532Y-66819684D01*
X89197544Y-66987941D01*
X89013999Y-67185757D01*
X88861979Y-67408730D01*
X88861978Y-67408731D01*
X88744897Y-67651854D01*
X88665354Y-67909725D01*
X88665352Y-67909731D01*
X88625134Y-68176562D01*
X88625134Y-68446435D01*
X81898125Y-68446435D01*
X83244663Y-67752736D01*
X83247278Y-67751469D01*
X84782386Y-67052750D01*
X84785132Y-67051581D01*
X86357963Y-66426644D01*
X86360791Y-66425600D01*
X87969136Y-65876676D01*
X87971994Y-65875780D01*
X89613569Y-65405134D01*
X89616545Y-65404362D01*
X89687369Y-65387842D01*
X91289090Y-65014245D01*
X91292079Y-65013627D01*
X92993382Y-64706281D01*
X92996413Y-64705813D01*
X94724212Y-64483490D01*
X94727303Y-64483172D01*
X96479345Y-64348129D01*
X96482493Y-64347967D01*
X96734621Y-64341499D01*
X99029541Y-64341499D01*
X99032712Y-64341580D01*
G37*
G04 #@! TD.AperFunction*
G04 #@! TA.AperFunction,Conductor*
G36*
X84612127Y-112878184D02*
G01*
X84618169Y-112883921D01*
X84688090Y-113029709D01*
X84688092Y-113029712D01*
X84688092Y-113029713D01*
X84752308Y-113138815D01*
X84752445Y-113139062D01*
X84802140Y-113233674D01*
X84803037Y-113235918D01*
X84835176Y-113349074D01*
X84835593Y-113351458D01*
X84846362Y-113506008D01*
X84843518Y-113514499D01*
X84835503Y-113518493D01*
X84834690Y-113518521D01*
X84656363Y-113518521D01*
X84648090Y-113515094D01*
X84645014Y-113509667D01*
X84639715Y-113488539D01*
X84619465Y-113407780D01*
X84619464Y-113407779D01*
X84544279Y-113368032D01*
X84433868Y-113364931D01*
X84301689Y-113364129D01*
X84299162Y-113363837D01*
X84169596Y-113334331D01*
X84162290Y-113329153D01*
X84160786Y-113320325D01*
X84161378Y-113318463D01*
X84288175Y-113011399D01*
X84294498Y-113005063D01*
X84603173Y-112878161D01*
X84612127Y-112878184D01*
G37*
G04 #@! TD.AperFunction*
G04 #@! TA.AperFunction,Conductor*
G36*
X78567076Y-136616552D02*
G01*
X78567736Y-136616852D01*
X78693899Y-136679144D01*
X78694441Y-136679450D01*
X78789635Y-136740263D01*
X78872890Y-136789608D01*
X78872893Y-136789608D01*
X78872895Y-136789610D01*
X78941556Y-136812065D01*
X78973907Y-136822646D01*
X78973908Y-136822646D01*
X78973911Y-136822647D01*
X79111880Y-136833827D01*
X79119848Y-136837911D01*
X79122634Y-136845489D01*
X79122634Y-137023908D01*
X79119207Y-137032181D01*
X79111879Y-137035570D01*
X78973906Y-137046750D01*
X78872897Y-137079785D01*
X78872890Y-137079787D01*
X78789635Y-137129133D01*
X78694448Y-137189942D01*
X78693888Y-137190258D01*
X78567750Y-137252538D01*
X78558815Y-137253128D01*
X78552079Y-137247227D01*
X78551772Y-137246553D01*
X78482180Y-137079787D01*
X78423513Y-136939204D01*
X78423491Y-136930250D01*
X78423514Y-136930193D01*
X78551773Y-136622842D01*
X78558121Y-136616529D01*
X78567076Y-136616552D01*
G37*
G04 #@! TD.AperFunction*
G04 #@! TA.AperFunction,Conductor*
G36*
X76660685Y-109580377D02*
G01*
X76668948Y-109583827D01*
X76672352Y-109592110D01*
X76672278Y-109593389D01*
X76663413Y-109671924D01*
X76663048Y-109673785D01*
X76643031Y-109744823D01*
X76643032Y-109744822D01*
X76629455Y-109805822D01*
X76639125Y-109865383D01*
X76682668Y-109924937D01*
X76684784Y-109933638D01*
X76681496Y-109940115D01*
X76555532Y-110066079D01*
X76547259Y-110069506D01*
X76538986Y-110066079D01*
X76538891Y-110065983D01*
X76471468Y-109996980D01*
X76419256Y-109940536D01*
X76374871Y-109891102D01*
X76322659Y-109834659D01*
X76255016Y-109765430D01*
X76251685Y-109757117D01*
X76255077Y-109749014D01*
X76419591Y-109583178D01*
X76427846Y-109579720D01*
X76660685Y-109580377D01*
G37*
G04 #@! TD.AperFunction*
G04 #@! TA.AperFunction,Conductor*
G36*
X78851037Y-112094614D02*
G01*
X78921010Y-112157231D01*
X78949950Y-112175281D01*
X78984392Y-112196764D01*
X78984395Y-112196765D01*
X78984398Y-112196767D01*
X79046529Y-112220634D01*
X79071852Y-112228454D01*
X79120817Y-112243575D01*
X79121111Y-112243674D01*
X79159260Y-112257706D01*
X79209915Y-112276339D01*
X79216497Y-112282412D01*
X79216857Y-112291359D01*
X79216702Y-112291757D01*
X79128198Y-112507674D01*
X79121889Y-112514030D01*
X79121809Y-112514063D01*
X78905892Y-112602567D01*
X78896938Y-112602534D01*
X78890629Y-112596178D01*
X78890474Y-112595780D01*
X78857809Y-112506976D01*
X78857710Y-112506682D01*
X78834770Y-112432398D01*
X78834769Y-112432394D01*
X78810902Y-112370263D01*
X78810900Y-112370260D01*
X78810899Y-112370257D01*
X78789416Y-112335815D01*
X78771366Y-112306875D01*
X78708749Y-112236902D01*
X78705787Y-112228454D01*
X78709195Y-112220830D01*
X78834965Y-112095060D01*
X78843237Y-112091634D01*
X78851037Y-112094614D01*
G37*
G04 #@! TD.AperFunction*
G04 #@! TA.AperFunction,Conductor*
G36*
X76625898Y-111589083D02*
G01*
X76626627Y-111589418D01*
X76713775Y-111633200D01*
X76714406Y-111633569D01*
X76782067Y-111678917D01*
X76841123Y-111716428D01*
X76841129Y-111716431D01*
X76913086Y-111741883D01*
X76913089Y-111741884D01*
X77009084Y-111750324D01*
X77017025Y-111754462D01*
X77019759Y-111761979D01*
X77019759Y-111867546D01*
X77016332Y-111875819D01*
X77009084Y-111879201D01*
X76913086Y-111887640D01*
X76841129Y-111913093D01*
X76841123Y-111913096D01*
X76782067Y-111950608D01*
X76714406Y-111995955D01*
X76713775Y-111996324D01*
X76626633Y-112040104D01*
X76617702Y-112040756D01*
X76610926Y-112034901D01*
X76610595Y-112034183D01*
X76520648Y-111819278D01*
X76520616Y-111810326D01*
X76610589Y-111595357D01*
X76616943Y-111589050D01*
X76625898Y-111589083D01*
G37*
G04 #@! TD.AperFunction*
G04 #@! TA.AperFunction,Conductor*
G36*
X80225192Y-114619928D02*
G01*
X80258311Y-114647694D01*
X80299038Y-114681839D01*
X80343043Y-114702847D01*
X80367923Y-114714725D01*
X80436210Y-114729961D01*
X80516134Y-114745740D01*
X80516808Y-114745917D01*
X80609402Y-114776586D01*
X80616178Y-114782441D01*
X80616830Y-114791372D01*
X80616549Y-114792130D01*
X80528198Y-115007674D01*
X80521889Y-115014030D01*
X80521809Y-115014063D01*
X80306265Y-115102414D01*
X80297311Y-115102381D01*
X80291002Y-115096025D01*
X80290721Y-115095267D01*
X80260052Y-115002673D01*
X80259875Y-115001999D01*
X80244096Y-114922075D01*
X80228860Y-114853788D01*
X80195974Y-114784904D01*
X80195974Y-114784903D01*
X80161829Y-114744176D01*
X80134063Y-114711057D01*
X80131375Y-114702517D01*
X80134756Y-114695270D01*
X80209405Y-114620621D01*
X80217677Y-114617195D01*
X80225192Y-114619928D01*
G37*
G04 #@! TD.AperFunction*
G04 #@! TA.AperFunction,Conductor*
G36*
X82345038Y-117152329D02*
G01*
X82351346Y-117158684D01*
X82351313Y-117167638D01*
X82350975Y-117168373D01*
X82307195Y-117255515D01*
X82306826Y-117256146D01*
X82261479Y-117323807D01*
X82223967Y-117382863D01*
X82223964Y-117382869D01*
X82198511Y-117454826D01*
X82190072Y-117550824D01*
X82185934Y-117558765D01*
X82178417Y-117561499D01*
X82072850Y-117561499D01*
X82064577Y-117558072D01*
X82061195Y-117550824D01*
X82052755Y-117454829D01*
X82027301Y-117382867D01*
X82027299Y-117382863D01*
X81989788Y-117323807D01*
X81944440Y-117256146D01*
X81944071Y-117255515D01*
X81900292Y-117168373D01*
X81899640Y-117159442D01*
X81905495Y-117152666D01*
X81906202Y-117152340D01*
X82121118Y-117062388D01*
X82130070Y-117062356D01*
X82345038Y-117152329D01*
G37*
G04 #@! TD.AperFunction*
G04 #@! TA.AperFunction,Conductor*
G36*
X82186230Y-129774872D02*
G01*
X82189644Y-129782609D01*
X82193791Y-129873220D01*
X82194920Y-129878957D01*
X82207807Y-129944409D01*
X82231239Y-130004141D01*
X82264151Y-130071569D01*
X82301668Y-130154870D01*
X82301941Y-130163821D01*
X82295805Y-130170343D01*
X82295517Y-130170468D01*
X82080151Y-130260608D01*
X82071197Y-130260641D01*
X82071117Y-130260608D01*
X81856774Y-130170896D01*
X81850465Y-130164540D01*
X81850498Y-130155586D01*
X81851078Y-130154395D01*
X81899741Y-130067662D01*
X81901229Y-130065586D01*
X81958440Y-130001983D01*
X82010402Y-129947630D01*
X82047789Y-129878958D01*
X82060779Y-129781597D01*
X82065270Y-129773850D01*
X82072376Y-129771445D01*
X82177957Y-129771445D01*
X82186230Y-129774872D01*
G37*
G04 #@! TD.AperFunction*
G04 #@! TA.AperFunction,Conductor*
G36*
X72325192Y-122719928D02*
G01*
X72358311Y-122747694D01*
X72399038Y-122781839D01*
X72443043Y-122802847D01*
X72467923Y-122814725D01*
X72536210Y-122829961D01*
X72616134Y-122845740D01*
X72616808Y-122845917D01*
X72709402Y-122876586D01*
X72716178Y-122882441D01*
X72716830Y-122891372D01*
X72716549Y-122892130D01*
X72628198Y-123107674D01*
X72621889Y-123114030D01*
X72621809Y-123114063D01*
X72406265Y-123202414D01*
X72397311Y-123202381D01*
X72391002Y-123196025D01*
X72390721Y-123195267D01*
X72360052Y-123102673D01*
X72359875Y-123101999D01*
X72344096Y-123022075D01*
X72328860Y-122953788D01*
X72295974Y-122884904D01*
X72295974Y-122884903D01*
X72261829Y-122844176D01*
X72234063Y-122811057D01*
X72231375Y-122802517D01*
X72234756Y-122795270D01*
X72309405Y-122720621D01*
X72317677Y-122717195D01*
X72325192Y-122719928D01*
G37*
G04 #@! TD.AperFunction*
G04 #@! TA.AperFunction,Conductor*
G36*
X67995038Y-117552329D02*
G01*
X68001346Y-117558684D01*
X68001313Y-117567638D01*
X68000975Y-117568373D01*
X67957195Y-117655515D01*
X67956826Y-117656146D01*
X67911479Y-117723807D01*
X67873967Y-117782863D01*
X67873964Y-117782869D01*
X67848511Y-117854826D01*
X67840072Y-117950824D01*
X67835934Y-117958765D01*
X67828417Y-117961499D01*
X67722850Y-117961499D01*
X67714577Y-117958072D01*
X67711195Y-117950824D01*
X67702755Y-117854829D01*
X67677301Y-117782867D01*
X67677299Y-117782863D01*
X67639788Y-117723807D01*
X67594440Y-117656146D01*
X67594071Y-117655515D01*
X67550292Y-117568373D01*
X67549640Y-117559442D01*
X67555495Y-117552666D01*
X67556202Y-117552340D01*
X67771118Y-117462388D01*
X67780070Y-117462356D01*
X67995038Y-117552329D01*
G37*
G04 #@! TD.AperFunction*
G04 #@! TA.AperFunction,Conductor*
G36*
X81577749Y-127226761D02*
G01*
X81581060Y-127233392D01*
X81594909Y-127331095D01*
X81594909Y-127331096D01*
X81594910Y-127331098D01*
X81632301Y-127395259D01*
X81634542Y-127399105D01*
X81689232Y-127452480D01*
X81748723Y-127515330D01*
X81750381Y-127517563D01*
X81800029Y-127604336D01*
X81801163Y-127613218D01*
X81795684Y-127620301D01*
X81794391Y-127620939D01*
X81580151Y-127710608D01*
X81571197Y-127710641D01*
X81571117Y-127710608D01*
X81355654Y-127620428D01*
X81349345Y-127614073D01*
X81349378Y-127605118D01*
X81349437Y-127604980D01*
X81385802Y-127522339D01*
X81416317Y-127455053D01*
X81416317Y-127455051D01*
X81416320Y-127455046D01*
X81425998Y-127427145D01*
X81437060Y-127395262D01*
X81448882Y-127324258D01*
X81452215Y-127234598D01*
X81455947Y-127226459D01*
X81463907Y-127223334D01*
X81569476Y-127223334D01*
X81577749Y-127226761D01*
G37*
G04 #@! TD.AperFunction*
G04 #@! TA.AperFunction,Conductor*
G36*
X80553956Y-113670616D02*
G01*
X80560265Y-113676972D01*
X80560546Y-113677730D01*
X80591210Y-113770312D01*
X80591393Y-113771007D01*
X80607171Y-113850921D01*
X80622407Y-113919209D01*
X80655292Y-113988093D01*
X80655294Y-113988096D01*
X80655295Y-113988097D01*
X80677405Y-114014468D01*
X80717203Y-114061939D01*
X80719892Y-114070480D01*
X80716510Y-114077728D01*
X80641863Y-114152375D01*
X80633590Y-114155802D01*
X80626074Y-114153068D01*
X80552228Y-114091157D01*
X80483344Y-114058272D01*
X80415056Y-114043036D01*
X80335142Y-114027258D01*
X80334447Y-114027075D01*
X80241865Y-113996411D01*
X80235089Y-113990556D01*
X80234437Y-113981625D01*
X80234711Y-113980883D01*
X80323070Y-113765321D01*
X80329377Y-113758967D01*
X80545003Y-113670583D01*
X80553956Y-113670616D01*
G37*
G04 #@! TD.AperFunction*
G04 #@! TA.AperFunction,Conductor*
G36*
X74825192Y-114869928D02*
G01*
X74858311Y-114897694D01*
X74899038Y-114931839D01*
X74943043Y-114952847D01*
X74967923Y-114964725D01*
X75036210Y-114979961D01*
X75116134Y-114995740D01*
X75116808Y-114995917D01*
X75209402Y-115026586D01*
X75216178Y-115032441D01*
X75216830Y-115041372D01*
X75216549Y-115042130D01*
X75128198Y-115257674D01*
X75121889Y-115264030D01*
X75121809Y-115264063D01*
X74906265Y-115352414D01*
X74897311Y-115352381D01*
X74891002Y-115346025D01*
X74890721Y-115345267D01*
X74860052Y-115252673D01*
X74859875Y-115251999D01*
X74844096Y-115172075D01*
X74828860Y-115103788D01*
X74795974Y-115034904D01*
X74795974Y-115034903D01*
X74761829Y-114994176D01*
X74734063Y-114961057D01*
X74731375Y-114952517D01*
X74734756Y-114945270D01*
X74809405Y-114870621D01*
X74817677Y-114867195D01*
X74825192Y-114869928D01*
G37*
G04 #@! TD.AperFunction*
G04 #@! TA.AperFunction,Conductor*
G36*
X82945038Y-122452329D02*
G01*
X82951346Y-122458684D01*
X82951313Y-122467638D01*
X82950975Y-122468373D01*
X82907195Y-122555515D01*
X82906826Y-122556146D01*
X82861479Y-122623807D01*
X82823967Y-122682863D01*
X82823964Y-122682869D01*
X82798511Y-122754826D01*
X82790072Y-122850824D01*
X82785934Y-122858765D01*
X82778417Y-122861499D01*
X82672850Y-122861499D01*
X82664577Y-122858072D01*
X82661195Y-122850824D01*
X82652755Y-122754829D01*
X82627301Y-122682867D01*
X82627299Y-122682863D01*
X82589788Y-122623807D01*
X82544440Y-122556146D01*
X82544071Y-122555515D01*
X82500292Y-122468373D01*
X82499640Y-122459442D01*
X82505495Y-122452666D01*
X82506202Y-122452340D01*
X82721118Y-122362388D01*
X82730070Y-122362356D01*
X82945038Y-122452329D01*
G37*
G04 #@! TD.AperFunction*
G04 #@! TA.AperFunction,Conductor*
G36*
X82541863Y-132320622D02*
G01*
X82616510Y-132395269D01*
X82619937Y-132403542D01*
X82617203Y-132411059D01*
X82555293Y-132484901D01*
X82555292Y-132484904D01*
X82522407Y-132553788D01*
X82507171Y-132622075D01*
X82491393Y-132701984D01*
X82491210Y-132702683D01*
X82460546Y-132795267D01*
X82454691Y-132802043D01*
X82445760Y-132802695D01*
X82445002Y-132802414D01*
X82229458Y-132714063D01*
X82223102Y-132707754D01*
X82223069Y-132707674D01*
X82221023Y-132702683D01*
X82134718Y-132492129D01*
X82134751Y-132483176D01*
X82141107Y-132476867D01*
X82141846Y-132476592D01*
X82234460Y-132445916D01*
X82235127Y-132445740D01*
X82315056Y-132429961D01*
X82383344Y-132414725D01*
X82452228Y-132381839D01*
X82526075Y-132319928D01*
X82534615Y-132317240D01*
X82541863Y-132320622D01*
G37*
G04 #@! TD.AperFunction*
G04 #@! TA.AperFunction,Conductor*
G36*
X79925192Y-118369928D02*
G01*
X79958311Y-118397694D01*
X79999038Y-118431839D01*
X80043043Y-118452847D01*
X80067923Y-118464725D01*
X80136210Y-118479961D01*
X80216134Y-118495740D01*
X80216808Y-118495917D01*
X80309402Y-118526586D01*
X80316178Y-118532441D01*
X80316830Y-118541372D01*
X80316549Y-118542130D01*
X80228198Y-118757674D01*
X80221889Y-118764030D01*
X80221809Y-118764063D01*
X80006265Y-118852414D01*
X79997311Y-118852381D01*
X79991002Y-118846025D01*
X79990721Y-118845267D01*
X79960052Y-118752673D01*
X79959875Y-118751999D01*
X79944096Y-118672075D01*
X79928860Y-118603788D01*
X79895974Y-118534904D01*
X79895974Y-118534903D01*
X79861829Y-118494176D01*
X79834063Y-118461057D01*
X79831375Y-118452517D01*
X79834756Y-118445270D01*
X79909405Y-118370621D01*
X79917677Y-118367195D01*
X79925192Y-118369928D01*
G37*
G04 #@! TD.AperFunction*
G04 #@! TA.AperFunction,Conductor*
G36*
X73172631Y-112631308D02*
G01*
X73178939Y-112637663D01*
X73178906Y-112646617D01*
X73178568Y-112647352D01*
X73134788Y-112734494D01*
X73134419Y-112735125D01*
X73089072Y-112802786D01*
X73051560Y-112861842D01*
X73051557Y-112861848D01*
X73026104Y-112933805D01*
X73017665Y-113029803D01*
X73013527Y-113037744D01*
X73006010Y-113040478D01*
X72900443Y-113040478D01*
X72892170Y-113037051D01*
X72888788Y-113029803D01*
X72880348Y-112933808D01*
X72854894Y-112861846D01*
X72854892Y-112861842D01*
X72817381Y-112802786D01*
X72772033Y-112735125D01*
X72771664Y-112734494D01*
X72727885Y-112647352D01*
X72727233Y-112638421D01*
X72733088Y-112631645D01*
X72733795Y-112631319D01*
X72948711Y-112541367D01*
X72957663Y-112541335D01*
X73172631Y-112631308D01*
G37*
G04 #@! TD.AperFunction*
G04 #@! TA.AperFunction,Conductor*
G36*
X76610618Y-115141943D02*
G01*
X76677073Y-115200414D01*
X76715610Y-115225195D01*
X76737000Y-115238951D01*
X76753655Y-115247876D01*
X76791825Y-115268332D01*
X76792192Y-115268548D01*
X76851202Y-115306496D01*
X76852589Y-115307543D01*
X76917238Y-115364425D01*
X76921185Y-115372462D01*
X76918293Y-115380937D01*
X76917782Y-115381481D01*
X76843590Y-115455673D01*
X76835317Y-115459100D01*
X76828813Y-115457125D01*
X76774232Y-115420619D01*
X76774231Y-115420619D01*
X76719334Y-115422978D01*
X76719330Y-115422979D01*
X76664183Y-115454252D01*
X76664175Y-115454257D01*
X76601085Y-115498985D01*
X76600498Y-115499350D01*
X76532713Y-115536257D01*
X76523808Y-115537203D01*
X76516842Y-115531576D01*
X76516315Y-115530475D01*
X76503215Y-115498985D01*
X76427946Y-115318051D01*
X76427934Y-115309097D01*
X76430507Y-115305256D01*
X76594650Y-115142420D01*
X76602936Y-115139027D01*
X76610618Y-115141943D01*
G37*
G04 #@! TD.AperFunction*
G04 #@! TA.AperFunction,Conductor*
G36*
X74934370Y-116041604D02*
G01*
X74935333Y-116043439D01*
X75024465Y-116257698D01*
X75024478Y-116266653D01*
X75024455Y-116266709D01*
X74934210Y-116482322D01*
X74927854Y-116488631D01*
X74919574Y-116488856D01*
X74814150Y-116452193D01*
X74814145Y-116452192D01*
X74726647Y-116430581D01*
X74653991Y-116409225D01*
X74651716Y-116408287D01*
X74579072Y-116368925D01*
X74576999Y-116367493D01*
X74496985Y-116298390D01*
X74492963Y-116290389D01*
X74495777Y-116281888D01*
X74496345Y-116281276D01*
X74570855Y-116206766D01*
X74579127Y-116203340D01*
X74585064Y-116204958D01*
X74604189Y-116216220D01*
X74649727Y-116243036D01*
X74709121Y-116221942D01*
X74767551Y-116162528D01*
X74836185Y-116091219D01*
X74838277Y-116089500D01*
X74918203Y-116038092D01*
X74927013Y-116036499D01*
X74934370Y-116041604D01*
G37*
G04 #@! TD.AperFunction*
G04 #@! TA.AperFunction,Conductor*
G36*
X70731773Y-113035819D02*
G01*
X70732502Y-113036154D01*
X70819650Y-113079936D01*
X70820281Y-113080305D01*
X70887942Y-113125653D01*
X70946998Y-113163164D01*
X70947004Y-113163167D01*
X71018961Y-113188619D01*
X71018964Y-113188620D01*
X71114959Y-113197060D01*
X71122900Y-113201198D01*
X71125634Y-113208715D01*
X71125634Y-113314282D01*
X71122207Y-113322555D01*
X71114959Y-113325937D01*
X71018961Y-113334376D01*
X70947004Y-113359829D01*
X70946998Y-113359832D01*
X70887942Y-113397344D01*
X70820281Y-113442691D01*
X70819650Y-113443060D01*
X70732508Y-113486840D01*
X70723577Y-113487492D01*
X70716801Y-113481637D01*
X70716470Y-113480919D01*
X70626523Y-113266014D01*
X70626491Y-113257062D01*
X70716464Y-113042093D01*
X70722818Y-113035786D01*
X70731773Y-113035819D01*
G37*
G04 #@! TD.AperFunction*
G04 #@! TA.AperFunction,Conductor*
G36*
X84286690Y-133214926D02*
G01*
X84290072Y-133222174D01*
X84298511Y-133318170D01*
X84323964Y-133390126D01*
X84323967Y-133390132D01*
X84361479Y-133449189D01*
X84406826Y-133516849D01*
X84407195Y-133517480D01*
X84450975Y-133604624D01*
X84451627Y-133613555D01*
X84445772Y-133620331D01*
X84445037Y-133620669D01*
X84230151Y-133710608D01*
X84221197Y-133710641D01*
X84221117Y-133710608D01*
X84006230Y-133620669D01*
X83999921Y-133614314D01*
X83999954Y-133605359D01*
X84000285Y-133604638D01*
X84044076Y-133517471D01*
X84044440Y-133516849D01*
X84056683Y-133498580D01*
X84089788Y-133449189D01*
X84127301Y-133390129D01*
X84152755Y-133318168D01*
X84161195Y-133222173D01*
X84165333Y-133214233D01*
X84172850Y-133211499D01*
X84278417Y-133211499D01*
X84286690Y-133214926D01*
G37*
G04 #@! TD.AperFunction*
G04 #@! TA.AperFunction,Conductor*
G36*
X83753956Y-117970616D02*
G01*
X83760265Y-117976972D01*
X83760546Y-117977730D01*
X83791210Y-118070312D01*
X83791393Y-118071007D01*
X83807171Y-118150921D01*
X83822407Y-118219209D01*
X83855292Y-118288093D01*
X83855294Y-118288096D01*
X83855295Y-118288097D01*
X83877405Y-118314468D01*
X83917203Y-118361939D01*
X83919892Y-118370480D01*
X83916510Y-118377728D01*
X83841863Y-118452375D01*
X83833590Y-118455802D01*
X83826074Y-118453068D01*
X83752228Y-118391157D01*
X83683344Y-118358272D01*
X83615056Y-118343036D01*
X83535142Y-118327258D01*
X83534447Y-118327075D01*
X83441865Y-118296411D01*
X83435089Y-118290556D01*
X83434437Y-118281625D01*
X83434711Y-118280883D01*
X83523070Y-118065321D01*
X83529377Y-118058967D01*
X83745003Y-117970583D01*
X83753956Y-117970616D01*
G37*
G04 #@! TD.AperFunction*
G04 #@! TA.AperFunction,Conductor*
G36*
X70853956Y-114070616D02*
G01*
X70860265Y-114076972D01*
X70860546Y-114077730D01*
X70891210Y-114170312D01*
X70891393Y-114171007D01*
X70907171Y-114250921D01*
X70922407Y-114319209D01*
X70955292Y-114388093D01*
X70955294Y-114388096D01*
X70955295Y-114388097D01*
X70977405Y-114414468D01*
X71017203Y-114461939D01*
X71019892Y-114470480D01*
X71016510Y-114477728D01*
X70941863Y-114552375D01*
X70933590Y-114555802D01*
X70926074Y-114553068D01*
X70852228Y-114491157D01*
X70783344Y-114458272D01*
X70715056Y-114443036D01*
X70635142Y-114427258D01*
X70634447Y-114427075D01*
X70541865Y-114396411D01*
X70535089Y-114390556D01*
X70534437Y-114381625D01*
X70534711Y-114380883D01*
X70623070Y-114165321D01*
X70629377Y-114158967D01*
X70845003Y-114070583D01*
X70853956Y-114070616D01*
G37*
G04 #@! TD.AperFunction*
G04 #@! TA.AperFunction,Conductor*
G36*
X72984466Y-115191360D02*
G01*
X72984804Y-115192095D01*
X73074743Y-115406982D01*
X73074776Y-115415937D01*
X73074743Y-115416016D01*
X72984804Y-115630902D01*
X72978448Y-115637211D01*
X72969494Y-115637178D01*
X72968759Y-115636840D01*
X72881615Y-115593060D01*
X72880984Y-115592691D01*
X72813324Y-115547344D01*
X72754267Y-115509832D01*
X72754261Y-115509829D01*
X72682305Y-115484376D01*
X72586309Y-115475937D01*
X72578368Y-115471799D01*
X72575634Y-115464282D01*
X72575634Y-115358715D01*
X72579061Y-115350442D01*
X72586307Y-115347060D01*
X72682303Y-115338620D01*
X72754264Y-115313166D01*
X72813324Y-115275653D01*
X72880984Y-115230305D01*
X72881606Y-115229941D01*
X72968760Y-115186156D01*
X72977690Y-115185505D01*
X72984466Y-115191360D01*
G37*
G04 #@! TD.AperFunction*
G04 #@! TA.AperFunction,Conductor*
G36*
X75153956Y-126270616D02*
G01*
X75160265Y-126276972D01*
X75160546Y-126277730D01*
X75191210Y-126370312D01*
X75191393Y-126371007D01*
X75207171Y-126450921D01*
X75222407Y-126519209D01*
X75255292Y-126588093D01*
X75255294Y-126588096D01*
X75255295Y-126588097D01*
X75277405Y-126614468D01*
X75317203Y-126661939D01*
X75319892Y-126670480D01*
X75316510Y-126677728D01*
X75241863Y-126752375D01*
X75233590Y-126755802D01*
X75226074Y-126753068D01*
X75152228Y-126691157D01*
X75083344Y-126658272D01*
X75015056Y-126643036D01*
X74935142Y-126627258D01*
X74934447Y-126627075D01*
X74841865Y-126596411D01*
X74835089Y-126590556D01*
X74834437Y-126581625D01*
X74834711Y-126580883D01*
X74923070Y-126365321D01*
X74929377Y-126358967D01*
X75145003Y-126270583D01*
X75153956Y-126270616D01*
G37*
G04 #@! TD.AperFunction*
G04 #@! TA.AperFunction,Conductor*
G36*
X80134466Y-128491360D02*
G01*
X80134804Y-128492095D01*
X80224743Y-128706982D01*
X80224776Y-128715937D01*
X80224743Y-128716016D01*
X80134804Y-128930902D01*
X80128448Y-128937211D01*
X80119494Y-128937178D01*
X80118759Y-128936840D01*
X80031615Y-128893060D01*
X80030984Y-128892691D01*
X79963324Y-128847344D01*
X79904267Y-128809832D01*
X79904261Y-128809829D01*
X79832305Y-128784376D01*
X79736309Y-128775937D01*
X79728368Y-128771799D01*
X79725634Y-128764282D01*
X79725634Y-128658715D01*
X79729061Y-128650442D01*
X79736307Y-128647060D01*
X79832303Y-128638620D01*
X79904264Y-128613166D01*
X79963324Y-128575653D01*
X80030984Y-128530305D01*
X80031606Y-128529941D01*
X80118760Y-128486156D01*
X80127690Y-128485505D01*
X80134466Y-128491360D01*
G37*
G04 #@! TD.AperFunction*
G04 #@! TA.AperFunction,Conductor*
G36*
X74786690Y-112564926D02*
G01*
X74790072Y-112572174D01*
X74798511Y-112668170D01*
X74823964Y-112740126D01*
X74823967Y-112740132D01*
X74861479Y-112799189D01*
X74906826Y-112866849D01*
X74907195Y-112867480D01*
X74950975Y-112954624D01*
X74951627Y-112963555D01*
X74945772Y-112970331D01*
X74945037Y-112970669D01*
X74730151Y-113060608D01*
X74721197Y-113060641D01*
X74721117Y-113060608D01*
X74506230Y-112970669D01*
X74499921Y-112964314D01*
X74499954Y-112955359D01*
X74500285Y-112954638D01*
X74544076Y-112867471D01*
X74544440Y-112866849D01*
X74556683Y-112848580D01*
X74589788Y-112799189D01*
X74627301Y-112740129D01*
X74652755Y-112668168D01*
X74661195Y-112572173D01*
X74665333Y-112564233D01*
X74672850Y-112561499D01*
X74778417Y-112561499D01*
X74786690Y-112564926D01*
G37*
G04 #@! TD.AperFunction*
G04 #@! TA.AperFunction,Conductor*
G36*
X76234756Y-110470580D02*
G01*
X76450306Y-110558934D01*
X76456662Y-110565243D01*
X76456695Y-110565323D01*
X76545046Y-110780867D01*
X76545013Y-110789821D01*
X76538657Y-110796130D01*
X76537899Y-110796411D01*
X76445315Y-110827075D01*
X76444616Y-110827258D01*
X76364707Y-110843036D01*
X76296423Y-110858271D01*
X76296421Y-110858271D01*
X76296420Y-110858272D01*
X76272995Y-110869455D01*
X76227533Y-110891158D01*
X76153691Y-110953068D01*
X76145149Y-110955757D01*
X76137901Y-110952375D01*
X76063254Y-110877728D01*
X76059827Y-110869455D01*
X76062559Y-110861941D01*
X76124471Y-110788093D01*
X76157357Y-110719209D01*
X76172593Y-110650921D01*
X76188372Y-110570992D01*
X76188548Y-110570325D01*
X76219219Y-110477728D01*
X76225073Y-110470954D01*
X76234004Y-110470302D01*
X76234756Y-110470580D01*
G37*
G04 #@! TD.AperFunction*
G04 #@! TA.AperFunction,Conductor*
G36*
X79850947Y-132734274D02*
G01*
X79925607Y-132808934D01*
X79929034Y-132817207D01*
X79926201Y-132824840D01*
X79864585Y-132896418D01*
X79864584Y-132896419D01*
X79829243Y-132962529D01*
X79810580Y-133027797D01*
X79791991Y-133104787D01*
X79791833Y-133105327D01*
X79760649Y-133195476D01*
X79754706Y-133202174D01*
X79745767Y-133202708D01*
X79745155Y-133202477D01*
X79529458Y-133114063D01*
X79523102Y-133107754D01*
X79523069Y-133107674D01*
X79521998Y-133105062D01*
X79436476Y-132896418D01*
X79434791Y-132892307D01*
X79434824Y-132883353D01*
X79441180Y-132877044D01*
X79442095Y-132876713D01*
X79535380Y-132847373D01*
X79537154Y-132846965D01*
X79618639Y-132834873D01*
X79689234Y-132823989D01*
X79760146Y-132794587D01*
X79835295Y-132733469D01*
X79843872Y-132730909D01*
X79850947Y-132734274D01*
G37*
G04 #@! TD.AperFunction*
G04 #@! TA.AperFunction,Conductor*
G36*
X81295038Y-116402329D02*
G01*
X81301346Y-116408684D01*
X81301313Y-116417638D01*
X81300975Y-116418373D01*
X81257195Y-116505515D01*
X81256826Y-116506146D01*
X81211479Y-116573807D01*
X81173967Y-116632863D01*
X81173964Y-116632869D01*
X81148511Y-116704826D01*
X81140072Y-116800824D01*
X81135934Y-116808765D01*
X81128417Y-116811499D01*
X81022850Y-116811499D01*
X81014577Y-116808072D01*
X81011195Y-116800824D01*
X81002755Y-116704829D01*
X80977301Y-116632867D01*
X80977299Y-116632863D01*
X80939788Y-116573807D01*
X80894440Y-116506146D01*
X80894071Y-116505515D01*
X80850292Y-116418373D01*
X80849640Y-116409442D01*
X80855495Y-116402666D01*
X80856202Y-116402340D01*
X81071118Y-116312388D01*
X81080070Y-116312356D01*
X81295038Y-116402329D01*
G37*
G04 #@! TD.AperFunction*
G04 #@! TA.AperFunction,Conductor*
G36*
X80091863Y-131870622D02*
G01*
X80166510Y-131945269D01*
X80169937Y-131953542D01*
X80167203Y-131961059D01*
X80105293Y-132034901D01*
X80105292Y-132034904D01*
X80072407Y-132103788D01*
X80057171Y-132172075D01*
X80041393Y-132251984D01*
X80041210Y-132252683D01*
X80010546Y-132345267D01*
X80004691Y-132352043D01*
X79995760Y-132352695D01*
X79995002Y-132352414D01*
X79779458Y-132264063D01*
X79773102Y-132257754D01*
X79773069Y-132257674D01*
X79771023Y-132252683D01*
X79684718Y-132042129D01*
X79684751Y-132033176D01*
X79691107Y-132026867D01*
X79691846Y-132026592D01*
X79784460Y-131995916D01*
X79785127Y-131995740D01*
X79865056Y-131979961D01*
X79933344Y-131964725D01*
X80002228Y-131931839D01*
X80076075Y-131869928D01*
X80084615Y-131867240D01*
X80091863Y-131870622D01*
G37*
G04 #@! TD.AperFunction*
G04 #@! TA.AperFunction,Conductor*
G36*
X76747715Y-112717502D02*
G01*
X76754024Y-112723858D01*
X76754413Y-112724962D01*
X76782487Y-112819424D01*
X76782916Y-112821610D01*
X76791144Y-112905113D01*
X76797348Y-112978082D01*
X76797350Y-112978092D01*
X76823033Y-113051112D01*
X76883373Y-113127704D01*
X76885800Y-113136323D01*
X76882455Y-113143217D01*
X76807793Y-113217879D01*
X76799520Y-113221306D01*
X76791759Y-113218362D01*
X76722548Y-113157017D01*
X76722546Y-113157015D01*
X76659415Y-113119066D01*
X76659412Y-113119064D01*
X76597410Y-113096794D01*
X76523557Y-113075239D01*
X76523203Y-113075123D01*
X76435552Y-113043359D01*
X76428941Y-113037318D01*
X76428538Y-113028373D01*
X76428697Y-113027958D01*
X76517195Y-112812057D01*
X76523502Y-112805703D01*
X76738762Y-112717469D01*
X76747715Y-112717502D01*
G37*
G04 #@! TD.AperFunction*
G04 #@! TA.AperFunction,Conductor*
G36*
X75945038Y-113152329D02*
G01*
X75951346Y-113158684D01*
X75951313Y-113167638D01*
X75950975Y-113168373D01*
X75907195Y-113255515D01*
X75906826Y-113256146D01*
X75861479Y-113323807D01*
X75823967Y-113382863D01*
X75823964Y-113382869D01*
X75798511Y-113454826D01*
X75790072Y-113550824D01*
X75785934Y-113558765D01*
X75778417Y-113561499D01*
X75672850Y-113561499D01*
X75664577Y-113558072D01*
X75661195Y-113550824D01*
X75652755Y-113454829D01*
X75627301Y-113382867D01*
X75627299Y-113382863D01*
X75589788Y-113323807D01*
X75544440Y-113256146D01*
X75544071Y-113255515D01*
X75500292Y-113168373D01*
X75499640Y-113159442D01*
X75505495Y-113152666D01*
X75506202Y-113152340D01*
X75721118Y-113062388D01*
X75730070Y-113062356D01*
X75945038Y-113152329D01*
G37*
G04 #@! TD.AperFunction*
G04 #@! TA.AperFunction,Conductor*
G36*
X75831773Y-126235819D02*
G01*
X75832502Y-126236154D01*
X75919650Y-126279936D01*
X75920281Y-126280305D01*
X75987942Y-126325653D01*
X76046998Y-126363164D01*
X76047004Y-126363167D01*
X76118961Y-126388619D01*
X76118964Y-126388620D01*
X76214959Y-126397060D01*
X76222900Y-126401198D01*
X76225634Y-126408715D01*
X76225634Y-126514282D01*
X76222207Y-126522555D01*
X76214959Y-126525937D01*
X76118961Y-126534376D01*
X76047004Y-126559829D01*
X76046998Y-126559832D01*
X75987942Y-126597344D01*
X75920281Y-126642691D01*
X75919650Y-126643060D01*
X75832508Y-126686840D01*
X75823577Y-126687492D01*
X75816801Y-126681637D01*
X75816470Y-126680919D01*
X75726523Y-126466014D01*
X75726491Y-126457062D01*
X75816464Y-126242093D01*
X75822818Y-126235786D01*
X75831773Y-126235819D01*
G37*
G04 #@! TD.AperFunction*
G04 #@! TA.AperFunction,Conductor*
G36*
X76525192Y-125619928D02*
G01*
X76558311Y-125647694D01*
X76599038Y-125681839D01*
X76643043Y-125702847D01*
X76667923Y-125714725D01*
X76736210Y-125729961D01*
X76816134Y-125745740D01*
X76816808Y-125745917D01*
X76909402Y-125776586D01*
X76916178Y-125782441D01*
X76916830Y-125791372D01*
X76916549Y-125792130D01*
X76828198Y-126007674D01*
X76821889Y-126014030D01*
X76821809Y-126014063D01*
X76606265Y-126102414D01*
X76597311Y-126102381D01*
X76591002Y-126096025D01*
X76590721Y-126095267D01*
X76560052Y-126002673D01*
X76559875Y-126001999D01*
X76544096Y-125922075D01*
X76528860Y-125853788D01*
X76495974Y-125784904D01*
X76495974Y-125784903D01*
X76461829Y-125744176D01*
X76434063Y-125711057D01*
X76431375Y-125702517D01*
X76434756Y-125695270D01*
X76509405Y-125620621D01*
X76517677Y-125617195D01*
X76525192Y-125619928D01*
G37*
G04 #@! TD.AperFunction*
G04 #@! TA.AperFunction,Conductor*
G36*
X71195038Y-115302329D02*
G01*
X71201346Y-115308684D01*
X71201313Y-115317638D01*
X71200975Y-115318373D01*
X71157195Y-115405515D01*
X71156826Y-115406146D01*
X71111479Y-115473807D01*
X71073967Y-115532863D01*
X71073964Y-115532869D01*
X71048511Y-115604826D01*
X71040072Y-115700824D01*
X71035934Y-115708765D01*
X71028417Y-115711499D01*
X70922850Y-115711499D01*
X70914577Y-115708072D01*
X70911195Y-115700824D01*
X70902755Y-115604829D01*
X70877301Y-115532867D01*
X70877299Y-115532863D01*
X70839788Y-115473807D01*
X70794440Y-115406146D01*
X70794071Y-115405515D01*
X70750292Y-115318373D01*
X70749640Y-115309442D01*
X70755495Y-115302666D01*
X70756202Y-115302340D01*
X70971118Y-115212388D01*
X70980070Y-115212356D01*
X71195038Y-115302329D01*
G37*
G04 #@! TD.AperFunction*
G04 #@! TA.AperFunction,Conductor*
G36*
X80234466Y-113541360D02*
G01*
X80234804Y-113542095D01*
X80324743Y-113756982D01*
X80324776Y-113765937D01*
X80324743Y-113766016D01*
X80234804Y-113980902D01*
X80228448Y-113987211D01*
X80219494Y-113987178D01*
X80218759Y-113986840D01*
X80131615Y-113943060D01*
X80130984Y-113942691D01*
X80063324Y-113897344D01*
X80004267Y-113859832D01*
X80004261Y-113859829D01*
X79932305Y-113834376D01*
X79836309Y-113825937D01*
X79828368Y-113821799D01*
X79825634Y-113814282D01*
X79825634Y-113708715D01*
X79829061Y-113700442D01*
X79836307Y-113697060D01*
X79932303Y-113688620D01*
X80004264Y-113663166D01*
X80063324Y-113625653D01*
X80130984Y-113580305D01*
X80131606Y-113579941D01*
X80218760Y-113536156D01*
X80227690Y-113535505D01*
X80234466Y-113541360D01*
G37*
G04 #@! TD.AperFunction*
G04 #@! TA.AperFunction,Conductor*
G36*
X76682453Y-110470616D02*
G01*
X76688762Y-110476972D01*
X76689043Y-110477730D01*
X76719707Y-110570312D01*
X76719890Y-110571007D01*
X76735668Y-110650921D01*
X76750904Y-110719209D01*
X76783789Y-110788093D01*
X76783791Y-110788096D01*
X76783792Y-110788097D01*
X76805902Y-110814468D01*
X76845700Y-110861939D01*
X76848389Y-110870480D01*
X76845007Y-110877728D01*
X76770360Y-110952375D01*
X76762087Y-110955802D01*
X76754571Y-110953068D01*
X76680725Y-110891157D01*
X76611841Y-110858272D01*
X76543553Y-110843036D01*
X76463639Y-110827258D01*
X76462944Y-110827075D01*
X76370362Y-110796411D01*
X76363586Y-110790556D01*
X76362934Y-110781625D01*
X76363208Y-110780883D01*
X76451567Y-110565321D01*
X76457874Y-110558967D01*
X76673500Y-110470583D01*
X76682453Y-110470616D01*
G37*
G04 #@! TD.AperFunction*
G04 #@! TA.AperFunction,Conductor*
G36*
X79231929Y-112285447D02*
G01*
X79232269Y-112285596D01*
X79318212Y-112325316D01*
X79318480Y-112325449D01*
X79387241Y-112361761D01*
X79448050Y-112388818D01*
X79520829Y-112405685D01*
X79614584Y-112410886D01*
X79622653Y-112414765D01*
X79625634Y-112422567D01*
X79625634Y-112600430D01*
X79622207Y-112608703D01*
X79614582Y-112612112D01*
X79520828Y-112617312D01*
X79448050Y-112634178D01*
X79387241Y-112661236D01*
X79318487Y-112697543D01*
X79318209Y-112697681D01*
X79232321Y-112737377D01*
X79223373Y-112737737D01*
X79216791Y-112731665D01*
X79216619Y-112731273D01*
X79202534Y-112697620D01*
X79126523Y-112516014D01*
X79126491Y-112507062D01*
X79216620Y-112291721D01*
X79222975Y-112285414D01*
X79231929Y-112285447D01*
G37*
G04 #@! TD.AperFunction*
G04 #@! TA.AperFunction,Conductor*
G36*
X83873990Y-112449201D02*
G01*
X83979454Y-112538854D01*
X84074243Y-112586922D01*
X84168010Y-112610903D01*
X84278319Y-112635212D01*
X84278932Y-112635384D01*
X84412168Y-112680540D01*
X84418903Y-112686441D01*
X84419493Y-112695377D01*
X84419233Y-112696070D01*
X84292597Y-113004090D01*
X84286282Y-113010439D01*
X84286225Y-113010462D01*
X83978205Y-113137098D01*
X83969250Y-113137075D01*
X83962935Y-113130726D01*
X83962675Y-113130033D01*
X83917519Y-112996797D01*
X83917346Y-112996178D01*
X83893038Y-112885875D01*
X83869057Y-112792108D01*
X83820989Y-112697319D01*
X83731336Y-112591855D01*
X83728589Y-112583334D01*
X83731977Y-112576007D01*
X83858142Y-112449842D01*
X83866414Y-112446416D01*
X83873990Y-112449201D01*
G37*
G04 #@! TD.AperFunction*
G04 #@! TA.AperFunction,Conductor*
G36*
X76401054Y-134714126D02*
G01*
X76404419Y-134721197D01*
X76418917Y-134861535D01*
X76460478Y-134961621D01*
X76460480Y-134961625D01*
X76520236Y-135042901D01*
X76589849Y-135136557D01*
X76590831Y-135138123D01*
X76657292Y-135265457D01*
X76658082Y-135274377D01*
X76652334Y-135281243D01*
X76651426Y-135281669D01*
X76344340Y-135409818D01*
X76335385Y-135409841D01*
X76335328Y-135409818D01*
X76028241Y-135281669D01*
X76021926Y-135275320D01*
X76021949Y-135266365D01*
X76022375Y-135265457D01*
X76088840Y-135138113D01*
X76089811Y-135136565D01*
X76159430Y-135042901D01*
X76219187Y-134961625D01*
X76260749Y-134861536D01*
X76275249Y-134721196D01*
X76279508Y-134713319D01*
X76286887Y-134710699D01*
X76392781Y-134710699D01*
X76401054Y-134714126D01*
G37*
G04 #@! TD.AperFunction*
G04 #@! TA.AperFunction,Conductor*
G36*
X80128203Y-128484934D02*
G01*
X80134424Y-128491187D01*
X80224455Y-128706288D01*
X80224488Y-128715242D01*
X80224465Y-128715299D01*
X80135115Y-128930084D01*
X80128773Y-128936406D01*
X80119818Y-128936393D01*
X80118392Y-128935682D01*
X80046320Y-128893408D01*
X80044698Y-128892260D01*
X79979568Y-128837340D01*
X79979568Y-128837341D01*
X79922922Y-128795031D01*
X79903990Y-128791755D01*
X79866129Y-128785204D01*
X79866128Y-128785204D01*
X79866127Y-128785204D01*
X79807733Y-128822111D01*
X79798909Y-128823634D01*
X79793209Y-128820494D01*
X79718498Y-128745783D01*
X79715071Y-128737510D01*
X79718498Y-128729237D01*
X79718700Y-128729040D01*
X79798509Y-128652992D01*
X79798896Y-128652658D01*
X79866846Y-128599406D01*
X79868301Y-128598435D01*
X79933768Y-128561632D01*
X79934327Y-128561358D01*
X80015682Y-128526693D01*
X80119251Y-128484856D01*
X80128203Y-128484934D01*
G37*
G04 #@! TD.AperFunction*
G04 #@! TA.AperFunction,Conductor*
G36*
X75650433Y-136024882D02*
G01*
X75725176Y-136099625D01*
X75728603Y-136107898D01*
X75725681Y-136115633D01*
X75655603Y-136195165D01*
X75655601Y-136195167D01*
X75619115Y-136251614D01*
X75610111Y-136265546D01*
X75610108Y-136265551D01*
X75610107Y-136265551D01*
X75575349Y-136329919D01*
X75575114Y-136330315D01*
X75530227Y-136399761D01*
X75529180Y-136401145D01*
X75460617Y-136478962D01*
X75452576Y-136482904D01*
X75444103Y-136480006D01*
X75443598Y-136479533D01*
X75293181Y-136330315D01*
X75278399Y-136315650D01*
X75274940Y-136307394D01*
X75275598Y-136074168D01*
X75279048Y-136065906D01*
X75287331Y-136062502D01*
X75288240Y-136062541D01*
X75372054Y-136069469D01*
X75372649Y-136069550D01*
X75447255Y-136083729D01*
X75480236Y-136086775D01*
X75510543Y-136089576D01*
X75510543Y-136089575D01*
X75510545Y-136089576D01*
X75572436Y-136072405D01*
X75634991Y-136023907D01*
X75643629Y-136021548D01*
X75650433Y-136024882D01*
G37*
G04 #@! TD.AperFunction*
G04 #@! TA.AperFunction,Conductor*
G36*
X76028262Y-135281605D02*
G01*
X76336025Y-135408135D01*
X76342374Y-135414450D01*
X76342397Y-135414507D01*
X76468925Y-135722266D01*
X76468902Y-135731221D01*
X76462553Y-135737536D01*
X76461610Y-135737877D01*
X76324575Y-135780919D01*
X76322774Y-135781332D01*
X76207325Y-135798334D01*
X76107600Y-135813550D01*
X76007438Y-135854934D01*
X75897950Y-135943918D01*
X75889369Y-135946476D01*
X75882298Y-135943111D01*
X75807421Y-135868234D01*
X75803994Y-135859961D01*
X75806613Y-135852584D01*
X75895596Y-135743094D01*
X75936981Y-135642931D01*
X75952197Y-135543206D01*
X75969198Y-135427753D01*
X75969611Y-135425956D01*
X76012656Y-135288920D01*
X76018403Y-135282056D01*
X76027323Y-135281266D01*
X76028262Y-135281605D01*
G37*
G04 #@! TD.AperFunction*
G04 #@! TA.AperFunction,Conductor*
G36*
X76675506Y-135410670D02*
G01*
X76683772Y-135414114D01*
X76687182Y-135422394D01*
X76686941Y-135424732D01*
X76659728Y-135556754D01*
X76658411Y-135560226D01*
X76594143Y-135671957D01*
X76594005Y-135672185D01*
X76533283Y-135767432D01*
X76533282Y-135767436D01*
X76516244Y-135860930D01*
X76516245Y-135860931D01*
X76516245Y-135860932D01*
X76553632Y-135922091D01*
X76577425Y-135961012D01*
X76578816Y-135969858D01*
X76575715Y-135975387D01*
X76449540Y-136101562D01*
X76441267Y-136104989D01*
X76432994Y-136101562D01*
X76432560Y-136101104D01*
X76346695Y-136005432D01*
X76346235Y-136004848D01*
X76289201Y-135922254D01*
X76288986Y-135921920D01*
X76244070Y-135846397D01*
X76244070Y-135846396D01*
X76189545Y-135767436D01*
X76186708Y-135763327D01*
X76099728Y-135666410D01*
X76096753Y-135657966D01*
X76100137Y-135650350D01*
X76335687Y-135413450D01*
X76343947Y-135410001D01*
X76675506Y-135410670D01*
G37*
G04 #@! TD.AperFunction*
G04 #@! TA.AperFunction,Conductor*
G36*
X78031990Y-137417401D02*
G01*
X78137454Y-137507054D01*
X78232243Y-137555122D01*
X78326010Y-137579103D01*
X78436319Y-137603412D01*
X78436932Y-137603584D01*
X78570168Y-137648740D01*
X78576903Y-137654641D01*
X78577493Y-137663577D01*
X78577233Y-137664270D01*
X78450597Y-137972290D01*
X78444282Y-137978639D01*
X78444225Y-137978662D01*
X78136205Y-138105298D01*
X78127250Y-138105275D01*
X78120935Y-138098926D01*
X78120675Y-138098233D01*
X78075519Y-137964997D01*
X78075346Y-137964378D01*
X78051038Y-137854075D01*
X78027057Y-137760308D01*
X77978989Y-137665519D01*
X77889336Y-137560055D01*
X77886589Y-137551534D01*
X77889977Y-137544207D01*
X78016142Y-137418042D01*
X78024414Y-137414616D01*
X78031990Y-137417401D01*
G37*
G04 #@! TD.AperFunction*
G04 #@! TA.AperFunction,Conductor*
G36*
X78318588Y-137663570D02*
G01*
X78318895Y-137664244D01*
X78447153Y-137971593D01*
X78447176Y-137980548D01*
X78447153Y-137980605D01*
X78318895Y-138287953D01*
X78312546Y-138294268D01*
X78303591Y-138294245D01*
X78302917Y-138293938D01*
X78290795Y-138287953D01*
X78176773Y-138231655D01*
X78176218Y-138231342D01*
X78081032Y-138170533D01*
X77997776Y-138121187D01*
X77997769Y-138121185D01*
X77896759Y-138088150D01*
X77896761Y-138088150D01*
X77758789Y-138076970D01*
X77750820Y-138072886D01*
X77748034Y-138065308D01*
X77748034Y-137886889D01*
X77751461Y-137878616D01*
X77758787Y-137875227D01*
X77896756Y-137864047D01*
X77896758Y-137864046D01*
X77896760Y-137864046D01*
X77920904Y-137856149D01*
X77997772Y-137831010D01*
X77997774Y-137831008D01*
X77997776Y-137831008D01*
X78081032Y-137781663D01*
X78176233Y-137720845D01*
X78176759Y-137720548D01*
X78302919Y-137658258D01*
X78311853Y-137657669D01*
X78318588Y-137663570D01*
G37*
G04 #@! TD.AperFunction*
G04 #@! TA.AperFunction,Conductor*
G36*
X70386818Y-137008722D02*
G01*
X70393133Y-137015071D01*
X70393393Y-137015765D01*
X70438547Y-137148996D01*
X70438718Y-137149610D01*
X70463028Y-137259921D01*
X70487009Y-137353688D01*
X70535077Y-137448477D01*
X70587815Y-137510516D01*
X70624730Y-137553940D01*
X70627478Y-137562463D01*
X70624089Y-137569791D01*
X70497926Y-137695954D01*
X70489653Y-137699381D01*
X70482075Y-137696595D01*
X70376614Y-137606944D01*
X70376612Y-137606942D01*
X70281823Y-137558874D01*
X70188056Y-137534893D01*
X70077745Y-137510583D01*
X70077131Y-137510412D01*
X69943900Y-137465258D01*
X69937164Y-137459357D01*
X69936574Y-137450422D01*
X69936824Y-137449752D01*
X70063471Y-137141705D01*
X70069782Y-137135360D01*
X70377865Y-137008699D01*
X70386818Y-137008722D01*
G37*
G04 #@! TD.AperFunction*
G04 #@! TA.AperFunction,Conductor*
G36*
X71532180Y-133046289D02*
G01*
X71840225Y-133172935D01*
X71846574Y-133179250D01*
X71846597Y-133179307D01*
X71973233Y-133487328D01*
X71973210Y-133496283D01*
X71966861Y-133502598D01*
X71966167Y-133502858D01*
X71832935Y-133548011D01*
X71832316Y-133548184D01*
X71722010Y-133572493D01*
X71628242Y-133596474D01*
X71533455Y-133644541D01*
X71533451Y-133644544D01*
X71427992Y-133734195D01*
X71419469Y-133736943D01*
X71412141Y-133733554D01*
X71285978Y-133607391D01*
X71282551Y-133599118D01*
X71285336Y-133591542D01*
X71374989Y-133486077D01*
X71423057Y-133391288D01*
X71447038Y-133297521D01*
X71471348Y-133187208D01*
X71471519Y-133186599D01*
X71516675Y-133053364D01*
X71522576Y-133046629D01*
X71531512Y-133046039D01*
X71532180Y-133046289D01*
G37*
G04 #@! TD.AperFunction*
G04 #@! TA.AperFunction,Conductor*
G36*
X70163517Y-136441326D02*
G01*
X70166905Y-136448652D01*
X70173783Y-136533539D01*
X70178085Y-136586625D01*
X70211120Y-136687634D01*
X70211122Y-136687641D01*
X70260468Y-136770897D01*
X70321277Y-136866083D01*
X70321593Y-136866643D01*
X70383873Y-136992782D01*
X70384463Y-137001718D01*
X70378562Y-137008453D01*
X70377888Y-137008760D01*
X70070540Y-137137018D01*
X70061585Y-137137041D01*
X70061528Y-137137018D01*
X69754179Y-137008760D01*
X69747864Y-137002411D01*
X69747887Y-136993456D01*
X69748182Y-136992807D01*
X69810483Y-136866624D01*
X69810780Y-136866098D01*
X69871598Y-136770897D01*
X69920945Y-136687637D01*
X69953982Y-136586621D01*
X69965162Y-136448652D01*
X69969246Y-136440685D01*
X69976824Y-136437899D01*
X70155244Y-136437899D01*
X70163517Y-136441326D01*
G37*
G04 #@! TD.AperFunction*
M02*
