%TF.GenerationSoftware,KiCad,Pcbnew,7.0.9*%
%TF.CreationDate,2023-12-10T17:51:25-07:00*%
%TF.ProjectId,chrimbus2023,63687269-6d62-4757-9332-3032332e6b69,rev?*%
%TF.SameCoordinates,Original*%
%TF.FileFunction,Drillmap*%
%TF.FilePolarity,Positive*%
%FSLAX45Y45*%
G04 Gerber Fmt 4.5, Leading zero omitted, Abs format (unit mm)*
G04 Created by KiCad (PCBNEW 7.0.9) date 2023-12-10 17:51:25*
%MOMM*%
%LPD*%
G01*
G04 APERTURE LIST*
%ADD10C,0.200000*%
%ADD11C,0.320000*%
G04 APERTURE END LIST*
D10*
X8051601Y-14632172D02*
X8077331Y-14631521D01*
X8102723Y-14629590D01*
X8127746Y-14626410D01*
X8152368Y-14622013D01*
X8176558Y-14616429D01*
X8200284Y-14609691D01*
X8223515Y-14601829D01*
X8246220Y-14592876D01*
X8268367Y-14582862D01*
X8289925Y-14571820D01*
X8310863Y-14559779D01*
X8331148Y-14546773D01*
X8350750Y-14532832D01*
X8369638Y-14517987D01*
X8387779Y-14502271D01*
X8405142Y-14485714D01*
X8421697Y-14468349D01*
X8437411Y-14450205D01*
X8452253Y-14431316D01*
X8466192Y-14411712D01*
X8479196Y-14391424D01*
X8491234Y-14370485D01*
X8502274Y-14348925D01*
X8512286Y-14326776D01*
X8521238Y-14304070D01*
X8529097Y-14280837D01*
X8535834Y-14257109D01*
X8541416Y-14232918D01*
X8545812Y-14208296D01*
X8548991Y-14183272D01*
X8550921Y-14157880D01*
X8551571Y-14132150D01*
X13301565Y-9906000D02*
X13297006Y-9728280D01*
X13283477Y-9552763D01*
X13261206Y-9379674D01*
X13230418Y-9209239D01*
X13191337Y-9041683D01*
X13144189Y-8877232D01*
X13089201Y-8716111D01*
X13026597Y-8558547D01*
X12956603Y-8404764D01*
X12879445Y-8254988D01*
X12795348Y-8109445D01*
X12704537Y-7968359D01*
X12607239Y-7831958D01*
X12503678Y-7700466D01*
X12394080Y-7574108D01*
X12278671Y-7453111D01*
X12157676Y-7337699D01*
X12031321Y-7228099D01*
X11899831Y-7124536D01*
X11763432Y-7027235D01*
X11622349Y-6936422D01*
X11476808Y-6852323D01*
X11327034Y-6775163D01*
X11173253Y-6705167D01*
X11015690Y-6642561D01*
X10854572Y-6587572D01*
X10690122Y-6540423D01*
X10522568Y-6501341D01*
X10352133Y-6470551D01*
X10179045Y-6448279D01*
X10003528Y-6434751D01*
X9825809Y-6430191D01*
X11101596Y-9905638D02*
X11101544Y-9906000D01*
X8051601Y-15632162D02*
X8051601Y-14632172D01*
X6845577Y-14632172D02*
X6845577Y-15632162D01*
X7851562Y-15832150D02*
X7876227Y-15830629D01*
X7900317Y-15826127D01*
X7923578Y-15818749D01*
X7945752Y-15808603D01*
X7966584Y-15795794D01*
X7985816Y-15780428D01*
X7993005Y-15773589D01*
X6351550Y-14132150D02*
X6352201Y-14157879D01*
X6354133Y-14183271D01*
X6357313Y-14208294D01*
X6361711Y-14232917D01*
X6367295Y-14257107D01*
X6374034Y-14280835D01*
X6381895Y-14304067D01*
X6390849Y-14326774D01*
X6400863Y-14348922D01*
X6411906Y-14370482D01*
X6423946Y-14391422D01*
X6436952Y-14411709D01*
X6450893Y-14431313D01*
X6465737Y-14450203D01*
X6481454Y-14468346D01*
X6498010Y-14485712D01*
X6515376Y-14502269D01*
X6533519Y-14517985D01*
X6552408Y-14532830D01*
X6572012Y-14546771D01*
X6592299Y-14559778D01*
X6613238Y-14571818D01*
X6634798Y-14582861D01*
X6656947Y-14592875D01*
X6679653Y-14601829D01*
X6702885Y-14609690D01*
X6726613Y-14616429D01*
X6750803Y-14622012D01*
X6775426Y-14626410D01*
X6800449Y-14629590D01*
X6825841Y-14631521D01*
X6851571Y-14632172D01*
X6851571Y-14632172D02*
X6845577Y-14632172D01*
X9825809Y-6430191D02*
X9648088Y-6434751D01*
X9472571Y-6448279D01*
X9299482Y-6470551D01*
X9129047Y-6501341D01*
X8961491Y-6540423D01*
X8797040Y-6587572D01*
X8635920Y-6642562D01*
X8478355Y-6705167D01*
X8324572Y-6775163D01*
X8174797Y-6852323D01*
X8029253Y-6936422D01*
X7888168Y-7027235D01*
X7751767Y-7124536D01*
X7620274Y-7228099D01*
X7493917Y-7337699D01*
X7372919Y-7453111D01*
X7257508Y-7574108D01*
X7147908Y-7700466D01*
X7044345Y-7831958D01*
X6947044Y-7968359D01*
X6856231Y-8109445D01*
X6772132Y-8254988D01*
X6694971Y-8404764D01*
X6624976Y-8558547D01*
X6562370Y-8716111D01*
X6507380Y-8877232D01*
X6460232Y-9041683D01*
X6421150Y-9209239D01*
X6390360Y-9379674D01*
X6368088Y-9552763D01*
X6354560Y-9728280D01*
X6350000Y-9906000D01*
X12201581Y-10805997D02*
X12258186Y-10804824D01*
X12314048Y-10801348D01*
X12369098Y-10795623D01*
X12423267Y-10787708D01*
X12476485Y-10777658D01*
X12528684Y-10765529D01*
X12579793Y-10751379D01*
X12629745Y-10735264D01*
X12678471Y-10717240D01*
X12725900Y-10697364D01*
X12771964Y-10675693D01*
X12816593Y-10652283D01*
X12859720Y-10627191D01*
X12901274Y-10600473D01*
X12941186Y-10572186D01*
X12979387Y-10542386D01*
X13015809Y-10511129D01*
X13050382Y-10478474D01*
X13083037Y-10444475D01*
X13113705Y-10409189D01*
X13142316Y-10372674D01*
X13168803Y-10334985D01*
X13193094Y-10296180D01*
X13215122Y-10256314D01*
X13234818Y-10215444D01*
X13252111Y-10173627D01*
X13266934Y-10130920D01*
X13279217Y-10087378D01*
X13288890Y-10043058D01*
X13295886Y-9998018D01*
X13300134Y-9952313D01*
X13301565Y-9906000D01*
X7045565Y-15832150D02*
X7851562Y-15832150D01*
X6350000Y-9906000D02*
X6350004Y-10248023D01*
X6350016Y-10547848D01*
X6350036Y-10808341D01*
X6350062Y-11032367D01*
X6350095Y-11222791D01*
X6350134Y-11382478D01*
X6350178Y-11514294D01*
X6350227Y-11621103D01*
X6350281Y-11705771D01*
X6350338Y-11771163D01*
X6350399Y-11820144D01*
X6350463Y-11855580D01*
X6350529Y-11880335D01*
X6350666Y-11909266D01*
X6350806Y-11929857D01*
X6350945Y-11965032D01*
X6351014Y-11995251D01*
X6351080Y-12037711D01*
X6351144Y-12095278D01*
X6351206Y-12170816D01*
X6351264Y-12267192D01*
X6351318Y-12387269D01*
X6351368Y-12533914D01*
X6351414Y-12709992D01*
X6351453Y-12918367D01*
X6351488Y-13161905D01*
X6351516Y-13443471D01*
X6351537Y-13765931D01*
X6351550Y-14132150D01*
X11423740Y-10542401D02*
X11443294Y-10558007D01*
X11463267Y-10573176D01*
X11483649Y-10587904D01*
X11504427Y-10602187D01*
X11525591Y-10616021D01*
X11547129Y-10629403D01*
X11569030Y-10642328D01*
X11591283Y-10654794D01*
X11613876Y-10666795D01*
X11636799Y-10678329D01*
X11660040Y-10689391D01*
X11683587Y-10699978D01*
X11707430Y-10710085D01*
X11731557Y-10719710D01*
X11755956Y-10728847D01*
X11780618Y-10737494D01*
X11805530Y-10745647D01*
X11830680Y-10753301D01*
X11856059Y-10760453D01*
X11881654Y-10767099D01*
X11907454Y-10773235D01*
X11933449Y-10778858D01*
X11959626Y-10783963D01*
X11985974Y-10788547D01*
X12012483Y-10792606D01*
X12039140Y-10796136D01*
X12065935Y-10799134D01*
X12092857Y-10801595D01*
X12119893Y-10803515D01*
X12147034Y-10804892D01*
X12174267Y-10805720D01*
X12201581Y-10805997D01*
X11101544Y-9906000D02*
X11101883Y-9928348D01*
X11102896Y-9950629D01*
X11104579Y-9972834D01*
X11106927Y-9994955D01*
X11109936Y-10016981D01*
X11113600Y-10038904D01*
X11117915Y-10060715D01*
X11122877Y-10082403D01*
X11128481Y-10103961D01*
X11134721Y-10125378D01*
X11141594Y-10146646D01*
X11149095Y-10167754D01*
X11157218Y-10188695D01*
X11165960Y-10209459D01*
X11175316Y-10230037D01*
X11185281Y-10250419D01*
X11195850Y-10270596D01*
X11207019Y-10290559D01*
X11218783Y-10310298D01*
X11231138Y-10329806D01*
X11244078Y-10349071D01*
X11257599Y-10368086D01*
X11271696Y-10386840D01*
X11286365Y-10405325D01*
X11301602Y-10423531D01*
X11317400Y-10441450D01*
X11333757Y-10459072D01*
X11350666Y-10476387D01*
X11368124Y-10493387D01*
X11386125Y-10510062D01*
X11404666Y-10526403D01*
X11423740Y-10542401D01*
X8550021Y-10405969D02*
X8549996Y-10379562D01*
X8549939Y-10352164D01*
X8549871Y-10323845D01*
X8549815Y-10294675D01*
X8549793Y-10264725D01*
X8549827Y-10234064D01*
X8549938Y-10202763D01*
X8550150Y-10170893D01*
X8550485Y-10138523D01*
X8550963Y-10105724D01*
X8551608Y-10072566D01*
X8552442Y-10039120D01*
X8553486Y-10005455D01*
X8554764Y-9971641D01*
X8556296Y-9937750D01*
X8558105Y-9903852D01*
X8560213Y-9870015D01*
X8562643Y-9836312D01*
X8565416Y-9802812D01*
X8568555Y-9769585D01*
X8572081Y-9736702D01*
X8576017Y-9704233D01*
X8580385Y-9672247D01*
X8585207Y-9640817D01*
X8590505Y-9610011D01*
X8596302Y-9579900D01*
X8602618Y-9550554D01*
X8609477Y-9522043D01*
X8616901Y-9494438D01*
X8624911Y-9467810D01*
X8633530Y-9442227D01*
X8642780Y-9417761D01*
X6845577Y-15632162D02*
X6846611Y-15652609D01*
X6849642Y-15672465D01*
X6857715Y-15700922D01*
X6869718Y-15727485D01*
X6885311Y-15751814D01*
X6904156Y-15773571D01*
X6925912Y-15792415D01*
X6950241Y-15808009D01*
X6976804Y-15820011D01*
X7005261Y-15828085D01*
X7025118Y-15831116D01*
X7045565Y-15832150D01*
X9825809Y-8630212D02*
X9892598Y-8631835D01*
X9958381Y-8636653D01*
X10023083Y-8644595D01*
X10086632Y-8655588D01*
X10148954Y-8669557D01*
X10209978Y-8686431D01*
X10269629Y-8706137D01*
X10327835Y-8728601D01*
X10384523Y-8753751D01*
X10439620Y-8781513D01*
X10493054Y-8811816D01*
X10544750Y-8844584D01*
X10594636Y-8879747D01*
X10642640Y-8917231D01*
X10688688Y-8956962D01*
X10732708Y-8998869D01*
X10774626Y-9042877D01*
X10814369Y-9088914D01*
X10851865Y-9136908D01*
X10887040Y-9186785D01*
X10919822Y-9238472D01*
X10950138Y-9291896D01*
X10977914Y-9346984D01*
X11003078Y-9403664D01*
X11025557Y-9461862D01*
X11045278Y-9521506D01*
X11062167Y-9582522D01*
X11076153Y-9644838D01*
X11087161Y-9708381D01*
X11095120Y-9773077D01*
X11099956Y-9838854D01*
X11101596Y-9905638D01*
X8551571Y-14132150D02*
X8551558Y-13782165D01*
X8551539Y-13472031D01*
X8551513Y-13199270D01*
X8551481Y-12961404D01*
X8551444Y-12755953D01*
X8551402Y-12580439D01*
X8551355Y-12432385D01*
X8551304Y-12309311D01*
X8551250Y-12208740D01*
X8551192Y-12128192D01*
X8551132Y-12065190D01*
X8551069Y-12017256D01*
X8551005Y-11981910D01*
X8550939Y-11956675D01*
X8550805Y-11926622D01*
X8550605Y-11895411D01*
X8550476Y-11854935D01*
X8550415Y-11821362D01*
X8550357Y-11775593D01*
X8550302Y-11715151D01*
X8550250Y-11637558D01*
X8550202Y-11540334D01*
X8550158Y-11421001D01*
X8550119Y-11277082D01*
X8550085Y-11106098D01*
X8550058Y-10905570D01*
X8550036Y-10673020D01*
X8550021Y-10405969D01*
X8642780Y-9417761D02*
X8661108Y-9374390D01*
X8680957Y-9331911D01*
X8702293Y-9290358D01*
X8725086Y-9249761D01*
X8749304Y-9210153D01*
X8774915Y-9171564D01*
X8801887Y-9134027D01*
X8830189Y-9097574D01*
X8859788Y-9062235D01*
X8890654Y-9028044D01*
X8922754Y-8995031D01*
X8956057Y-8963229D01*
X8990530Y-8932669D01*
X9026143Y-8903382D01*
X9062864Y-8875401D01*
X9100660Y-8848757D01*
X9139500Y-8823483D01*
X9179352Y-8799609D01*
X9220185Y-8777167D01*
X9261967Y-8756190D01*
X9304666Y-8736708D01*
X9348251Y-8718754D01*
X9392688Y-8702359D01*
X9437948Y-8687556D01*
X9483998Y-8674375D01*
X9530807Y-8662849D01*
X9578342Y-8653009D01*
X9626572Y-8644886D01*
X9675466Y-8638514D01*
X9724991Y-8633923D01*
X9775116Y-8631145D01*
X9825809Y-8630212D01*
X7993005Y-15773589D02*
X8009368Y-15755072D01*
X8023218Y-15734853D01*
X8034448Y-15713188D01*
X8042951Y-15690333D01*
X8048622Y-15666545D01*
X8051355Y-15642080D01*
X8051601Y-15632162D01*
D11*
X8882563Y-6671150D02*
X9202563Y-6991150D01*
X9202563Y-6671150D02*
X8882563Y-6991150D01*
D10*
X6600777Y-16153644D02*
X6600777Y-15953644D01*
X6600777Y-15953644D02*
X6648396Y-15953644D01*
X6648396Y-15953644D02*
X6676967Y-15963168D01*
X6676967Y-15963168D02*
X6696015Y-15982215D01*
X6696015Y-15982215D02*
X6705539Y-16001263D01*
X6705539Y-16001263D02*
X6715062Y-16039358D01*
X6715062Y-16039358D02*
X6715062Y-16067930D01*
X6715062Y-16067930D02*
X6705539Y-16106025D01*
X6705539Y-16106025D02*
X6696015Y-16125073D01*
X6696015Y-16125073D02*
X6676967Y-16144120D01*
X6676967Y-16144120D02*
X6648396Y-16153644D01*
X6648396Y-16153644D02*
X6600777Y-16153644D01*
X6800777Y-16153644D02*
X6800777Y-16020311D01*
X6800777Y-16058406D02*
X6810301Y-16039358D01*
X6810301Y-16039358D02*
X6819824Y-16029834D01*
X6819824Y-16029834D02*
X6838872Y-16020311D01*
X6838872Y-16020311D02*
X6857920Y-16020311D01*
X6924586Y-16153644D02*
X6924586Y-16020311D01*
X6924586Y-15953644D02*
X6915062Y-15963168D01*
X6915062Y-15963168D02*
X6924586Y-15972692D01*
X6924586Y-15972692D02*
X6934110Y-15963168D01*
X6934110Y-15963168D02*
X6924586Y-15953644D01*
X6924586Y-15953644D02*
X6924586Y-15972692D01*
X7048396Y-16153644D02*
X7029348Y-16144120D01*
X7029348Y-16144120D02*
X7019824Y-16125073D01*
X7019824Y-16125073D02*
X7019824Y-15953644D01*
X7153158Y-16153644D02*
X7134110Y-16144120D01*
X7134110Y-16144120D02*
X7124586Y-16125073D01*
X7124586Y-16125073D02*
X7124586Y-15953644D01*
X7381729Y-16153644D02*
X7381729Y-15953644D01*
X7381729Y-15953644D02*
X7448396Y-16096501D01*
X7448396Y-16096501D02*
X7515062Y-15953644D01*
X7515062Y-15953644D02*
X7515062Y-16153644D01*
X7696015Y-16153644D02*
X7696015Y-16048882D01*
X7696015Y-16048882D02*
X7686491Y-16029834D01*
X7686491Y-16029834D02*
X7667443Y-16020311D01*
X7667443Y-16020311D02*
X7629348Y-16020311D01*
X7629348Y-16020311D02*
X7610301Y-16029834D01*
X7696015Y-16144120D02*
X7676967Y-16153644D01*
X7676967Y-16153644D02*
X7629348Y-16153644D01*
X7629348Y-16153644D02*
X7610301Y-16144120D01*
X7610301Y-16144120D02*
X7600777Y-16125073D01*
X7600777Y-16125073D02*
X7600777Y-16106025D01*
X7600777Y-16106025D02*
X7610301Y-16086977D01*
X7610301Y-16086977D02*
X7629348Y-16077454D01*
X7629348Y-16077454D02*
X7676967Y-16077454D01*
X7676967Y-16077454D02*
X7696015Y-16067930D01*
X7791253Y-16020311D02*
X7791253Y-16220311D01*
X7791253Y-16029834D02*
X7810301Y-16020311D01*
X7810301Y-16020311D02*
X7848396Y-16020311D01*
X7848396Y-16020311D02*
X7867443Y-16029834D01*
X7867443Y-16029834D02*
X7876967Y-16039358D01*
X7876967Y-16039358D02*
X7886491Y-16058406D01*
X7886491Y-16058406D02*
X7886491Y-16115549D01*
X7886491Y-16115549D02*
X7876967Y-16134596D01*
X7876967Y-16134596D02*
X7867443Y-16144120D01*
X7867443Y-16144120D02*
X7848396Y-16153644D01*
X7848396Y-16153644D02*
X7810301Y-16153644D01*
X7810301Y-16153644D02*
X7791253Y-16144120D01*
X7972205Y-16134596D02*
X7981729Y-16144120D01*
X7981729Y-16144120D02*
X7972205Y-16153644D01*
X7972205Y-16153644D02*
X7962682Y-16144120D01*
X7962682Y-16144120D02*
X7972205Y-16134596D01*
X7972205Y-16134596D02*
X7972205Y-16153644D01*
X7972205Y-16029834D02*
X7981729Y-16039358D01*
X7981729Y-16039358D02*
X7972205Y-16048882D01*
X7972205Y-16048882D02*
X7962682Y-16039358D01*
X7962682Y-16039358D02*
X7972205Y-16029834D01*
X7972205Y-16029834D02*
X7972205Y-16048882D01*
X6140000Y-16382160D02*
X6340000Y-16582160D01*
X6340000Y-16382160D02*
X6140000Y-16582160D01*
X6581729Y-16373644D02*
X6705539Y-16373644D01*
X6705539Y-16373644D02*
X6638872Y-16449834D01*
X6638872Y-16449834D02*
X6667443Y-16449834D01*
X6667443Y-16449834D02*
X6686491Y-16459358D01*
X6686491Y-16459358D02*
X6696015Y-16468882D01*
X6696015Y-16468882D02*
X6705539Y-16487930D01*
X6705539Y-16487930D02*
X6705539Y-16535549D01*
X6705539Y-16535549D02*
X6696015Y-16554596D01*
X6696015Y-16554596D02*
X6686491Y-16564120D01*
X6686491Y-16564120D02*
X6667443Y-16573644D01*
X6667443Y-16573644D02*
X6610301Y-16573644D01*
X6610301Y-16573644D02*
X6591253Y-16564120D01*
X6591253Y-16564120D02*
X6581729Y-16554596D01*
X6791253Y-16554596D02*
X6800777Y-16564120D01*
X6800777Y-16564120D02*
X6791253Y-16573644D01*
X6791253Y-16573644D02*
X6781729Y-16564120D01*
X6781729Y-16564120D02*
X6791253Y-16554596D01*
X6791253Y-16554596D02*
X6791253Y-16573644D01*
X6876967Y-16392692D02*
X6886491Y-16383168D01*
X6886491Y-16383168D02*
X6905539Y-16373644D01*
X6905539Y-16373644D02*
X6953158Y-16373644D01*
X6953158Y-16373644D02*
X6972205Y-16383168D01*
X6972205Y-16383168D02*
X6981729Y-16392692D01*
X6981729Y-16392692D02*
X6991253Y-16411739D01*
X6991253Y-16411739D02*
X6991253Y-16430787D01*
X6991253Y-16430787D02*
X6981729Y-16459358D01*
X6981729Y-16459358D02*
X6867443Y-16573644D01*
X6867443Y-16573644D02*
X6991253Y-16573644D01*
X7115062Y-16373644D02*
X7134110Y-16373644D01*
X7134110Y-16373644D02*
X7153158Y-16383168D01*
X7153158Y-16383168D02*
X7162682Y-16392692D01*
X7162682Y-16392692D02*
X7172205Y-16411739D01*
X7172205Y-16411739D02*
X7181729Y-16449834D01*
X7181729Y-16449834D02*
X7181729Y-16497454D01*
X7181729Y-16497454D02*
X7172205Y-16535549D01*
X7172205Y-16535549D02*
X7162682Y-16554596D01*
X7162682Y-16554596D02*
X7153158Y-16564120D01*
X7153158Y-16564120D02*
X7134110Y-16573644D01*
X7134110Y-16573644D02*
X7115062Y-16573644D01*
X7115062Y-16573644D02*
X7096015Y-16564120D01*
X7096015Y-16564120D02*
X7086491Y-16554596D01*
X7086491Y-16554596D02*
X7076967Y-16535549D01*
X7076967Y-16535549D02*
X7067443Y-16497454D01*
X7067443Y-16497454D02*
X7067443Y-16449834D01*
X7067443Y-16449834D02*
X7076967Y-16411739D01*
X7076967Y-16411739D02*
X7086491Y-16392692D01*
X7086491Y-16392692D02*
X7096015Y-16383168D01*
X7096015Y-16383168D02*
X7115062Y-16373644D01*
X7305539Y-16373644D02*
X7324586Y-16373644D01*
X7324586Y-16373644D02*
X7343634Y-16383168D01*
X7343634Y-16383168D02*
X7353158Y-16392692D01*
X7353158Y-16392692D02*
X7362682Y-16411739D01*
X7362682Y-16411739D02*
X7372205Y-16449834D01*
X7372205Y-16449834D02*
X7372205Y-16497454D01*
X7372205Y-16497454D02*
X7362682Y-16535549D01*
X7362682Y-16535549D02*
X7353158Y-16554596D01*
X7353158Y-16554596D02*
X7343634Y-16564120D01*
X7343634Y-16564120D02*
X7324586Y-16573644D01*
X7324586Y-16573644D02*
X7305539Y-16573644D01*
X7305539Y-16573644D02*
X7286491Y-16564120D01*
X7286491Y-16564120D02*
X7276967Y-16554596D01*
X7276967Y-16554596D02*
X7267443Y-16535549D01*
X7267443Y-16535549D02*
X7257920Y-16497454D01*
X7257920Y-16497454D02*
X7257920Y-16449834D01*
X7257920Y-16449834D02*
X7267443Y-16411739D01*
X7267443Y-16411739D02*
X7276967Y-16392692D01*
X7276967Y-16392692D02*
X7286491Y-16383168D01*
X7286491Y-16383168D02*
X7305539Y-16373644D01*
X7457920Y-16573644D02*
X7457920Y-16440311D01*
X7457920Y-16459358D02*
X7467443Y-16449834D01*
X7467443Y-16449834D02*
X7486491Y-16440311D01*
X7486491Y-16440311D02*
X7515063Y-16440311D01*
X7515063Y-16440311D02*
X7534110Y-16449834D01*
X7534110Y-16449834D02*
X7543634Y-16468882D01*
X7543634Y-16468882D02*
X7543634Y-16573644D01*
X7543634Y-16468882D02*
X7553158Y-16449834D01*
X7553158Y-16449834D02*
X7572205Y-16440311D01*
X7572205Y-16440311D02*
X7600777Y-16440311D01*
X7600777Y-16440311D02*
X7619824Y-16449834D01*
X7619824Y-16449834D02*
X7629348Y-16468882D01*
X7629348Y-16468882D02*
X7629348Y-16573644D01*
X7724586Y-16573644D02*
X7724586Y-16440311D01*
X7724586Y-16459358D02*
X7734110Y-16449834D01*
X7734110Y-16449834D02*
X7753158Y-16440311D01*
X7753158Y-16440311D02*
X7781729Y-16440311D01*
X7781729Y-16440311D02*
X7800777Y-16449834D01*
X7800777Y-16449834D02*
X7810301Y-16468882D01*
X7810301Y-16468882D02*
X7810301Y-16573644D01*
X7810301Y-16468882D02*
X7819824Y-16449834D01*
X7819824Y-16449834D02*
X7838872Y-16440311D01*
X7838872Y-16440311D02*
X7867443Y-16440311D01*
X7867443Y-16440311D02*
X7886491Y-16449834D01*
X7886491Y-16449834D02*
X7896015Y-16468882D01*
X7896015Y-16468882D02*
X7896015Y-16573644D01*
X8286491Y-16364120D02*
X8115063Y-16621263D01*
X8543634Y-16373644D02*
X8562682Y-16373644D01*
X8562682Y-16373644D02*
X8581729Y-16383168D01*
X8581729Y-16383168D02*
X8591253Y-16392692D01*
X8591253Y-16392692D02*
X8600777Y-16411739D01*
X8600777Y-16411739D02*
X8610301Y-16449834D01*
X8610301Y-16449834D02*
X8610301Y-16497454D01*
X8610301Y-16497454D02*
X8600777Y-16535549D01*
X8600777Y-16535549D02*
X8591253Y-16554596D01*
X8591253Y-16554596D02*
X8581729Y-16564120D01*
X8581729Y-16564120D02*
X8562682Y-16573644D01*
X8562682Y-16573644D02*
X8543634Y-16573644D01*
X8543634Y-16573644D02*
X8524587Y-16564120D01*
X8524587Y-16564120D02*
X8515063Y-16554596D01*
X8515063Y-16554596D02*
X8505539Y-16535549D01*
X8505539Y-16535549D02*
X8496015Y-16497454D01*
X8496015Y-16497454D02*
X8496015Y-16449834D01*
X8496015Y-16449834D02*
X8505539Y-16411739D01*
X8505539Y-16411739D02*
X8515063Y-16392692D01*
X8515063Y-16392692D02*
X8524587Y-16383168D01*
X8524587Y-16383168D02*
X8543634Y-16373644D01*
X8696015Y-16554596D02*
X8705539Y-16564120D01*
X8705539Y-16564120D02*
X8696015Y-16573644D01*
X8696015Y-16573644D02*
X8686491Y-16564120D01*
X8686491Y-16564120D02*
X8696015Y-16554596D01*
X8696015Y-16554596D02*
X8696015Y-16573644D01*
X8896015Y-16573644D02*
X8781729Y-16573644D01*
X8838872Y-16573644D02*
X8838872Y-16373644D01*
X8838872Y-16373644D02*
X8819825Y-16402215D01*
X8819825Y-16402215D02*
X8800777Y-16421263D01*
X8800777Y-16421263D02*
X8781729Y-16430787D01*
X8972206Y-16392692D02*
X8981729Y-16383168D01*
X8981729Y-16383168D02*
X9000777Y-16373644D01*
X9000777Y-16373644D02*
X9048396Y-16373644D01*
X9048396Y-16373644D02*
X9067444Y-16383168D01*
X9067444Y-16383168D02*
X9076968Y-16392692D01*
X9076968Y-16392692D02*
X9086491Y-16411739D01*
X9086491Y-16411739D02*
X9086491Y-16430787D01*
X9086491Y-16430787D02*
X9076968Y-16459358D01*
X9076968Y-16459358D02*
X8962682Y-16573644D01*
X8962682Y-16573644D02*
X9086491Y-16573644D01*
X9257920Y-16373644D02*
X9219825Y-16373644D01*
X9219825Y-16373644D02*
X9200777Y-16383168D01*
X9200777Y-16383168D02*
X9191253Y-16392692D01*
X9191253Y-16392692D02*
X9172206Y-16421263D01*
X9172206Y-16421263D02*
X9162682Y-16459358D01*
X9162682Y-16459358D02*
X9162682Y-16535549D01*
X9162682Y-16535549D02*
X9172206Y-16554596D01*
X9172206Y-16554596D02*
X9181729Y-16564120D01*
X9181729Y-16564120D02*
X9200777Y-16573644D01*
X9200777Y-16573644D02*
X9238872Y-16573644D01*
X9238872Y-16573644D02*
X9257920Y-16564120D01*
X9257920Y-16564120D02*
X9267444Y-16554596D01*
X9267444Y-16554596D02*
X9276968Y-16535549D01*
X9276968Y-16535549D02*
X9276968Y-16487930D01*
X9276968Y-16487930D02*
X9267444Y-16468882D01*
X9267444Y-16468882D02*
X9257920Y-16459358D01*
X9257920Y-16459358D02*
X9238872Y-16449834D01*
X9238872Y-16449834D02*
X9200777Y-16449834D01*
X9200777Y-16449834D02*
X9181729Y-16459358D01*
X9181729Y-16459358D02*
X9172206Y-16468882D01*
X9172206Y-16468882D02*
X9162682Y-16487930D01*
X9400777Y-16373644D02*
X9419825Y-16373644D01*
X9419825Y-16373644D02*
X9438872Y-16383168D01*
X9438872Y-16383168D02*
X9448396Y-16392692D01*
X9448396Y-16392692D02*
X9457920Y-16411739D01*
X9457920Y-16411739D02*
X9467444Y-16449834D01*
X9467444Y-16449834D02*
X9467444Y-16497454D01*
X9467444Y-16497454D02*
X9457920Y-16535549D01*
X9457920Y-16535549D02*
X9448396Y-16554596D01*
X9448396Y-16554596D02*
X9438872Y-16564120D01*
X9438872Y-16564120D02*
X9419825Y-16573644D01*
X9419825Y-16573644D02*
X9400777Y-16573644D01*
X9400777Y-16573644D02*
X9381729Y-16564120D01*
X9381729Y-16564120D02*
X9372206Y-16554596D01*
X9372206Y-16554596D02*
X9362682Y-16535549D01*
X9362682Y-16535549D02*
X9353158Y-16497454D01*
X9353158Y-16497454D02*
X9353158Y-16449834D01*
X9353158Y-16449834D02*
X9362682Y-16411739D01*
X9362682Y-16411739D02*
X9372206Y-16392692D01*
X9372206Y-16392692D02*
X9381729Y-16383168D01*
X9381729Y-16383168D02*
X9400777Y-16373644D01*
X9543634Y-16373644D02*
X9543634Y-16411739D01*
X9619825Y-16373644D02*
X9619825Y-16411739D01*
X9915063Y-16649834D02*
X9905539Y-16640311D01*
X9905539Y-16640311D02*
X9886491Y-16611739D01*
X9886491Y-16611739D02*
X9876968Y-16592692D01*
X9876968Y-16592692D02*
X9867444Y-16564120D01*
X9867444Y-16564120D02*
X9857920Y-16516501D01*
X9857920Y-16516501D02*
X9857920Y-16478406D01*
X9857920Y-16478406D02*
X9867444Y-16430787D01*
X9867444Y-16430787D02*
X9876968Y-16402215D01*
X9876968Y-16402215D02*
X9886491Y-16383168D01*
X9886491Y-16383168D02*
X9905539Y-16354596D01*
X9905539Y-16354596D02*
X9915063Y-16345073D01*
X10096015Y-16573644D02*
X9981730Y-16573644D01*
X10038872Y-16573644D02*
X10038872Y-16373644D01*
X10038872Y-16373644D02*
X10019825Y-16402215D01*
X10019825Y-16402215D02*
X10000777Y-16421263D01*
X10000777Y-16421263D02*
X9981730Y-16430787D01*
X10334111Y-16573644D02*
X10334111Y-16373644D01*
X10419825Y-16573644D02*
X10419825Y-16468882D01*
X10419825Y-16468882D02*
X10410301Y-16449834D01*
X10410301Y-16449834D02*
X10391253Y-16440311D01*
X10391253Y-16440311D02*
X10362682Y-16440311D01*
X10362682Y-16440311D02*
X10343634Y-16449834D01*
X10343634Y-16449834D02*
X10334111Y-16459358D01*
X10543634Y-16573644D02*
X10524587Y-16564120D01*
X10524587Y-16564120D02*
X10515063Y-16554596D01*
X10515063Y-16554596D02*
X10505539Y-16535549D01*
X10505539Y-16535549D02*
X10505539Y-16478406D01*
X10505539Y-16478406D02*
X10515063Y-16459358D01*
X10515063Y-16459358D02*
X10524587Y-16449834D01*
X10524587Y-16449834D02*
X10543634Y-16440311D01*
X10543634Y-16440311D02*
X10572206Y-16440311D01*
X10572206Y-16440311D02*
X10591253Y-16449834D01*
X10591253Y-16449834D02*
X10600777Y-16459358D01*
X10600777Y-16459358D02*
X10610301Y-16478406D01*
X10610301Y-16478406D02*
X10610301Y-16535549D01*
X10610301Y-16535549D02*
X10600777Y-16554596D01*
X10600777Y-16554596D02*
X10591253Y-16564120D01*
X10591253Y-16564120D02*
X10572206Y-16573644D01*
X10572206Y-16573644D02*
X10543634Y-16573644D01*
X10724587Y-16573644D02*
X10705539Y-16564120D01*
X10705539Y-16564120D02*
X10696015Y-16545073D01*
X10696015Y-16545073D02*
X10696015Y-16373644D01*
X10876968Y-16564120D02*
X10857920Y-16573644D01*
X10857920Y-16573644D02*
X10819825Y-16573644D01*
X10819825Y-16573644D02*
X10800777Y-16564120D01*
X10800777Y-16564120D02*
X10791253Y-16545073D01*
X10791253Y-16545073D02*
X10791253Y-16468882D01*
X10791253Y-16468882D02*
X10800777Y-16449834D01*
X10800777Y-16449834D02*
X10819825Y-16440311D01*
X10819825Y-16440311D02*
X10857920Y-16440311D01*
X10857920Y-16440311D02*
X10876968Y-16449834D01*
X10876968Y-16449834D02*
X10886492Y-16468882D01*
X10886492Y-16468882D02*
X10886492Y-16487930D01*
X10886492Y-16487930D02*
X10791253Y-16506977D01*
X10953158Y-16649834D02*
X10962682Y-16640311D01*
X10962682Y-16640311D02*
X10981730Y-16611739D01*
X10981730Y-16611739D02*
X10991253Y-16592692D01*
X10991253Y-16592692D02*
X11000777Y-16564120D01*
X11000777Y-16564120D02*
X11010301Y-16516501D01*
X11010301Y-16516501D02*
X11010301Y-16478406D01*
X11010301Y-16478406D02*
X11000777Y-16430787D01*
X11000777Y-16430787D02*
X10991253Y-16402215D01*
X10991253Y-16402215D02*
X10981730Y-16383168D01*
X10981730Y-16383168D02*
X10962682Y-16354596D01*
X10962682Y-16354596D02*
X10953158Y-16345073D01*
X11315063Y-16649834D02*
X11305539Y-16640311D01*
X11305539Y-16640311D02*
X11286491Y-16611739D01*
X11286491Y-16611739D02*
X11276968Y-16592692D01*
X11276968Y-16592692D02*
X11267444Y-16564120D01*
X11267444Y-16564120D02*
X11257920Y-16516501D01*
X11257920Y-16516501D02*
X11257920Y-16478406D01*
X11257920Y-16478406D02*
X11267444Y-16430787D01*
X11267444Y-16430787D02*
X11276968Y-16402215D01*
X11276968Y-16402215D02*
X11286491Y-16383168D01*
X11286491Y-16383168D02*
X11305539Y-16354596D01*
X11305539Y-16354596D02*
X11315063Y-16345073D01*
X11391253Y-16440311D02*
X11391253Y-16573644D01*
X11391253Y-16459358D02*
X11400777Y-16449834D01*
X11400777Y-16449834D02*
X11419825Y-16440311D01*
X11419825Y-16440311D02*
X11448396Y-16440311D01*
X11448396Y-16440311D02*
X11467444Y-16449834D01*
X11467444Y-16449834D02*
X11476968Y-16468882D01*
X11476968Y-16468882D02*
X11476968Y-16573644D01*
X11600777Y-16573644D02*
X11581730Y-16564120D01*
X11581730Y-16564120D02*
X11572206Y-16554596D01*
X11572206Y-16554596D02*
X11562682Y-16535549D01*
X11562682Y-16535549D02*
X11562682Y-16478406D01*
X11562682Y-16478406D02*
X11572206Y-16459358D01*
X11572206Y-16459358D02*
X11581730Y-16449834D01*
X11581730Y-16449834D02*
X11600777Y-16440311D01*
X11600777Y-16440311D02*
X11629349Y-16440311D01*
X11629349Y-16440311D02*
X11648396Y-16449834D01*
X11648396Y-16449834D02*
X11657920Y-16459358D01*
X11657920Y-16459358D02*
X11667444Y-16478406D01*
X11667444Y-16478406D02*
X11667444Y-16535549D01*
X11667444Y-16535549D02*
X11657920Y-16554596D01*
X11657920Y-16554596D02*
X11648396Y-16564120D01*
X11648396Y-16564120D02*
X11629349Y-16573644D01*
X11629349Y-16573644D02*
X11600777Y-16573644D01*
X11724587Y-16440311D02*
X11800777Y-16440311D01*
X11753158Y-16373644D02*
X11753158Y-16545073D01*
X11753158Y-16545073D02*
X11762682Y-16564120D01*
X11762682Y-16564120D02*
X11781730Y-16573644D01*
X11781730Y-16573644D02*
X11800777Y-16573644D01*
X12019825Y-16440311D02*
X12019825Y-16640311D01*
X12019825Y-16449834D02*
X12038872Y-16440311D01*
X12038872Y-16440311D02*
X12076968Y-16440311D01*
X12076968Y-16440311D02*
X12096015Y-16449834D01*
X12096015Y-16449834D02*
X12105539Y-16459358D01*
X12105539Y-16459358D02*
X12115063Y-16478406D01*
X12115063Y-16478406D02*
X12115063Y-16535549D01*
X12115063Y-16535549D02*
X12105539Y-16554596D01*
X12105539Y-16554596D02*
X12096015Y-16564120D01*
X12096015Y-16564120D02*
X12076968Y-16573644D01*
X12076968Y-16573644D02*
X12038872Y-16573644D01*
X12038872Y-16573644D02*
X12019825Y-16564120D01*
X12229349Y-16573644D02*
X12210301Y-16564120D01*
X12210301Y-16564120D02*
X12200777Y-16545073D01*
X12200777Y-16545073D02*
X12200777Y-16373644D01*
X12391253Y-16573644D02*
X12391253Y-16468882D01*
X12391253Y-16468882D02*
X12381730Y-16449834D01*
X12381730Y-16449834D02*
X12362682Y-16440311D01*
X12362682Y-16440311D02*
X12324587Y-16440311D01*
X12324587Y-16440311D02*
X12305539Y-16449834D01*
X12391253Y-16564120D02*
X12372206Y-16573644D01*
X12372206Y-16573644D02*
X12324587Y-16573644D01*
X12324587Y-16573644D02*
X12305539Y-16564120D01*
X12305539Y-16564120D02*
X12296015Y-16545073D01*
X12296015Y-16545073D02*
X12296015Y-16526025D01*
X12296015Y-16526025D02*
X12305539Y-16506977D01*
X12305539Y-16506977D02*
X12324587Y-16497454D01*
X12324587Y-16497454D02*
X12372206Y-16497454D01*
X12372206Y-16497454D02*
X12391253Y-16487930D01*
X12457920Y-16440311D02*
X12534111Y-16440311D01*
X12486492Y-16373644D02*
X12486492Y-16545073D01*
X12486492Y-16545073D02*
X12496015Y-16564120D01*
X12496015Y-16564120D02*
X12515063Y-16573644D01*
X12515063Y-16573644D02*
X12534111Y-16573644D01*
X12676968Y-16564120D02*
X12657920Y-16573644D01*
X12657920Y-16573644D02*
X12619825Y-16573644D01*
X12619825Y-16573644D02*
X12600777Y-16564120D01*
X12600777Y-16564120D02*
X12591253Y-16545073D01*
X12591253Y-16545073D02*
X12591253Y-16468882D01*
X12591253Y-16468882D02*
X12600777Y-16449834D01*
X12600777Y-16449834D02*
X12619825Y-16440311D01*
X12619825Y-16440311D02*
X12657920Y-16440311D01*
X12657920Y-16440311D02*
X12676968Y-16449834D01*
X12676968Y-16449834D02*
X12686492Y-16468882D01*
X12686492Y-16468882D02*
X12686492Y-16487930D01*
X12686492Y-16487930D02*
X12591253Y-16506977D01*
X12857920Y-16573644D02*
X12857920Y-16373644D01*
X12857920Y-16564120D02*
X12838873Y-16573644D01*
X12838873Y-16573644D02*
X12800777Y-16573644D01*
X12800777Y-16573644D02*
X12781730Y-16564120D01*
X12781730Y-16564120D02*
X12772206Y-16554596D01*
X12772206Y-16554596D02*
X12762682Y-16535549D01*
X12762682Y-16535549D02*
X12762682Y-16478406D01*
X12762682Y-16478406D02*
X12772206Y-16459358D01*
X12772206Y-16459358D02*
X12781730Y-16449834D01*
X12781730Y-16449834D02*
X12800777Y-16440311D01*
X12800777Y-16440311D02*
X12838873Y-16440311D01*
X12838873Y-16440311D02*
X12857920Y-16449834D01*
X12934111Y-16649834D02*
X12943634Y-16640311D01*
X12943634Y-16640311D02*
X12962682Y-16611739D01*
X12962682Y-16611739D02*
X12972206Y-16592692D01*
X12972206Y-16592692D02*
X12981730Y-16564120D01*
X12981730Y-16564120D02*
X12991253Y-16516501D01*
X12991253Y-16516501D02*
X12991253Y-16478406D01*
X12991253Y-16478406D02*
X12981730Y-16430787D01*
X12981730Y-16430787D02*
X12972206Y-16402215D01*
X12972206Y-16402215D02*
X12962682Y-16383168D01*
X12962682Y-16383168D02*
X12943634Y-16354596D01*
X12943634Y-16354596D02*
X12934111Y-16345073D01*
M02*
