G04 #@! TF.GenerationSoftware,KiCad,Pcbnew,7.0.9*
G04 #@! TF.CreationDate,2023-12-10T17:48:38-07:00*
G04 #@! TF.ProjectId,chrimbus2023,63687269-6d62-4757-9332-3032332e6b69,rev?*
G04 #@! TF.SameCoordinates,Original*
G04 #@! TF.FileFunction,Soldermask,Top*
G04 #@! TF.FilePolarity,Negative*
%FSLAX46Y46*%
G04 Gerber Fmt 4.6, Leading zero omitted, Abs format (unit mm)*
G04 Created by KiCad (PCBNEW 7.0.9) date 2023-12-10 17:48:38*
%MOMM*%
%LPD*%
G01*
G04 APERTURE LIST*
G04 Aperture macros list*
%AMRoundRect*
0 Rectangle with rounded corners*
0 $1 Rounding radius*
0 $2 $3 $4 $5 $6 $7 $8 $9 X,Y pos of 4 corners*
0 Add a 4 corners polygon primitive as box body*
4,1,4,$2,$3,$4,$5,$6,$7,$8,$9,$2,$3,0*
0 Add four circle primitives for the rounded corners*
1,1,$1+$1,$2,$3*
1,1,$1+$1,$4,$5*
1,1,$1+$1,$6,$7*
1,1,$1+$1,$8,$9*
0 Add four rect primitives between the rounded corners*
20,1,$1+$1,$2,$3,$4,$5,0*
20,1,$1+$1,$4,$5,$6,$7,0*
20,1,$1+$1,$6,$7,$8,$9,0*
20,1,$1+$1,$8,$9,$2,$3,0*%
G04 Aperture macros list end*
%ADD10R,4.100000X4.100000*%
%ADD11RoundRect,0.062500X0.475000X-0.062500X0.475000X0.062500X-0.475000X0.062500X-0.475000X-0.062500X0*%
%ADD12RoundRect,0.062500X0.062500X-0.475000X0.062500X0.475000X-0.062500X0.475000X-0.062500X-0.475000X0*%
%ADD13C,3.200000*%
%ADD14RoundRect,0.250001X0.462499X0.624999X-0.462499X0.624999X-0.462499X-0.624999X0.462499X-0.624999X0*%
%ADD15C,0.290000*%
%ADD16RoundRect,0.140000X-0.170000X0.140000X-0.170000X-0.140000X0.170000X-0.140000X0.170000X0.140000X0*%
%ADD17R,0.280000X0.750000*%
%ADD18R,0.280000X0.850000*%
%ADD19RoundRect,0.140000X-0.140000X-0.170000X0.140000X-0.170000X0.140000X0.170000X-0.140000X0.170000X0*%
%ADD20R,0.375000X0.500000*%
%ADD21R,0.300000X0.650000*%
%ADD22RoundRect,0.140000X0.140000X0.170000X-0.140000X0.170000X-0.140000X-0.170000X0.140000X-0.170000X0*%
%ADD23RoundRect,0.200000X0.200000X0.250000X-0.200000X0.250000X-0.200000X-0.250000X0.200000X-0.250000X0*%
%ADD24R,1.900000X8.000000*%
%ADD25R,2.000000X7.500000*%
%ADD26RoundRect,0.135000X-0.185000X0.135000X-0.185000X-0.135000X0.185000X-0.135000X0.185000X0.135000X0*%
%ADD27RoundRect,0.135000X0.135000X0.185000X-0.135000X0.185000X-0.135000X-0.185000X0.135000X-0.185000X0*%
%ADD28RoundRect,0.135000X0.185000X-0.135000X0.185000X0.135000X-0.185000X0.135000X-0.185000X-0.135000X0*%
G04 APERTURE END LIST*
D10*
X74715234Y-130433299D03*
D11*
X71877734Y-132433299D03*
X71877734Y-131933299D03*
X71877734Y-131433299D03*
X71877734Y-130933299D03*
X71877734Y-130433299D03*
X71877734Y-129933299D03*
X71877734Y-129433299D03*
X71877734Y-128933299D03*
X71877734Y-128433299D03*
D12*
X72715234Y-127595799D03*
X73215234Y-127595799D03*
X73715234Y-127595799D03*
X74215234Y-127595799D03*
X74715234Y-127595799D03*
X75215234Y-127595799D03*
X75715234Y-127595799D03*
X76215234Y-127595799D03*
X76715234Y-127595799D03*
D11*
X77552734Y-128433299D03*
X77552734Y-128933299D03*
X77552734Y-129433299D03*
X77552734Y-129933299D03*
X77552734Y-130433299D03*
X77552734Y-130933299D03*
X77552734Y-131433299D03*
X77552734Y-131933299D03*
X77552734Y-132433299D03*
D12*
X76715234Y-133270799D03*
X76215234Y-133270799D03*
X75715234Y-133270799D03*
X75215234Y-133270799D03*
X74715234Y-133270799D03*
X74215234Y-133270799D03*
X73715234Y-133270799D03*
X73215234Y-133270799D03*
X72715234Y-133270799D03*
D13*
X90425634Y-68311499D03*
D14*
X76050634Y-102111499D03*
X73075634Y-102111499D03*
D15*
X77975634Y-108061499D03*
X77975634Y-108561499D03*
X77975634Y-109061499D03*
X77975634Y-109561499D03*
X77975634Y-110061499D03*
X77975634Y-110561499D03*
X77975634Y-111061499D03*
X77975634Y-111561499D03*
X77975634Y-112061499D03*
X77975634Y-112561499D03*
X77975634Y-113061499D03*
X77975634Y-113561499D03*
X77975634Y-114061499D03*
X77975634Y-114561499D03*
X77475634Y-108061499D03*
X77475634Y-108561499D03*
X77475634Y-109061499D03*
X77475634Y-109561499D03*
X77475634Y-110061499D03*
X77475634Y-110561499D03*
X77475634Y-111061499D03*
X77475634Y-111561499D03*
X77475634Y-112061499D03*
X77475634Y-112561499D03*
X77475634Y-113061499D03*
X77475634Y-113561499D03*
X77475634Y-114061499D03*
X77475634Y-114561499D03*
X76975634Y-108061499D03*
X76975634Y-108561499D03*
X76975634Y-109061499D03*
X76975634Y-109561499D03*
X76975634Y-110061499D03*
X76975634Y-110561499D03*
X76975634Y-111061499D03*
X76975634Y-111561499D03*
X76975634Y-112061499D03*
X76975634Y-112561499D03*
X76975634Y-113061499D03*
X76975634Y-113561499D03*
X76975634Y-114061499D03*
X76975634Y-114561499D03*
X76475634Y-108061499D03*
X76475634Y-108561499D03*
X76475634Y-109061499D03*
X76475634Y-113561499D03*
X76475634Y-114061499D03*
X76475634Y-114561499D03*
X75975634Y-108061499D03*
X75975634Y-108561499D03*
X75975634Y-109061499D03*
X75975634Y-110061499D03*
X75975634Y-110561499D03*
X75975634Y-111061499D03*
X75975634Y-111561499D03*
X75975634Y-112061499D03*
X75975634Y-112561499D03*
X75975634Y-113561499D03*
X75975634Y-114061499D03*
X75975634Y-114561499D03*
X75475634Y-108061499D03*
X75475634Y-108561499D03*
X75475634Y-109061499D03*
X75475634Y-110061499D03*
X75475634Y-112561499D03*
X75475634Y-113561499D03*
X75475634Y-114061499D03*
X75475634Y-114561499D03*
X74975634Y-108061499D03*
X74975634Y-108561499D03*
X74975634Y-109061499D03*
X74975634Y-110061499D03*
X74975634Y-112561499D03*
X74975634Y-113561499D03*
X74975634Y-114061499D03*
X74975634Y-114561499D03*
X74475634Y-108061499D03*
X74475634Y-108561499D03*
X74475634Y-109061499D03*
X74475634Y-110061499D03*
X74475634Y-112561499D03*
X74475634Y-113561499D03*
X74475634Y-114061499D03*
X74475634Y-114561499D03*
X73975634Y-108061499D03*
X73975634Y-108561499D03*
X73975634Y-109061499D03*
X73975634Y-110061499D03*
X73975634Y-112561499D03*
X73975634Y-113561499D03*
X73975634Y-114061499D03*
X73975634Y-114561499D03*
X73475634Y-108061499D03*
X73475634Y-108561499D03*
X73475634Y-109061499D03*
X73475634Y-110061499D03*
X73475634Y-110561499D03*
X73475634Y-111061499D03*
X73475634Y-111561499D03*
X73475634Y-112061499D03*
X73475634Y-112561499D03*
X73475634Y-113561499D03*
X73475634Y-114061499D03*
X73475634Y-114561499D03*
X72975634Y-108061499D03*
X72975634Y-108561499D03*
X72975634Y-109061499D03*
X72975634Y-113061499D03*
X72975634Y-113561499D03*
X72975634Y-114061499D03*
X72975634Y-114561499D03*
X72475634Y-108061499D03*
X72475634Y-108561499D03*
X72475634Y-109061499D03*
X72475634Y-109561499D03*
X72475634Y-110061499D03*
X72475634Y-110561499D03*
X72475634Y-111061499D03*
X72475634Y-111561499D03*
X72475634Y-112061499D03*
X72475634Y-112561499D03*
X72475634Y-113061499D03*
X72475634Y-113561499D03*
X72475634Y-114061499D03*
X72475634Y-114561499D03*
X71975634Y-108061499D03*
X71975634Y-108561499D03*
X71975634Y-109061499D03*
X71975634Y-109561499D03*
X71975634Y-110061499D03*
X71975634Y-110561499D03*
X71975634Y-111061499D03*
X71975634Y-111561499D03*
X71975634Y-112061499D03*
X71975634Y-112561499D03*
X71975634Y-113061499D03*
X71975634Y-113561499D03*
X71975634Y-114061499D03*
X71975634Y-114561499D03*
X71475634Y-108061499D03*
X71475634Y-108561499D03*
X71475634Y-109061499D03*
X71475634Y-109561499D03*
X71475634Y-110061499D03*
X71475634Y-110561499D03*
X71475634Y-111061499D03*
X71475634Y-111561499D03*
X71475634Y-112061499D03*
X71475634Y-112561499D03*
X71475634Y-113061499D03*
X71475634Y-113561499D03*
X71475634Y-114061499D03*
X71475634Y-114561499D03*
D16*
X79275634Y-130141499D03*
X79275634Y-129181499D03*
D17*
X78964034Y-139458499D03*
X79464034Y-139458499D03*
X79964034Y-139458499D03*
X79964034Y-140608499D03*
X79464034Y-140608499D03*
D18*
X78964034Y-140558499D03*
D19*
X68815634Y-138611499D03*
X69775634Y-138611499D03*
D20*
X73215634Y-141811499D03*
D21*
X73753134Y-141886499D03*
D20*
X74290634Y-141811499D03*
X74290634Y-140111499D03*
D21*
X73753134Y-140036499D03*
D20*
X73215634Y-140111499D03*
D22*
X82755634Y-111561499D03*
X81795634Y-111561499D03*
D23*
X67359834Y-137123099D03*
X67359834Y-135273099D03*
X68809834Y-135273099D03*
X68809834Y-137123099D03*
D22*
X79255634Y-126061499D03*
X78295634Y-126061499D03*
D16*
X68364234Y-133376099D03*
X68364234Y-132416099D03*
D24*
X70680000Y-153440000D03*
D25*
X73190000Y-153190000D03*
X75790000Y-153190000D03*
D24*
X78300000Y-153440000D03*
D26*
X71971034Y-134720899D03*
X71971034Y-135740899D03*
D19*
X78984034Y-142268699D03*
X79944034Y-142268699D03*
X79469234Y-137976099D03*
X80429234Y-137976099D03*
D16*
X77686034Y-140437299D03*
X77686034Y-139477299D03*
D27*
X68525634Y-129461499D03*
X69545634Y-129461499D03*
D19*
X72495634Y-119061499D03*
X73455634Y-119061499D03*
D16*
X82225634Y-114711499D03*
X82225634Y-113751499D03*
D19*
X76145634Y-137061499D03*
X77105634Y-137061499D03*
D26*
X69735834Y-132384099D03*
X69735834Y-133404099D03*
D19*
X79215634Y-131311499D03*
X80175634Y-131311499D03*
D27*
X70385634Y-127261499D03*
X69365634Y-127261499D03*
D28*
X79275634Y-128211499D03*
X79275634Y-127191499D03*
M02*
